<svg width="339" height="123" viewBox="0 0 339 123" fill="none" xmlns="http://www.w3.org/2000/svg">
<path opacity="0.7" d="M100.118 115V116H101.578L101.05 114.639L100.118 115ZM62.03 16.744L62.9624 16.3826L62.7149 15.744H62.03V16.744ZM40.226 16.744V15.744H39.5366L39.2914 16.3883L40.226 16.744ZM2.828 115L1.89341 114.644L1.3774 116H2.828V115ZM22.01 115V116H22.7193L22.9538 115.331L22.01 115ZM29.6 93.334V92.334H28.8907L28.6562 93.0034L29.6 93.334ZM72.656 93.334L73.5979 92.998L73.361 92.334H72.656V93.334ZM80.384 115L79.4421 115.336L79.679 116H80.384V115ZM38.984 66.838L38.0477 66.4869L38.0439 66.4969L38.0403 66.5071L38.984 66.838ZM50.99 33.166L51.9378 32.847L50.9911 30.0342L50.0425 32.8463L50.99 33.166ZM63.134 66.838L64.0738 66.4963L64.0674 66.4786L64.0603 66.4612L63.134 66.838ZM66.998 77.464V78.464H68.4257L67.9378 77.1223L66.998 77.464ZM35.258 77.464L34.3143 77.1331L33.8477 78.464H35.258V77.464ZM101.05 114.639L62.9624 16.3826L61.0976 17.1054L99.1856 115.361L101.05 114.639ZM62.03 15.744H40.226V17.744H62.03V15.744ZM39.2914 16.3883L1.89341 114.644L3.76259 115.356L41.1606 17.0997L39.2914 16.3883ZM2.828 116H22.01V114H2.828V116ZM22.9538 115.331L30.5438 93.6646L28.6562 93.0034L21.0662 114.669L22.9538 115.331ZM29.6 94.334H72.656V92.334H29.6V94.334ZM71.7141 93.67L79.4421 115.336L81.3259 114.664L73.5979 92.998L71.7141 93.67ZM80.384 116H100.118V114H80.384V116ZM39.9203 67.1891C44.0639 56.1397 48.0697 44.9511 51.9375 33.4856L50.0425 32.8463C46.1823 44.2888 42.1841 55.4563 38.0477 66.4869L39.9203 67.1891ZM50.0422 33.485C54.8739 47.8419 58.8838 59.0434 62.2077 67.2148L64.0603 66.4612C60.7602 58.3485 56.7661 47.1941 51.9378 32.847L50.0422 33.485ZM62.1942 67.1797L66.0582 77.8057L67.9378 77.1223L64.0738 66.4963L62.1942 67.1797ZM66.998 76.464H35.258V78.464H66.998V76.464ZM36.2017 77.7949L39.9277 67.1689L38.0403 66.5071L34.3143 77.1331L36.2017 77.7949ZM184.171 63.25L183.718 62.3584L181.651 63.4081L183.833 64.1912L184.171 63.25ZM189.139 23.782L189.796 23.0282L189.786 23.0201L189.139 23.782ZM121.105 16.744V15.744H120.105V16.744H121.105ZM121.105 115H120.105V116H121.105V115ZM192.451 107.686L191.8 106.927L191.8 106.927L192.451 107.686ZM196.729 72.496L197.544 71.9172L197.54 71.9109L197.535 71.9046L196.729 72.496ZM174.925 35.374L175.589 34.6266L175.579 34.6177L175.569 34.6091L174.925 35.374ZM174.925 54.28L174.238 53.553L174.238 53.553L174.925 54.28ZM139.735 57.73H138.735V58.73H139.735V57.73ZM139.735 32.062V31.062H138.735V32.062H139.735ZM139.735 99.544H138.735V100.544H139.735V99.544ZM139.735 72.358V71.358H138.735V72.358H139.735ZM178.099 96.094L177.451 95.3321L177.451 95.3321L178.099 96.094ZM184.624 64.1416C189.103 61.8661 192.532 58.8881 194.835 55.188C197.139 51.4868 198.281 47.1229 198.281 42.136H196.281C196.281 46.8091 195.214 50.7942 193.137 54.131C191.059 57.4689 187.932 60.2179 183.718 62.3584L184.624 64.1416ZM198.281 42.136C198.281 34.4086 195.406 27.9189 189.796 23.0282L188.482 24.5358C193.636 29.0291 196.281 34.9594 196.281 42.136H198.281ZM189.786 23.0201C184.024 18.1219 175.894 15.744 165.541 15.744V17.744C175.612 17.744 183.214 20.0581 188.491 24.5439L189.786 23.0201ZM165.541 15.744H121.105V17.744H165.541V15.744ZM120.105 16.744V115H122.105V16.744H120.105ZM121.105 116H167.059V114H121.105V116ZM167.059 116C178.217 116 187.05 113.632 193.102 108.445L191.8 106.927C186.26 111.676 177.981 114 167.059 114V116ZM193.102 108.445C199.148 103.262 202.283 96.0695 202.283 86.848H200.283C200.283 95.5665 197.345 102.174 191.8 106.927L193.102 108.445ZM202.283 86.848C202.283 81.3995 200.702 76.3667 197.544 71.9172L195.913 73.0747C198.828 77.1813 200.283 81.8085 200.283 86.848H202.283ZM197.535 71.9046C194.38 67.6019 190.076 64.3073 184.509 62.3088L183.833 64.1912C189.03 66.0567 193.006 69.1101 195.922 73.0874L197.535 71.9046ZM164.161 33.062C168.557 33.062 171.891 34.1264 174.281 36.1389L175.569 34.6091C172.715 32.2056 168.872 31.062 164.161 31.062V33.062ZM174.26 36.1214C176.515 38.1258 177.789 40.8822 177.789 44.482H179.789C179.789 40.3538 178.302 37.0382 175.589 34.6266L174.26 36.1214ZM177.789 44.482C177.789 48.3865 176.495 51.4215 174.238 53.553L175.611 55.007C178.323 52.4465 179.789 48.8575 179.789 44.482H177.789ZM174.238 53.553C172.007 55.6599 168.709 56.73 164.161 56.73V58.73C168.997 58.73 172.874 57.5921 175.611 55.007L174.238 53.553ZM164.161 56.73H139.735V58.73H164.161V56.73ZM140.735 57.73V32.062H138.735V57.73H140.735ZM139.735 33.062H164.161V31.062H139.735V33.062ZM140.735 99.544V72.358H138.735V99.544H140.735ZM139.735 73.358H166.093V71.358H139.735V73.358ZM166.093 73.358C171.358 73.358 175.12 74.4752 177.556 76.5369C179.961 78.5715 181.239 81.668 181.239 86.02H183.239C183.239 81.264 181.826 77.5295 178.848 75.0101C175.903 72.5178 171.592 71.358 166.093 71.358V73.358ZM181.239 86.02C181.239 90.2072 179.943 93.2142 177.451 95.3321L178.746 96.8559C181.775 94.2818 183.239 90.6648 183.239 86.02H181.239ZM177.451 95.3321C174.945 97.4624 171.217 98.544 166.093 98.544V100.544C171.457 100.544 175.733 99.4176 178.746 96.8559L177.451 95.3321ZM166.093 98.544H139.735V100.544H166.093V98.544ZM299.297 106.996L298.677 106.211L298.67 106.218L299.297 106.996ZM313.925 78.016L314.92 78.1144L315.029 77.016H313.925V78.016ZM295.295 78.016V77.016H294.437L294.307 77.8639L295.295 78.016ZM286.463 94.852L285.825 94.082L285.823 94.0838L286.463 94.852ZM248.237 91.678L249.018 91.0533L249.011 91.0448L248.237 91.678ZM248.237 40.204L247.456 39.5793L247.456 39.5793L248.237 40.204ZM285.359 35.926L284.759 36.726L284.759 36.726L285.359 35.926ZM294.605 50.554L293.638 50.8064L293.833 51.554H294.605V50.554ZM313.511 50.554V51.554H314.706L314.496 50.3782L313.511 50.554ZM298.331 23.782L298.944 22.9919L298.937 22.9861L298.929 22.9804L298.331 23.782ZM234.437 28.336L235.165 29.0214L235.166 29.0207L234.437 28.336ZM234.575 103.27L235.309 102.59L235.304 102.585L235.298 102.579L234.575 103.27ZM268.937 118.208C280.872 118.208 291.173 114.832 299.925 107.774L298.67 106.218C290.309 112.96 280.463 116.208 268.937 116.208V118.208ZM299.917 107.781C308.723 100.821 313.657 90.8919 314.92 78.1144L312.93 77.9176C311.71 90.2561 306.983 99.6469 298.677 106.211L299.917 107.781ZM313.925 77.016H295.295V79.016H313.925V77.016ZM294.307 77.8639C293.232 84.8498 290.43 90.2666 285.825 94.082L287.101 95.622C292.157 91.4334 295.15 85.5342 296.284 78.1681L294.307 77.8639ZM285.823 94.0838C281.053 98.0591 275.49 99.924 268.937 99.924V101.924C275.909 101.924 281.938 99.9249 287.103 95.6202L285.823 94.0838ZM268.937 99.924C260.364 99.924 253.77 96.9932 249.018 91.0533L247.456 92.3027C252.64 98.7828 259.846 101.924 268.937 101.924V99.924ZM249.011 91.0448C244.24 85.2138 241.785 76.7772 241.785 65.872H239.785C239.785 77.0467 242.298 85.9982 247.463 92.3112L249.011 91.0448ZM241.785 65.872C241.785 55.1136 244.237 46.8057 249.018 40.8287L247.456 39.5793C242.302 46.0223 239.785 54.8264 239.785 65.872H241.785ZM249.018 40.8287C253.777 34.8797 260.377 31.82 268.937 31.82V29.82C259.833 29.82 252.633 33.1083 247.456 39.5793L249.018 40.8287ZM268.937 31.82C275.232 31.82 280.535 33.5579 284.759 36.726L285.959 35.126C281.351 31.6701 275.615 29.82 268.937 29.82V31.82ZM284.759 36.726C288.966 39.8808 292.029 44.6399 293.638 50.8064L295.573 50.3016C293.87 43.7721 290.585 38.5952 285.959 35.126L284.759 36.726ZM294.605 51.554H313.511V49.554H294.605V51.554ZM314.496 50.3782C312.389 38.5827 307.174 29.3769 298.944 22.9919L297.718 24.5721C305.497 30.607 310.493 39.3413 312.527 50.7298L314.496 50.3782ZM298.929 22.9804C290.6 16.7685 280.587 13.536 268.937 13.536V15.536C280.195 15.536 289.779 18.6515 297.733 24.5836L298.929 22.9804ZM268.937 13.536C254.349 13.536 242.479 18.3146 233.708 27.6513L235.166 29.0207C243.507 20.1414 254.821 15.536 268.937 15.536V13.536ZM233.709 27.6506C224.663 37.2622 220.327 49.9496 220.327 65.872H222.327C222.327 50.3304 226.548 38.1778 235.165 29.0214L233.709 27.6506ZM220.327 65.872C220.327 81.8002 224.804 94.4887 233.852 103.961L235.298 102.579C226.682 93.5593 222.327 81.4078 222.327 65.872H220.327ZM233.842 103.95C242.752 113.567 254.487 118.208 268.937 118.208V116.208C254.959 116.208 243.787 111.741 235.309 102.59L233.842 103.95Z" fill="white"/>
<rect width="333" height="123" fill="url(#paint0_linear_29_2530)"/>
<path d="M210.458 108L188.93 52.464H176.606L155.468 108H166.31L170.6 95.754H194.936L199.304 108H210.458ZM175.904 80.778C178.244 74.538 180.506 68.22 182.69 61.746C185.42 69.858 187.682 76.176 189.554 80.778L191.738 86.784H173.798L175.904 80.778ZM257.966 78.75C262.88 76.254 265.376 72.276 265.376 66.816C265.376 62.604 263.816 59.094 260.774 56.442C257.654 53.79 253.208 52.464 247.436 52.464H222.32V108H248.294C254.534 108 259.37 106.674 262.646 103.866C265.922 101.058 267.638 97.158 267.638 92.088C267.638 89.124 266.78 86.394 265.064 83.976C263.348 81.636 261.008 79.842 257.966 78.75ZM246.656 61.122C249.23 61.122 251.258 61.746 252.74 62.994C254.144 64.242 254.924 65.958 254.924 68.142C254.924 70.482 254.144 72.354 252.74 73.68C251.336 75.006 249.308 75.63 246.656 75.63H232.85V61.122H246.656ZM232.85 99.264V83.898H247.748C253.832 83.898 256.874 86.472 256.874 91.62C256.874 94.116 256.094 95.988 254.534 97.314C252.974 98.64 250.712 99.264 247.748 99.264H232.85ZM305.878 109.248C312.508 109.248 318.202 107.376 323.038 103.476C327.874 99.654 330.604 94.194 331.306 87.096H320.776C320.152 91.152 318.514 94.35 315.784 96.612C312.976 98.952 309.7 100.044 305.878 100.044C300.886 100.044 296.986 98.328 294.178 94.818C291.37 91.386 289.966 86.472 289.966 80.232C289.966 74.07 291.37 69.234 294.178 65.724C296.986 62.214 300.886 60.42 305.878 60.42C309.544 60.42 312.664 61.434 315.16 63.306C317.656 65.178 319.45 67.986 320.386 71.574H331.072C329.902 65.022 327.016 59.952 322.492 56.442C317.89 53.01 312.352 51.216 305.878 51.216C297.766 51.216 291.214 53.868 286.378 59.016C281.386 64.32 278.968 71.34 278.968 80.232C278.968 89.124 281.464 96.144 286.456 101.37C291.37 106.674 297.844 109.248 305.878 109.248Z" fill="white"/>
<defs>
<linearGradient id="paint0_linear_29_2530" x1="166.5" y1="0" x2="166.5" y2="123" gradientUnits="userSpaceOnUse">
<stop stop-color="#111019" stop-opacity="0.3"/>
<stop offset="1" stop-color="#111019"/>
</linearGradient>
</defs>
</svg>
