<svg width="537" height="259" viewBox="0 0 537 259" fill="none" xmlns="http://www.w3.org/2000/svg">
<rect width="537" height="259" fill="#20262F"/>
<path d="M27.1985 31V20.0909H31.087C31.9357 20.0909 32.6388 20.2454 33.1964 20.5543C33.7539 20.8633 34.1712 21.2859 34.4482 21.8221C34.7251 22.3548 34.8636 22.9549 34.8636 23.6225C34.8636 24.2937 34.7234 24.8974 34.4428 25.4336C34.1658 25.9663 33.7468 26.3888 33.1857 26.7013C32.6282 27.0103 31.9268 27.1648 31.0817 27.1648H28.4077V25.7692H30.9325C31.4688 25.7692 31.9038 25.6768 32.2376 25.4922C32.5714 25.304 32.8164 25.0483 32.9727 24.7251C33.1289 24.402 33.207 24.0344 33.207 23.6225C33.207 23.2106 33.1289 22.8448 32.9727 22.5252C32.8164 22.2056 32.5696 21.9553 32.2322 21.7741C31.8984 21.593 31.4581 21.5025 30.9112 21.5025H28.8445V31H27.1985ZM36.6654 31V22.8182H38.2048V24.1179H38.29C38.4392 23.6776 38.702 23.3313 39.0784 23.0792C39.4584 22.8235 39.8881 22.6957 40.3675 22.6957C40.4669 22.6957 40.5841 22.6992 40.719 22.7063C40.8575 22.7134 40.9658 22.7223 41.0439 22.733V24.2564C40.98 24.2386 40.8664 24.2191 40.703 24.1978C40.5397 24.1729 40.3763 24.1605 40.213 24.1605C39.8366 24.1605 39.501 24.2404 39.2062 24.4002C38.915 24.5565 38.6842 24.7749 38.5138 25.0554C38.3433 25.3324 38.2581 25.6484 38.2581 26.0036V31H36.6654ZM42.4222 31V22.8182H44.0149V31H42.4222ZM43.2266 21.5558C42.9496 21.5558 42.7116 21.4634 42.5128 21.2788C42.3175 21.0906 42.2198 20.8668 42.2198 20.6076C42.2198 20.3448 42.3175 20.1211 42.5128 19.9364C42.7116 19.7482 42.9496 19.6541 43.2266 19.6541C43.5036 19.6541 43.7397 19.7482 43.935 19.9364C44.1339 20.1211 44.2333 20.3448 44.2333 20.6076C44.2333 20.8668 44.1339 21.0906 43.935 21.2788C43.7397 21.4634 43.5036 21.5558 43.2266 21.5558ZM46.1576 31V22.8182H47.6863V24.1499H47.7876C47.958 23.6989 48.2368 23.3473 48.6238 23.0952C49.0109 22.8395 49.4743 22.7116 50.0141 22.7116C50.561 22.7116 51.0191 22.8395 51.3884 23.0952C51.7613 23.3509 52.0365 23.7024 52.214 24.1499H52.2993C52.4946 23.7131 52.8053 23.3651 53.2314 23.1058C53.6576 22.843 54.1654 22.7116 54.7549 22.7116C55.4971 22.7116 56.1025 22.9442 56.5713 23.4094C57.0436 23.8746 57.2797 24.576 57.2797 25.5135V31H55.6871V25.6626C55.6871 25.1087 55.5361 24.7074 55.2343 24.4588C54.9324 24.2102 54.572 24.0859 54.153 24.0859C53.6345 24.0859 53.2314 24.2457 52.9438 24.5653C52.6562 24.8814 52.5123 25.288 52.5123 25.7852V31H50.925V25.5614C50.925 25.1175 50.7865 24.7607 50.5095 24.4908C50.2325 24.2209 49.8721 24.0859 49.4282 24.0859C49.1263 24.0859 48.8476 24.1658 48.5919 24.3256C48.3398 24.4819 48.1356 24.7003 47.9793 24.9808C47.8266 25.2614 47.7503 25.5863 47.7503 25.9556V31H46.1576ZM61.7955 31.1811C61.277 31.1811 60.8082 31.0852 60.3892 30.8935C59.9702 30.6982 59.6381 30.4158 59.3931 30.0465C59.1516 29.6772 59.0309 29.2244 59.0309 28.6882C59.0309 28.2266 59.1197 27.8466 59.2972 27.5483C59.4748 27.25 59.7145 27.0138 60.0163 26.8398C60.3182 26.6658 60.6555 26.5344 61.0284 26.4457C61.4013 26.3569 61.7813 26.2894 62.1683 26.2433C62.6584 26.1864 63.0561 26.1403 63.3615 26.1048C63.6669 26.0657 63.8888 26.0036 64.0273 25.9183C64.1658 25.8331 64.2351 25.6946 64.2351 25.5028V25.4656C64.2351 25.0004 64.1037 24.6399 63.8409 24.3842C63.5817 24.1286 63.1946 24.0007 62.6797 24.0007C62.1435 24.0007 61.7209 24.1197 61.4119 24.3576C61.1065 24.592 60.8952 24.853 60.7781 25.1406L59.2812 24.7997C59.4588 24.3026 59.718 23.9013 60.0589 23.5959C60.4034 23.2869 60.7994 23.0632 61.2468 22.9247C61.6942 22.7827 62.1648 22.7116 62.6584 22.7116C62.9851 22.7116 63.3313 22.7507 63.6971 22.8288C64.0664 22.9034 64.4109 23.0419 64.7305 23.2443C65.0536 23.4467 65.3182 23.7362 65.5241 24.1126C65.7301 24.4854 65.8331 24.9702 65.8331 25.5668V31H64.2777V29.8814H64.2138C64.1108 30.0874 63.9563 30.2898 63.7504 30.4886C63.5444 30.6875 63.2798 30.8526 62.9567 30.984C62.6335 31.1154 62.2464 31.1811 61.7955 31.1811ZM62.1417 29.9027C62.582 29.9027 62.9585 29.8157 63.271 29.6417C63.587 29.4677 63.8267 29.2404 63.9901 28.9599C64.157 28.6758 64.2404 28.3722 64.2404 28.049V26.9943C64.1836 27.0511 64.0735 27.1044 63.9102 27.1541C63.7504 27.2003 63.5675 27.2411 63.3615 27.2766C63.1555 27.3086 62.9549 27.3388 62.7596 27.3672C62.5643 27.392 62.4009 27.4134 62.2695 27.4311C61.9606 27.4702 61.6783 27.5359 61.4226 27.6282C61.1705 27.7205 60.968 27.8537 60.8153 28.0277C60.6662 28.1982 60.5916 28.4254 60.5916 28.7095C60.5916 29.1037 60.7372 29.402 61.0284 29.6044C61.3196 29.8033 61.6907 29.9027 62.1417 29.9027ZM67.9545 31V22.8182H69.4939V24.1179H69.5791C69.7282 23.6776 69.991 23.3313 70.3675 23.0792C70.7474 22.8235 71.1771 22.6957 71.6565 22.6957C71.7559 22.6957 71.8731 22.6992 72.0081 22.7063C72.1466 22.7134 72.2549 22.7223 72.333 22.733V24.2564C72.2691 24.2386 72.1555 24.2191 71.9921 24.1978C71.8287 24.1729 71.6654 24.1605 71.502 24.1605C71.1256 24.1605 70.79 24.2404 70.4953 24.4002C70.2041 24.5565 69.9733 24.7749 69.8028 25.0554C69.6324 25.3324 69.5471 25.6484 69.5471 26.0036V31H67.9545ZM74.9671 34.0682C74.7291 34.0682 74.5125 34.0487 74.3172 34.0096C74.1219 33.9741 73.9763 33.935 73.8804 33.8924L74.2639 32.5874C74.5551 32.6655 74.8144 32.6992 75.0416 32.6886C75.2689 32.6779 75.4695 32.5927 75.6436 32.4329C75.8211 32.2731 75.9774 32.0121 76.1123 31.6499L76.3094 31.1065L73.3158 22.8182H75.0203L77.0924 29.1676H77.1776L79.2497 22.8182H80.9596L77.5878 32.092C77.4316 32.5181 77.2327 32.8786 76.9912 33.1733C76.7497 33.4716 76.4621 33.6953 76.1283 33.8445C75.7945 33.9936 75.4074 34.0682 74.9671 34.0682ZM86.554 31V20.0909H90.549C91.3232 20.0909 91.9641 20.2187 92.4719 20.4744C92.9798 20.7266 93.3597 21.0692 93.6119 21.5025C93.864 21.9322 93.9901 22.4169 93.9901 22.9567C93.9901 23.4112 93.9066 23.7947 93.7397 24.1072C93.5728 24.4162 93.3491 24.6648 93.0685 24.853C92.7915 25.0376 92.4862 25.1726 92.1523 25.2578V25.3643C92.5146 25.3821 92.8679 25.4993 93.2124 25.7159C93.5604 25.929 93.848 26.2326 94.0753 26.6268C94.3026 27.021 94.4162 27.5004 94.4162 28.065C94.4162 28.6225 94.2848 29.1232 94.022 29.5671C93.7628 30.0075 93.3615 30.3572 92.8182 30.6165C92.2749 30.8722 91.5806 31 90.7354 31H86.554ZM88.1999 29.5884H90.5756C91.364 29.5884 91.9286 29.4357 92.2695 29.1303C92.6104 28.8249 92.7809 28.4432 92.7809 27.9851C92.7809 27.6406 92.6939 27.3246 92.5199 27.0369C92.3459 26.7493 92.0973 26.5202 91.7741 26.3498C91.4545 26.1793 91.0746 26.0941 90.6342 26.0941H88.1999V29.5884ZM88.1999 24.8104H90.4052C90.7745 24.8104 91.1065 24.7393 91.4013 24.5973C91.6996 24.4553 91.9357 24.2564 92.1097 24.0007C92.2873 23.7415 92.3761 23.4361 92.3761 23.0845C92.3761 22.6335 92.218 22.2553 91.902 21.9499C91.5859 21.6445 91.1012 21.4918 90.4478 21.4918H88.1999V24.8104ZM101.423 27.6069V22.8182H103.021V31H101.455V29.5831H101.37C101.182 30.0199 100.88 30.3839 100.465 30.6751C100.053 30.9627 99.5396 31.1065 98.9252 31.1065C98.3997 31.1065 97.9345 30.9911 97.5297 30.7603C97.1284 30.5259 96.8123 30.1797 96.5815 29.7216C96.3542 29.2635 96.2406 28.6971 96.2406 28.0224V22.8182H97.8333V27.8306C97.8333 28.3881 97.9877 28.832 98.2967 29.1623C98.6056 29.4925 99.0069 29.6577 99.5005 29.6577C99.7988 29.6577 100.095 29.5831 100.39 29.4339C100.688 29.2848 100.935 29.0593 101.131 28.7575C101.329 28.4556 101.427 28.0721 101.423 27.6069ZM108.981 22.8182V24.0966H104.512V22.8182H108.981ZM105.71 20.858H107.303V28.5977C107.303 28.9066 107.349 29.1392 107.441 29.2955C107.534 29.4482 107.653 29.5529 107.798 29.6097C107.947 29.663 108.109 29.6896 108.283 29.6896C108.411 29.6896 108.523 29.6808 108.619 29.663C108.714 29.6452 108.789 29.631 108.842 29.6204L109.13 30.9361C109.038 30.9716 108.906 31.0071 108.736 31.0426C108.565 31.0817 108.352 31.103 108.097 31.1065C107.677 31.1136 107.287 31.0391 106.925 30.8828C106.562 30.7266 106.269 30.4851 106.046 30.1584C105.822 29.8317 105.71 29.4215 105.71 28.9279V20.858ZM114.562 22.8182V24.0966H110.093V22.8182H114.562ZM111.291 20.858H112.884V28.5977C112.884 28.9066 112.93 29.1392 113.022 29.2955C113.115 29.4482 113.234 29.5529 113.379 29.6097C113.528 29.663 113.69 29.6896 113.864 29.6896C113.992 29.6896 114.104 29.6808 114.2 29.663C114.295 29.6452 114.37 29.631 114.423 29.6204L114.711 30.9361C114.619 30.9716 114.487 31.0071 114.317 31.0426C114.146 31.0817 113.933 31.103 113.678 31.1065C113.259 31.1136 112.868 31.0391 112.506 30.8828C112.143 30.7266 111.85 30.4851 111.627 30.1584C111.403 29.8317 111.291 29.4215 111.291 28.9279V20.858ZM119.682 31.1651C118.915 31.1651 118.246 30.9893 117.674 30.6378C117.102 30.2862 116.658 29.7944 116.342 29.1623C116.026 28.5302 115.868 27.7915 115.868 26.9464C115.868 26.0977 116.026 25.3555 116.342 24.7198C116.658 24.0842 117.102 23.5906 117.674 23.239C118.246 22.8874 118.915 22.7116 119.682 22.7116C120.449 22.7116 121.119 22.8874 121.69 23.239C122.262 23.5906 122.706 24.0842 123.022 24.7198C123.338 25.3555 123.496 26.0977 123.496 26.9464C123.496 27.7915 123.338 28.5302 123.022 29.1623C122.706 29.7944 122.262 30.2862 121.69 30.6378C121.119 30.9893 120.449 31.1651 119.682 31.1651ZM119.687 29.8281C120.185 29.8281 120.597 29.6967 120.923 29.4339C121.25 29.1712 121.491 28.8214 121.648 28.3846C121.807 27.9478 121.887 27.4666 121.887 26.9411C121.887 26.419 121.807 25.9396 121.648 25.5028C121.491 25.0625 121.25 24.7092 120.923 24.4428C120.597 24.1765 120.185 24.0433 119.687 24.0433C119.187 24.0433 118.771 24.1765 118.441 24.4428C118.114 24.7092 117.871 25.0625 117.711 25.5028C117.555 25.9396 117.477 26.419 117.477 26.9411C117.477 27.4666 117.555 27.9478 117.711 28.3846C117.871 28.8214 118.114 29.1712 118.441 29.4339C118.771 29.6967 119.187 29.8281 119.687 29.8281ZM126.866 26.142V31H125.274V22.8182H126.803V24.1499H126.904C127.092 23.7166 127.387 23.3686 127.788 23.1058C128.193 22.843 128.702 22.7116 129.317 22.7116C129.874 22.7116 130.363 22.8288 130.782 23.0632C131.201 23.294 131.526 23.6385 131.756 24.0966C131.987 24.5547 132.103 25.1211 132.103 25.7958V31H130.51V25.9876C130.51 25.3945 130.355 24.9311 130.047 24.5973C129.738 24.2599 129.313 24.0913 128.773 24.0913C128.404 24.0913 128.076 24.1712 127.788 24.331C127.504 24.4908 127.278 24.7251 127.112 25.0341C126.948 25.3395 126.866 25.7088 126.866 26.142ZM140.37 24.8157L138.926 25.0714C138.866 24.8867 138.77 24.7109 138.638 24.544C138.511 24.3771 138.337 24.2404 138.116 24.1339C137.896 24.0273 137.621 23.9741 137.291 23.9741C136.84 23.9741 136.463 24.0753 136.162 24.2777C135.86 24.4766 135.709 24.734 135.709 25.0501C135.709 25.3235 135.81 25.5437 136.012 25.7106C136.215 25.8775 136.542 26.0142 136.993 26.1207L138.292 26.419C139.045 26.593 139.606 26.8612 139.975 27.2234C140.345 27.5856 140.529 28.0561 140.529 28.6349C140.529 29.125 140.387 29.5618 140.103 29.9453C139.823 30.3253 139.43 30.6236 138.926 30.8402C138.425 31.0568 137.845 31.1651 137.184 31.1651C136.268 31.1651 135.521 30.9698 134.942 30.5792C134.363 30.185 134.008 29.6257 133.876 28.9013L135.416 28.6669C135.512 29.0682 135.709 29.3718 136.007 29.5778C136.305 29.7802 136.694 29.8814 137.174 29.8814C137.696 29.8814 138.113 29.7731 138.425 29.5565C138.738 29.3363 138.894 29.0682 138.894 28.7521C138.894 28.4964 138.798 28.2816 138.607 28.1076C138.418 27.9336 138.129 27.8022 137.738 27.7134L136.353 27.4098C135.59 27.2358 135.025 26.9588 134.659 26.5788C134.297 26.1989 134.116 25.7177 134.116 25.1353C134.116 24.6523 134.251 24.2298 134.521 23.8675C134.791 23.5053 135.164 23.223 135.64 23.0206C136.115 22.8146 136.661 22.7116 137.275 22.7116C138.159 22.7116 138.855 22.9034 139.363 23.2869C139.871 23.6669 140.206 24.1765 140.37 24.8157Z" fill="white"/>
<path d="M33.1484 141.957C33.0916 141.452 32.8572 141.062 32.4453 140.785C32.0334 140.504 31.5149 140.364 30.8899 140.364C30.4425 140.364 30.0554 140.435 29.7287 140.577C29.402 140.716 29.1481 140.907 28.967 141.152C28.7894 141.394 28.7006 141.669 28.7006 141.978C28.7006 142.237 28.761 142.461 28.8817 142.649C29.006 142.837 29.1676 142.995 29.3665 143.123C29.5689 143.248 29.7855 143.352 30.0163 143.438C30.2472 143.519 30.4691 143.587 30.6822 143.64L31.7475 143.917C32.0955 144.002 32.4524 144.118 32.8182 144.263C33.1839 144.409 33.5231 144.6 33.8356 144.838C34.1481 145.076 34.4002 145.371 34.592 145.723C34.7873 146.074 34.8849 146.495 34.8849 146.985C34.8849 147.603 34.7251 148.152 34.4055 148.631C34.0895 149.11 33.6296 149.489 33.0259 149.766C32.4258 150.043 31.6996 150.181 30.8473 150.181C30.0305 150.181 29.3239 150.051 28.7273 149.792C28.1307 149.533 27.6637 149.165 27.3263 148.69C26.989 148.21 26.8026 147.642 26.767 146.985H28.4183C28.4503 147.379 28.5781 147.708 28.8018 147.971C29.0291 148.23 29.3185 148.423 29.6701 148.551C30.0252 148.675 30.4141 148.738 30.8366 148.738C31.3018 148.738 31.7156 148.665 32.0778 148.519C32.4435 148.37 32.7312 148.164 32.9407 147.901C33.1502 147.635 33.255 147.324 33.255 146.969C33.255 146.646 33.1626 146.381 32.978 146.175C32.7969 145.969 32.5501 145.799 32.2376 145.664C31.9286 145.529 31.5788 145.41 31.1882 145.307L29.8991 144.956C29.0256 144.718 28.3331 144.368 27.8217 143.906C27.3139 143.445 27.06 142.834 27.06 142.074C27.06 141.445 27.2305 140.897 27.5714 140.428C27.9123 139.959 28.3739 139.595 28.9563 139.336C29.5387 139.073 30.1957 138.942 30.9272 138.942C31.6658 138.942 32.3175 139.071 32.8821 139.331C33.4503 139.59 33.8977 139.947 34.2244 140.401C34.5511 140.852 34.7216 141.371 34.7358 141.957H33.1484ZM40.2503 150.165C39.4442 150.165 38.7499 149.993 38.1675 149.648C37.5887 149.3 37.1412 148.812 36.8252 148.184C36.5127 147.551 36.3564 146.811 36.3564 145.962C36.3564 145.124 36.5127 144.386 36.8252 143.746C37.1412 143.107 37.5816 142.608 38.1462 142.25C38.7144 141.891 39.3785 141.712 40.1384 141.712C40.6001 141.712 41.0475 141.788 41.4807 141.941C41.914 142.093 42.3028 142.333 42.6473 142.66C42.9917 142.987 43.2634 143.411 43.4623 143.933C43.6611 144.451 43.7606 145.082 43.7606 145.824V146.388H37.2567V145.195H42.1998C42.1998 144.776 42.1146 144.405 41.9442 144.082C41.7737 143.755 41.534 143.498 41.2251 143.31C40.9197 143.121 40.561 143.027 40.1491 143.027C39.7016 143.027 39.311 143.137 38.9772 143.358C38.6469 143.574 38.3912 143.858 38.2101 144.21C38.0326 144.558 37.9438 144.936 37.9438 145.344V146.277C37.9438 146.824 38.0397 147.289 38.2314 147.672C38.4268 148.056 38.6984 148.349 39.0464 148.551C39.3944 148.75 39.801 148.849 40.2662 148.849C40.5681 148.849 40.8433 148.807 41.0919 148.722C41.3405 148.633 41.5553 148.501 41.7364 148.327C41.9175 148.153 42.056 147.939 42.1519 147.683L43.6594 147.955C43.5386 148.398 43.322 148.787 43.0095 149.121C42.7006 149.451 42.3117 149.709 41.843 149.893C41.3778 150.075 40.8469 150.165 40.2503 150.165ZM48.9741 150.165C48.1822 150.165 47.5004 149.986 46.9286 149.627C46.3604 149.265 45.9237 148.766 45.6183 148.13C45.3129 147.495 45.1602 146.767 45.1602 145.946C45.1602 145.115 45.3164 144.382 45.6289 143.746C45.9414 143.107 46.3817 142.608 46.9499 142.25C47.5181 141.891 48.1875 141.712 48.9581 141.712C49.5795 141.712 50.1335 141.827 50.62 142.058C51.1065 142.285 51.4989 142.605 51.7972 143.017C52.0991 143.429 52.2784 143.91 52.3352 144.46H50.7852C50.6999 144.077 50.5046 143.746 50.1992 143.469C49.8974 143.192 49.4925 143.054 48.9847 143.054C48.5408 143.054 48.152 143.171 47.8182 143.406C47.4879 143.636 47.2305 143.967 47.0458 144.396C46.8612 144.822 46.7688 145.327 46.7688 145.909C46.7688 146.506 46.8594 147.021 47.0405 147.454C47.2216 147.887 47.4773 148.223 47.8075 148.461C48.1413 148.699 48.5337 148.817 48.9847 148.817C49.2866 148.817 49.56 148.762 49.805 148.652C50.0536 148.539 50.2614 148.377 50.4283 148.168C50.5987 147.958 50.7177 147.706 50.7852 147.411H52.3352C52.2784 147.94 52.1062 148.413 51.8185 148.828C51.5309 149.244 51.1456 149.57 50.6626 149.808C50.1832 150.046 49.6204 150.165 48.9741 150.165ZM57.4848 150.165C56.7178 150.165 56.0484 149.989 55.4767 149.638C54.9049 149.286 54.461 148.794 54.145 148.162C53.8289 147.53 53.6709 146.792 53.6709 145.946C53.6709 145.098 53.8289 144.355 54.145 143.72C54.461 143.084 54.9049 142.591 55.4767 142.239C56.0484 141.887 56.7178 141.712 57.4848 141.712C58.2519 141.712 58.9213 141.887 59.493 142.239C60.0647 142.591 60.5086 143.084 60.8247 143.72C61.1407 144.355 61.2987 145.098 61.2987 145.946C61.2987 146.792 61.1407 147.53 60.8247 148.162C60.5086 148.794 60.0647 149.286 59.493 149.638C58.9213 149.989 58.2519 150.165 57.4848 150.165ZM57.4901 148.828C57.9873 148.828 58.3992 148.697 58.7259 148.434C59.0526 148.171 59.2941 147.821 59.4504 147.385C59.6102 146.948 59.6901 146.467 59.6901 145.941C59.6901 145.419 59.6102 144.94 59.4504 144.503C59.2941 144.062 59.0526 143.709 58.7259 143.443C58.3992 143.176 57.9873 143.043 57.4901 143.043C56.9894 143.043 56.574 143.176 56.2437 143.443C55.917 143.709 55.6737 144.062 55.5139 144.503C55.3577 144.94 55.2796 145.419 55.2796 145.941C55.2796 146.467 55.3577 146.948 55.5139 147.385C55.6737 147.821 55.917 148.171 56.2437 148.434C56.574 148.697 56.9894 148.828 57.4901 148.828ZM64.6692 145.142V150H63.0765V141.818H64.6053V143.15H64.7065C64.8947 142.717 65.1895 142.369 65.5907 142.106C65.9956 141.843 66.5051 141.712 67.1195 141.712C67.677 141.712 68.1653 141.829 68.5843 142.063C69.0034 142.294 69.3283 142.638 69.5591 143.097C69.79 143.555 69.9054 144.121 69.9054 144.796V150H68.3127V144.988C68.3127 144.395 68.1582 143.931 67.8493 143.597C67.5403 143.26 67.1159 143.091 66.5762 143.091C66.2069 143.091 65.8784 143.171 65.5907 143.331C65.3066 143.491 65.0811 143.725 64.9142 144.034C64.7509 144.339 64.6692 144.709 64.6692 145.142ZM75.1042 150.16C74.4437 150.16 73.8542 149.991 73.3358 149.654C72.8208 149.313 72.416 148.828 72.1213 148.2C71.8301 147.567 71.6845 146.809 71.6845 145.925C71.6845 145.041 71.8319 144.284 72.1266 143.656C72.4249 143.027 72.8333 142.546 73.3517 142.212C73.8702 141.879 74.4579 141.712 75.1149 141.712C75.6227 141.712 76.0311 141.797 76.34 141.967C76.6525 142.134 76.894 142.33 77.0645 142.553C77.2385 142.777 77.3734 142.974 77.4693 143.145H77.5652V139.091H79.1578V150H77.6025V148.727H77.4693C77.3734 148.901 77.2349 149.1 77.0538 149.324C76.8762 149.547 76.6312 149.743 76.3187 149.909C76.0062 150.076 75.6014 150.16 75.1042 150.16ZM75.4558 148.801C75.9139 148.801 76.301 148.681 76.617 148.439C76.9366 148.194 77.1781 147.855 77.3414 147.422C77.5083 146.989 77.5918 146.484 77.5918 145.909C77.5918 145.341 77.5101 144.844 77.3468 144.418C77.1834 143.991 76.9437 143.659 76.6277 143.422C76.3116 143.184 75.921 143.065 75.4558 143.065C74.9764 143.065 74.5769 143.189 74.2573 143.438C73.9377 143.686 73.6962 144.025 73.5328 144.455C73.373 144.885 73.2931 145.369 73.2931 145.909C73.2931 146.456 73.3748 146.948 73.5382 147.385C73.7015 147.821 73.943 148.168 74.2626 148.423C74.5858 148.675 74.9835 148.801 75.4558 148.801ZM83.8121 150.181C83.2936 150.181 82.8248 150.085 82.4058 149.893C81.9868 149.698 81.6547 149.416 81.4097 149.047C81.1682 148.677 81.0475 148.224 81.0475 147.688C81.0475 147.227 81.1363 146.847 81.3138 146.548C81.4914 146.25 81.7311 146.014 82.0329 145.84C82.3348 145.666 82.6721 145.534 83.045 145.446C83.4179 145.357 83.7979 145.289 84.1849 145.243C84.675 145.186 85.0727 145.14 85.3781 145.105C85.6835 145.066 85.9055 145.004 86.0439 144.918C86.1824 144.833 86.2517 144.695 86.2517 144.503V144.466C86.2517 144 86.1203 143.64 85.8575 143.384C85.5983 143.129 85.2112 143.001 84.6963 143.001C84.1601 143.001 83.7375 143.12 83.4285 143.358C83.1231 143.592 82.9118 143.853 82.7947 144.141L81.2979 143.8C81.4754 143.303 81.7346 142.901 82.0756 142.596C82.42 142.287 82.816 142.063 83.2634 141.925C83.7108 141.783 84.1814 141.712 84.675 141.712C85.0017 141.712 85.3479 141.751 85.7137 141.829C86.083 141.903 86.4275 142.042 86.7471 142.244C87.0702 142.447 87.3348 142.736 87.5407 143.113C87.7467 143.485 87.8497 143.97 87.8497 144.567V150H86.2943V148.881H86.2304C86.1274 149.087 85.9729 149.29 85.767 149.489C85.561 149.687 85.2964 149.853 84.9733 149.984C84.6501 150.115 84.2631 150.181 83.8121 150.181ZM84.1583 148.903C84.5986 148.903 84.9751 148.816 85.2876 148.642C85.6036 148.468 85.8433 148.24 86.0067 147.96C86.1736 147.676 86.257 147.372 86.257 147.049V145.994C86.2002 146.051 86.0901 146.104 85.9268 146.154C85.767 146.2 85.5841 146.241 85.3781 146.277C85.1721 146.309 84.9715 146.339 84.7762 146.367C84.5809 146.392 84.4175 146.413 84.2861 146.431C83.9772 146.47 83.6949 146.536 83.4392 146.628C83.1871 146.721 82.9846 146.854 82.8319 147.028C82.6828 147.198 82.6082 147.425 82.6082 147.71C82.6082 148.104 82.7538 148.402 83.045 148.604C83.3362 148.803 83.7073 148.903 84.1583 148.903ZM89.9711 150V141.818H91.5105V143.118H91.5957C91.7449 142.678 92.0076 142.331 92.3841 142.079C92.764 141.824 93.1937 141.696 93.6731 141.696C93.7725 141.696 93.8897 141.699 94.0247 141.706C94.1632 141.713 94.2715 141.722 94.3496 141.733V143.256C94.2857 143.239 94.1721 143.219 94.0087 143.198C93.8453 143.173 93.682 143.161 93.5186 143.161C93.1422 143.161 92.8066 143.24 92.5119 143.4C92.2207 143.556 91.9899 143.775 91.8194 144.055C91.649 144.332 91.5637 144.648 91.5637 145.004V150H89.9711ZM96.9837 153.068C96.7457 153.068 96.5291 153.049 96.3338 153.01C96.1385 152.974 95.9929 152.935 95.897 152.892L96.2805 151.587C96.5717 151.665 96.831 151.699 97.0582 151.689C97.2855 151.678 97.4862 151.593 97.6602 151.433C97.8377 151.273 97.994 151.012 98.1289 150.65L98.326 150.107L95.3324 141.818H97.0369L99.109 148.168H99.1942L101.266 141.818H102.976L99.6044 151.092C99.4482 151.518 99.2493 151.879 99.0078 152.173C98.7663 152.472 98.4787 152.695 98.1449 152.844C97.8111 152.994 97.424 153.068 96.9837 153.068ZM108.571 150V139.091H112.566C113.34 139.091 113.981 139.219 114.489 139.474C114.996 139.727 115.376 140.069 115.628 140.502C115.881 140.932 116.007 141.417 116.007 141.957C116.007 142.411 115.923 142.795 115.756 143.107C115.589 143.416 115.366 143.665 115.085 143.853C114.808 144.038 114.503 144.173 114.169 144.258V144.364C114.531 144.382 114.884 144.499 115.229 144.716C115.577 144.929 115.865 145.233 116.092 145.627C116.319 146.021 116.433 146.5 116.433 147.065C116.433 147.623 116.301 148.123 116.039 148.567C115.779 149.007 115.378 149.357 114.835 149.616C114.291 149.872 113.597 150 112.752 150H108.571ZM110.217 148.588H112.592C113.381 148.588 113.945 148.436 114.286 148.13C114.627 147.825 114.797 147.443 114.797 146.985C114.797 146.641 114.71 146.325 114.536 146.037C114.362 145.749 114.114 145.52 113.791 145.35C113.471 145.179 113.091 145.094 112.651 145.094H110.217V148.588ZM110.217 143.81H112.422C112.791 143.81 113.123 143.739 113.418 143.597C113.716 143.455 113.952 143.256 114.126 143.001C114.304 142.741 114.393 142.436 114.393 142.085C114.393 141.634 114.235 141.255 113.919 140.95C113.603 140.645 113.118 140.492 112.464 140.492H110.217V143.81ZM123.44 146.607V141.818H125.038V150H123.472V148.583H123.387C123.199 149.02 122.897 149.384 122.481 149.675C122.069 149.963 121.556 150.107 120.942 150.107C120.416 150.107 119.951 149.991 119.546 149.76C119.145 149.526 118.829 149.18 118.598 148.722C118.371 148.263 118.257 147.697 118.257 147.022V141.818H119.85V146.831C119.85 147.388 120.004 147.832 120.313 148.162C120.622 148.493 121.024 148.658 121.517 148.658C121.815 148.658 122.112 148.583 122.407 148.434C122.705 148.285 122.952 148.059 123.147 147.757C123.346 147.456 123.444 147.072 123.44 146.607ZM130.997 141.818V143.097H126.528V141.818H130.997ZM127.727 139.858H129.319V147.598C129.319 147.907 129.366 148.139 129.458 148.295C129.55 148.448 129.669 148.553 129.815 148.61C129.964 148.663 130.126 148.69 130.3 148.69C130.427 148.69 130.539 148.681 130.635 148.663C130.731 148.645 130.806 148.631 130.859 148.62L131.146 149.936C131.054 149.972 130.923 150.007 130.752 150.043C130.582 150.082 130.369 150.103 130.113 150.107C129.694 150.114 129.303 150.039 128.941 149.883C128.579 149.727 128.286 149.485 128.062 149.158C127.839 148.832 127.727 148.422 127.727 147.928V139.858ZM136.578 141.818V143.097H132.109V141.818H136.578ZM133.308 139.858H134.9V147.598C134.9 147.907 134.947 148.139 135.039 148.295C135.131 148.448 135.25 148.553 135.396 148.61C135.545 148.663 135.707 148.69 135.881 148.69C136.008 148.69 136.12 148.681 136.216 148.663C136.312 148.645 136.387 148.631 136.44 148.62L136.728 149.936C136.635 149.972 136.504 150.007 136.333 150.043C136.163 150.082 135.95 150.103 135.694 150.107C135.275 150.114 134.884 150.039 134.522 149.883C134.16 149.727 133.867 149.485 133.643 149.158C133.42 148.832 133.308 148.422 133.308 147.928V139.858ZM141.699 150.165C140.932 150.165 140.262 149.989 139.691 149.638C139.119 149.286 138.675 148.794 138.359 148.162C138.043 147.53 137.885 146.792 137.885 145.946C137.885 145.098 138.043 144.355 138.359 143.72C138.675 143.084 139.119 142.591 139.691 142.239C140.262 141.887 140.932 141.712 141.699 141.712C142.466 141.712 143.135 141.887 143.707 142.239C144.279 142.591 144.722 143.084 145.039 143.72C145.355 144.355 145.513 145.098 145.513 145.946C145.513 146.792 145.355 147.53 145.039 148.162C144.722 148.794 144.279 149.286 143.707 149.638C143.135 149.989 142.466 150.165 141.699 150.165ZM141.704 148.828C142.201 148.828 142.613 148.697 142.94 148.434C143.267 148.171 143.508 147.821 143.664 147.385C143.824 146.948 143.904 146.467 143.904 145.941C143.904 145.419 143.824 144.94 143.664 144.503C143.508 144.062 143.267 143.709 142.94 143.443C142.613 143.176 142.201 143.043 141.704 143.043C141.203 143.043 140.788 143.176 140.458 143.443C140.131 143.709 139.888 144.062 139.728 144.503C139.572 144.94 139.493 145.419 139.493 145.941C139.493 146.467 139.572 146.948 139.728 147.385C139.888 147.821 140.131 148.171 140.458 148.434C140.788 148.697 141.203 148.828 141.704 148.828ZM148.883 145.142V150H147.29V141.818H148.819V143.15H148.92C149.109 142.717 149.403 142.369 149.805 142.106C150.209 141.843 150.719 141.712 151.333 141.712C151.891 141.712 152.379 141.829 152.798 142.063C153.217 142.294 153.542 142.638 153.773 143.097C154.004 143.555 154.119 144.121 154.119 144.796V150H152.527V144.988C152.527 144.395 152.372 143.931 152.063 143.597C151.754 143.26 151.33 143.091 150.79 143.091C150.421 143.091 150.092 143.171 149.805 143.331C149.521 143.491 149.295 143.725 149.128 144.034C148.965 144.339 148.883 144.709 148.883 145.142ZM162.386 143.816L160.943 144.071C160.882 143.887 160.786 143.711 160.655 143.544C160.527 143.377 160.353 143.24 160.133 143.134C159.913 143.027 159.638 142.974 159.307 142.974C158.856 142.974 158.48 143.075 158.178 143.278C157.876 143.477 157.725 143.734 157.725 144.05C157.725 144.324 157.827 144.544 158.029 144.711C158.231 144.877 158.558 145.014 159.009 145.121L160.309 145.419C161.062 145.593 161.623 145.861 161.992 146.223C162.361 146.586 162.546 147.056 162.546 147.635C162.546 148.125 162.404 148.562 162.12 148.945C161.839 149.325 161.447 149.624 160.943 149.84C160.442 150.057 159.861 150.165 159.201 150.165C158.285 150.165 157.537 149.97 156.958 149.579C156.38 149.185 156.024 148.626 155.893 147.901L157.432 147.667C157.528 148.068 157.725 148.372 158.024 148.578C158.322 148.78 158.711 148.881 159.19 148.881C159.712 148.881 160.13 148.773 160.442 148.556C160.755 148.336 160.911 148.068 160.911 147.752C160.911 147.496 160.815 147.282 160.623 147.108C160.435 146.934 160.146 146.802 159.755 146.713L158.37 146.41C157.606 146.236 157.042 145.959 156.676 145.579C156.314 145.199 156.133 144.718 156.133 144.135C156.133 143.652 156.268 143.23 156.538 142.868C156.807 142.505 157.18 142.223 157.656 142.021C158.132 141.815 158.677 141.712 159.291 141.712C160.176 141.712 160.872 141.903 161.38 142.287C161.887 142.667 162.223 143.176 162.386 143.816Z" fill="white"/>
<rect x="24" y="63" width="139" height="40" rx="5" fill="#F93535"/>
<path d="M67.0387 88V78.5455H70.5011C71.172 78.5455 71.7275 78.6562 72.1676 78.8778C72.6077 79.0964 72.937 79.3933 73.1555 79.7688C73.3741 80.1412 73.4833 80.5613 73.4833 81.0291C73.4833 81.4231 73.411 81.7554 73.2663 82.0263C73.1217 82.294 72.9278 82.5095 72.6847 82.6726C72.4446 82.8326 72.1799 82.9496 71.8906 83.0234V83.1158C72.2045 83.1312 72.5108 83.2327 72.8093 83.4205C73.1109 83.6051 73.3602 83.8683 73.5572 84.2099C73.7541 84.5515 73.8526 84.967 73.8526 85.4563C73.8526 85.9395 73.7388 86.3735 73.511 86.7582C73.2863 87.1398 72.9386 87.4429 72.4677 87.6676C71.9968 87.8892 71.3951 88 70.6626 88H67.0387ZM68.4652 86.7766H70.5241C71.2074 86.7766 71.6967 86.6443 71.9922 86.3796C72.2876 86.1149 72.4354 85.7841 72.4354 85.3871C72.4354 85.0885 72.36 84.8146 72.2092 84.5653C72.0584 84.3161 71.8429 84.1175 71.5629 83.9698C71.2859 83.8221 70.9566 83.7482 70.5749 83.7482H68.4652V86.7766ZM68.4652 82.6357H70.3764C70.6965 82.6357 70.9843 82.5741 71.2397 82.451C71.4982 82.3279 71.7029 82.1555 71.8537 81.9339C72.0076 81.7093 72.0845 81.4446 72.0845 81.1399C72.0845 80.7491 71.9476 80.4213 71.6737 80.1566C71.3997 79.8919 70.9796 79.7596 70.4134 79.7596H68.4652V82.6357ZM78.7438 80.9091V82.017H74.8706V80.9091H78.7438ZM75.9093 79.2102H77.2896V85.918C77.2896 86.1857 77.3296 86.3873 77.4096 86.5227C77.4896 86.6551 77.5927 86.7459 77.7189 86.7951C77.8482 86.8413 77.9882 86.8643 78.139 86.8643C78.2498 86.8643 78.3468 86.8567 78.4299 86.8413C78.513 86.8259 78.5776 86.8136 78.6238 86.8043L78.873 87.9446C78.793 87.9754 78.6792 88.0062 78.5314 88.0369C78.3837 88.0708 78.199 88.0893 77.9775 88.0923C77.6143 88.0985 77.2757 88.0339 76.9618 87.8984C76.6479 87.763 76.394 87.5537 76.2001 87.2706C76.0062 86.9875 75.9093 86.632 75.9093 86.2042V79.2102ZM81.651 83.7898V88H80.2707V80.9091H81.5956V82.0632H81.6833C81.8464 81.6877 82.1019 81.3861 82.4497 81.1584C82.8005 80.9306 83.2422 80.8168 83.7746 80.8168C84.2578 80.8168 84.681 80.9183 85.0441 81.1214C85.4073 81.3215 85.6889 81.62 85.8889 82.017C86.089 82.4141 86.189 82.9049 86.189 83.4897V88H84.8087V83.6559C84.8087 83.1419 84.6748 82.7403 84.407 82.451C84.1393 82.1586 83.7715 82.0124 83.3037 82.0124C82.9836 82.0124 82.699 82.0817 82.4497 82.2202C82.2035 82.3587 82.008 82.5618 81.8634 82.8295C81.7218 83.0942 81.651 83.4143 81.651 83.7898ZM94.8553 80.9091V82.017H90.8482V80.9091H94.8553ZM91.9469 88V80.0874C91.9469 79.6442 92.0439 79.2764 92.2377 78.984C92.4316 78.6886 92.6886 78.4685 93.0087 78.3239C93.3288 78.1761 93.6766 78.1023 94.052 78.1023C94.329 78.1023 94.566 78.1254 94.763 78.1715C94.9599 78.2146 95.1061 78.2546 95.2015 78.2915L94.8784 79.4087C94.8137 79.3903 94.7306 79.3687 94.6291 79.3441C94.5275 79.3164 94.4044 79.3026 94.2598 79.3026C93.9243 79.3026 93.6842 79.3857 93.5396 79.5518C93.398 79.718 93.3272 79.9581 93.3272 80.272V88H91.9469ZM96.2795 88V80.9091H97.6598V88H96.2795ZM96.9766 79.815C96.7365 79.815 96.5303 79.735 96.358 79.5749C96.1887 79.4118 96.104 79.2179 96.104 78.9933C96.104 78.7655 96.1887 78.5716 96.358 78.4116C96.5303 78.2485 96.7365 78.1669 96.9766 78.1669C97.2166 78.1669 97.4213 78.2485 97.5906 78.4116C97.7629 78.5716 97.8491 78.7655 97.8491 78.9933C97.8491 79.2179 97.7629 79.4118 97.5906 79.5749C97.4213 79.735 97.2166 79.815 96.9766 79.815ZM100.897 78.5455V88H99.5168V78.5455H100.897ZM104.134 78.5455V88H102.754V78.5455H104.134ZM109.047 88.1431C108.349 88.1431 107.747 87.9938 107.242 87.6953C106.741 87.3937 106.353 86.9705 106.079 86.4258C105.808 85.878 105.673 85.2363 105.673 84.5007C105.673 83.7744 105.808 83.1342 106.079 82.5803C106.353 82.0263 106.735 81.5939 107.224 81.283C107.716 80.9722 108.292 80.8168 108.951 80.8168C109.351 80.8168 109.738 80.8829 110.114 81.0153C110.489 81.1476 110.826 81.3554 111.125 81.6385C111.423 81.9216 111.659 82.2894 111.831 82.7418C112.004 83.1912 112.09 83.7375 112.09 84.3807V84.87H106.453V83.8359H110.737C110.737 83.4728 110.663 83.1512 110.516 82.8711C110.368 82.5879 110.16 82.3648 109.892 82.2017C109.628 82.0386 109.317 81.957 108.96 81.957C108.572 81.957 108.233 82.0524 107.944 82.2433C107.658 82.431 107.436 82.6772 107.279 82.9819C107.126 83.2835 107.049 83.6113 107.049 83.9652V84.7731C107.049 85.247 107.132 85.6502 107.298 85.9826C107.467 86.315 107.703 86.5689 108.004 86.7443C108.306 86.9167 108.658 87.0028 109.061 87.0028C109.323 87.0028 109.561 86.9659 109.777 86.892C109.992 86.8151 110.179 86.7012 110.335 86.5504C110.492 86.3996 110.612 86.2134 110.696 85.9918L112.002 86.2273C111.897 86.612 111.71 86.949 111.439 87.2383C111.171 87.5245 110.834 87.7476 110.428 87.9077C110.025 88.0646 109.565 88.1431 109.047 88.1431ZM116.276 88.1385C115.703 88.1385 115.192 87.9923 114.743 87.6999C114.297 87.4045 113.946 86.9844 113.691 86.4396C113.438 85.8918 113.312 85.2347 113.312 84.4684C113.312 83.7021 113.44 83.0465 113.695 82.5018C113.954 81.957 114.308 81.54 114.757 81.2507C115.206 80.9614 115.716 80.8168 116.285 80.8168C116.725 80.8168 117.079 80.8906 117.347 81.0384C117.618 81.183 117.827 81.3523 117.975 81.5462C118.125 81.7401 118.242 81.9109 118.325 82.0586H118.409V78.5455H119.789V88H118.441V86.8967H118.325C118.242 87.0475 118.122 87.2198 117.965 87.4137C117.811 87.6076 117.599 87.7769 117.328 87.9215C117.057 88.0662 116.707 88.1385 116.276 88.1385ZM116.58 86.9613C116.977 86.9613 117.313 86.8567 117.587 86.6474C117.864 86.435 118.073 86.1411 118.215 85.7656C118.359 85.3902 118.432 84.9531 118.432 84.4545C118.432 83.9621 118.361 83.5312 118.219 83.1619C118.078 82.7926 117.87 82.5049 117.596 82.2987C117.322 82.0924 116.984 81.9893 116.58 81.9893C116.165 81.9893 115.819 82.0971 115.542 82.3125C115.265 82.5279 115.055 82.8219 114.914 83.1942C114.775 83.5666 114.706 83.9867 114.706 84.4545C114.706 84.9285 114.777 85.3548 114.919 85.7333C115.06 86.1119 115.269 86.4119 115.546 86.6335C115.826 86.852 116.171 86.9613 116.58 86.9613Z" fill="white"/>
<rect x="24" y="182" width="139" height="40" rx="5" fill="#0A98FF"/>
<path d="M67.0387 207V197.545H70.5011C71.172 197.545 71.7275 197.656 72.1676 197.878C72.6077 198.096 72.937 198.393 73.1555 198.769C73.3741 199.141 73.4833 199.561 73.4833 200.029C73.4833 200.423 73.411 200.755 73.2663 201.026C73.1217 201.294 72.9278 201.509 72.6847 201.673C72.4446 201.833 72.1799 201.95 71.8906 202.023V202.116C72.2045 202.131 72.5108 202.233 72.8093 202.42C73.1109 202.605 73.3602 202.868 73.5572 203.21C73.7541 203.551 73.8526 203.967 73.8526 204.456C73.8526 204.94 73.7388 205.373 73.511 205.758C73.2863 206.14 72.9386 206.443 72.4677 206.668C71.9968 206.889 71.3951 207 70.6626 207H67.0387ZM68.4652 205.777H70.5241C71.2074 205.777 71.6967 205.644 71.9922 205.38C72.2876 205.115 72.4354 204.784 72.4354 204.387C72.4354 204.089 72.36 203.815 72.2092 203.565C72.0584 203.316 71.8429 203.118 71.5629 202.97C71.2859 202.822 70.9566 202.748 70.5749 202.748H68.4652V205.777ZM68.4652 201.636H70.3764C70.6965 201.636 70.9843 201.574 71.2397 201.451C71.4982 201.328 71.7029 201.156 71.8537 200.934C72.0076 200.709 72.0845 200.445 72.0845 200.14C72.0845 199.749 71.9476 199.421 71.6737 199.157C71.3997 198.892 70.9796 198.76 70.4134 198.76H68.4652V201.636ZM78.7438 199.909V201.017H74.8706V199.909H78.7438ZM75.9093 198.21H77.2896V204.918C77.2896 205.186 77.3296 205.387 77.4096 205.523C77.4896 205.655 77.5927 205.746 77.7189 205.795C77.8482 205.841 77.9882 205.864 78.139 205.864C78.2498 205.864 78.3468 205.857 78.4299 205.841C78.513 205.826 78.5776 205.814 78.6238 205.804L78.873 206.945C78.793 206.975 78.6792 207.006 78.5314 207.037C78.3837 207.071 78.199 207.089 77.9775 207.092C77.6143 207.098 77.2757 207.034 76.9618 206.898C76.6479 206.763 76.394 206.554 76.2001 206.271C76.0062 205.987 75.9093 205.632 75.9093 205.204V198.21ZM81.651 202.79V207H80.2707V199.909H81.5956V201.063H81.6833C81.8464 200.688 82.1019 200.386 82.4497 200.158C82.8005 199.931 83.2422 199.817 83.7746 199.817C84.2578 199.817 84.681 199.918 85.0441 200.121C85.4073 200.321 85.6889 200.62 85.8889 201.017C86.089 201.414 86.189 201.905 86.189 202.49V207H84.8087V202.656C84.8087 202.142 84.6748 201.74 84.407 201.451C84.1393 201.159 83.7715 201.012 83.3037 201.012C82.9836 201.012 82.699 201.082 82.4497 201.22C82.2035 201.359 82.008 201.562 81.8634 201.83C81.7218 202.094 81.651 202.414 81.651 202.79ZM94.8553 199.909V201.017H90.8482V199.909H94.8553ZM91.9469 207V199.087C91.9469 198.644 92.0439 198.276 92.2377 197.984C92.4316 197.689 92.6886 197.469 93.0087 197.324C93.3288 197.176 93.6766 197.102 94.052 197.102C94.329 197.102 94.566 197.125 94.763 197.172C94.9599 197.215 95.1061 197.255 95.2015 197.292L94.8784 198.409C94.8137 198.39 94.7306 198.369 94.6291 198.344C94.5275 198.316 94.4044 198.303 94.2598 198.303C93.9243 198.303 93.6842 198.386 93.5396 198.552C93.398 198.718 93.3272 198.958 93.3272 199.272V207H91.9469ZM96.2795 207V199.909H97.6598V207H96.2795ZM96.9766 198.815C96.7365 198.815 96.5303 198.735 96.358 198.575C96.1887 198.412 96.104 198.218 96.104 197.993C96.104 197.766 96.1887 197.572 96.358 197.412C96.5303 197.248 96.7365 197.167 96.9766 197.167C97.2166 197.167 97.4213 197.248 97.5906 197.412C97.7629 197.572 97.8491 197.766 97.8491 197.993C97.8491 198.218 97.7629 198.412 97.5906 198.575C97.4213 198.735 97.2166 198.815 96.9766 198.815ZM100.897 197.545V207H99.5168V197.545H100.897ZM104.134 197.545V207H102.754V197.545H104.134ZM109.047 207.143C108.349 207.143 107.747 206.994 107.242 206.695C106.741 206.394 106.353 205.971 106.079 205.426C105.808 204.878 105.673 204.236 105.673 203.501C105.673 202.774 105.808 202.134 106.079 201.58C106.353 201.026 106.735 200.594 107.224 200.283C107.716 199.972 108.292 199.817 108.951 199.817C109.351 199.817 109.738 199.883 110.114 200.015C110.489 200.148 110.826 200.355 111.125 200.638C111.423 200.922 111.659 201.289 111.831 201.742C112.004 202.191 112.09 202.737 112.09 203.381V203.87H106.453V202.836H110.737C110.737 202.473 110.663 202.151 110.516 201.871C110.368 201.588 110.16 201.365 109.892 201.202C109.628 201.039 109.317 200.957 108.96 200.957C108.572 200.957 108.233 201.052 107.944 201.243C107.658 201.431 107.436 201.677 107.279 201.982C107.126 202.283 107.049 202.611 107.049 202.965V203.773C107.049 204.247 107.132 204.65 107.298 204.983C107.467 205.315 107.703 205.569 108.004 205.744C108.306 205.917 108.658 206.003 109.061 206.003C109.323 206.003 109.561 205.966 109.777 205.892C109.992 205.815 110.179 205.701 110.335 205.55C110.492 205.4 110.612 205.213 110.696 204.992L112.002 205.227C111.897 205.612 111.71 205.949 111.439 206.238C111.171 206.525 110.834 206.748 110.428 206.908C110.025 207.065 109.565 207.143 109.047 207.143ZM116.276 207.138C115.703 207.138 115.192 206.992 114.743 206.7C114.297 206.404 113.946 205.984 113.691 205.44C113.438 204.892 113.312 204.235 113.312 203.468C113.312 202.702 113.44 202.047 113.695 201.502C113.954 200.957 114.308 200.54 114.757 200.251C115.206 199.961 115.716 199.817 116.285 199.817C116.725 199.817 117.079 199.891 117.347 200.038C117.618 200.183 117.827 200.352 117.975 200.546C118.125 200.74 118.242 200.911 118.325 201.059H118.409V197.545H119.789V207H118.441V205.897H118.325C118.242 206.047 118.122 206.22 117.965 206.414C117.811 206.608 117.599 206.777 117.328 206.922C117.057 207.066 116.707 207.138 116.276 207.138ZM116.58 205.961C116.977 205.961 117.313 205.857 117.587 205.647C117.864 205.435 118.073 205.141 118.215 204.766C118.359 204.39 118.432 203.953 118.432 203.455C118.432 202.962 118.361 202.531 118.219 202.162C118.078 201.793 117.87 201.505 117.596 201.299C117.322 201.092 116.984 200.989 116.58 200.989C116.165 200.989 115.819 201.097 115.542 201.312C115.265 201.528 115.055 201.822 114.914 202.194C114.775 202.567 114.706 202.987 114.706 203.455C114.706 203.929 114.777 204.355 114.919 204.733C115.06 205.112 115.269 205.412 115.546 205.634C115.826 205.852 116.171 205.961 116.58 205.961Z" fill="white"/>
<rect x="332" y="63" width="139" height="40" rx="5" fill="#A8A8A8"/>
<path d="M363.539 88V78.5455H367.001C367.672 78.5455 368.228 78.6562 368.668 78.8778C369.108 79.0964 369.437 79.3933 369.656 79.7688C369.874 80.1412 369.983 80.5613 369.983 81.0291C369.983 81.4231 369.911 81.7554 369.766 82.0263C369.622 82.294 369.428 82.5095 369.185 82.6726C368.945 82.8326 368.68 82.9496 368.391 83.0234V83.1158C368.705 83.1312 369.011 83.2327 369.309 83.4205C369.611 83.6051 369.86 83.8683 370.057 84.2099C370.254 84.5515 370.353 84.967 370.353 85.4563C370.353 85.9395 370.239 86.3735 370.011 86.7582C369.786 87.1398 369.439 87.4429 368.968 87.6676C368.497 87.8892 367.895 88 367.163 88H363.539ZM364.965 86.7766H367.024C367.707 86.7766 368.197 86.6443 368.492 86.3796C368.788 86.1149 368.935 85.7841 368.935 85.3871C368.935 85.0885 368.86 84.8146 368.709 84.5653C368.558 84.3161 368.343 84.1175 368.063 83.9698C367.786 83.8221 367.457 83.7482 367.075 83.7482H364.965V86.7766ZM364.965 82.6357H366.876C367.196 82.6357 367.484 82.5741 367.74 82.451C367.998 82.3279 368.203 82.1555 368.354 81.9339C368.508 81.7093 368.585 81.4446 368.585 81.1399C368.585 80.7491 368.448 80.4213 368.174 80.1566C367.9 79.8919 367.48 79.7596 366.913 79.7596H364.965V82.6357ZM375.244 80.9091V82.017H371.371V80.9091H375.244ZM372.409 79.2102H373.79V85.918C373.79 86.1857 373.83 86.3873 373.91 86.5227C373.99 86.6551 374.093 86.7459 374.219 86.7951C374.348 86.8413 374.488 86.8643 374.639 86.8643C374.75 86.8643 374.847 86.8567 374.93 86.8413C375.013 86.8259 375.078 86.8136 375.124 86.8043L375.373 87.9446C375.293 87.9754 375.179 88.0062 375.031 88.0369C374.884 88.0708 374.699 88.0893 374.477 88.0923C374.114 88.0985 373.776 88.0339 373.462 87.8984C373.148 87.763 372.894 87.5537 372.7 87.2706C372.506 86.9875 372.409 86.632 372.409 86.2042V79.2102ZM378.151 83.7898V88H376.771V80.9091H378.096V82.0632H378.183C378.346 81.6877 378.602 81.3861 378.95 81.1584C379.301 80.9306 379.742 80.8168 380.275 80.8168C380.758 80.8168 381.181 80.9183 381.544 81.1214C381.907 81.3215 382.189 81.62 382.389 82.017C382.589 82.4141 382.689 82.9049 382.689 83.4897V88H381.309V83.6559C381.309 83.1419 381.175 82.7403 380.907 82.451C380.639 82.1586 380.272 82.0124 379.804 82.0124C379.484 82.0124 379.199 82.0817 378.95 82.2202C378.703 82.3587 378.508 82.5618 378.363 82.8295C378.222 83.0942 378.151 83.4143 378.151 83.7898ZM390.635 88.1385C390.063 88.1385 389.552 87.9923 389.102 87.6999C388.656 87.4045 388.305 86.9844 388.05 86.4396C387.798 85.8918 387.671 85.2347 387.671 84.4684C387.671 83.7021 387.799 83.0465 388.055 82.5018C388.313 81.957 388.667 81.54 389.116 81.2507C389.566 80.9614 390.075 80.8168 390.644 80.8168C391.084 80.8168 391.438 80.8906 391.706 81.0384C391.977 81.183 392.186 81.3523 392.334 81.5462C392.485 81.7401 392.602 81.9109 392.685 82.0586H392.768V78.5455H394.148V88H392.8V86.8967H392.685C392.602 87.0475 392.482 87.2198 392.325 87.4137C392.171 87.6076 391.959 87.7769 391.688 87.9215C391.417 88.0662 391.066 88.1385 390.635 88.1385ZM390.94 86.9613C391.337 86.9613 391.672 86.8567 391.946 86.6474C392.223 86.435 392.432 86.1411 392.574 85.7656C392.719 85.3902 392.791 84.9531 392.791 84.4545C392.791 83.9621 392.72 83.5312 392.579 83.1619C392.437 82.7926 392.229 82.5049 391.955 82.2987C391.682 82.0924 391.343 81.9893 390.94 81.9893C390.524 81.9893 390.178 82.0971 389.901 82.3125C389.624 82.5279 389.415 82.8219 389.273 83.1942C389.135 83.5666 389.066 83.9867 389.066 84.4545C389.066 84.9285 389.136 85.3548 389.278 85.7333C389.419 86.1119 389.629 86.4119 389.906 86.6335C390.186 86.852 390.53 86.9613 390.94 86.9613ZM396.118 88V80.9091H397.499V88H396.118ZM396.815 79.815C396.575 79.815 396.369 79.735 396.197 79.5749C396.028 79.4118 395.943 79.2179 395.943 78.9933C395.943 78.7655 396.028 78.5716 396.197 78.4116C396.369 78.2485 396.575 78.1669 396.815 78.1669C397.055 78.1669 397.26 78.2485 397.429 78.4116C397.602 78.5716 397.688 78.7655 397.688 78.9933C397.688 79.2179 397.602 79.4118 397.429 79.5749C397.26 79.735 397.055 79.815 396.815 79.815ZM404.669 82.6403L403.418 82.8619C403.366 82.7018 403.283 82.5495 403.169 82.4048C403.058 82.2602 402.907 82.1417 402.716 82.0494C402.526 81.957 402.287 81.9109 402.001 81.9109C401.61 81.9109 401.284 81.9986 401.022 82.174C400.761 82.3464 400.63 82.5695 400.63 82.8434C400.63 83.0804 400.718 83.2712 400.893 83.4158C401.068 83.5605 401.352 83.679 401.742 83.7713L402.869 84.0298C403.521 84.1806 404.008 84.413 404.328 84.7269C404.648 85.0408 404.808 85.4486 404.808 85.9503C404.808 86.375 404.685 86.7536 404.438 87.0859C404.195 87.4152 403.855 87.6738 403.418 87.8615C402.984 88.0492 402.481 88.1431 401.909 88.1431C401.115 88.1431 400.467 87.9738 399.965 87.6353C399.463 87.2937 399.156 86.8089 399.042 86.1811L400.376 85.978C400.459 86.3258 400.63 86.5889 400.888 86.7674C401.147 86.9428 401.484 87.0305 401.899 87.0305C402.352 87.0305 402.713 86.9367 402.984 86.7489C403.255 86.5581 403.39 86.3258 403.39 86.0518C403.39 85.8303 403.307 85.6441 403.141 85.4933C402.978 85.3424 402.727 85.2286 402.389 85.1516L401.188 84.8885C400.527 84.7377 400.037 84.4976 399.72 84.1683C399.406 83.839 399.249 83.422 399.249 82.9173C399.249 82.4987 399.366 82.1325 399.6 81.8185C399.834 81.5046 400.157 81.2599 400.57 81.0845C400.982 80.906 401.455 80.8168 401.987 80.8168C402.753 80.8168 403.357 80.983 403.797 81.3153C404.237 81.6446 404.528 82.0863 404.669 82.6403ZM408.389 88.157C407.94 88.157 407.533 88.0739 407.17 87.9077C406.807 87.7384 406.519 87.4937 406.307 87.1737C406.098 86.8536 405.993 86.4612 405.993 85.9964C405.993 85.5964 406.07 85.267 406.224 85.0085C406.378 84.75 406.585 84.5453 406.847 84.3945C407.109 84.2437 407.401 84.1299 407.724 84.0529C408.047 83.976 408.377 83.9175 408.712 83.8775C409.137 83.8282 409.482 83.7882 409.746 83.7575C410.011 83.7236 410.203 83.6697 410.323 83.5959C410.443 83.522 410.503 83.402 410.503 83.2358V83.2035C410.503 82.8003 410.389 82.4879 410.162 82.2663C409.937 82.0447 409.602 81.9339 409.155 81.9339C408.691 81.9339 408.324 82.037 408.057 82.2433C407.792 82.4464 407.609 82.6726 407.507 82.9219L406.21 82.6264C406.364 82.1955 406.589 81.8478 406.884 81.5831C407.182 81.3153 407.526 81.1214 407.913 81.0014C408.301 80.8783 408.709 80.8168 409.137 80.8168C409.42 80.8168 409.72 80.8506 410.037 80.9183C410.357 80.983 410.656 81.103 410.933 81.2784C411.213 81.4538 411.442 81.7047 411.62 82.0309C411.799 82.354 411.888 82.7741 411.888 83.2912V88H410.54V87.0305H410.485C410.396 87.209 410.262 87.3845 410.083 87.5568C409.905 87.7292 409.675 87.8723 409.395 87.9862C409.115 88.1 408.78 88.157 408.389 88.157ZM408.689 87.049C409.071 87.049 409.397 86.9736 409.668 86.8228C409.942 86.672 410.149 86.475 410.291 86.2319C410.436 85.9857 410.508 85.7225 410.508 85.4425V84.5284C410.459 84.5777 410.363 84.6238 410.222 84.6669C410.083 84.7069 409.925 84.7423 409.746 84.7731C409.568 84.8008 409.394 84.8269 409.225 84.8516C409.055 84.8731 408.914 84.8916 408.8 84.907C408.532 84.9408 408.287 84.9978 408.066 85.0778C407.847 85.1578 407.672 85.2732 407.54 85.424C407.41 85.5717 407.346 85.7687 407.346 86.0149C407.346 86.3565 407.472 86.6151 407.724 86.7905C407.977 86.9628 408.298 87.049 408.689 87.049ZM413.838 88V78.5455H415.218V82.0586H415.301C415.381 81.9109 415.496 81.7401 415.647 81.5462C415.798 81.3523 416.007 81.183 416.275 81.0384C416.543 80.8906 416.897 80.8168 417.337 80.8168C417.909 80.8168 418.42 80.9614 418.869 81.2507C419.319 81.54 419.671 81.957 419.927 82.5018C420.185 83.0465 420.314 83.7021 420.314 84.4684C420.314 85.2347 420.187 85.8918 419.931 86.4396C419.676 86.9844 419.325 87.4045 418.879 87.6999C418.432 87.9923 417.923 88.1385 417.351 88.1385C416.92 88.1385 416.567 88.0662 416.294 87.9215C416.023 87.7769 415.81 87.6076 415.656 87.4137C415.503 87.2198 415.384 87.0475 415.301 86.8967H415.186V88H413.838ZM415.19 84.4545C415.19 84.9531 415.262 85.3902 415.407 85.7656C415.552 86.1411 415.761 86.435 416.035 86.6474C416.309 86.8567 416.644 86.9613 417.041 86.9613C417.454 86.9613 417.798 86.852 418.075 86.6335C418.352 86.4119 418.562 86.1119 418.703 85.7333C418.848 85.3548 418.92 84.9285 418.92 84.4545C418.92 83.9867 418.849 83.5666 418.708 83.1942C418.569 82.8219 418.36 82.5279 418.08 82.3125C417.803 82.0971 417.457 81.9893 417.041 81.9893C416.641 81.9893 416.303 82.0924 416.026 82.2987C415.752 82.5049 415.544 82.7926 415.403 83.1619C415.261 83.5312 415.19 83.9621 415.19 84.4545ZM423.245 78.5455V88H421.864V78.5455H423.245ZM428.158 88.1431C427.459 88.1431 426.858 87.9938 426.353 87.6953C425.851 87.3937 425.463 86.9705 425.189 86.4258C424.919 85.878 424.783 85.2363 424.783 84.5007C424.783 83.7744 424.919 83.1342 425.189 82.5803C425.463 82.0263 425.845 81.5939 426.334 81.283C426.827 80.9722 427.402 80.8168 428.061 80.8168C428.461 80.8168 428.849 80.8829 429.224 81.0153C429.6 81.1476 429.937 81.3554 430.235 81.6385C430.534 81.9216 430.769 82.2894 430.942 82.7418C431.114 83.1912 431.2 83.7375 431.2 84.3807V84.87H425.563V83.8359H429.847C429.847 83.4728 429.774 83.1512 429.626 82.8711C429.478 82.5879 429.27 82.3648 429.003 82.2017C428.738 82.0386 428.427 81.957 428.07 81.957C427.682 81.957 427.344 82.0524 427.055 82.2433C426.768 82.431 426.547 82.6772 426.39 82.9819C426.236 83.2835 426.159 83.6113 426.159 83.9652V84.7731C426.159 85.247 426.242 85.6502 426.408 85.9826C426.577 86.315 426.813 86.5689 427.115 86.7443C427.416 86.9167 427.769 87.0028 428.172 87.0028C428.433 87.0028 428.672 86.9659 428.887 86.892C429.103 86.8151 429.289 86.7012 429.446 86.5504C429.603 86.3996 429.723 86.2134 429.806 85.9918L431.112 86.2273C431.008 86.612 430.82 86.949 430.549 87.2383C430.281 87.5245 429.944 87.7476 429.538 87.9077C429.135 88.0646 428.675 88.1431 428.158 88.1431ZM435.386 88.1385C434.814 88.1385 434.303 87.9923 433.853 87.6999C433.407 87.4045 433.056 86.9844 432.801 86.4396C432.549 85.8918 432.422 85.2347 432.422 84.4684C432.422 83.7021 432.55 83.0465 432.805 82.5018C433.064 81.957 433.418 81.54 433.867 81.2507C434.317 80.9614 434.826 80.8168 435.395 80.8168C435.835 80.8168 436.189 80.8906 436.457 81.0384C436.728 81.183 436.937 81.3523 437.085 81.5462C437.236 81.7401 437.353 81.9109 437.436 82.0586H437.519V78.5455H438.899V88H437.551V86.8967H437.436C437.353 87.0475 437.233 87.2198 437.076 87.4137C436.922 87.6076 436.709 87.7769 436.439 87.9215C436.168 88.0662 435.817 88.1385 435.386 88.1385ZM435.691 86.9613C436.088 86.9613 436.423 86.8567 436.697 86.6474C436.974 86.435 437.183 86.1411 437.325 85.7656C437.47 85.3902 437.542 84.9531 437.542 84.4545C437.542 83.9621 437.471 83.5312 437.33 83.1619C437.188 82.7926 436.98 82.5049 436.706 82.2987C436.432 82.0924 436.094 81.9893 435.691 81.9893C435.275 81.9893 434.929 82.0971 434.652 82.3125C434.375 82.5279 434.166 82.8219 434.024 83.1942C433.886 83.5666 433.816 83.9867 433.816 84.4545C433.816 84.9285 433.887 85.3548 434.029 85.7333C434.17 86.1119 434.38 86.4119 434.657 86.6335C434.937 86.852 435.281 86.9613 435.691 86.9613Z" fill="white"/>
<path d="M364.539 207V197.545H368.001C368.672 197.545 369.228 197.656 369.668 197.878C370.108 198.096 370.437 198.393 370.656 198.769C370.874 199.141 370.983 199.561 370.983 200.029C370.983 200.423 370.911 200.755 370.766 201.026C370.622 201.294 370.428 201.509 370.185 201.673C369.945 201.833 369.68 201.95 369.391 202.023V202.116C369.705 202.131 370.011 202.233 370.309 202.42C370.611 202.605 370.86 202.868 371.057 203.21C371.254 203.551 371.353 203.967 371.353 204.456C371.353 204.94 371.239 205.373 371.011 205.758C370.786 206.14 370.439 206.443 369.968 206.668C369.497 206.889 368.895 207 368.163 207H364.539ZM365.965 205.777H368.024C368.707 205.777 369.197 205.644 369.492 205.38C369.788 205.115 369.935 204.784 369.935 204.387C369.935 204.089 369.86 203.815 369.709 203.565C369.558 203.316 369.343 203.118 369.063 202.97C368.786 202.822 368.457 202.748 368.075 202.748H365.965V205.777ZM365.965 201.636H367.876C368.196 201.636 368.484 201.574 368.74 201.451C368.998 201.328 369.203 201.156 369.354 200.934C369.508 200.709 369.585 200.445 369.585 200.14C369.585 199.749 369.448 199.421 369.174 199.157C368.9 198.892 368.48 198.76 367.913 198.76H365.965V201.636ZM376.244 199.909V201.017H372.371V199.909H376.244ZM373.409 198.21H374.79V204.918C374.79 205.186 374.83 205.387 374.91 205.523C374.99 205.655 375.093 205.746 375.219 205.795C375.348 205.841 375.488 205.864 375.639 205.864C375.75 205.864 375.847 205.857 375.93 205.841C376.013 205.826 376.078 205.814 376.124 205.804L376.373 206.945C376.293 206.975 376.179 207.006 376.031 207.037C375.884 207.071 375.699 207.089 375.477 207.092C375.114 207.098 374.776 207.034 374.462 206.898C374.148 206.763 373.894 206.554 373.7 206.271C373.506 205.987 373.409 205.632 373.409 205.204V198.21ZM379.151 202.79V207H377.771V199.909H379.096V201.063H379.183C379.346 200.688 379.602 200.386 379.95 200.158C380.301 199.931 380.742 199.817 381.275 199.817C381.758 199.817 382.181 199.918 382.544 200.121C382.907 200.321 383.189 200.62 383.389 201.017C383.589 201.414 383.689 201.905 383.689 202.49V207H382.309V202.656C382.309 202.142 382.175 201.74 381.907 201.451C381.639 201.159 381.272 201.012 380.804 201.012C380.484 201.012 380.199 201.082 379.95 201.22C379.703 201.359 379.508 201.562 379.363 201.83C379.222 202.094 379.151 202.414 379.151 202.79ZM391.968 207.143C391.303 207.143 390.723 206.991 390.227 206.686C389.732 206.381 389.347 205.955 389.073 205.407C388.799 204.859 388.662 204.219 388.662 203.487C388.662 202.751 388.799 202.108 389.073 201.557C389.347 201.006 389.732 200.578 390.227 200.274C390.723 199.969 391.303 199.817 391.968 199.817C392.632 199.817 393.212 199.969 393.708 200.274C394.203 200.578 394.588 201.006 394.862 201.557C395.136 202.108 395.273 202.751 395.273 203.487C395.273 204.219 395.136 204.859 394.862 205.407C394.588 205.955 394.203 206.381 393.708 206.686C393.212 206.991 392.632 207.143 391.968 207.143ZM391.972 205.984C392.403 205.984 392.76 205.871 393.043 205.643C393.326 205.415 393.536 205.112 393.671 204.733C393.809 204.355 393.879 203.938 393.879 203.482C393.879 203.03 393.809 202.614 393.671 202.236C393.536 201.854 393.326 201.548 393.043 201.317C392.76 201.086 392.403 200.971 391.972 200.971C391.538 200.971 391.178 201.086 390.892 201.317C390.609 201.548 390.398 201.854 390.259 202.236C390.124 202.614 390.056 203.03 390.056 203.482C390.056 203.938 390.124 204.355 390.259 204.733C390.398 205.112 390.609 205.415 390.892 205.643C391.178 205.871 391.538 205.984 391.972 205.984ZM401.305 204.059V199.909H402.69V207H401.333V205.772H401.259C401.096 206.151 400.835 206.466 400.475 206.718C400.118 206.968 399.673 207.092 399.14 207.092C398.685 207.092 398.282 206.992 397.931 206.792C397.583 206.589 397.309 206.289 397.109 205.892C396.912 205.495 396.814 205.004 396.814 204.419V199.909H398.194V204.253C398.194 204.736 398.328 205.121 398.596 205.407C398.863 205.694 399.211 205.837 399.639 205.837C399.897 205.837 400.154 205.772 400.41 205.643C400.668 205.513 400.882 205.318 401.052 205.056C401.224 204.795 401.309 204.462 401.305 204.059ZM407.855 199.909V201.017H403.982V199.909H407.855ZM405.021 198.21H406.401V204.918C406.401 205.186 406.441 205.387 406.521 205.523C406.601 205.655 406.704 205.746 406.83 205.795C406.96 205.841 407.1 205.864 407.25 205.864C407.361 205.864 407.458 205.857 407.541 205.841C407.624 205.826 407.689 205.814 407.735 205.804L407.984 206.945C407.904 206.975 407.79 207.006 407.643 207.037C407.495 207.071 407.31 207.089 407.089 207.092C406.726 207.098 406.387 207.034 406.073 206.898C405.759 206.763 405.505 206.554 405.311 206.271C405.118 205.987 405.021 205.632 405.021 205.204V198.21ZM410.915 197.545V207H409.534V197.545H410.915ZM412.772 207V199.909H414.152V207H412.772ZM413.469 198.815C413.229 198.815 413.022 198.735 412.85 198.575C412.681 198.412 412.596 198.218 412.596 197.993C412.596 197.766 412.681 197.572 412.85 197.412C413.022 197.248 413.229 197.167 413.469 197.167C413.709 197.167 413.913 197.248 414.083 197.412C414.255 197.572 414.341 197.766 414.341 197.993C414.341 198.218 414.255 198.412 414.083 198.575C413.913 198.735 413.709 198.815 413.469 198.815ZM417.389 202.79V207H416.009V199.909H417.334V201.063H417.422C417.585 200.688 417.84 200.386 418.188 200.158C418.539 199.931 418.98 199.817 419.513 199.817C419.996 199.817 420.419 199.918 420.782 200.121C421.146 200.321 421.427 200.62 421.627 201.017C421.827 201.414 421.927 201.905 421.927 202.49V207H420.547V202.656C420.547 202.142 420.413 201.74 420.145 201.451C419.878 201.159 419.51 201.012 419.042 201.012C418.722 201.012 418.437 201.082 418.188 201.22C417.942 201.359 417.746 201.562 417.602 201.83C417.46 202.094 417.389 202.414 417.389 202.79ZM426.835 207.143C426.136 207.143 425.534 206.994 425.03 206.695C424.528 206.394 424.14 205.971 423.866 205.426C423.595 204.878 423.46 204.236 423.46 203.501C423.46 202.774 423.595 202.134 423.866 201.58C424.14 201.026 424.522 200.594 425.011 200.283C425.504 199.972 426.079 199.817 426.738 199.817C427.138 199.817 427.526 199.883 427.901 200.015C428.276 200.148 428.613 200.355 428.912 200.638C429.211 200.922 429.446 201.289 429.618 201.742C429.791 202.191 429.877 202.737 429.877 203.381V203.87H424.24V202.836H428.524C428.524 202.473 428.45 202.151 428.303 201.871C428.155 201.588 427.947 201.365 427.679 201.202C427.415 201.039 427.104 200.957 426.747 200.957C426.359 200.957 426.021 201.052 425.731 201.243C425.445 201.431 425.223 201.677 425.066 201.982C424.913 202.283 424.836 202.611 424.836 202.965V203.773C424.836 204.247 424.919 204.65 425.085 204.983C425.254 205.315 425.49 205.569 425.791 205.744C426.093 205.917 426.445 206.003 426.848 206.003C427.11 206.003 427.349 205.966 427.564 205.892C427.779 205.815 427.966 205.701 428.123 205.55C428.28 205.4 428.4 205.213 428.483 204.992L429.789 205.227C429.685 205.612 429.497 205.949 429.226 206.238C428.958 206.525 428.621 206.748 428.215 206.908C427.812 207.065 427.352 207.143 426.835 207.143ZM434.063 207.138C433.49 207.138 432.98 206.992 432.53 206.7C432.084 206.404 431.733 205.984 431.478 205.44C431.225 204.892 431.099 204.235 431.099 203.468C431.099 202.702 431.227 202.047 431.482 201.502C431.741 200.957 432.095 200.54 432.544 200.251C432.993 199.961 433.503 199.817 434.072 199.817C434.512 199.817 434.866 199.891 435.134 200.038C435.405 200.183 435.614 200.352 435.762 200.546C435.913 200.74 436.029 200.911 436.113 201.059H436.196V197.545H437.576V207H436.228V205.897H436.113C436.029 206.047 435.909 206.22 435.752 206.414C435.599 206.608 435.386 206.777 435.115 206.922C434.845 207.066 434.494 207.138 434.063 207.138ZM434.368 205.961C434.765 205.961 435.1 205.857 435.374 205.647C435.651 205.435 435.86 205.141 436.002 204.766C436.146 204.39 436.219 203.953 436.219 203.455C436.219 202.962 436.148 202.531 436.006 202.162C435.865 201.793 435.657 201.505 435.383 201.299C435.109 201.092 434.771 200.989 434.368 200.989C433.952 200.989 433.606 201.097 433.329 201.312C433.052 201.528 432.843 201.822 432.701 202.194C432.563 202.567 432.493 202.987 432.493 203.455C432.493 203.929 432.564 204.355 432.706 204.733C432.847 205.112 433.056 205.412 433.333 205.634C433.614 205.852 433.958 205.961 434.368 205.961Z" fill="#0A98FF"/>
<rect x="332.5" y="182.5" width="138" height="39" rx="4.5" stroke="#0A98FF"/>
<path d="M210.539 88V78.5455H214.001C214.672 78.5455 215.228 78.6562 215.668 78.8778C216.108 79.0964 216.437 79.3933 216.656 79.7688C216.874 80.1412 216.983 80.5613 216.983 81.0291C216.983 81.4231 216.911 81.7554 216.766 82.0263C216.622 82.294 216.428 82.5095 216.185 82.6726C215.945 82.8326 215.68 82.9496 215.391 83.0234V83.1158C215.705 83.1312 216.011 83.2327 216.309 83.4205C216.611 83.6051 216.86 83.8683 217.057 84.2099C217.254 84.5515 217.353 84.967 217.353 85.4563C217.353 85.9395 217.239 86.3735 217.011 86.7582C216.786 87.1398 216.439 87.4429 215.968 87.6676C215.497 87.8892 214.895 88 214.163 88H210.539ZM211.965 86.7766H214.024C214.707 86.7766 215.197 86.6443 215.492 86.3796C215.788 86.1149 215.935 85.7841 215.935 85.3871C215.935 85.0885 215.86 84.8146 215.709 84.5653C215.558 84.3161 215.343 84.1175 215.063 83.9698C214.786 83.8221 214.457 83.7482 214.075 83.7482H211.965V86.7766ZM211.965 82.6357H213.876C214.196 82.6357 214.484 82.5741 214.74 82.451C214.998 82.3279 215.203 82.1555 215.354 81.9339C215.508 81.7093 215.585 81.4446 215.585 81.1399C215.585 80.7491 215.448 80.4213 215.174 80.1566C214.9 79.8919 214.48 79.7596 213.913 79.7596H211.965V82.6357ZM222.244 80.9091V82.017H218.371V80.9091H222.244ZM219.409 79.2102H220.79V85.918C220.79 86.1857 220.83 86.3873 220.91 86.5227C220.99 86.6551 221.093 86.7459 221.219 86.7951C221.348 86.8413 221.488 86.8643 221.639 86.8643C221.75 86.8643 221.847 86.8567 221.93 86.8413C222.013 86.8259 222.078 86.8136 222.124 86.8043L222.373 87.9446C222.293 87.9754 222.179 88.0062 222.031 88.0369C221.884 88.0708 221.699 88.0893 221.477 88.0923C221.114 88.0985 220.776 88.0339 220.462 87.8984C220.148 87.763 219.894 87.5537 219.7 87.2706C219.506 86.9875 219.409 86.632 219.409 86.2042V79.2102ZM225.151 83.7898V88H223.771V80.9091H225.096V82.0632H225.183C225.346 81.6877 225.602 81.3861 225.95 81.1584C226.301 80.9306 226.742 80.8168 227.275 80.8168C227.758 80.8168 228.181 80.9183 228.544 81.1214C228.907 81.3215 229.189 81.62 229.389 82.017C229.589 82.4141 229.689 82.9049 229.689 83.4897V88H228.309V83.6559C228.309 83.1419 228.175 82.7403 227.907 82.451C227.639 82.1586 227.272 82.0124 226.804 82.0124C226.484 82.0124 226.199 82.0817 225.95 82.2202C225.703 82.3587 225.508 82.5618 225.363 82.8295C225.222 83.0942 225.151 83.4143 225.151 83.7898ZM237.968 88.1431C237.303 88.1431 236.723 87.9908 236.227 87.6861C235.732 87.3814 235.347 86.9551 235.073 86.4073C234.799 85.8595 234.662 85.2193 234.662 84.4869C234.662 83.7513 234.799 83.1081 235.073 82.5572C235.347 82.0063 235.732 81.5785 236.227 81.2738C236.723 80.9691 237.303 80.8168 237.968 80.8168C238.632 80.8168 239.212 80.9691 239.708 81.2738C240.203 81.5785 240.588 82.0063 240.862 82.5572C241.136 83.1081 241.273 83.7513 241.273 84.4869C241.273 85.2193 241.136 85.8595 240.862 86.4073C240.588 86.9551 240.203 87.3814 239.708 87.6861C239.212 87.9908 238.632 88.1431 237.968 88.1431ZM237.972 86.9844C238.403 86.9844 238.76 86.8705 239.043 86.6428C239.326 86.415 239.536 86.1119 239.671 85.7333C239.809 85.3548 239.879 84.9377 239.879 84.4822C239.879 84.0298 239.809 83.6143 239.671 83.2358C239.536 82.8542 239.326 82.5479 239.043 82.3171C238.76 82.0863 238.403 81.9709 237.972 81.9709C237.538 81.9709 237.178 82.0863 236.892 82.3171C236.609 82.5479 236.398 82.8542 236.259 83.2358C236.124 83.6143 236.056 84.0298 236.056 84.4822C236.056 84.9377 236.124 85.3548 236.259 85.7333C236.398 86.1119 236.609 86.415 236.892 86.6428C237.178 86.8705 237.538 86.9844 237.972 86.9844ZM247.305 85.0593V80.9091H248.69V88H247.333V86.772H247.259C247.096 87.1506 246.835 87.466 246.475 87.7184C246.118 87.9677 245.673 88.0923 245.14 88.0923C244.685 88.0923 244.282 87.9923 243.931 87.7923C243.583 87.5891 243.309 87.2891 243.109 86.892C242.912 86.495 242.814 86.0041 242.814 85.4194V80.9091H244.194V85.2532C244.194 85.7364 244.328 86.1211 244.596 86.4073C244.863 86.6935 245.211 86.8366 245.639 86.8366C245.897 86.8366 246.154 86.772 246.41 86.6428C246.668 86.5135 246.882 86.3181 247.052 86.0565C247.224 85.7949 247.309 85.4625 247.305 85.0593ZM253.855 80.9091V82.017H249.982V80.9091H253.855ZM251.021 79.2102H252.401V85.918C252.401 86.1857 252.441 86.3873 252.521 86.5227C252.601 86.6551 252.704 86.7459 252.83 86.7951C252.96 86.8413 253.1 86.8643 253.25 86.8643C253.361 86.8643 253.458 86.8567 253.541 86.8413C253.624 86.8259 253.689 86.8136 253.735 86.8043L253.984 87.9446C253.904 87.9754 253.79 88.0062 253.643 88.0369C253.495 88.0708 253.31 88.0893 253.089 88.0923C252.726 88.0985 252.387 88.0339 252.073 87.8984C251.759 87.763 251.505 87.5537 251.311 87.2706C251.118 86.9875 251.021 86.632 251.021 86.2042V79.2102ZM256.915 78.5455V88H255.534V78.5455H256.915ZM258.772 88V80.9091H260.152V88H258.772ZM259.469 79.815C259.229 79.815 259.022 79.735 258.85 79.5749C258.681 79.4118 258.596 79.2179 258.596 78.9933C258.596 78.7655 258.681 78.5716 258.85 78.4116C259.022 78.2485 259.229 78.1669 259.469 78.1669C259.709 78.1669 259.913 78.2485 260.083 78.4116C260.255 78.5716 260.341 78.7655 260.341 78.9933C260.341 79.2179 260.255 79.4118 260.083 79.5749C259.913 79.735 259.709 79.815 259.469 79.815ZM263.389 83.7898V88H262.009V80.9091H263.334V82.0632H263.422C263.585 81.6877 263.84 81.3861 264.188 81.1584C264.539 80.9306 264.98 80.8168 265.513 80.8168C265.996 80.8168 266.419 80.9183 266.782 81.1214C267.146 81.3215 267.427 81.62 267.627 82.017C267.827 82.4141 267.927 82.9049 267.927 83.4897V88H266.547V83.6559C266.547 83.1419 266.413 82.7403 266.145 82.451C265.878 82.1586 265.51 82.0124 265.042 82.0124C264.722 82.0124 264.437 82.0817 264.188 82.2202C263.942 82.3587 263.746 82.5618 263.602 82.8295C263.46 83.0942 263.389 83.4143 263.389 83.7898ZM272.835 88.1431C272.136 88.1431 271.534 87.9938 271.03 87.6953C270.528 87.3937 270.14 86.9705 269.866 86.4258C269.595 85.878 269.46 85.2363 269.46 84.5007C269.46 83.7744 269.595 83.1342 269.866 82.5803C270.14 82.0263 270.522 81.5939 271.011 81.283C271.504 80.9722 272.079 80.8168 272.738 80.8168C273.138 80.8168 273.526 80.8829 273.901 81.0153C274.276 81.1476 274.613 81.3554 274.912 81.6385C275.211 81.9216 275.446 82.2894 275.618 82.7418C275.791 83.1912 275.877 83.7375 275.877 84.3807V84.87H270.24V83.8359H274.524C274.524 83.4728 274.45 83.1512 274.303 82.8711C274.155 82.5879 273.947 82.3648 273.679 82.2017C273.415 82.0386 273.104 81.957 272.747 81.957C272.359 81.957 272.021 82.0524 271.731 82.2433C271.445 82.431 271.223 82.6772 271.066 82.9819C270.913 83.2835 270.836 83.6113 270.836 83.9652V84.7731C270.836 85.247 270.919 85.6502 271.085 85.9826C271.254 86.315 271.49 86.5689 271.791 86.7443C272.093 86.9167 272.445 87.0028 272.848 87.0028C273.11 87.0028 273.349 86.9659 273.564 86.892C273.779 86.8151 273.966 86.7012 274.123 86.5504C274.28 86.3996 274.4 86.2134 274.483 85.9918L275.789 86.2273C275.685 86.612 275.497 86.949 275.226 87.2383C274.958 87.5245 274.621 87.7476 274.215 87.9077C273.812 88.0646 273.352 88.1431 272.835 88.1431ZM280.063 88.1385C279.49 88.1385 278.98 87.9923 278.53 87.6999C278.084 87.4045 277.733 86.9844 277.478 86.4396C277.225 85.8918 277.099 85.2347 277.099 84.4684C277.099 83.7021 277.227 83.0465 277.482 82.5018C277.741 81.957 278.095 81.54 278.544 81.2507C278.993 80.9614 279.503 80.8168 280.072 80.8168C280.512 80.8168 280.866 80.8906 281.134 81.0384C281.405 81.183 281.614 81.3523 281.762 81.5462C281.913 81.7401 282.029 81.9109 282.113 82.0586H282.196V78.5455H283.576V88H282.228V86.8967H282.113C282.029 87.0475 281.909 87.2198 281.752 87.4137C281.599 87.6076 281.386 87.7769 281.115 87.9215C280.845 88.0662 280.494 88.1385 280.063 88.1385ZM280.368 86.9613C280.765 86.9613 281.1 86.8567 281.374 86.6474C281.651 86.435 281.86 86.1411 282.002 85.7656C282.146 85.3902 282.219 84.9531 282.219 84.4545C282.219 83.9621 282.148 83.5312 282.006 83.1619C281.865 82.7926 281.657 82.5049 281.383 82.2987C281.109 82.0924 280.771 81.9893 280.368 81.9893C279.952 81.9893 279.606 82.0971 279.329 82.3125C279.052 82.5279 278.843 82.8219 278.701 83.1942C278.563 83.5666 278.493 83.9867 278.493 84.4545C278.493 84.9285 278.564 85.3548 278.706 85.7333C278.847 86.1119 279.056 86.4119 279.333 86.6335C279.614 86.852 279.958 86.9613 280.368 86.9613Z" fill="#F93535"/>
<rect x="178.5" y="63.5" width="138" height="39" rx="4.5" stroke="#F93535"/>
<rect x="178" y="182" width="139" height="40" rx="5" fill="black"/>
<path d="M221.039 207V197.545H224.501C225.172 197.545 225.728 197.656 226.168 197.878C226.608 198.096 226.937 198.393 227.156 198.769C227.374 199.141 227.483 199.561 227.483 200.029C227.483 200.423 227.411 200.755 227.266 201.026C227.122 201.294 226.928 201.509 226.685 201.673C226.445 201.833 226.18 201.95 225.891 202.023V202.116C226.205 202.131 226.511 202.233 226.809 202.42C227.111 202.605 227.36 202.868 227.557 203.21C227.754 203.551 227.853 203.967 227.853 204.456C227.853 204.94 227.739 205.373 227.511 205.758C227.286 206.14 226.939 206.443 226.468 206.668C225.997 206.889 225.395 207 224.663 207H221.039ZM222.465 205.777H224.524C225.207 205.777 225.697 205.644 225.992 205.38C226.288 205.115 226.435 204.784 226.435 204.387C226.435 204.089 226.36 203.815 226.209 203.565C226.058 203.316 225.843 203.118 225.563 202.97C225.286 202.822 224.957 202.748 224.575 202.748H222.465V205.777ZM222.465 201.636H224.376C224.696 201.636 224.984 201.574 225.24 201.451C225.498 201.328 225.703 201.156 225.854 200.934C226.008 200.709 226.085 200.445 226.085 200.14C226.085 199.749 225.948 199.421 225.674 199.157C225.4 198.892 224.98 198.76 224.413 198.76H222.465V201.636ZM232.744 199.909V201.017H228.871V199.909H232.744ZM229.909 198.21H231.29V204.918C231.29 205.186 231.33 205.387 231.41 205.523C231.49 205.655 231.593 205.746 231.719 205.795C231.848 205.841 231.988 205.864 232.139 205.864C232.25 205.864 232.347 205.857 232.43 205.841C232.513 205.826 232.578 205.814 232.624 205.804L232.873 206.945C232.793 206.975 232.679 207.006 232.531 207.037C232.384 207.071 232.199 207.089 231.977 207.092C231.614 207.098 231.276 207.034 230.962 206.898C230.648 206.763 230.394 206.554 230.2 206.271C230.006 205.987 229.909 205.632 229.909 205.204V198.21ZM235.651 202.79V207H234.271V199.909H235.596V201.063H235.683C235.846 200.688 236.102 200.386 236.45 200.158C236.801 199.931 237.242 199.817 237.775 199.817C238.258 199.817 238.681 199.918 239.044 200.121C239.407 200.321 239.689 200.62 239.889 201.017C240.089 201.414 240.189 201.905 240.189 202.49V207H238.809V202.656C238.809 202.142 238.675 201.74 238.407 201.451C238.139 201.159 237.772 201.012 237.304 201.012C236.984 201.012 236.699 201.082 236.45 201.22C236.203 201.359 236.008 201.562 235.863 201.83C235.722 202.094 235.651 202.414 235.651 202.79ZM248.855 199.909V201.017H244.848V199.909H248.855ZM245.947 207V199.087C245.947 198.644 246.044 198.276 246.238 197.984C246.432 197.689 246.689 197.469 247.009 197.324C247.329 197.176 247.677 197.102 248.052 197.102C248.329 197.102 248.566 197.125 248.763 197.172C248.96 197.215 249.106 197.255 249.202 197.292L248.878 198.409C248.814 198.39 248.731 198.369 248.629 198.344C248.528 198.316 248.404 198.303 248.26 198.303C247.924 198.303 247.684 198.386 247.54 198.552C247.398 198.718 247.327 198.958 247.327 199.272V207H245.947ZM250.279 207V199.909H251.66V207H250.279ZM250.977 198.815C250.737 198.815 250.53 198.735 250.358 198.575C250.189 198.412 250.104 198.218 250.104 197.993C250.104 197.766 250.189 197.572 250.358 197.412C250.53 197.248 250.737 197.167 250.977 197.167C251.217 197.167 251.421 197.248 251.591 197.412C251.763 197.572 251.849 197.766 251.849 197.993C251.849 198.218 251.763 198.412 251.591 198.575C251.421 198.735 251.217 198.815 250.977 198.815ZM254.897 197.545V207H253.517V197.545H254.897ZM258.134 197.545V207H256.754V197.545H258.134ZM263.047 207.143C262.349 207.143 261.747 206.994 261.242 206.695C260.741 206.394 260.353 205.971 260.079 205.426C259.808 204.878 259.673 204.236 259.673 203.501C259.673 202.774 259.808 202.134 260.079 201.58C260.353 201.026 260.735 200.594 261.224 200.283C261.716 199.972 262.292 199.817 262.951 199.817C263.351 199.817 263.738 199.883 264.114 200.015C264.489 200.148 264.826 200.355 265.125 200.638C265.423 200.922 265.659 201.289 265.831 201.742C266.004 202.191 266.09 202.737 266.09 203.381V203.87H260.453V202.836H264.737C264.737 202.473 264.663 202.151 264.516 201.871C264.368 201.588 264.16 201.365 263.892 201.202C263.628 201.039 263.317 200.957 262.96 200.957C262.572 200.957 262.233 201.052 261.944 201.243C261.658 201.431 261.436 201.677 261.279 201.982C261.126 202.283 261.049 202.611 261.049 202.965V203.773C261.049 204.247 261.132 204.65 261.298 204.983C261.467 205.315 261.703 205.569 262.004 205.744C262.306 205.917 262.658 206.003 263.061 206.003C263.323 206.003 263.561 205.966 263.777 205.892C263.992 205.815 264.179 205.701 264.335 205.55C264.492 205.4 264.612 205.213 264.696 204.992L266.002 205.227C265.897 205.612 265.71 205.949 265.439 206.238C265.171 206.525 264.834 206.748 264.428 206.908C264.025 207.065 263.565 207.143 263.047 207.143ZM270.276 207.138C269.703 207.138 269.192 206.992 268.743 206.7C268.297 206.404 267.946 205.984 267.691 205.44C267.438 204.892 267.312 204.235 267.312 203.468C267.312 202.702 267.44 202.047 267.695 201.502C267.954 200.957 268.308 200.54 268.757 200.251C269.206 199.961 269.716 199.817 270.285 199.817C270.725 199.817 271.079 199.891 271.347 200.038C271.618 200.183 271.827 200.352 271.975 200.546C272.125 200.74 272.242 200.911 272.325 201.059H272.409V197.545H273.789V207H272.441V205.897H272.325C272.242 206.047 272.122 206.22 271.965 206.414C271.811 206.608 271.599 206.777 271.328 206.922C271.057 207.066 270.707 207.138 270.276 207.138ZM270.58 205.961C270.977 205.961 271.313 205.857 271.587 205.647C271.864 205.435 272.073 205.141 272.215 204.766C272.359 204.39 272.432 203.953 272.432 203.455C272.432 202.962 272.361 202.531 272.219 202.162C272.078 201.793 271.87 201.505 271.596 201.299C271.322 201.092 270.984 200.989 270.58 200.989C270.165 200.989 269.819 201.097 269.542 201.312C269.265 201.528 269.055 201.822 268.914 202.194C268.775 202.567 268.706 202.987 268.706 203.455C268.706 203.929 268.777 204.355 268.919 204.733C269.06 205.112 269.269 205.412 269.546 205.634C269.826 205.852 270.171 205.961 270.58 205.961Z" fill="white"/>
</svg>
