<svg width="445" height="214" viewBox="0 0 445 214" fill="none" xmlns="http://www.w3.org/2000/svg">
<rect width="187" height="107" fill="#EE3124"/>
<rect y="107" width="187" height="107" fill="#006CC0"/>
<rect x="187" width="129" height="107" fill="#66C5E4"/>
<rect x="187" y="107" width="129" height="107" fill="#22DD99"/>
<rect x="316" width="129" height="107" fill="#121212"/>
<rect x="316" y="107" width="129" height="107" fill="#E08C0D"/>
<path d="M20.7628 85L22.4332 74.8182H23.8253L22.1548 85H20.7628ZM16.174 82.375L16.4077 80.983H24.2429L24.0092 82.375H16.174ZM17.1832 85L18.8537 74.8182H20.2457L18.5753 85H17.1832ZM16.7656 78.8352L16.9943 77.4432H24.8295L24.6009 78.8352H16.7656ZM26.014 85V74.8182H32.6362V76.3643H27.8585V79.1286H32.2931V80.6747H27.8585V83.4538H32.676V85H26.014ZM34.5179 85V74.8182H41.1401V76.3643H36.3624V79.1286H40.7971V80.6747H36.3624V83.4538H41.1799V85H34.5179ZM46.5765 85.1392C45.8606 85.1392 45.2243 85.0166 44.6674 84.7713C44.1139 84.526 43.6764 84.1847 43.3549 83.7472C43.0334 83.3097 42.8627 82.8042 42.8429 82.2308H44.7122C44.7288 82.5059 44.8199 82.7462 44.9856 82.9517C45.1513 83.1539 45.3717 83.3113 45.6468 83.424C45.9219 83.5367 46.2302 83.593 46.5716 83.593C46.9361 83.593 47.2593 83.5301 47.541 83.4041C47.8227 83.2749 48.0431 83.0959 48.2022 82.8672C48.3613 82.6385 48.4392 82.375 48.4359 82.0767C48.4392 81.7685 48.3597 81.4967 48.1973 81.2614C48.0349 81.026 47.7995 80.8421 47.4913 80.7095C47.1864 80.5769 46.8185 80.5107 46.3876 80.5107H45.4877V79.0888H46.3876C46.7422 79.0888 47.0521 79.0275 47.3173 78.9048C47.5858 78.7822 47.7962 78.6098 47.9487 78.3878C48.1011 78.1624 48.1757 77.9022 48.1724 77.6072C48.1757 77.3189 48.1111 77.0687 47.9785 76.8565C47.8493 76.6411 47.6653 76.4737 47.4267 76.3544C47.1913 76.2351 46.9146 76.1754 46.5964 76.1754C46.2849 76.1754 45.9965 76.2318 45.7314 76.3445C45.4662 76.4571 45.2524 76.6179 45.09 76.8267C44.9276 77.0322 44.8414 77.2775 44.8315 77.5625H43.0566C43.0699 76.9924 43.234 76.492 43.5488 76.0611C43.867 75.6269 44.2913 75.2888 44.8216 75.0469C45.3519 74.8016 45.9468 74.679 46.6064 74.679C47.2858 74.679 47.8758 74.8066 48.3762 75.0618C48.88 75.3137 49.2695 75.6534 49.5446 76.081C49.8197 76.5085 49.9572 76.9808 49.9572 77.4979C49.9605 78.0713 49.7915 78.5518 49.4501 78.9396C49.112 79.3274 48.6679 79.581 48.1177 79.7003V79.7798C48.8336 79.8793 49.3822 80.1444 49.7633 80.5753C50.1478 81.0028 50.3384 81.5348 50.335 82.1712C50.335 82.7412 50.1726 83.2517 49.8478 83.7024C49.5263 84.1499 49.0822 84.5012 48.5154 84.7564C47.952 85.0116 47.3057 85.1392 46.5765 85.1392ZM56.1829 74.8182V85H54.3384V76.6129H54.2788L51.8974 78.1342V76.4439L54.4279 74.8182H56.1829ZM58.7681 85V83.6676L62.3029 80.2024C62.641 79.861 62.9227 79.5578 63.1481 79.2926C63.3735 79.0275 63.5425 78.7706 63.6552 78.522C63.7679 78.2734 63.8242 78.0083 63.8242 77.7266C63.8242 77.4051 63.7513 77.13 63.6055 76.9013C63.4596 76.6693 63.2591 76.4903 63.0039 76.3643C62.7487 76.2384 62.4587 76.1754 62.1339 76.1754C61.7991 76.1754 61.5058 76.245 61.2539 76.3842C61.002 76.5201 60.8065 76.714 60.6673 76.9659C60.5314 77.2178 60.4634 77.5178 60.4634 77.8658H58.7085C58.7085 77.2195 58.8559 76.6577 59.1509 76.1804C59.4459 75.7031 59.8519 75.3336 60.369 75.0717C60.8893 74.8099 61.4859 74.679 62.1587 74.679C62.8415 74.679 63.4414 74.8066 63.9585 75.0618C64.4755 75.317 64.8765 75.6667 65.1616 76.1108C65.4499 76.5549 65.5941 77.062 65.5941 77.6321C65.5941 78.0133 65.5212 78.3878 65.3754 78.7557C65.2295 79.1236 64.9727 79.5312 64.6048 79.9787C64.2402 80.4261 63.7281 80.968 63.0685 81.6044L61.3136 83.3892V83.4588H65.7482V85H58.7681ZM67.0607 83.1108V81.6442L71.381 74.8182H72.604V76.9062H71.8583L68.9499 81.5149V81.5945H74.9805V83.1108H67.0607ZM71.918 85V82.6634L71.9379 82.0071V74.8182H73.6779V85H71.918Z" fill="white"/>
<path d="M209.763 85L211.433 74.8182H212.825L211.155 85H209.763ZM205.174 82.375L205.408 80.983H213.243L213.009 82.375H205.174ZM206.183 85L207.854 74.8182H209.246L207.575 85H206.183ZM205.766 78.8352L205.994 77.4432H213.83L213.601 78.8352H205.766ZM218.643 85.1392C218.156 85.1359 217.68 85.0514 217.216 84.8857C216.752 84.7166 216.335 84.4432 215.964 84.0653C215.592 83.6842 215.297 83.1787 215.079 82.549C214.86 81.916 214.752 81.1321 214.756 80.1974C214.756 79.3258 214.848 78.5485 215.034 77.8658C215.22 77.183 215.486 76.6063 215.834 76.1357C216.182 75.6617 216.602 75.3004 217.092 75.0518C217.586 74.8033 218.138 74.679 218.748 74.679C219.387 74.679 219.954 74.8049 220.448 75.0568C220.945 75.3087 221.346 75.6534 221.651 76.0909C221.956 76.5251 222.145 77.0156 222.218 77.5625H220.403C220.31 77.1714 220.12 76.8598 219.831 76.6278C219.546 76.3925 219.185 76.2749 218.748 76.2749C218.042 76.2749 217.498 76.5814 217.117 77.1946C216.739 77.8078 216.549 78.6496 216.545 79.7202H216.615C216.777 79.4285 216.988 79.1783 217.246 78.9695C217.505 78.7607 217.796 78.5999 218.121 78.4872C218.449 78.3712 218.796 78.3132 219.16 78.3132C219.757 78.3132 220.292 78.4557 220.766 78.7408C221.243 79.0258 221.621 79.4186 221.9 79.919C222.178 80.4162 222.316 80.9863 222.312 81.6293C222.316 82.2988 222.163 82.9003 221.855 83.4339C221.547 83.9643 221.117 84.3819 220.567 84.6868C220.017 84.9917 219.376 85.1425 218.643 85.1392ZM218.633 83.6477C218.995 83.6477 219.318 83.5599 219.603 83.3842C219.888 83.2086 220.113 82.9716 220.279 82.6733C220.445 82.375 220.526 82.0402 220.523 81.669C220.526 81.3045 220.446 80.9747 220.284 80.6797C220.125 80.3847 219.904 80.151 219.623 79.9787C219.341 79.8063 219.019 79.7202 218.658 79.7202C218.39 79.7202 218.14 79.7715 217.907 79.8743C217.675 79.977 217.473 80.1196 217.301 80.3018C217.129 80.4808 216.993 80.6896 216.893 80.9283C216.797 81.1636 216.747 81.4155 216.744 81.6839C216.747 82.0386 216.83 82.3651 216.993 82.6634C217.155 82.9616 217.379 83.2003 217.664 83.3793C217.949 83.5582 218.272 83.6477 218.633 83.6477ZM227.721 85.1392C227.234 85.1359 226.759 85.0514 226.295 84.8857C225.831 84.7166 225.413 84.4432 225.042 84.0653C224.671 83.6842 224.376 83.1787 224.157 82.549C223.938 81.916 223.83 81.1321 223.834 80.1974C223.834 79.3258 223.926 78.5485 224.112 77.8658C224.298 77.183 224.564 76.6063 224.912 76.1357C225.26 75.6617 225.68 75.3004 226.17 75.0518C226.664 74.8033 227.216 74.679 227.826 74.679C228.465 74.679 229.032 74.8049 229.526 75.0568C230.023 75.3087 230.424 75.6534 230.729 76.0909C231.034 76.5251 231.223 77.0156 231.296 77.5625H229.481C229.389 77.1714 229.198 76.8598 228.91 76.6278C228.625 76.3925 228.263 76.2749 227.826 76.2749C227.12 76.2749 226.576 76.5814 226.195 77.1946C225.817 77.8078 225.627 78.6496 225.623 79.7202H225.693C225.855 79.4285 226.066 79.1783 226.324 78.9695C226.583 78.7607 226.875 78.5999 227.199 78.4872C227.528 78.3712 227.874 78.3132 228.238 78.3132C228.835 78.3132 229.37 78.4557 229.844 78.7408C230.322 79.0258 230.699 79.4186 230.978 79.919C231.256 80.4162 231.394 80.9863 231.39 81.6293C231.394 82.2988 231.241 82.9003 230.933 83.4339C230.625 83.9643 230.196 84.3819 229.645 84.6868C229.095 84.9917 228.454 85.1425 227.721 85.1392ZM227.711 83.6477C228.073 83.6477 228.396 83.5599 228.681 83.3842C228.966 83.2086 229.191 82.9716 229.357 82.6733C229.523 82.375 229.604 82.0402 229.601 81.669C229.604 81.3045 229.524 80.9747 229.362 80.6797C229.203 80.3847 228.983 80.151 228.701 79.9787C228.419 79.8063 228.098 79.7202 227.736 79.7202C227.468 79.7202 227.218 79.7715 226.986 79.8743C226.754 79.977 226.551 80.1196 226.379 80.3018C226.207 80.4808 226.071 80.6896 225.971 80.9283C225.875 81.1636 225.826 81.4155 225.822 81.6839C225.826 82.0386 225.908 82.3651 226.071 82.6634C226.233 82.9616 226.457 83.2003 226.742 83.3793C227.027 83.5582 227.35 83.6477 227.711 83.6477ZM241.885 78.2536H240.026C239.973 77.9486 239.875 77.6785 239.733 77.4432C239.59 77.2045 239.413 77.0024 239.201 76.8366C238.989 76.6709 238.747 76.5466 238.475 76.4638C238.206 76.3776 237.916 76.3345 237.605 76.3345C237.051 76.3345 236.561 76.4737 236.133 76.7521C235.706 77.0272 235.371 77.4316 235.129 77.9652C234.887 78.4955 234.766 79.1435 234.766 79.9091C234.766 80.688 234.887 81.3442 235.129 81.8778C235.374 82.4081 235.709 82.8092 236.133 83.081C236.561 83.3494 237.05 83.4837 237.6 83.4837C237.905 83.4837 238.19 83.4439 238.455 83.3643C238.724 83.2815 238.964 83.1605 239.176 83.0014C239.391 82.8423 239.572 82.6468 239.718 82.4148C239.867 82.1828 239.97 81.9176 240.026 81.6193L241.885 81.6293C241.816 82.1132 241.665 82.5672 241.433 82.9915C241.204 83.4157 240.904 83.7902 240.533 84.1151C240.162 84.4366 239.728 84.6884 239.231 84.8707C238.733 85.0497 238.182 85.1392 237.575 85.1392C236.68 85.1392 235.881 84.9321 235.179 84.5178C234.476 84.1035 233.923 83.5052 233.518 82.723C233.114 81.9408 232.912 81.0028 232.912 79.9091C232.912 78.812 233.116 77.8741 233.523 77.0952C233.931 76.313 234.486 75.7147 235.189 75.3004C235.891 74.8861 236.687 74.679 237.575 74.679C238.142 74.679 238.669 74.7585 239.156 74.9176C239.643 75.0767 240.077 75.3104 240.459 75.6186C240.84 75.9235 241.153 76.2981 241.398 76.7422C241.647 77.183 241.809 77.6868 241.885 78.2536ZM247.015 85.1392C246.352 85.1392 245.759 85.0149 245.235 84.7663C244.711 84.5144 244.295 84.1697 243.987 83.7322C243.682 83.2947 243.52 82.7943 243.5 82.2308H245.29C245.323 82.6484 245.504 82.9898 245.832 83.255C246.16 83.5168 246.554 83.6477 247.015 83.6477C247.376 83.6477 247.698 83.5649 247.979 83.3991C248.261 83.2334 248.483 83.0031 248.646 82.7081C248.808 82.4131 248.888 82.0767 248.884 81.6989C248.888 81.3144 248.806 80.973 248.641 80.6747C248.475 80.3764 248.248 80.1428 247.96 79.9737C247.671 79.8014 247.34 79.7152 246.965 79.7152C246.66 79.7119 246.36 79.7682 246.065 79.8842C245.77 80.0002 245.537 80.1527 245.364 80.3416L243.699 80.0682L244.231 74.8182H250.137V76.3594H245.757L245.464 79.0589H245.523C245.712 78.8369 245.979 78.6529 246.324 78.5071C246.669 78.358 247.046 78.2834 247.457 78.2834C248.074 78.2834 248.624 78.4292 249.108 78.7209C249.592 79.0092 249.973 79.407 250.251 79.9141C250.53 80.4212 250.669 81.0012 250.669 81.6541C250.669 82.3269 250.513 82.9268 250.202 83.4538C249.893 83.9775 249.464 84.3902 248.914 84.6918C248.367 84.9901 247.734 85.1392 247.015 85.1392ZM252.434 85V74.8182H259.056V76.3643H254.278V79.1286H258.713V80.6747H254.278V83.4538H259.096V85H252.434ZM260.654 83.1108V81.6442L264.975 74.8182H266.198V76.9062H265.452L262.544 81.5149V81.5945H268.574V83.1108H260.654ZM265.512 85V82.6634L265.532 82.0071V74.8182H267.272V85H265.512Z" fill="white"/>
<path d="M334.763 85L336.433 74.8182H337.825L336.155 85H334.763ZM330.174 82.375L330.408 80.983H338.243L338.009 82.375H330.174ZM331.183 85L332.854 74.8182H334.246L332.575 85H331.183ZM330.766 78.8352L330.994 77.4432H338.83L338.601 78.8352H330.766ZM344.056 74.8182V85H342.211V76.6129H342.152L339.77 78.1342V76.4439L342.301 74.8182H344.056ZM346.641 85V83.6676L350.176 80.2024C350.514 79.861 350.796 79.5578 351.021 79.2926C351.247 79.0275 351.416 78.7706 351.528 78.522C351.641 78.2734 351.697 78.0083 351.697 77.7266C351.697 77.4051 351.624 77.13 351.479 76.9013C351.333 76.6693 351.132 76.4903 350.877 76.3643C350.622 76.2384 350.332 76.1754 350.007 76.1754C349.672 76.1754 349.379 76.245 349.127 76.3842C348.875 76.5201 348.68 76.714 348.54 76.9659C348.404 77.2178 348.336 77.5178 348.336 77.8658H346.581C346.581 77.2195 346.729 76.6577 347.024 76.1804C347.319 75.7031 347.725 75.3336 348.242 75.0717C348.762 74.8099 349.359 74.679 350.032 74.679C350.715 74.679 351.314 74.8066 351.831 75.0618C352.349 75.317 352.75 75.6667 353.035 76.1108C353.323 76.5549 353.467 77.062 353.467 77.6321C353.467 78.0133 353.394 78.3878 353.248 78.7557C353.103 79.1236 352.846 79.5312 352.478 79.9787C352.113 80.4261 351.601 80.968 350.942 81.6044L349.187 83.3892V83.4588H353.621V85H346.641ZM359.478 74.8182V85H357.633V76.6129H357.574L355.192 78.1342V76.4439L357.723 74.8182H359.478ZM362.063 85V83.6676L365.598 80.2024C365.936 79.861 366.218 79.5578 366.443 79.2926C366.668 79.0275 366.837 78.7706 366.95 78.522C367.063 78.2734 367.119 78.0083 367.119 77.7266C367.119 77.4051 367.046 77.13 366.9 76.9013C366.755 76.6693 366.554 76.4903 366.299 76.3643C366.044 76.2384 365.754 76.1754 365.429 76.1754C365.094 76.1754 364.801 76.245 364.549 76.3842C364.297 76.5201 364.101 76.714 363.962 76.9659C363.826 77.2178 363.758 77.5178 363.758 77.8658H362.003C362.003 77.2195 362.151 76.6577 362.446 76.1804C362.741 75.7031 363.147 75.3336 363.664 75.0717C364.184 74.8099 364.781 74.679 365.454 74.679C366.136 74.679 366.736 74.8066 367.253 75.0618C367.77 75.317 368.171 75.6667 368.456 76.1108C368.745 76.5549 368.889 77.062 368.889 77.6321C368.889 78.0133 368.816 78.3878 368.67 78.7557C368.524 79.1236 368.268 79.5312 367.9 79.9787C367.535 80.4261 367.023 80.968 366.363 81.6044L364.608 83.3892V83.4588H369.043V85H362.063ZM374.9 74.8182V85H373.055V76.6129H372.996L370.614 78.1342V76.4439L373.145 74.8182H374.9ZM377.485 85V83.6676L381.02 80.2024C381.358 79.861 381.64 79.5578 381.865 79.2926C382.09 79.0275 382.259 78.7706 382.372 78.522C382.485 78.2734 382.541 78.0083 382.541 77.7266C382.541 77.4051 382.468 77.13 382.322 76.9013C382.176 76.6693 381.976 76.4903 381.721 76.3643C381.465 76.2384 381.175 76.1754 380.851 76.1754C380.516 76.1754 380.223 76.245 379.971 76.3842C379.719 76.5201 379.523 76.714 379.384 76.9659C379.248 77.2178 379.18 77.5178 379.18 77.8658H377.425C377.425 77.2195 377.573 76.6577 377.868 76.1804C378.163 75.7031 378.569 75.3336 379.086 75.0717C379.606 74.8099 380.203 74.679 380.876 74.679C381.558 74.679 382.158 74.8066 382.675 75.0618C383.192 75.317 383.593 75.6667 383.878 76.1108C384.167 76.5549 384.311 77.062 384.311 77.6321C384.311 78.0133 384.238 78.3878 384.092 78.7557C383.946 79.1236 383.689 79.5312 383.322 79.9787C382.957 80.4261 382.445 80.968 381.785 81.6044L380.03 83.3892V83.4588H384.465V85H377.485Z" fill="white"/>
<path d="M20.7628 193L22.4332 182.818H23.8253L22.1548 193H20.7628ZM16.174 190.375L16.4077 188.983H24.2429L24.0092 190.375H16.174ZM17.1832 193L18.8537 182.818H20.2457L18.5753 193H17.1832ZM16.7656 186.835L16.9943 185.443H24.8295L24.6009 186.835H16.7656ZM29.6781 193.194C28.8594 193.194 28.1568 192.987 27.5701 192.572C26.9868 192.155 26.5377 191.553 26.2228 190.768C25.9113 189.979 25.7555 189.029 25.7555 187.919C25.7588 186.809 25.9163 185.864 26.2278 185.085C26.5427 184.303 26.9918 183.706 27.5751 183.295C28.1618 182.884 28.8627 182.679 29.6781 182.679C30.4934 182.679 31.1944 182.884 31.7811 183.295C32.3677 183.706 32.8168 184.303 33.1284 185.085C33.4432 185.867 33.6007 186.812 33.6007 187.919C33.6007 189.033 33.4432 189.984 33.1284 190.773C32.8168 191.558 32.3677 192.158 31.7811 192.572C31.1977 192.987 30.4967 193.194 29.6781 193.194ZM29.6781 191.638C30.3145 191.638 30.8166 191.325 31.1845 190.698C31.5557 190.068 31.7413 189.142 31.7413 187.919C31.7413 187.11 31.6568 186.431 31.4877 185.881C31.3187 185.33 31.0801 184.916 30.7718 184.638C30.4636 184.356 30.099 184.215 29.6781 184.215C29.045 184.215 28.5446 184.53 28.1767 185.16C27.8088 185.786 27.6232 186.706 27.6199 187.919C27.6165 188.731 27.6977 189.414 27.8635 189.967C28.0325 190.521 28.2711 190.938 28.5794 191.22C28.8876 191.499 29.2538 191.638 29.6781 191.638ZM39.016 193.194C38.1973 193.194 37.4947 192.987 36.908 192.572C36.3247 192.155 35.8756 191.553 35.5607 190.768C35.2492 189.979 35.0934 189.029 35.0934 187.919C35.0967 186.809 35.2541 185.864 35.5657 185.085C35.8806 184.303 36.3297 183.706 36.913 183.295C37.4996 182.884 38.2006 182.679 39.016 182.679C39.8313 182.679 40.5323 182.884 41.119 183.295C41.7056 183.706 42.1547 184.303 42.4663 185.085C42.7811 185.867 42.9386 186.812 42.9386 187.919C42.9386 189.033 42.7811 189.984 42.4663 190.773C42.1547 191.558 41.7056 192.158 41.119 192.572C40.5356 192.987 39.8346 193.194 39.016 193.194ZM39.016 191.638C39.6523 191.638 40.1545 191.325 40.5224 190.698C40.8936 190.068 41.0792 189.142 41.0792 187.919C41.0792 187.11 40.9947 186.431 40.8256 185.881C40.6566 185.33 40.418 184.916 40.1097 184.638C39.8015 184.356 39.4369 184.215 39.016 184.215C38.3829 184.215 37.8825 184.53 37.5146 185.16C37.1467 185.786 36.9611 186.706 36.9577 187.919C36.9544 188.731 37.0356 189.414 37.2013 189.967C37.3704 190.521 37.609 190.938 37.9173 191.22C38.2255 191.499 38.5917 191.638 39.016 191.638ZM48.3191 193.139C47.8319 193.136 47.3562 193.051 46.8922 192.886C46.4282 192.717 46.0106 192.443 45.6394 192.065C45.2682 191.684 44.9732 191.179 44.7544 190.549C44.5357 189.916 44.428 189.132 44.4313 188.197C44.4313 187.326 44.5241 186.549 44.7097 185.866C44.8953 185.183 45.1621 184.606 45.5101 184.136C45.8581 183.662 46.2774 183.3 46.7679 183.052C47.2618 182.803 47.8136 182.679 48.4235 182.679C49.0632 182.679 49.6299 182.805 50.1238 183.057C50.6209 183.309 51.022 183.653 51.3269 184.091C51.6318 184.525 51.8207 185.016 51.8936 185.562H50.079C49.9862 185.171 49.7956 184.86 49.5073 184.628C49.2222 184.393 48.861 184.275 48.4235 184.275C47.7175 184.275 47.1739 184.581 46.7928 185.195C46.415 185.808 46.2244 186.65 46.2211 187.72H46.2907C46.4531 187.429 46.6635 187.178 46.9221 186.969C47.1806 186.761 47.4722 186.6 47.7971 186.487C48.1252 186.371 48.4715 186.313 48.8361 186.313C49.4327 186.313 49.968 186.456 50.4419 186.741C50.9192 187.026 51.2971 187.419 51.5755 187.919C51.8539 188.416 51.9914 188.986 51.9881 189.629C51.9914 190.299 51.839 190.9 51.5307 191.434C51.2225 191.964 50.7933 192.382 50.2431 192.687C49.6929 192.992 49.0516 193.143 48.3191 193.139ZM48.3091 191.648C48.6704 191.648 48.9935 191.56 49.2786 191.384C49.5636 191.209 49.789 190.972 49.9547 190.673C50.1204 190.375 50.2016 190.04 50.1983 189.669C50.2016 189.304 50.1221 188.975 49.9597 188.68C49.8006 188.385 49.5802 188.151 49.2985 187.979C49.0167 187.806 48.6953 187.72 48.334 187.72C48.0655 187.72 47.8153 187.772 47.5833 187.874C47.3513 187.977 47.1491 188.12 46.9767 188.302C46.8044 188.481 46.6685 188.69 46.5691 188.928C46.473 189.164 46.4232 189.415 46.4199 189.684C46.4232 190.039 46.5061 190.365 46.6685 190.663C46.8309 190.962 47.0546 191.2 47.3397 191.379C47.6247 191.558 47.9479 191.648 48.3091 191.648ZM62.4831 186.254H60.6238C60.5707 185.949 60.473 185.679 60.3304 185.443C60.1879 185.205 60.0106 185.002 59.7985 184.837C59.5864 184.671 59.3444 184.547 59.0726 184.464C58.8042 184.378 58.5141 184.335 58.2026 184.335C57.6491 184.335 57.1586 184.474 56.731 184.752C56.3034 185.027 55.9687 185.432 55.7267 185.965C55.4848 186.496 55.3638 187.143 55.3638 187.909C55.3638 188.688 55.4848 189.344 55.7267 189.878C55.972 190.408 56.3068 190.809 56.731 191.081C57.1586 191.349 57.6474 191.484 58.1976 191.484C58.5025 191.484 58.7876 191.444 59.0527 191.364C59.3212 191.281 59.5615 191.161 59.7736 191.001C59.9891 190.842 60.1697 190.647 60.3155 190.415C60.4647 190.183 60.5674 189.918 60.6238 189.619L62.4831 189.629C62.4135 190.113 62.2627 190.567 62.0307 190.991C61.802 191.416 61.5021 191.79 61.1309 192.115C60.7596 192.437 60.3255 192.688 59.8283 192.871C59.3311 193.05 58.7793 193.139 58.1728 193.139C57.2779 193.139 56.4791 192.932 55.7765 192.518C55.0738 192.103 54.5203 191.505 54.1159 190.723C53.7116 189.941 53.5094 189.003 53.5094 187.909C53.5094 186.812 53.7132 185.874 54.1209 185.095C54.5286 184.313 55.0837 183.715 55.7864 183.3C56.4891 182.886 57.2845 182.679 58.1728 182.679C58.7395 182.679 59.2665 182.759 59.7537 182.918C60.2409 183.077 60.6751 183.31 61.0563 183.619C61.4374 183.924 61.7507 184.298 61.9959 184.742C62.2445 185.183 62.4069 185.687 62.4831 186.254ZM72.8874 186.254H71.0281C70.975 185.949 70.8772 185.679 70.7347 185.443C70.5922 185.205 70.4149 185.002 70.2028 184.837C69.9906 184.671 69.7487 184.547 69.4769 184.464C69.2085 184.378 68.9184 184.335 68.6069 184.335C68.0534 184.335 67.5629 184.474 67.1353 184.752C66.7077 185.027 66.373 185.432 66.131 185.965C65.8891 186.496 65.7681 187.143 65.7681 187.909C65.7681 188.688 65.8891 189.344 66.131 189.878C66.3763 190.408 66.7111 190.809 67.1353 191.081C67.5629 191.349 68.0517 191.484 68.6019 191.484C68.9068 191.484 69.1919 191.444 69.457 191.364C69.7255 191.281 69.9658 191.161 70.1779 191.001C70.3933 190.842 70.574 190.647 70.7198 190.415C70.869 190.183 70.9717 189.918 71.0281 189.619L72.8874 189.629C72.8178 190.113 72.667 190.567 72.435 190.991C72.2063 191.416 71.9064 191.79 71.5352 192.115C71.1639 192.437 70.7298 192.688 70.2326 192.871C69.7354 193.05 69.1836 193.139 68.5771 193.139C67.6822 193.139 66.8834 192.932 66.1808 192.518C65.4781 192.103 64.9246 191.505 64.5202 190.723C64.1159 189.941 63.9137 189.003 63.9137 187.909C63.9137 186.812 64.1175 185.874 64.5252 185.095C64.9329 184.313 65.488 183.715 66.1907 183.3C66.8933 182.886 67.6888 182.679 68.5771 182.679C69.1438 182.679 69.6708 182.759 70.158 182.918C70.6452 183.077 71.0794 183.31 71.4606 183.619C71.8417 183.924 72.1549 184.298 72.4002 184.742C72.6488 185.183 72.8112 185.687 72.8874 186.254ZM78.2406 193.194C77.4219 193.194 76.7193 192.987 76.1326 192.572C75.5493 192.155 75.1002 191.553 74.7853 190.768C74.4738 189.979 74.318 189.029 74.318 187.919C74.3213 186.809 74.4788 185.864 74.7903 185.085C75.1052 184.303 75.5543 183.706 76.1376 183.295C76.7243 182.884 77.4252 182.679 78.2406 182.679C79.0559 182.679 79.7569 182.884 80.3436 183.295C80.9302 183.706 81.3793 184.303 81.6909 185.085C82.0057 185.867 82.1632 186.812 82.1632 187.919C82.1632 189.033 82.0057 189.984 81.6909 190.773C81.3793 191.558 80.9302 192.158 80.3436 192.572C79.7602 192.987 79.0592 193.194 78.2406 193.194ZM78.2406 191.638C78.877 191.638 79.3791 191.325 79.747 190.698C80.1182 190.068 80.3038 189.142 80.3038 187.919C80.3038 187.11 80.2193 186.431 80.0502 185.881C79.8812 185.33 79.6426 184.916 79.3343 184.638C79.0261 184.356 78.6615 184.215 78.2406 184.215C77.6075 184.215 77.1071 184.53 76.7392 185.16C76.3713 185.786 76.1857 186.706 76.1824 187.919C76.179 188.731 76.2602 189.414 76.426 189.967C76.595 190.521 76.8336 190.938 77.1419 191.22C77.4501 191.499 77.8163 191.638 78.2406 191.638Z" fill="white"/>
<path d="M209.763 193L211.433 182.818H212.825L211.155 193H209.763ZM205.174 190.375L205.408 188.983H213.243L213.009 190.375H205.174ZM206.183 193L207.854 182.818H209.246L207.575 193H206.183ZM205.766 186.835L205.994 185.443H213.83L213.601 186.835H205.766ZM214.915 193V191.668L218.449 188.202C218.787 187.861 219.069 187.558 219.295 187.293C219.52 187.027 219.689 186.771 219.802 186.522C219.914 186.273 219.971 186.008 219.971 185.727C219.971 185.405 219.898 185.13 219.752 184.901C219.606 184.669 219.406 184.49 219.15 184.364C218.895 184.238 218.605 184.175 218.28 184.175C217.946 184.175 217.652 184.245 217.4 184.384C217.148 184.52 216.953 184.714 216.814 184.966C216.678 185.218 216.61 185.518 216.61 185.866H214.855C214.855 185.219 215.002 184.658 215.297 184.18C215.592 183.703 215.998 183.334 216.515 183.072C217.036 182.81 217.632 182.679 218.305 182.679C218.988 182.679 219.588 182.807 220.105 183.062C220.622 183.317 221.023 183.667 221.308 184.111C221.596 184.555 221.741 185.062 221.741 185.632C221.741 186.013 221.668 186.388 221.522 186.756C221.376 187.124 221.119 187.531 220.751 187.979C220.387 188.426 219.875 188.968 219.215 189.604L217.46 191.389V191.459H221.895V193H214.915ZM223.61 193V191.668L227.145 188.202C227.483 187.861 227.765 187.558 227.99 187.293C228.215 187.027 228.384 186.771 228.497 186.522C228.61 186.273 228.666 186.008 228.666 185.727C228.666 185.405 228.593 185.13 228.447 184.901C228.301 184.669 228.101 184.49 227.846 184.364C227.59 184.238 227.3 184.175 226.976 184.175C226.641 184.175 226.348 184.245 226.096 184.384C225.844 184.52 225.648 184.714 225.509 184.966C225.373 185.218 225.305 185.518 225.305 185.866H223.55C223.55 185.219 223.698 184.658 223.993 184.18C224.288 183.703 224.694 183.334 225.211 183.072C225.731 182.81 226.328 182.679 227.001 182.679C227.683 182.679 228.283 182.807 228.8 183.062C229.317 183.317 229.718 183.667 230.003 184.111C230.292 184.555 230.436 185.062 230.436 185.632C230.436 186.013 230.363 186.388 230.217 186.756C230.071 187.124 229.814 187.531 229.447 187.979C229.082 188.426 228.57 188.968 227.91 189.604L226.155 191.389V191.459H230.59V193H223.61ZM235.855 193H232.405V182.818H235.925C236.935 182.818 237.804 183.022 238.53 183.43C239.259 183.834 239.819 184.416 240.21 185.175C240.601 185.934 240.797 186.842 240.797 187.899C240.797 188.96 240.599 189.871 240.205 190.634C239.814 191.396 239.249 191.981 238.51 192.388C237.774 192.796 236.889 193 235.855 193ZM234.249 191.404H235.765C236.475 191.404 237.066 191.275 237.54 191.016C238.014 190.754 238.371 190.365 238.609 189.848C238.848 189.328 238.967 188.678 238.967 187.899C238.967 187.12 238.848 186.474 238.609 185.96C238.371 185.443 238.018 185.057 237.55 184.802C237.086 184.543 236.51 184.414 235.82 184.414H234.249V191.404ZM245.999 193H242.549V182.818H246.069C247.08 182.818 247.948 183.022 248.674 183.43C249.403 183.834 249.963 184.416 250.355 185.175C250.746 185.934 250.941 186.842 250.941 187.899C250.941 188.96 250.744 189.871 250.35 190.634C249.959 191.396 249.393 191.981 248.654 192.388C247.919 192.796 247.034 193 245.999 193ZM244.394 191.404H245.91C246.619 191.404 247.211 191.275 247.685 191.016C248.159 190.754 248.515 190.365 248.754 189.848C248.992 189.328 249.112 188.678 249.112 187.899C249.112 187.12 248.992 186.474 248.754 185.96C248.515 185.443 248.162 185.057 247.695 184.802C247.231 184.543 246.654 184.414 245.965 184.414H244.394V191.404ZM256.129 182.679C256.616 182.682 257.09 182.768 257.551 182.938C258.015 183.103 258.433 183.375 258.804 183.753C259.175 184.127 259.47 184.629 259.689 185.259C259.907 185.889 260.017 186.668 260.017 187.596C260.02 188.471 259.927 189.253 259.738 189.942C259.553 190.629 259.286 191.209 258.938 191.683C258.59 192.156 258.171 192.518 257.68 192.766C257.19 193.015 256.638 193.139 256.025 193.139C255.382 193.139 254.812 193.013 254.314 192.761C253.821 192.509 253.421 192.165 253.116 191.727C252.811 191.29 252.624 190.789 252.555 190.226H254.369C254.462 190.63 254.651 190.952 254.936 191.19C255.224 191.426 255.587 191.543 256.025 191.543C256.731 191.543 257.274 191.237 257.655 190.624C258.037 190.01 258.227 189.159 258.227 188.068H258.157C257.995 188.36 257.785 188.612 257.526 188.824C257.268 189.033 256.974 189.193 256.646 189.306C256.321 189.419 255.977 189.475 255.612 189.475C255.015 189.475 254.479 189.333 254.001 189.048C253.527 188.763 253.151 188.371 252.873 187.874C252.598 187.377 252.458 186.809 252.455 186.169C252.455 185.506 252.608 184.911 252.912 184.384C253.221 183.854 253.65 183.436 254.2 183.131C254.75 182.823 255.393 182.672 256.129 182.679ZM256.134 184.17C255.776 184.17 255.453 184.258 255.165 184.434C254.88 184.606 254.654 184.842 254.488 185.14C254.326 185.435 254.245 185.765 254.245 186.129C254.248 186.491 254.329 186.819 254.488 187.114C254.651 187.409 254.871 187.642 255.15 187.815C255.431 187.987 255.753 188.073 256.114 188.073C256.383 188.073 256.633 188.022 256.865 187.919C257.097 187.816 257.299 187.674 257.471 187.491C257.647 187.306 257.783 187.095 257.879 186.86C257.979 186.625 258.027 186.376 258.023 186.114C258.023 185.766 257.94 185.445 257.775 185.15C257.612 184.855 257.389 184.618 257.104 184.439C256.822 184.26 256.499 184.17 256.134 184.17ZM265.207 182.679C265.694 182.682 266.168 182.768 266.629 182.938C267.093 183.103 267.511 183.375 267.882 183.753C268.253 184.127 268.548 184.629 268.767 185.259C268.986 185.889 269.095 186.668 269.095 187.596C269.098 188.471 269.006 189.253 268.817 189.942C268.631 190.629 268.364 191.209 268.016 191.683C267.668 192.156 267.249 192.518 266.758 192.766C266.268 193.015 265.716 193.139 265.103 193.139C264.46 193.139 263.89 193.013 263.393 192.761C262.899 192.509 262.499 192.165 262.194 191.727C261.89 191.29 261.702 190.789 261.633 190.226H263.447C263.54 190.63 263.729 190.952 264.014 191.19C264.302 191.426 264.665 191.543 265.103 191.543C265.809 191.543 266.352 191.237 266.733 190.624C267.115 190.01 267.305 189.159 267.305 188.068H267.236C267.073 188.36 266.863 188.612 266.604 188.824C266.346 189.033 266.052 189.193 265.724 189.306C265.399 189.419 265.055 189.475 264.69 189.475C264.094 189.475 263.557 189.333 263.079 189.048C262.605 188.763 262.229 188.371 261.951 187.874C261.676 187.377 261.537 186.809 261.533 186.169C261.533 185.506 261.686 184.911 261.991 184.384C262.299 183.854 262.728 183.436 263.278 183.131C263.828 182.823 264.471 182.672 265.207 182.679ZM265.212 184.17C264.854 184.17 264.531 184.258 264.243 184.434C263.958 184.606 263.732 184.842 263.567 185.14C263.404 185.435 263.323 185.765 263.323 186.129C263.326 186.491 263.407 186.819 263.567 187.114C263.729 187.409 263.949 187.642 264.228 187.815C264.51 187.987 264.831 188.073 265.192 188.073C265.461 188.073 265.711 188.022 265.943 187.919C266.175 187.816 266.377 187.674 266.55 187.491C266.725 187.306 266.861 187.095 266.957 186.86C267.057 186.625 267.105 186.376 267.101 186.114C267.101 185.766 267.019 185.445 266.853 185.15C266.69 184.855 266.467 184.618 266.182 184.439C265.9 184.26 265.577 184.17 265.212 184.17Z" fill="white"/>
<path d="M334.763 193L336.433 182.818H337.825L336.155 193H334.763ZM330.174 190.375L330.408 188.983H338.243L338.009 190.375H330.174ZM331.183 193L332.854 182.818H334.246L332.575 193H331.183ZM330.766 186.835L330.994 185.443H338.83L338.601 186.835H330.766ZM340.014 193V182.818H346.636V184.364H341.858V187.129H346.293V188.675H341.858V191.454H346.676V193H340.014ZM352.182 193.194C351.363 193.194 350.661 192.987 350.074 192.572C349.491 192.155 349.042 191.553 348.727 190.768C348.415 189.979 348.259 189.029 348.259 187.919C348.263 186.809 348.42 185.864 348.732 185.085C349.047 184.303 349.496 183.706 350.079 183.295C350.666 182.884 351.367 182.679 352.182 182.679C352.997 182.679 353.698 182.884 354.285 183.295C354.872 183.706 355.321 184.303 355.632 185.085C355.947 185.867 356.105 186.812 356.105 187.919C356.105 189.033 355.947 189.984 355.632 190.773C355.321 191.558 354.872 192.158 354.285 192.572C353.702 192.987 353.001 193.194 352.182 193.194ZM352.182 191.638C352.818 191.638 353.32 191.325 353.688 190.698C354.06 190.068 354.245 189.142 354.245 187.919C354.245 187.11 354.161 186.431 353.992 185.881C353.823 185.33 353.584 184.916 353.276 184.638C352.968 184.356 352.603 184.215 352.182 184.215C351.549 184.215 351.048 184.53 350.681 185.16C350.313 185.786 350.127 186.706 350.124 187.919C350.12 188.731 350.202 189.414 350.367 189.967C350.536 190.521 350.775 190.938 351.083 191.22C351.392 191.499 351.758 191.638 352.182 191.638ZM361.376 193.139C360.637 193.139 359.98 193.015 359.407 192.766C358.837 192.518 358.389 192.178 358.065 191.747C357.743 191.313 357.584 190.821 357.587 190.271C357.584 189.843 357.677 189.45 357.866 189.092C358.055 188.734 358.31 188.436 358.631 188.197C358.956 187.955 359.317 187.801 359.715 187.735V187.665C359.192 187.549 358.767 187.283 358.442 186.865C358.121 186.444 357.962 185.959 357.965 185.408C357.962 184.885 358.108 184.417 358.403 184.006C358.698 183.595 359.102 183.272 359.616 183.037C360.129 182.798 360.716 182.679 361.376 182.679C362.029 182.679 362.61 182.798 363.121 183.037C363.634 183.272 364.039 183.595 364.334 184.006C364.632 184.417 364.781 184.885 364.781 185.408C364.781 185.959 364.617 186.444 364.289 186.865C363.964 187.283 363.545 187.549 363.031 187.665V187.735C363.429 187.801 363.787 187.955 364.105 188.197C364.427 188.436 364.682 188.734 364.871 189.092C365.063 189.45 365.159 189.843 365.159 190.271C365.159 190.821 364.997 191.313 364.672 191.747C364.347 192.178 363.9 192.518 363.33 192.766C362.763 193.015 362.112 193.139 361.376 193.139ZM361.376 191.717C361.757 191.717 362.088 191.653 362.37 191.523C362.652 191.391 362.871 191.205 363.026 190.967C363.182 190.728 363.262 190.453 363.265 190.141C363.262 189.817 363.177 189.53 363.011 189.281C362.849 189.029 362.625 188.832 362.34 188.69C362.058 188.547 361.737 188.476 361.376 188.476C361.011 188.476 360.686 188.547 360.401 188.69C360.116 188.832 359.891 189.029 359.725 189.281C359.563 189.53 359.483 189.817 359.487 190.141C359.483 190.453 359.559 190.728 359.715 190.967C359.871 191.202 360.09 191.386 360.371 191.518C360.656 191.651 360.991 191.717 361.376 191.717ZM361.376 187.079C361.687 187.079 361.962 187.016 362.201 186.89C362.443 186.764 362.634 186.588 362.773 186.363C362.912 186.138 362.983 185.877 362.987 185.582C362.983 185.291 362.914 185.036 362.778 184.817C362.642 184.595 362.453 184.424 362.211 184.305C361.969 184.182 361.691 184.121 361.376 184.121C361.054 184.121 360.771 184.182 360.526 184.305C360.284 184.424 360.095 184.595 359.959 184.817C359.826 185.036 359.762 185.291 359.765 185.582C359.762 185.877 359.828 186.138 359.964 186.363C360.103 186.585 360.294 186.761 360.536 186.89C360.781 187.016 361.061 187.079 361.376 187.079ZM375.608 186.254H373.749C373.696 185.949 373.598 185.679 373.455 185.443C373.313 185.205 373.136 185.002 372.923 184.837C372.711 184.671 372.469 184.547 372.198 184.464C371.929 184.378 371.639 184.335 371.328 184.335C370.774 184.335 370.284 184.474 369.856 184.752C369.428 185.027 369.094 185.432 368.852 185.965C368.61 186.496 368.489 187.143 368.489 187.909C368.489 188.688 368.61 189.344 368.852 189.878C369.097 190.408 369.432 190.809 369.856 191.081C370.284 191.349 370.772 191.484 371.323 191.484C371.628 191.484 371.913 191.444 372.178 191.364C372.446 191.281 372.686 191.161 372.899 191.001C373.114 190.842 373.295 190.647 373.441 190.415C373.59 190.183 373.692 189.918 373.749 189.619L375.608 189.629C375.539 190.113 375.388 190.567 375.156 190.991C374.927 191.416 374.627 191.79 374.256 192.115C373.885 192.437 373.45 192.688 372.953 192.871C372.456 193.05 371.904 193.139 371.298 193.139C370.403 193.139 369.604 192.932 368.901 192.518C368.199 192.103 367.645 191.505 367.241 190.723C366.837 189.941 366.634 189.003 366.634 187.909C366.634 186.812 366.838 185.874 367.246 185.095C367.654 184.313 368.209 183.715 368.911 183.3C369.614 182.886 370.41 182.679 371.298 182.679C371.865 182.679 372.392 182.759 372.879 182.918C373.366 183.077 373.8 183.31 374.181 183.619C374.562 183.924 374.876 184.298 375.121 184.742C375.369 185.183 375.532 185.687 375.608 186.254ZM380.961 193.194C380.143 193.194 379.44 192.987 378.853 192.572C378.27 192.155 377.821 191.553 377.506 190.768C377.194 189.979 377.039 189.029 377.039 187.919C377.042 186.809 377.199 185.864 377.511 185.085C377.826 184.303 378.275 183.706 378.858 183.295C379.445 182.884 380.146 182.679 380.961 182.679C381.777 182.679 382.478 182.884 383.064 183.295C383.651 183.706 384.1 184.303 384.412 185.085C384.726 185.867 384.884 186.812 384.884 187.919C384.884 189.033 384.726 189.984 384.412 190.773C384.1 191.558 383.651 192.158 383.064 192.572C382.481 192.987 381.78 193.194 380.961 193.194ZM380.961 191.638C381.598 191.638 382.1 191.325 382.468 190.698C382.839 190.068 383.025 189.142 383.025 187.919C383.025 187.11 382.94 186.431 382.771 185.881C382.602 185.33 382.363 184.916 382.055 184.638C381.747 184.356 381.382 184.215 380.961 184.215C380.328 184.215 379.828 184.53 379.46 185.16C379.092 185.786 378.906 186.706 378.903 187.919C378.9 188.731 378.981 189.414 379.147 189.967C379.316 190.521 379.554 190.938 379.863 191.22C380.171 191.499 380.537 191.638 380.961 191.638ZM390.085 193H386.635V182.818H390.155C391.166 182.818 392.034 183.022 392.76 183.43C393.489 183.834 394.049 184.416 394.441 185.175C394.832 185.934 395.027 186.842 395.027 187.899C395.027 188.96 394.83 189.871 394.436 190.634C394.044 191.396 393.479 191.981 392.74 192.388C392.004 192.796 391.119 193 390.085 193ZM388.48 191.404H389.996C390.705 191.404 391.297 191.275 391.771 191.016C392.245 190.754 392.601 190.365 392.84 189.848C393.078 189.328 393.198 188.678 393.198 187.899C393.198 187.12 393.078 186.474 392.84 185.96C392.601 185.443 392.248 185.057 391.781 184.802C391.317 184.543 390.74 184.414 390.051 184.414H388.48V191.404Z" fill="white"/>
</svg>
