<svg width="79" height="82" viewBox="0 0 79 82" fill="none" xmlns="http://www.w3.org/2000/svg">
<path d="M52.1912 21.7781V70.6117H53.4508V23.2898H77.7404V70.6117H79.0001V21.7781H52.1912Z" fill="#73E563"/>
<path opacity="0.15" d="M0.788696 21.7781V70.6117H2.04835V23.2898H26.338V70.6117H27.5976V21.7781H0.788696Z" fill="black"/>
<path d="M26.4811 22.8596H1.30676V70.5869H26.4811V22.8596Z" fill="#D37272"/>
<path opacity="0.05" d="M1.76955 22.8596L26.4811 70.5871H1.30676V22.8596H1.76955Z" fill="black"/>
<path d="M0.339844 21.7781V70.6117H1.59949V23.2898H25.8891V70.6117H27.1488V21.7781H0.339844Z" fill="#FFCACA"/>
<path d="M25.3386 48.2317C25.3386 48.3654 25.2855 48.4937 25.191 48.5883C25.0965 48.6828 24.9682 48.736 24.8345 48.7361H23.873C23.7392 48.7361 23.611 48.6829 23.5164 48.5883C23.4218 48.4938 23.3687 48.3655 23.3687 48.2317V42.9516C23.3687 42.8178 23.4218 42.6896 23.5164 42.595C23.611 42.5004 23.7392 42.4473 23.873 42.4473H24.8345C24.9682 42.4473 25.0965 42.5005 25.191 42.5951C25.2855 42.6896 25.3386 42.8179 25.3386 42.9516V48.2317Z" fill="#FFCACA"/>
<path opacity="0.1" d="M8.33481 44.2531H3.87523C3.65804 44.2531 3.47163 44.0992 3.39156 43.8794C3.36328 43.9566 3.34871 44.0382 3.34851 44.1205C3.34851 44.4599 3.58399 44.735 3.87415 44.735H8.33373C8.62411 44.735 8.85937 44.4599 8.85937 44.1205C8.85928 44.0382 8.84471 43.9566 8.81632 43.8794C8.7384 44.0992 8.55199 44.2531 8.33481 44.2531Z" fill="black"/>
<path opacity="0.15" d="M23.5077 42.6045V47.792C23.5077 47.9257 23.5608 48.054 23.6554 48.1485C23.7499 48.2431 23.8781 48.2962 24.0118 48.2962H24.9736C25.042 48.2963 25.1098 48.2824 25.1728 48.2554C25.2357 48.2284 25.2924 48.1888 25.3395 48.139V48.2322C25.3395 48.366 25.2864 48.4942 25.1918 48.5888C25.0973 48.6834 24.9691 48.7365 24.8354 48.7366H23.8736C23.7399 48.7365 23.6117 48.6834 23.5171 48.5888C23.4226 48.4942 23.3695 48.366 23.3695 48.2322V42.9521C23.369 42.8228 23.4185 42.6982 23.5077 42.6045Z" fill="black"/>
<path d="M19.0905 43.7351C19.0905 44.0746 19.3259 44.3497 19.6163 44.3497H24.0757C24.3661 44.3497 24.6015 44.0746 24.6015 43.7351C24.6015 43.3957 24.3661 43.1206 24.0757 43.1206H19.6163C19.3259 43.1206 19.0905 43.3957 19.0905 43.7351V43.7351Z" fill="#FFCACA"/>
<path opacity="0.15" d="M19.6163 43.8678H24.0757C24.2929 43.8678 24.4793 43.7139 24.5596 43.4941C24.5878 43.5714 24.6024 43.653 24.6026 43.7352C24.6026 44.0747 24.3671 44.3498 24.0767 44.3498H19.6163C19.3259 44.3498 19.0905 44.0747 19.0905 43.7352C19.0907 43.653 19.1052 43.5714 19.1335 43.4941C19.2127 43.7139 19.3991 43.8678 19.6163 43.8678Z" fill="black"/>
<path opacity="0.15" d="M1.60133 70.6128H1.0957V22.5259H26.4118L25.8909 23.2907H1.60133V70.6128Z" fill="black"/>
<path opacity="0.5" d="M25.8892 70.6115H26.4249V22.5225L25.8892 23.2937V70.6115Z" fill="white"/>
<path opacity="0.15" d="M24.5958 46.4851C24.596 46.4384 24.584 46.3925 24.5609 46.3518C24.5378 46.3112 24.5044 46.2774 24.4641 46.2538C24.4238 46.2301 24.378 46.2174 24.3313 46.2171C24.2846 46.2167 24.2386 46.2286 24.1979 46.2515C24.1572 46.2745 24.1233 46.3078 24.0995 46.348C24.0757 46.3882 24.0629 46.434 24.0624 46.4807C24.0619 46.5274 24.0736 46.5734 24.0965 46.6142C24.1193 46.6549 24.1525 46.689 24.1926 46.7129L24.0835 47.1003H24.557L24.45 46.7219C24.4938 46.6997 24.5305 46.6658 24.5563 46.6241C24.582 46.5823 24.5956 46.5342 24.5958 46.4851V46.4851Z" fill="black"/>
<path d="M77.9331 22.8596H52.759V70.5869H77.9331V22.8596Z" fill="#73E563"/>
<path opacity="0.05" d="M77.9331 70.5871H52.759L77.5777 22.8596H77.9331V70.5871Z" fill="black"/>
<path d="M51.7922 21.7781V70.6117H53.0517V23.2898H77.3415V70.6117H78.6011V21.7781H51.7922Z" fill="#62D34F"/>
<path d="M56.0343 48.2317C56.0344 48.2979 56.0213 48.3635 55.996 48.4247C55.9707 48.4859 55.9336 48.5415 55.8868 48.5883C55.8399 48.6352 55.7844 48.6723 55.7232 48.6977C55.662 48.723 55.5964 48.7361 55.5302 48.7361H54.5687C54.5025 48.7361 54.4369 48.723 54.3757 48.6977C54.3145 48.6723 54.259 48.6352 54.2122 48.5883C54.1653 48.5415 54.1282 48.4859 54.1029 48.4247C54.0776 48.3635 54.0645 48.2979 54.0646 48.2317V42.9516C54.0645 42.8854 54.0776 42.8198 54.1029 42.7586C54.1282 42.6974 54.1653 42.6418 54.2122 42.595C54.259 42.5482 54.3145 42.511 54.3757 42.4857C54.4369 42.4603 54.5025 42.4473 54.5687 42.4473H55.5302C55.5964 42.4473 55.662 42.4603 55.7232 42.4857C55.7844 42.511 55.8399 42.5482 55.8868 42.595C55.9336 42.6418 55.9707 42.6974 55.996 42.7586C56.0213 42.8198 56.0344 42.8854 56.0343 42.9516V48.2317Z" fill="#CAF1FF"/>
<path opacity="0.1" d="M59.787 44.2531H55.3276C55.1104 44.2531 54.924 44.0992 54.844 43.8794C54.8156 43.9566 54.801 44.0382 54.8009 44.1205C54.8009 44.4599 55.0364 44.735 55.3268 44.735H59.7861C60.0767 44.735 60.312 44.4599 60.312 44.1205C60.3121 44.0383 60.2979 43.9567 60.27 43.8794C60.1906 44.0992 60.0044 44.2531 59.787 44.2531Z" fill="black"/>
<path opacity="0.15" d="M55.8953 42.6045V47.792C55.8953 47.8583 55.8823 47.9238 55.857 47.985C55.8317 48.0462 55.7945 48.1018 55.7477 48.1486C55.7009 48.1954 55.6453 48.2325 55.5841 48.2579C55.523 48.2832 55.4574 48.2962 55.3912 48.2962H54.4296C54.3612 48.2963 54.2934 48.2825 54.2304 48.2555C54.1675 48.2284 54.1108 48.1888 54.0637 48.139V48.2322C54.0637 48.2985 54.0767 48.364 54.102 48.4252C54.1274 48.4864 54.1645 48.542 54.2113 48.5888C54.2581 48.6357 54.3137 48.6728 54.3749 48.6982C54.4361 48.7235 54.5016 48.7366 54.5678 48.7366H55.5294C55.5956 48.7366 55.6612 48.7235 55.7223 48.6982C55.7835 48.6728 55.8391 48.6357 55.8859 48.5888C55.9327 48.542 55.9699 48.4864 55.9952 48.4252C56.0205 48.364 56.0335 48.2985 56.0335 48.2322V42.9521C56.0341 42.8227 55.9845 42.6982 55.8953 42.6045V42.6045Z" fill="black"/>
<path d="M60.3127 43.7351C60.3127 44.0746 60.0774 44.3497 59.7869 44.3497H55.3275C55.0371 44.3497 54.8016 44.0746 54.8016 43.7351C54.8016 43.3957 55.0371 43.1206 55.3275 43.1206H59.7869C60.0774 43.1206 60.3127 43.3957 60.3127 43.7351Z" fill="#CAF1FF"/>
<path opacity="0.15" d="M59.787 43.8678H55.3276C55.1104 43.8678 54.924 43.7139 54.844 43.4941C54.8156 43.5714 54.801 43.653 54.8009 43.7352C54.8009 44.0747 55.0364 44.3498 55.3268 44.3498H59.7861C60.0767 44.3498 60.312 44.0747 60.312 43.7352C60.3121 43.653 60.2979 43.5714 60.27 43.4941C60.1906 43.7139 60.0044 43.8678 59.787 43.8678Z" fill="black"/>
<path opacity="0.15" d="M53.0537 70.6128H52.5481V22.5259H77.864L77.3433 23.2907H53.0537V70.6128Z" fill="black"/>
<path opacity="0.5" d="M77.3413 70.6115H77.8771V22.5225L77.3413 23.2937V70.6115Z" fill="white"/>
<path opacity="0.15" d="M55.2916 46.4851C55.2918 46.4384 55.2798 46.3925 55.2567 46.3518C55.2336 46.3112 55.2002 46.2774 55.1599 46.2538C55.1196 46.2301 55.0738 46.2174 55.0271 46.2171C54.9804 46.2167 54.9344 46.2286 54.8937 46.2515C54.853 46.2745 54.8191 46.3078 54.7953 46.348C54.7715 46.3882 54.7587 46.434 54.7582 46.4807C54.7577 46.5274 54.7694 46.5734 54.7923 46.6142C54.8151 46.6549 54.8483 46.689 54.8884 46.7129L54.7793 47.1003H55.2528L55.1463 46.7221C55.19 46.6999 55.2267 46.666 55.2524 46.6241C55.278 46.5823 55.2916 46.5342 55.2916 46.4851V46.4851Z" fill="black"/>
<path opacity="0.05" d="M19.6734 25.6489H19.3687C19.5101 25.6489 19.6457 25.7051 19.7457 25.8051C19.8457 25.9051 19.9018 26.0407 19.9018 26.1821V32.3768C19.9019 32.4468 19.8881 32.5162 19.8613 32.5809C19.8345 32.6456 19.7952 32.7044 19.7457 32.7539C19.6962 32.8034 19.6374 32.8427 19.5727 32.8695C19.508 32.8963 19.4387 32.91 19.3687 32.91H19.6734C19.8149 32.91 19.9505 32.8538 20.0505 32.7538C20.1504 32.6538 20.2066 32.5182 20.2066 32.3768V26.1815C20.2064 26.0402 20.1501 25.9048 20.0502 25.8049C19.9502 25.7051 19.8147 25.649 19.6734 25.6489V25.6489Z" fill="black"/>
<path d="M19.4559 25.6484H8.58079C8.28632 25.6484 8.04761 25.8871 8.04761 26.1816V32.3763C8.04761 32.6708 8.28632 32.9095 8.58079 32.9095H19.4559C19.7504 32.9095 19.9891 32.6708 19.9891 32.3763V26.1816C19.9891 25.8871 19.7504 25.6484 19.4559 25.6484Z" fill="#FFCACA"/>
<path opacity="0.1" d="M19.4563 25.6489H19.1517C19.2931 25.649 19.4287 25.7052 19.5287 25.8052C19.6287 25.9051 19.6849 26.0407 19.6849 26.1821V32.3768C19.6849 32.5182 19.6287 32.6538 19.5287 32.7538C19.4288 32.8538 19.2931 32.91 19.1517 32.91H19.4563C19.5977 32.91 19.7333 32.8538 19.8333 32.7538C19.9333 32.6538 19.9895 32.5182 19.9895 32.3768V26.1815C19.9893 26.0402 19.933 25.9048 19.833 25.8049C19.7331 25.7051 19.5976 25.649 19.4563 25.6489V25.6489Z" fill="black"/>
<path opacity="0.05" d="M15.0448 26.895C15.0328 26.8599 15.0101 26.8294 14.9799 26.8079C14.9498 26.7863 14.9136 26.7747 14.8765 26.7747H14.1746C14.1375 26.7746 14.1013 26.7863 14.0711 26.8079C14.041 26.8295 14.0183 26.86 14.0065 26.8952L12.4756 31.4006C12.4665 31.4274 12.464 31.4559 12.4681 31.4838C12.4723 31.5118 12.483 31.5383 12.4995 31.5612C12.5159 31.5842 12.5376 31.6029 12.5627 31.6158C12.5878 31.6287 12.6157 31.6355 12.6439 31.6355H13.2466C13.284 31.6354 13.3204 31.6236 13.3507 31.6018C13.3809 31.5799 13.4036 31.5491 13.4154 31.5136L13.8431 30.2185H15.185L15.6251 31.5149C15.6371 31.5501 15.6598 31.5806 15.69 31.6022C15.7201 31.6238 15.7563 31.6355 15.7935 31.6355H16.4151C16.4434 31.6355 16.4713 31.6288 16.4964 31.6159C16.5216 31.603 16.5433 31.5843 16.5598 31.5613C16.5763 31.5383 16.587 31.5117 16.5911 31.4837C16.5952 31.4557 16.5926 31.4272 16.5834 31.4004L15.0448 26.895ZM14.9426 29.4085H14.0816L14.4445 28.3363C14.466 28.2672 14.4875 28.1964 14.5091 28.123C14.5306 28.1957 14.5549 28.2702 14.581 28.3464L14.9426 29.4085Z" fill="black"/>
<path d="M14.7638 26.895C14.7519 26.8599 14.7293 26.8294 14.6991 26.8078C14.669 26.7862 14.6328 26.7746 14.5957 26.7747H13.8938C13.8566 26.7747 13.8204 26.7863 13.7903 26.8079C13.7601 26.8295 13.7374 26.86 13.7254 26.8952L12.1946 31.4006C12.1855 31.4274 12.183 31.4559 12.1871 31.4838C12.1913 31.5118 12.202 31.5383 12.2185 31.5612C12.2349 31.5842 12.2566 31.6029 12.2817 31.6158C12.3068 31.6287 12.3347 31.6355 12.3629 31.6355H12.9656C13.003 31.6355 13.0394 31.6237 13.0697 31.6018C13.1 31.58 13.1226 31.5491 13.1344 31.5136L13.5621 30.2185H14.9039L15.3444 31.5149C15.3562 31.5501 15.3789 31.5806 15.409 31.6022C15.4392 31.6239 15.4754 31.6355 15.5125 31.6355H16.1341C16.1624 31.6355 16.1903 31.6288 16.2154 31.6159C16.2406 31.603 16.2623 31.5843 16.2788 31.5613C16.2953 31.5383 16.306 31.5117 16.3101 31.4837C16.3142 31.4557 16.3116 31.4272 16.3024 31.4004L14.7638 26.895ZM14.6616 29.4085H13.8006L14.1635 28.3363C14.185 28.2672 14.2065 28.1964 14.2281 28.123C14.2496 28.1957 14.2739 28.2702 14.3 28.3464L14.6616 29.4085Z" fill="#D37272"/>
<g opacity="0.1">
<path d="M14.233 28.1334L14.1378 27.879C14.1118 27.8028 14.0881 27.7283 14.0662 27.6555C14.0446 27.7287 13.8559 28.2673 13.8341 28.3364L13.4723 29.4085H13.8016L14.233 28.1334Z" fill="black"/>
<path d="M16.3013 31.4004L14.7638 26.895C14.7519 26.8599 14.7292 26.8294 14.6991 26.8078C14.6689 26.7862 14.6328 26.7746 14.5957 26.7747H14.2664C14.3034 26.7746 14.3396 26.7862 14.3698 26.8078C14.3999 26.8294 14.4225 26.8599 14.4345 26.895L15.972 31.4004C15.9812 31.4271 15.9838 31.4557 15.9797 31.4837C15.9756 31.5116 15.9649 31.5382 15.9484 31.5612C15.932 31.5842 15.9103 31.6029 15.8852 31.6158C15.86 31.6287 15.8322 31.6355 15.8039 31.6355H16.133C16.1613 31.6355 16.1892 31.6288 16.2143 31.6159C16.2395 31.603 16.2612 31.5843 16.2777 31.5613C16.2942 31.5383 16.3049 31.5117 16.309 31.4837C16.3131 31.4557 16.3105 31.4272 16.3013 31.4004V31.4004Z" fill="black"/>
<path d="M12.805 31.5137C12.7932 31.5491 12.7706 31.58 12.7403 31.6019C12.71 31.6237 12.6736 31.6355 12.6362 31.6355H12.9656C13.0029 31.6355 13.0393 31.6237 13.0696 31.6019C13.0999 31.58 13.1226 31.5491 13.1343 31.5137L13.562 30.2185H13.2327L12.805 31.5137Z" fill="black"/>
</g>
<path opacity="0.05" d="M71.8424 25.6489H71.5378C71.6792 25.649 71.8148 25.7052 71.9148 25.8052C72.0148 25.9051 72.071 26.0407 72.071 26.1821V32.3768C72.071 32.5182 72.0148 32.6538 71.9148 32.7538C71.8148 32.8537 71.6792 32.9099 71.5378 32.91H71.8424C71.9124 32.91 71.9818 32.8962 72.0465 32.8694C72.1112 32.8426 72.1699 32.8033 72.2194 32.7538C72.2689 32.7043 72.3082 32.6455 72.335 32.5809C72.3618 32.5162 72.3756 32.4468 72.3756 32.3768V26.1815C72.3754 26.0402 72.3191 25.9048 72.2192 25.8049C72.1192 25.7051 71.9837 25.649 71.8424 25.6489Z" fill="black"/>
<path d="M71.6249 25.6484H60.7497C60.4553 25.6484 60.2166 25.8871 60.2166 26.1816V32.3763C60.2166 32.6708 60.4553 32.9095 60.7497 32.9095H71.6249C71.9193 32.9095 72.1581 32.6708 72.1581 32.3763V26.1816C72.1581 25.8871 71.9193 25.6484 71.6249 25.6484Z" fill="#CAF1FF"/>
<path opacity="0.1" d="M71.6248 25.6489H71.3202C71.4616 25.649 71.5971 25.7052 71.6971 25.8052C71.797 25.9052 71.8532 26.0407 71.8532 26.1821V32.3768C71.8532 32.5182 71.797 32.6538 71.6971 32.7538C71.5971 32.8537 71.4616 32.9099 71.3202 32.91H71.6248C71.6948 32.91 71.7641 32.8962 71.8288 32.8694C71.8935 32.8426 71.9523 32.8033 72.0018 32.7538C72.0513 32.7043 72.0906 32.6455 72.1174 32.5809C72.1442 32.5162 72.1579 32.4468 72.1579 32.3768V26.1815C72.1577 26.0402 72.1014 25.9048 72.0015 25.8049C71.9015 25.7051 71.766 25.649 71.6248 25.6489Z" fill="black"/>
<path opacity="0.1" d="M67.4128 29.0171C67.7458 28.7846 67.9412 28.4339 67.9412 28.0418C67.9412 27.6463 67.788 27.3226 67.4982 27.1058C67.1848 26.8536 66.7694 26.7412 66.1525 26.7412C65.9527 26.7412 65.8012 26.7425 65.646 26.744C65.4843 26.7455 65.3186 26.7472 65.0896 26.7472C65.0425 26.7472 64.9973 26.7659 64.964 26.7992C64.9307 26.8326 64.912 26.8777 64.912 26.9248V31.4451C64.912 31.488 64.9275 31.5294 64.9557 31.5617C64.9839 31.594 65.0228 31.6151 65.0652 31.621C65.3726 31.6602 65.6823 31.6786 65.9921 31.6763C66.7886 31.6763 67.3209 31.5275 67.6696 31.2083L67.6734 31.2049C67.9621 30.9251 68.1085 30.5783 68.1085 30.1749C68.1085 29.598 67.7832 29.2207 67.4128 29.0171ZM66.1992 28.6798H65.8488V27.6231C65.9564 27.6164 66.0916 27.6153 66.1983 27.6153C66.8639 27.6153 66.9976 27.8015 66.9976 28.102C66.9976 28.4529 66.6841 28.6798 66.1992 28.6798ZM67.1379 30.1676C67.1379 30.7445 66.6058 30.8654 66.1592 30.8654C66.0324 30.8654 65.9303 30.8631 65.8488 30.8577V29.4762H66.1525C66.5206 29.4762 67.1379 29.5664 67.1379 30.1676Z" fill="#1D1D1B"/>
<path d="M67.0188 29.0171C67.3518 28.7846 67.5473 28.4339 67.5473 28.0418C67.5473 27.6463 67.3943 27.3226 67.1043 27.1058C66.7909 26.8536 66.3757 26.7412 65.7586 26.7412C65.5588 26.7412 65.4073 26.7425 65.2521 26.744C65.0904 26.7455 64.9247 26.7472 64.6956 26.7472C64.6486 26.7472 64.6034 26.7659 64.5701 26.7992C64.5368 26.8326 64.5181 26.8777 64.5181 26.9248V31.4451C64.5181 31.488 64.5336 31.5294 64.5618 31.5617C64.5899 31.594 64.6288 31.6151 64.6713 31.621C64.9787 31.6602 65.2883 31.6786 65.5982 31.6763C66.3946 31.6763 66.9269 31.5275 67.2756 31.2083L67.2795 31.2049C67.5682 30.9251 67.7145 30.5783 67.7145 30.1749C67.7156 29.598 67.3893 29.2207 67.0188 29.0171ZM65.8053 28.6798H65.4555V27.6231C65.5631 27.6164 65.6983 27.6153 65.8048 27.6153C66.4704 27.6153 66.6041 27.8015 66.6041 28.102C66.6036 28.4529 66.2902 28.6798 65.8053 28.6798ZM66.744 30.1676C66.744 30.7445 66.2119 30.8654 65.7652 30.8654C65.6387 30.8654 65.5364 30.8631 65.4551 30.8577V29.4762H65.7586C66.1266 29.4762 66.744 29.5664 66.744 30.1676Z" fill="#73E563"/>
<g opacity="0.1">
<path d="M65.5363 30.8615C65.5072 30.8615 65.4797 30.8594 65.4549 30.8577V29.4771C65.4347 29.4771 65.4151 29.4771 65.3964 29.4771H65.0927V30.8579C65.1742 30.8633 65.2763 30.8656 65.403 30.8656C65.4467 30.8654 65.4913 30.8643 65.5363 30.8615Z" fill="#1D1D1B"/>
<path d="M65.0927 27.6231V28.6798H65.4431H65.4549V27.6236C65.4917 27.6212 65.5315 27.6197 65.5724 27.6186C65.5315 27.6167 65.4883 27.6158 65.4433 27.6158C65.3355 27.6154 65.2007 27.6165 65.0927 27.6231Z" fill="#1D1D1B"/>
<path d="M67.0186 29.0171C67.3516 28.7846 67.5471 28.4339 67.5471 28.0418C67.5471 27.6463 67.394 27.3226 67.1041 27.1058C66.7907 26.8536 66.3755 26.7412 65.7583 26.7412C65.655 26.7412 65.5646 26.7412 65.4798 26.7412C66.0509 26.7511 66.4428 26.8643 66.7418 27.105C67.0318 27.3217 67.185 27.6455 67.185 28.0409C67.185 28.4331 66.9896 28.7837 66.6566 29.0162C67.0268 29.2198 67.3521 29.5974 67.3521 30.1734C67.3521 30.5768 67.2057 30.9233 66.917 31.2034C66.9159 31.2046 66.9146 31.2058 66.9132 31.2068C66.5888 31.5039 66.1045 31.653 65.3976 31.6724C65.4612 31.6738 65.528 31.6746 65.598 31.6748C66.3944 31.6748 66.9267 31.526 67.2754 31.2068L67.2793 31.2034C67.568 30.9235 67.7143 30.5768 67.7143 30.1734C67.7154 29.598 67.3891 29.2207 67.0186 29.0171Z" fill="#1D1D1B"/>
</g>
<path d="M39.8111 11.6082C38.9984 11.6082 38.4086 12.2229 38.4086 13.0697C38.4086 13.9053 38.9897 14.5119 39.7916 14.5119C40.6175 14.5119 41.1941 13.9189 41.1941 13.0697C41.1941 12.2091 40.6254 11.6082 39.8111 11.6082Z" fill="#73E563"/>
<path d="M42.7542 1.32414C42.13 0.702497 41.2143 0.374023 40.1066 0.374023C39.011 0.374023 37.8555 0.699697 37.1626 1.2036C37.1232 1.23225 37.0944 1.27306 37.0804 1.31973C37.0665 1.3664 37.0683 1.41635 37.0856 1.4619L37.5578 2.70154C37.5701 2.73383 37.5897 2.76282 37.6151 2.78619C37.6406 2.80956 37.6711 2.82668 37.7043 2.83617C37.7376 2.84566 37.7725 2.84726 37.8065 2.84085C37.8404 2.83445 37.8724 2.8202 37.8999 2.79926C38.3441 2.46153 39.0887 2.23465 39.7489 2.23465C40.8133 2.25144 41.3994 2.77278 41.3994 3.70439C41.3994 4.53397 40.9138 5.26819 40.0737 6.2577C39.099 7.42738 38.6715 8.6274 38.8037 9.82442L38.8429 10.3322C38.8471 10.388 38.8723 10.4402 38.9134 10.4782C38.9544 10.5163 39.0084 10.5374 39.0644 10.5373H40.5989C40.6288 10.5374 40.6584 10.5314 40.6859 10.5197C40.7135 10.508 40.7384 10.4909 40.7591 10.4693C40.7798 10.4477 40.796 10.4222 40.8066 10.3943C40.8172 10.3663 40.822 10.3365 40.8208 10.3066L40.8012 9.79514C40.8012 9.79363 40.8012 9.79213 40.8012 9.79062C40.7444 8.82587 41.0643 8.0077 41.8708 7.05456C42.859 5.88101 43.6144 4.87299 43.6144 3.48806C43.6141 2.64449 43.3087 1.87583 42.7542 1.32414Z" fill="#73E563"/>
<g opacity="0.1">
<path d="M39.811 11.6082C39.731 11.6082 39.6511 11.6145 39.5721 11.6269C40.2555 11.7345 40.7142 12.297 40.7142 13.0691C40.7142 13.8315 40.2488 14.387 39.5559 14.4927C39.6338 14.5049 39.7125 14.511 39.7914 14.511C40.6173 14.511 41.194 13.918 41.194 13.0689C41.194 12.2091 40.6253 11.6082 39.811 11.6082Z" fill="black"/>
<path d="M39.2688 2.23486C38.6727 2.23486 38.0091 2.41998 37.5586 2.70433C37.5711 2.73623 37.5909 2.76479 37.6164 2.78776C37.6418 2.81073 37.6723 2.82748 37.7053 2.8367C37.7383 2.84592 37.773 2.84736 37.8067 2.8409C37.8404 2.83444 37.8721 2.82025 37.8993 2.79947C38.2868 2.50565 38.8996 2.296 39.4875 2.24627C39.4169 2.24003 39.3441 2.23594 39.2688 2.23486Z" fill="black"/>
<path d="M43.6141 3.48828C43.6141 2.64449 43.3086 1.87583 42.7542 1.32414C42.1299 0.702497 41.2142 0.374023 40.1066 0.374023C40.0252 0.374023 39.9436 0.375961 39.8618 0.379405C40.8642 0.422455 41.6953 0.747054 42.2748 1.32414C42.8293 1.87583 43.1347 2.64449 43.1347 3.48828C43.1347 4.87321 42.3785 5.88123 41.3912 7.05478C40.5846 8.00791 40.2648 8.82608 40.3216 9.79084C40.3216 9.79235 40.3216 9.79385 40.3216 9.79536L40.3414 10.3068C40.3427 10.3368 40.3378 10.3668 40.3272 10.395C40.3165 10.4231 40.3003 10.4488 40.2794 10.4704C40.2585 10.4921 40.2335 10.5093 40.2058 10.521C40.1781 10.5326 40.1483 10.5386 40.1182 10.5384H40.598C40.6279 10.5385 40.6575 10.5325 40.685 10.5208C40.7126 10.5091 40.7374 10.4919 40.7582 10.4704C40.7789 10.4488 40.7951 10.4233 40.8057 10.3953C40.8163 10.3674 40.8211 10.3375 40.8199 10.3077L40.8003 9.79622C40.8003 9.79471 40.8003 9.79321 40.8003 9.7917C40.7435 8.82694 41.0634 8.00877 41.8699 7.05564C42.8579 5.88123 43.6141 4.87321 43.6141 3.48828Z" fill="black"/>
</g>
<path opacity="0.1" d="M32.047 46.9628C32.0847 46.957 32.1231 46.9588 32.1601 46.968C32.197 46.9772 32.2318 46.9936 32.2623 47.0164L33.7357 47.533C33.7437 47.5965 33.7329 47.6609 33.7045 47.7183C33.6762 47.7757 33.6317 47.8234 33.5764 47.8557C33.5212 47.8879 33.4576 47.9032 33.3938 47.8997C33.3299 47.8961 33.2685 47.8739 33.2171 47.8357L31.6904 47.2797L30.6976 47.4271C30.6941 47.3555 30.7172 47.2851 30.7627 47.2296C30.8081 47.1741 30.8725 47.1375 30.9434 47.1269L32.047 46.9628Z" fill="black"/>
<path d="M30.7058 47.2003L31.8103 47.0365C31.8479 47.0307 31.8863 47.0325 31.9233 47.0418C31.9602 47.051 31.995 47.0675 32.0255 47.0903L33.5252 47.6263C33.5867 47.672 33.6275 47.7402 33.6387 47.816C33.6499 47.8918 33.6306 47.9689 33.5849 48.0304C33.5392 48.0919 33.471 48.1328 33.3952 48.144C33.3194 48.1552 33.2423 48.1358 33.1808 48.0902L31.7767 47.6263L30.7906 47.7727C30.7159 47.7818 30.6405 47.7613 30.5806 47.7157C30.5207 47.67 30.481 47.6028 30.4699 47.5283C30.4589 47.4538 30.4773 47.378 30.5214 47.3169C30.5655 47.2558 30.6316 47.2144 30.7058 47.2014V47.2003Z" fill="#FFDCB5"/>
<path opacity="0.1" d="M31.8102 47.0365C31.8479 47.0307 31.8863 47.0325 31.9233 47.0418C31.9602 47.051 31.995 47.0675 32.0255 47.0903L33.521 47.6231C33.5206 47.6833 33.5035 47.7423 33.4716 47.7935C33.4397 47.8446 33.3943 47.886 33.3403 47.9128C33.2863 47.9397 33.226 47.9511 33.1659 47.9457C33.1059 47.9404 33.0485 47.9184 33.0001 47.8824L31.4734 47.3264L30.4617 47.4771C30.4639 47.4096 30.4898 47.345 30.5347 47.2945C30.5797 47.2441 30.6409 47.211 30.7077 47.201L31.8102 47.0365Z" fill="black"/>
<path d="M30.3214 46.7236L31.5714 46.538C31.6139 46.5316 31.6572 46.5338 31.6988 46.5442C31.7404 46.5547 31.7796 46.5733 31.814 46.5989L33.4499 47.2354C33.5195 47.2871 33.5658 47.3642 33.5785 47.4499C33.5913 47.5356 33.5694 47.6229 33.5178 47.6925C33.4662 47.7622 33.3891 47.8084 33.3033 47.8212C33.2176 47.8339 33.1303 47.8121 33.0607 47.7604L31.5337 47.2044L30.4179 47.37C30.3745 47.3784 30.33 47.378 30.2868 47.3687C30.2437 47.3594 30.2028 47.3415 30.1668 47.316C30.1308 47.2906 30.1002 47.258 30.0771 47.2204C30.054 47.1828 30.0387 47.141 30.0322 47.0973C30.0257 47.0536 30.0282 47.0091 30.0394 46.9664C30.0505 46.9237 30.0703 46.8837 30.0973 46.8489C30.1244 46.814 30.1583 46.785 30.1968 46.7636C30.2354 46.7421 30.278 46.7288 30.3219 46.7242L30.3214 46.7236Z" fill="#FFDCB5"/>
<path opacity="0.1" d="M30.3215 46.7236L31.5715 46.538C31.614 46.5316 31.6573 46.5338 31.6989 46.5442C31.7405 46.5547 31.7797 46.5733 31.8141 46.5989L33.45 47.2354C33.466 47.2474 33.4808 47.2607 33.4943 47.2753C33.5174 47.3674 33.5058 47.4648 33.4618 47.549C33.4177 47.6332 33.3443 47.6982 33.2554 47.7318L31.1675 46.9808L30.0587 47.1453C30.0441 47.1002 30.0395 47.0525 30.0453 47.0055C30.051 46.9585 30.067 46.9133 30.0921 46.8731C30.1172 46.8329 30.1508 46.7987 30.1905 46.7729C30.2302 46.747 30.2751 46.7302 30.322 46.7236H30.3215Z" fill="black"/>
<path d="M30.0873 46.2165L31.568 45.9969C31.6183 45.9894 31.6696 45.9919 31.7189 46.0043C31.7683 46.0166 31.8146 46.0387 31.8554 46.069L33.7051 46.8655C33.7484 46.8947 33.7854 46.9325 33.8138 46.9765C33.8422 47.0204 33.8614 47.0697 33.8702 47.1212C33.8791 47.1728 33.8774 47.2257 33.8652 47.2766C33.8531 47.3275 33.8307 47.3754 33.7996 47.4174C33.7684 47.4594 33.7291 47.4947 33.6839 47.5211C33.6387 47.5475 33.5886 47.5645 33.5367 47.5711C33.4848 47.5776 33.4321 47.5735 33.3818 47.5592C33.3315 47.5448 33.2846 47.5203 33.244 47.4873L31.522 46.7873L30.2001 46.9834C30.1488 46.9932 30.0961 46.9925 30.0451 46.9814C29.994 46.9703 29.9458 46.949 29.9032 46.9187C29.8606 46.8885 29.8246 46.85 29.7973 46.8054C29.77 46.7609 29.752 46.7114 29.7443 46.6597C29.7366 46.6081 29.7395 46.5554 29.7527 46.5049C29.7659 46.4543 29.7892 46.407 29.8211 46.3657C29.8531 46.3244 29.8931 46.29 29.9387 46.2645C29.9843 46.2391 30.0346 46.2231 30.0865 46.2176L30.0873 46.2165Z" fill="#FFDCB5"/>
<path opacity="0.1" d="M31.5681 45.9969C31.6184 45.9894 31.6697 45.9919 31.719 46.0043C31.7683 46.0166 31.8147 46.0387 31.8555 46.069L33.7051 46.8655C33.7159 46.8734 33.7267 46.8818 33.7357 46.8904C33.7111 46.9418 33.6754 46.987 33.6311 47.0229C33.5869 47.0588 33.5353 47.0844 33.48 47.098C33.4247 47.1115 33.3671 47.1126 33.3113 47.1012C33.2555 47.0898 33.2029 47.0662 33.1573 47.0321L31.4353 46.3321L30.1132 46.5282C30.063 46.5357 30.0117 46.5333 29.9624 46.521C29.9131 46.5086 29.8667 46.4866 29.8259 46.4563C29.8154 46.4484 29.8053 46.44 29.7955 46.4311C29.823 46.3746 29.8639 46.3256 29.9146 46.2884C29.9652 46.2512 30.0242 46.2269 30.0863 46.2176L31.5681 45.9969Z" fill="black"/>
<path d="M30.0773 45.591L31.5578 45.3712C31.6081 45.3637 31.6594 45.3662 31.7087 45.3785C31.758 45.3909 31.8044 45.4129 31.8452 45.4433L33.695 46.2397C33.7385 46.269 33.7755 46.3068 33.804 46.3507C33.8324 46.3947 33.8516 46.444 33.8605 46.4956C33.8693 46.5472 33.8676 46.6001 33.8555 46.651C33.8433 46.702 33.821 46.7499 33.7898 46.792C33.7586 46.834 33.7191 46.8693 33.6739 46.8957C33.6287 46.9221 33.5786 46.9391 33.5266 46.9456C33.4746 46.9521 33.4219 46.9479 33.3716 46.9335C33.3212 46.919 33.2744 46.8945 33.2338 46.8614L31.5128 46.1616L30.191 46.356C30.1397 46.3658 30.0869 46.3651 30.0359 46.3539C29.9849 46.3428 29.9366 46.3215 29.8941 46.2913C29.8515 46.261 29.8155 46.2225 29.7882 46.178C29.7608 46.1335 29.7428 46.0839 29.7352 46.0323C29.7275 45.9806 29.7303 45.9279 29.7435 45.8774C29.7568 45.8269 29.78 45.7795 29.812 45.7383C29.844 45.697 29.8839 45.6625 29.9295 45.6371C29.9751 45.6116 30.0254 45.5956 30.0773 45.5901V45.591Z" fill="#FFDCB5"/>
<path d="M45.0067 29.8921L44.9055 33.1966C45.3195 33.1725 45.7094 32.9943 45.9985 32.697C46.2877 32.3998 46.4551 32.0051 46.4677 31.5906C46.4804 31.1762 46.3375 30.772 46.0671 30.4576C45.7967 30.1432 45.4184 29.9415 45.0067 29.8921V29.8921Z" fill="#EFCBAB"/>
<path d="M31.0772 31.5792C31.0873 31.9957 31.2535 32.3932 31.543 32.6928C31.8325 32.9925 32.2241 33.1723 32.64 33.1966L32.5386 29.8921C32.1289 29.9413 31.7522 30.1414 31.482 30.4533C31.2118 30.7653 31.0675 31.1667 31.0772 31.5792V31.5792Z" fill="#EFCBAB"/>
<path d="M45.3388 29.8751L45.2621 26.6608C45.2473 26.0374 44.9855 25.4456 44.5342 25.0153C44.083 24.585 43.4794 24.3516 42.8561 24.3664L34.5353 24.5644C33.9123 24.5796 33.3208 24.8415 32.8908 25.2926C32.4608 25.7437 32.2276 26.3471 32.2422 26.9701L32.312 29.9005C32.3038 29.9984 32.3038 30.0615 32.3038 30.1588L32.374 33.0834C32.374 33.1222 32.3817 33.2111 32.3908 33.2115L32.4256 34.6771C32.422 34.771 32.4174 34.8653 32.4177 34.96L32.4218 35.0941C32.4977 36.1957 34.5452 39.1778 37.1392 39.1778L37.2066 40.3051L42.1845 40.7431L42.3711 38.3504C44.0145 37.4061 45.1362 35.9659 45.2783 34.8345C45.3055 34.6388 45.321 34.4416 45.3248 34.2441L45.3715 32.5582C45.3715 32.5582 45.4059 32.5987 45.4066 32.5982L45.3441 29.8775L45.3388 29.8751Z" fill="#FFDCB5"/>
<path d="M31.7437 25.7283C31.5917 26.0968 30.9283 27.4363 32.3716 30.0652C34.049 33.1205 34.2339 33.0858 34.2339 33.0858C34.2339 33.0858 37.4614 35.1277 42.9615 33.0858C45.4645 29.6276 47.7853 26.771 46.0515 24.7578C46.0515 24.7578 46.8412 21.5796 41.7426 20.2579C34.1855 18.2991 29.7841 26.2073 29.7841 26.2073C29.7841 26.2073 30.4462 25.9425 31.7816 25.6455C31.7687 25.673 31.756 25.7008 31.7437 25.7283Z" fill="#3D3D3D"/>
<path d="M37.605 27.7571C41.7621 27.7571 46.0514 24.7578 46.0514 24.7578C47.7853 26.7711 45.4645 29.6277 42.9615 33.0859C37.4614 35.1278 34.2339 33.0859 34.2339 33.0859C34.2339 33.0859 34.049 33.1205 32.3716 30.0653C30.9283 27.4364 31.5917 26.0969 31.7437 25.7284C31.756 25.7008 31.7684 25.6731 31.7816 25.6455C31.7816 25.6455 33.4476 27.7571 37.605 27.7571Z" fill="#4D4C4C"/>
<g opacity="0.1">
<path d="M45.3433 29.8782L45.339 29.875L45.3353 29.72C44.673 30.7631 43.8285 31.8882 42.9617 33.0856C37.4616 35.1275 34.2341 33.0856 34.2341 33.0856C34.2341 33.0856 34.1777 33.0958 33.845 32.5906C34.4404 33.5771 35.1391 34.6912 35.7883 35.6185C36.8393 37.1201 37.083 38.4598 37.1297 39.1775H37.1383L37.1538 39.4358C37.2922 39.4205 37.5464 39.3983 37.9027 39.3835C40.5326 39.1867 41.8299 39.2373 42.2977 39.2799L42.3702 38.3498C44.0137 37.4055 45.1353 35.9653 45.2774 34.8339C45.3046 34.6382 45.3201 34.441 45.3239 34.2435L45.3706 32.5576C45.3706 32.5576 45.405 32.5981 45.4057 32.5977L45.3433 29.8782Z" fill="#606060"/>
</g>
<path d="M37.5098 40.5306C37.5098 40.5306 36.3124 40.2413 35.0588 40.6365C32.8714 41.3253 31.7163 41.5083 31.152 42.6383C30.7565 43.4307 30.602 46.3314 30.6642 49.1964C30.7105 51.3181 30.8489 51.9178 34.2621 52.0102C36.8785 52.0821 39.1961 40.1537 37.5098 40.5306Z" fill="#4C4C4C"/>
<path d="M41.455 40.5306C41.455 40.5306 42.6524 40.2413 43.906 40.6365C46.0936 41.3253 47.2484 41.5083 47.8128 42.6383C48.2083 43.4307 48.3628 46.3314 48.3006 49.1964C48.2543 51.3181 48.1161 51.9178 44.7027 52.0102C42.0871 52.0821 39.7695 40.1537 41.455 40.5306Z" fill="#4C4C4C"/>
<path opacity="0.1" d="M51.3889 78.6541C51.3889 79.9712 45.9988 81.039 39.3496 81.039C32.7005 81.039 27.3104 79.9712 27.3104 78.6541C27.3104 77.3369 32.7008 76.2693 39.3496 76.2693C45.9985 76.2693 51.3889 77.3369 51.3889 78.6541Z" fill="black"/>
<path d="M47.757 76.9778C47.757 76.9778 47.9974 77.0208 47.9974 77.193V77.9983C47.9974 78.1231 47.8224 78.4445 47.1351 78.624C46.4478 78.8035 46.2526 79.9437 44.7889 80.0927C43.1018 80.2649 42.6349 79.6645 42.6349 79.5007C42.6349 79.3369 42.6428 78.7243 42.6428 78.5683C42.6428 78.4122 42.7548 78.2482 43.2341 78.17C43.7135 78.0919 47.3414 76.767 47.757 76.9778Z" fill="#C4916E"/>
<path d="M42.6933 76.1919C42.6933 76.1919 42.6752 78.0478 42.7149 78.4484C42.7545 78.849 45.1362 79.49 46.0842 78.4885C47.0321 77.4869 47.1389 78.0879 47.7799 77.4604C48.421 76.833 47.1637 75.8822 45.5346 76.2694C43.9056 76.6567 42.8134 75.5912 42.6933 76.1919Z" fill="#3F3B38"/>
<path d="M46.2304 76.1833C46.2304 76.1833 46.7724 76.1647 47.0155 76.7067C47.0841 76.8688 47.2903 76.4874 46.9164 76.2069C46.5426 75.9265 45.7879 76.1708 46.2304 76.1833Z" fill="#D3D3D3"/>
<g opacity="0.1">
<path d="M46.9225 76.2114C47.1339 76.4204 47.0732 76.6576 47.0058 76.685C47.0092 76.6919 47.0127 76.6988 47.0159 76.7065C47.0839 76.8679 47.2884 76.4913 46.9225 76.2114Z" fill="black"/>
</g>
<path d="M46.0412 76.1568C46.0412 76.1568 46.5711 76.1486 46.8451 76.7595C46.9224 76.9422 47.1794 76.5216 46.759 76.2054C46.3387 75.8892 45.5422 76.1428 46.0412 76.1568Z" fill="#D3D3D3"/>
<g opacity="0.1">
<path d="M46.883 76.3252C47.0263 76.5575 46.9116 76.7772 46.8361 76.7411C46.8391 76.7475 46.8423 76.7536 46.8451 76.7602C46.9129 76.9206 47.1193 76.616 46.883 76.3252Z" fill="black"/>
</g>
<path opacity="0.1" d="M47.3197 77.749C46.6117 77.8941 46.5573 77.1861 46.1851 77.2587C45.813 77.3312 45.9309 78.1483 45.9309 78.929C45.9309 79.4426 45.703 79.7439 45.5471 79.8901C46.353 79.5132 46.5894 78.7656 47.135 78.6231C47.2865 78.5853 47.4334 78.5307 47.5728 78.4604C47.3987 78.3026 47.4265 77.7238 47.3197 77.749Z" fill="black"/>
<path d="M31.1792 76.9778C31.1792 76.9778 30.9387 77.0208 30.9387 77.193V77.9983C30.9387 78.1231 31.1139 78.4445 31.801 78.624C32.4881 78.8035 32.6835 79.9437 34.1473 80.0927C35.8344 80.2649 36.3011 79.6645 36.3011 79.5007C36.3011 79.3369 36.2931 78.7243 36.2931 78.5683C36.2931 78.4122 36.1814 78.2482 35.7018 78.17C35.2222 78.0919 31.5948 76.767 31.1792 76.9778Z" fill="#C4916E"/>
<path d="M36.2429 76.1919C36.2429 76.1919 36.2608 78.0478 36.2214 78.4484C36.182 78.849 33.8 79.49 32.852 78.4885C31.9041 77.4869 31.7973 78.0879 31.1563 77.4604C30.5153 76.833 31.7725 75.8822 33.4016 76.2694C35.0306 76.6567 36.1226 75.5912 36.2429 76.1919Z" fill="#3F3B38"/>
<path d="M32.7057 76.1833C32.7057 76.1833 32.1635 76.1647 31.9205 76.7067C31.8518 76.8688 31.6456 76.4874 32.0195 76.2069C32.3934 75.9265 33.1481 76.1708 32.7057 76.1833Z" fill="#D3D3D3"/>
<g opacity="0.1">
<path d="M32.014 76.2114C31.8025 76.4204 31.8634 76.6576 31.9307 76.685C31.9273 76.6919 31.9239 76.6988 31.9206 76.7065C31.8524 76.8679 31.6483 76.4913 32.014 76.2114Z" fill="black"/>
</g>
<path d="M32.8951 76.1568C32.8951 76.1568 32.3649 76.1486 32.0909 76.7595C32.0136 76.9422 31.7566 76.5216 32.1783 76.2054C32.6 75.8892 33.3938 76.1428 32.8951 76.1568Z" fill="#D3D3D3"/>
<g opacity="0.1">
<path d="M32.0528 76.3252C31.9096 76.5575 32.0241 76.7772 32.0997 76.7411C32.0967 76.7475 32.0937 76.7536 32.0907 76.7602C32.0229 76.9206 31.8164 76.616 32.0528 76.3252Z" fill="black"/>
</g>
<path opacity="0.1" d="M31.6163 77.749C32.3243 77.8941 32.3787 77.1861 32.7511 77.2587C33.1235 77.3312 33.0051 78.1483 33.0051 78.929C33.0051 79.4426 33.233 79.7439 33.3889 79.8901C32.583 79.5132 32.3464 78.7656 31.801 78.6231C31.6495 78.5853 31.5026 78.5307 31.3632 78.4604C31.5373 78.3026 31.5104 77.7238 31.6163 77.749Z" fill="black"/>
<path d="M43.3001 39.9905C40.8325 39.3406 38.2338 39.3572 35.7663 39.9905C35.6697 40.0105 35.5916 40.1175 35.5916 40.2287V41.4126C35.5916 41.5239 35.6697 41.5973 35.7663 41.5775C38.2518 41.068 40.8147 41.068 43.3001 41.5775C43.3968 41.5973 43.4747 41.5239 43.4749 41.4126V40.2287C43.4747 40.1175 43.3968 40.0103 43.3001 39.9905Z" fill="#A57F65"/>
<path d="M44.1241 57.8879C43.8242 57.0805 41.907 56.4575 39.5857 56.4575C37.2395 56.4575 35.3044 57.0944 35.0383 57.9152L32.8178 57.7215L32.7317 75.7774C32.7317 75.7774 33.3393 76.8106 36.1471 75.9177C37.6056 66.9368 38.3577 63.0369 38.687 60.9287C38.9774 60.9502 39.2779 60.9604 39.5853 60.9604C39.8047 60.9604 40.02 60.9549 40.231 60.944C40.5619 63.0601 41.314 66.9586 42.7689 75.9177C45.5766 76.8115 46.1843 75.7774 46.1843 75.7774L46.1586 57.4268L44.1241 57.8879Z" fill="#4C4C4C"/>
<path d="M46.2202 75.449C46.3472 75.4649 46.3454 76.2004 46.2025 76.2751C44.2771 77.0285 42.7139 76.3311 42.7139 76.3311C42.6855 76.3221 42.6606 76.3044 42.6428 76.2804C42.6251 76.2564 42.6154 76.2274 42.6151 76.1976C42.6078 75.9548 42.5506 75.4931 42.6851 75.5176C44.0577 75.9004 44.9336 75.7641 46.2202 75.449Z" fill="#777777"/>
<g opacity="0.2">
<path d="M42.6151 76.198C42.6078 75.9552 42.5506 75.4935 42.6851 75.518C42.8752 75.5708 43.0553 75.6138 43.229 75.6472C43.203 75.792 43.2314 76.062 43.2363 76.2284C43.2366 76.2582 43.2463 76.2871 43.264 76.3111C43.2818 76.335 43.3067 76.3527 43.3351 76.3616C43.3351 76.3616 43.7482 76.5568 44.4176 76.635C43.3913 76.6505 42.7139 76.3304 42.7139 76.3304C42.6856 76.3215 42.6609 76.3039 42.6432 76.2802C42.6254 76.2564 42.6156 76.2277 42.6151 76.198V76.198Z" fill="black"/>
</g>
<path d="M32.6975 75.449C32.5705 75.4649 32.5722 76.2004 32.7152 76.2751C34.6406 77.0285 36.2037 76.3311 36.2037 76.3311C36.2322 76.3221 36.2571 76.3044 36.2748 76.2804C36.2926 76.2564 36.3023 76.2274 36.3025 76.1976C36.3099 75.9548 36.3671 75.4931 36.2326 75.5176C34.8599 75.9004 33.9841 75.7641 32.6975 75.449Z" fill="#777777"/>
<g opacity="0.2">
<path d="M36.3024 76.198C36.3097 75.9552 36.3669 75.4935 36.2324 75.518C36.0423 75.5708 35.8622 75.6138 35.6885 75.6472C35.7145 75.792 35.6861 76.062 35.6812 76.2284C35.6809 76.2582 35.6712 76.2871 35.6535 76.3111C35.6357 76.335 35.6108 76.3527 35.5823 76.3616C35.5823 76.3616 35.1693 76.5568 34.4996 76.635C35.5262 76.6505 36.2036 76.3304 36.2036 76.3304C36.2318 76.3215 36.2566 76.3039 36.2743 76.2802C36.2921 76.2564 36.3019 76.2277 36.3024 76.198V76.198Z" fill="black"/>
</g>
<path opacity="0.1" d="M32.6031 45.0002C32.6031 45.0002 32.1436 50.9141 31.1758 51.3418C31.6078 51.7583 32.4176 51.9412 33.9525 52.0009L32.6031 45.0002Z" fill="black"/>
<path opacity="0.1" d="M46.3672 45.0002C46.3672 45.0002 46.8268 50.9141 47.7946 51.3418C47.3626 51.7583 46.5528 51.9412 45.0178 52.0009L46.3672 45.0002Z" fill="black"/>
<path opacity="0.1" d="M32.8098 57.2644C32.8098 57.2644 32.8171 57.6547 32.8313 58.3318C32.9738 58.4076 33.148 58.4713 33.3378 58.5585C35.3041 59.4492 37.4378 59.9099 39.5964 59.9099C41.7549 59.9099 43.8886 59.4492 45.8549 58.5585C45.961 58.5098 46.0622 58.4685 46.1563 58.4283C46.17 57.7087 46.1765 57.2644 46.1765 57.2644H32.8098ZM39.6712 59.0004L39.6867 58.8792L39.7082 58.997L39.6712 59.0004Z" fill="black"/>
<path opacity="0.1" d="M45.5191 49.7965C45.4481 49.7668 45.5073 49.6762 45.436 49.7055L43.8813 49.8467C43.858 49.9063 43.8527 49.9714 43.8662 50.034C43.8796 50.0965 43.9112 50.1538 43.9569 50.1985C44.0026 50.2433 44.0605 50.2737 44.1233 50.2858C44.1861 50.298 44.2512 50.2913 44.3103 50.2668L45.7888 50.1908L46.7144 50.5759C46.7354 50.5073 46.7301 50.4334 46.6995 50.3685C46.669 50.3036 46.6153 50.2524 46.5491 50.2249L45.5191 49.7965Z" fill="black"/>
<path d="M47.0105 50.3908L45.9795 49.9626C45.9445 49.948 45.907 49.9404 45.869 49.9404C45.8311 49.9404 45.7936 49.948 45.7586 49.9626L44.31 50.0259C44.2407 50.0562 44.186 50.1124 44.1577 50.1825C44.1294 50.2527 44.1297 50.3311 44.1586 50.401C44.1875 50.4709 44.2426 50.5266 44.3122 50.5563C44.3818 50.586 44.4602 50.5872 44.5306 50.5597L45.8684 50.5419L46.789 50.9244C46.8242 50.94 46.8622 50.9485 46.9008 50.9493C46.9393 50.95 46.9776 50.9431 47.0134 50.9288C47.0492 50.9145 47.0818 50.8932 47.1093 50.8662C47.1367 50.8391 47.1585 50.8068 47.1732 50.7712C47.188 50.7356 47.1955 50.6974 47.1953 50.6589C47.1951 50.6203 47.1872 50.5822 47.172 50.5468C47.1569 50.5114 47.1348 50.4793 47.107 50.4526C47.0793 50.4258 47.0465 50.4049 47.0105 50.391V50.3908Z" fill="#FFDCB5"/>
<path opacity="0.1" d="M45.9794 49.9626C45.9444 49.948 45.9069 49.9404 45.869 49.9404C45.831 49.9404 45.7935 49.948 45.7585 49.9626L44.3163 50.0238C44.2998 50.0907 44.3051 50.1611 44.3314 50.2248C44.3646 50.3048 44.4281 50.3684 44.5081 50.4017C44.588 50.4349 44.6779 50.4351 44.758 50.4022L46.2368 50.3262L47.1822 50.719C47.1966 50.653 47.1873 50.5839 47.1561 50.524C47.1248 50.4641 47.0735 50.417 47.0111 50.391L45.9794 49.9626Z" fill="black"/>
<path d="M47.3573 49.9819L46.1906 49.4972C46.151 49.4807 46.1085 49.4722 46.0656 49.4722C46.0226 49.4722 45.9801 49.4807 45.9405 49.4972L44.3369 49.6248C44.297 49.641 44.2606 49.665 44.23 49.6952C44.1993 49.7255 44.175 49.7616 44.1583 49.8013C44.1417 49.8411 44.133 49.8837 44.1329 49.9268C44.1328 49.9699 44.1412 50.0125 44.1577 50.0524C44.1741 50.0922 44.1983 50.1284 44.2288 50.1588C44.2593 50.1893 44.2955 50.2134 44.3353 50.2298C44.3752 50.2462 44.4178 50.2545 44.4609 50.2544C44.504 50.2542 44.5466 50.2455 44.5864 50.2288L46.0649 50.1528L47.1067 50.5857C47.1857 50.6143 47.2727 50.6114 47.3496 50.5776C47.4265 50.5438 47.4875 50.4816 47.5197 50.404C47.552 50.3265 47.5532 50.2394 47.5229 50.161C47.4927 50.0826 47.4335 50.0189 47.3575 49.983L47.3573 49.9819Z" fill="#FFDCB5"/>
<path opacity="0.1" d="M47.3571 49.9819L46.1905 49.4972C46.1509 49.4807 46.1083 49.4722 46.0654 49.4722C46.0225 49.4722 45.98 49.4807 45.9404 49.4972L44.3367 49.6248C44.3184 49.6325 44.3007 49.6418 44.284 49.6526C44.2568 49.7031 44.2412 49.759 44.2383 49.8162C44.2354 49.8735 44.2452 49.9307 44.267 49.9837C44.2953 50.0524 44.3432 50.1115 44.4045 50.1535L46.4746 50.0254L47.5098 50.4559C47.5189 50.4412 47.5269 50.4258 47.5336 50.4099C47.5502 50.3702 47.5588 50.3276 47.5589 50.2846C47.559 50.2416 47.5506 50.199 47.5342 50.1592C47.5178 50.1195 47.4938 50.0834 47.4634 50.0529C47.433 50.0225 47.3969 49.9984 47.3571 49.9819V49.9819Z" fill="black"/>
<path d="M47.6018 49.5507L46.2197 48.9764C46.1727 48.9568 46.1223 48.9468 46.0715 48.9468C46.0206 48.9468 45.9702 48.9568 45.9233 48.9764L44.0732 49.2059C43.983 49.2481 43.9126 49.3235 43.8765 49.4164C43.8404 49.5092 43.8415 49.6124 43.8795 49.7045C43.9175 49.7966 43.9895 49.8705 44.0806 49.9108C44.1716 49.9512 44.2747 49.955 44.3685 49.9214L46.0707 49.7532L47.305 50.266C47.3524 50.2884 47.4038 50.3009 47.4562 50.3028C47.5086 50.3047 47.5609 50.296 47.6098 50.2771C47.6587 50.2583 47.7033 50.2297 47.7408 50.1931C47.7784 50.1565 47.8081 50.1126 47.8282 50.0642C47.8483 50.0158 47.8584 49.9638 47.8578 49.9113C47.8572 49.8589 47.846 49.8071 47.8249 49.7592C47.8037 49.7112 47.773 49.668 47.7347 49.6323C47.6963 49.5965 47.6511 49.5689 47.6018 49.5511V49.5507Z" fill="#FFDCB5"/>
<path opacity="0.1" d="M46.2197 48.9764C46.1727 48.9568 46.1224 48.9468 46.0715 48.9468C46.0206 48.9468 45.9703 48.9568 45.9233 48.9764L44.0732 49.2059C44.061 49.2108 44.0491 49.2164 44.0375 49.2226C44.0426 49.2461 44.0498 49.269 44.059 49.2911C44.0983 49.3859 44.1736 49.4612 44.2683 49.5005C44.3631 49.5399 44.4695 49.54 44.5644 49.501L46.2664 49.3329L47.5007 49.8456C47.5476 49.8651 47.5979 49.8752 47.6487 49.8752C47.6996 49.8752 47.7499 49.8651 47.7968 49.8456C47.8091 49.8404 47.8212 49.8346 47.8326 49.8286C47.8196 49.7671 47.7919 49.7096 47.7518 49.6612C47.7118 49.6128 47.6605 49.5749 47.6025 49.5507L46.2197 48.9764Z" fill="black"/>
<path d="M47.854 48.9928L46.4719 48.4185C46.425 48.399 46.3746 48.3889 46.3238 48.3889C46.273 48.3889 46.2226 48.399 46.1757 48.4185L44.3245 48.648C44.2753 48.6658 44.2302 48.6934 44.192 48.7291C44.1537 48.7648 44.1231 48.8079 44.1019 48.8558C44.0807 48.9036 44.0695 48.9553 44.0689 49.0076C44.0682 49.06 44.0782 49.1119 44.0982 49.1603C44.1182 49.2086 44.1478 49.2525 44.1851 49.2891C44.2225 49.3257 44.2669 49.3544 44.3157 49.3734C44.3645 49.3924 44.4166 49.4013 44.4689 49.3996C44.5212 49.3979 44.5726 49.3856 44.6201 49.3635L46.3221 49.1954L47.5563 49.7081C47.6502 49.7425 47.7537 49.7394 47.8452 49.6993C47.9368 49.6592 48.0093 49.5852 48.0476 49.4929C48.0859 49.4006 48.0871 49.297 48.0509 49.2039C48.0146 49.1107 47.9438 49.0352 47.8532 48.993L47.854 48.9928Z" fill="#FFDCB5"/>
<path d="M46.5188 57.3427C46.5188 57.858 46.1384 57.9238 45.6577 58.1466C41.5073 59.6534 37.2955 59.4418 33.3744 58.1466C32.8936 57.9249 32.5134 57.858 32.5134 57.3427V42.6438C32.5134 42.1285 32.8938 41.4993 33.3744 41.2776C35.3032 40.4007 37.3974 39.947 39.5161 39.947C41.6348 39.947 43.729 40.4007 45.6577 41.2776C46.1386 41.4993 46.5188 42.1285 46.5188 42.6438V57.3427Z" fill="#4C4C4C"/>
</svg>
