<svg width="100" height="68" viewBox="0 0 100 68" fill="none" xmlns="http://www.w3.org/2000/svg">
<g clip-path="url(#clip0_46_2802)">
<path d="M53.6003 38.248C54.29 38.3282 55.0318 38.4052 55.0291 38.3586C55.0407 38.5581 55.0518 38.765 55.0655 38.9772C55.0518 38.7676 55.0407 38.5581 55.0291 38.3586C55.0281 38.3586 54.4027 38.313 53.6003 38.248Z" fill="#DDEEF5"/>
<path d="M67.1343 51.5837C67.0834 51.5397 67.0297 51.499 66.9736 51.4617C67.0295 51.4992 67.0832 51.54 67.1343 51.5837V51.5837Z" fill="#DDEEF5"/>
<path d="M62.8437 13.7326V24.4529H55.9243C55.9139 24.7755 55.8799 25.0969 55.8226 25.4145C55.2088 28.7264 53.2274 31.9519 51.2112 34.6017C50.8424 35.0872 50.4467 35.5869 50.3293 36.184C50.0917 37.3981 51.0921 37.8203 52.0446 38.0262C53.3997 37.6962 54.8743 36.8906 56.2514 36.9545C56.3775 36.9616 56.4984 37.0071 56.5976 37.0849C56.6451 37.1204 56.6844 37.1657 56.7128 37.2177C56.7412 37.2696 56.7579 37.3271 56.7619 37.3861C56.7672 37.5197 56.6998 37.6443 56.6276 37.7569C56.2467 38.3509 55.6903 38.6856 55.0645 38.9774C55.1978 41.2464 55.3974 44.1371 55.6819 46.2616C55.8716 47.6758 55.8927 50.3471 57.4589 51.0458C57.8182 51.2066 58.2218 51.2349 58.618 51.2553C60.3244 51.3435 62.0345 51.3348 63.7399 51.2291C64.3157 51.1946 65.027 51.072 65.6955 51.0966C65.6823 51.0966 65.6707 51.0966 65.657 51.0935C66.5527 51.139 68.5257 50.9363 69.2891 50.8316C70.4313 50.6797 71.5671 50.492 72.6966 50.2685C74.9205 49.8302 77.1149 49.2555 79.2674 48.5479C81.7365 47.7355 84.144 46.7482 86.4713 45.5938C81.1503 51.689 75.7865 57.8293 69.3581 62.7576C68.5468 63.3798 67.7075 63.9879 66.7766 64.4002C66.6196 64.8789 66.451 65.358 66.2708 65.8374C66.1623 66.1276 67.7628 66.5707 67.924 66.6231C72.1603 68.03 76.698 68.1326 81.1176 67.9116C83.1533 67.7995 85.1558 67.2307 87.0535 66.5147C88.6045 65.9296 89.7967 65.5546 91.0574 64.4049C91.2155 64.2603 91.3793 64.1063 91.4399 63.9031C91.5005 63.6999 91.4484 63.4883 91.3973 63.2861C90.666 60.4241 89.7762 57.592 89.3163 54.6735C88.6071 50.169 89.4601 46.4444 91.7323 42.5218C94.1632 38.3226 96.0524 35.6513 97.8147 31.119C99.6423 26.4281 100.712 20.7791 99.4616 15.8676C98.9906 14.0233 98.3963 12.1979 97.4912 10.525C95.2258 6.33944 91.1112 3.33608 86.6046 1.75321C79.9965 -0.569243 71.614 -0.796041 65.2366 2.35189C62.9428 3.48378 60.9772 5.14627 59.4467 7.14188L65.44 12.0906L62.8437 13.7326ZM69.1473 27.8899C70.6367 27.6673 72.4043 26.8073 73.0017 25.3391C73.1545 24.9625 73.7751 25.1296 73.6202 25.5083C73.3115 26.2667 72.7736 26.8701 72.1161 27.3515C70.9286 28.2231 69.3238 28.729 67.8487 28.5426C66.3735 28.3561 64.7008 27.3661 64.664 25.7367C64.655 25.3255 65.2962 25.3271 65.3057 25.7367C65.3457 27.5076 67.7223 28.1021 69.1473 27.8899Z" fill="#DDEEF5"/>
<path d="M86.4714 45.5938C84.1436 46.7492 81.7356 47.7373 79.2658 48.5505C77.1134 49.2581 74.9189 49.8328 72.6951 50.2711C71.5656 50.4946 70.4297 50.6823 69.2875 50.8342C68.5241 50.9342 66.548 51.139 65.6555 51.0961C65.6692 51.0961 65.6808 51.0961 65.694 51.0992C66.3262 51.138 66.7171 51.2904 66.9737 51.4659C67.0297 51.5032 67.0834 51.5439 67.1344 51.5879C68.1232 52.4642 68.3124 54.6693 68.3461 55.8829C68.3924 57.4454 68.129 59.002 67.8103 60.5331C67.5407 61.8427 67.1943 63.1355 66.7729 64.4049C67.7054 63.9926 68.5447 63.3845 69.3544 62.7623C75.7866 57.8298 81.154 51.6895 86.4714 45.5938Z" fill="#9CD8F7"/>
<path d="M56.6276 37.7567C56.6997 37.6441 56.7672 37.5194 56.7619 37.3859C56.7579 37.3269 56.7412 37.2694 56.7128 37.2174C56.6844 37.1655 56.6451 37.1202 56.5975 37.0847C56.4984 37.0069 56.3775 36.9614 56.2514 36.9543C54.8743 36.8904 53.3996 37.6959 52.0446 38.0259C51.9624 38.0458 51.8797 38.0647 51.7986 38.0783C52.385 38.1406 53.0356 38.1988 53.5993 38.2454C54.4027 38.3119 55.0281 38.3559 55.0281 38.3559C55.0397 38.5555 55.0507 38.7624 55.0644 38.9745C55.6903 38.6854 56.2467 38.3507 56.6276 37.7567Z" fill="#9CD8F7"/>
<path d="M33.0264 51.46C32.9704 51.4974 32.9168 51.5382 32.8657 51.582C32.9169 51.5383 32.9705 51.4975 33.0264 51.46V51.46Z" fill="#F9D697"/>
<path d="M44.9355 38.9772C44.9492 38.7676 44.9603 38.5581 44.9719 38.3586C44.9693 38.4026 45.7095 38.3282 46.4007 38.248C45.5973 38.3146 44.9719 38.3586 44.9719 38.3586C44.9603 38.5581 44.9492 38.765 44.9355 38.9772Z" fill="#F9D697"/>
<path d="M8.27143 42.5224C10.5437 46.4434 11.3966 50.1654 10.6875 54.6741C10.2276 57.5926 9.33775 60.4247 8.6065 63.2866C8.55381 63.4888 8.50482 63.7057 8.56382 63.9037C8.62283 64.1016 8.78878 64.2609 8.94631 64.4054C10.2049 65.5578 11.3972 65.9302 12.9503 66.5152C14.8469 67.2307 16.8489 67.8001 18.8861 67.9122C23.3058 68.1332 27.8424 68.0305 32.0797 66.6237C32.2409 66.5713 33.8415 66.1297 33.7329 65.838C33.5528 65.3575 33.3842 64.8784 33.2272 64.4007C32.2947 63.9885 31.4554 63.3804 30.6457 62.7581C24.2183 57.8299 18.8514 51.6896 13.5324 45.5943C15.8602 46.7498 18.2682 47.7379 20.738 48.5511C22.8904 49.2587 25.0849 49.8334 27.3087 50.2717C28.4382 50.4952 29.5741 50.6829 30.7163 50.8348C31.4797 50.9348 33.4558 51.1396 34.3483 51.0967C34.3346 51.0967 34.323 51.0967 34.3098 51.0998C34.9784 51.0736 35.6896 51.1978 36.2654 51.2323C37.9709 51.3379 39.6809 51.3467 41.3874 51.2585C41.782 51.2376 42.1855 51.2093 42.5464 51.049C44.1127 50.3508 44.1338 47.6811 44.3234 46.2648C44.6079 44.1403 44.8076 41.2496 44.9409 38.9805C44.315 38.6888 43.7586 38.352 43.3777 37.7601C43.3056 37.6475 43.2381 37.5229 43.2434 37.3893C43.2474 37.3303 43.2642 37.2728 43.2925 37.2209C43.3209 37.1689 43.3602 37.1236 43.4078 37.0881C43.5069 37.0103 43.6278 36.9648 43.7539 36.9577C45.1311 36.8938 46.6057 37.6994 47.9607 38.0293C48.9132 37.8235 49.9137 37.4008 49.6761 36.1872C49.5586 35.5901 49.1635 35.0904 48.7942 34.6049C47.1668 32.4663 45.5641 29.9537 44.6848 27.3243V28.4609L31.7041 20.2627L36.5241 16.2819H34.3003V5.38726H39.0008C37.761 4.15689 36.3303 3.13274 34.7634 2.35404C28.3861 -0.794417 20.0036 -0.56762 13.3954 1.75326C8.89152 3.33456 4.77429 6.33792 2.51257 10.5224C1.60747 12.1985 1.0132 14.0223 0.542203 15.865C-0.710615 20.7765 0.362025 26.4255 2.1891 31.1165C3.95347 35.6519 5.8406 38.3232 8.27143 42.5224ZM25.9415 25.3381C26.5385 26.8047 28.3065 27.6663 29.7959 27.8889C31.221 28.1021 33.597 27.5076 33.636 25.7367C33.6455 25.3261 34.2866 25.3261 34.2777 25.7367C34.2577 26.6533 33.7329 27.3709 32.9732 27.8528C31.6561 28.6908 30.0814 28.7432 28.6231 28.2608C27.237 27.8025 25.8868 26.8937 25.3225 25.5073C25.1671 25.1265 25.7882 24.962 25.9415 25.3381Z" fill="#F9D697"/>
<path d="M30.7125 50.8347C29.5703 50.6828 28.4345 50.4951 27.3049 50.2716C25.0811 49.8333 22.8867 49.2587 20.7342 48.551C18.2644 47.7376 15.8564 46.7493 13.5287 45.5938C18.8497 51.689 24.2135 57.8293 30.6419 62.7576C31.4533 63.3798 32.2925 63.9879 33.2234 64.4001C32.8021 63.1307 32.4557 61.8379 32.1861 60.5283C31.87 58.9973 31.6066 57.438 31.6503 55.8782C31.6861 54.6646 31.8753 52.4595 32.862 51.5832C32.9131 51.5394 32.9667 51.4986 33.0227 51.4612C33.2793 51.2878 33.6686 51.1354 34.3024 51.0945C34.3156 51.0945 34.3272 51.0945 34.3409 51.0914C33.45 51.1396 31.4759 50.9363 30.7125 50.8347Z" fill="#F9B233"/>
<path d="M43.7486 36.9543C43.6225 36.9614 43.5016 37.0069 43.4025 37.0847C43.3549 37.1202 43.3156 37.1655 43.2872 37.2174C43.2588 37.2694 43.2421 37.3269 43.2381 37.3859C43.2328 37.5194 43.3002 37.6441 43.3724 37.7567C43.7533 38.3507 44.3097 38.6854 44.9356 38.9771C44.9493 38.7676 44.9603 38.5581 44.9719 38.3585C44.9719 38.3585 45.5973 38.3145 46.4007 38.248C46.9644 38.2014 47.6124 38.1433 48.2019 38.0809C48.1203 38.0647 48.0376 38.0458 47.9554 38.0285C46.6004 37.6959 45.1257 36.8904 43.7486 36.9543Z" fill="#F9B233"/>
<path d="M40.9115 24.4527V16.2817H36.5241L31.7035 20.262L44.6774 28.4602V27.3189V24.4527H40.9115Z" fill="#DDEEF5"/>
<path d="M62.8437 13.7324L52.4666 20.2896V16.2817H40.9115V24.4527H44.6773H55.9243H62.8437V13.7324Z" fill="#DDEEF5"/>
<path d="M56.232 16.2818H52.4667V20.2898L62.8438 13.7326L65.44 12.0916L59.4467 7.14288L52.4667 1.37866V5.38664H56.232V16.2818Z" fill="#F9D697"/>
<path d="M34.3003 16.2817H36.5241H40.9116H52.4667H56.232V5.38647H52.4667H39.0002H34.3003V16.2817Z" fill="#F9D697"/>
<path d="M64.664 25.7365C64.6998 27.366 66.3725 28.3554 67.8472 28.5414C69.3218 28.7273 70.9276 28.2219 72.1145 27.3503C72.772 26.8679 73.3099 26.2656 73.6187 25.5071C73.7736 25.1269 73.1529 24.9613 73.0002 25.3379C72.4027 26.8045 70.6352 27.6661 69.1458 27.8888C67.7234 28.1019 65.3442 27.5074 65.3052 25.7365C65.2962 25.3269 64.6561 25.3233 64.664 25.7365Z" fill="#202448"/>
<path d="M28.6225 28.2607C30.0808 28.7436 31.6534 28.6886 32.9726 27.8527C33.7323 27.3708 34.257 26.6532 34.277 25.7366C34.286 25.326 33.6448 25.326 33.6353 25.7366C33.5963 27.5075 31.2203 28.102 29.7952 27.8888C28.3058 27.6662 26.5378 26.8062 25.9409 25.338C25.7881 24.9619 25.167 25.1285 25.3218 25.5072C25.8887 26.8947 27.2364 27.8024 28.6225 28.2607Z" fill="#202448"/>
</g>
<defs>
<clipPath id="clip0_46_2802">
<rect width="100" height="68" fill="white"/>
</clipPath>
</defs>
</svg>
