<svg width="462" height="128" viewBox="0 0 462 128" fill="none" xmlns="http://www.w3.org/2000/svg">
<circle cx="26" cy="26" r="26" fill="#D9D9D9"/>
<circle cx="26" cy="102" r="26" fill="#D9D9D9"/>
<circle cx="94" cy="26" r="26" fill="#D4D3D3"/>
<circle cx="94" cy="102" r="26" fill="#D9D9D9"/>
<circle cx="163" cy="26" r="26" fill="#D9D9D9"/>
<circle cx="163" cy="102" r="26" fill="#D9D9D9"/>
<circle cx="231" cy="26" r="26" fill="#D9D9D9"/>
<circle cx="231" cy="102" r="26" fill="#D9D9D9"/>
<circle cx="299" cy="26" r="26" fill="#D9D9D9"/>
<circle cx="299" cy="102" r="26" fill="#D9D9D9"/>
<circle cx="368" cy="26" r="26" fill="#D9D9D9"/>
<circle cx="368" cy="102" r="26" fill="#D9D9D9"/>
<circle cx="436" cy="26" r="26" fill="#D9D9D9"/>
<circle cx="436" cy="102" r="26" fill="#D9D9D9"/>
<path d="M103 22C102.694 22.0006 102.393 22.0713 102.118 22.2067C101.844 22.342 101.605 22.5385 101.418 22.7809C101.232 23.0233 101.104 23.3052 101.043 23.6049C100.983 23.9047 100.992 24.2143 101.07 24.51L97.5199 28.07C97.1791 27.98 96.8207 27.98 96.4799 28.07L93.9299 25.52C94.0105 25.2234 94.0217 24.9122 93.9625 24.6105C93.9033 24.3089 93.7755 24.025 93.5888 23.7808C93.4021 23.5366 93.1616 23.3387 92.8861 23.2025C92.6105 23.0663 92.3073 22.9955 91.9999 22.9955C91.6925 22.9955 91.3893 23.0663 91.1137 23.2025C90.8382 23.3387 90.5977 23.5366 90.411 23.7808C90.2243 24.025 90.0965 24.3089 90.0373 24.6105C89.9781 24.9122 89.9893 25.2234 90.0699 25.52L85.5099 30.07C85.0848 29.9571 84.6343 29.9876 84.2282 30.1567C83.8221 30.3257 83.4831 30.6239 83.2636 31.0051C83.0441 31.3863 82.9564 31.8292 83.0141 32.2653C83.0718 32.7014 83.2716 33.1062 83.5826 33.4173C83.8936 33.7283 84.2985 33.9281 84.7346 33.9858C85.1707 34.0435 85.6136 33.9558 85.9948 33.7363C86.376 33.5168 86.6742 33.1778 86.8432 32.7717C87.0123 32.3656 87.0427 31.9151 86.9299 31.49L91.4799 26.93C91.8207 27.02 92.1791 27.02 92.5199 26.93L95.0699 29.48C94.9893 29.7766 94.9781 30.0878 95.0373 30.3894C95.0965 30.6911 95.2243 30.975 95.411 31.2192C95.5977 31.4634 95.8382 31.6613 96.1137 31.7974C96.3893 31.9336 96.6925 32.0045 96.9999 32.0045C97.3073 32.0045 97.6105 31.9336 97.8861 31.7974C98.1616 31.6613 98.4021 31.4634 98.5888 31.2192C98.7755 30.975 98.9033 30.6911 98.9625 30.3894C99.0217 30.0878 99.0105 29.7766 98.9299 29.48L102.49 25.93C102.765 26.0049 103.054 26.0198 103.336 25.9739C103.618 25.928 103.886 25.8222 104.124 25.6638C104.362 25.5053 104.562 25.2978 104.713 25.0552C104.864 24.8126 104.961 24.5405 104.998 24.2573C105.034 23.9741 105.01 23.6863 104.926 23.4133C104.842 23.1403 104.701 22.8884 104.512 22.6745C104.323 22.4606 104.09 22.2898 103.829 22.1734C103.568 22.0571 103.285 21.9979 103 22Z" fill="#006CC0"/>
<path d="M97 23L97.94 20.93L100 20L97.94 19.07L97 17L96.08 19.07L94 20L96.08 20.93L97 23Z" fill="#006CC0"/>
<path d="M85.5 25L86 23L88 22.5L86 22L85.5 20L85 22L83 22.5L85 23L85.5 25Z" fill="#006CC0"/>
<path d="M103 22C102.694 22.0006 102.393 22.0713 102.118 22.2067C101.844 22.342 101.605 22.5385 101.418 22.7809C101.232 23.0233 101.104 23.3052 101.043 23.6049C100.983 23.9047 100.992 24.2143 101.07 24.51L97.5199 28.07C97.1791 27.98 96.8207 27.98 96.4799 28.07L93.9299 25.52C94.0105 25.2234 94.0217 24.9122 93.9625 24.6105C93.9033 24.3089 93.7755 24.025 93.5888 23.7808C93.4021 23.5366 93.1616 23.3387 92.8861 23.2025C92.6105 23.0663 92.3073 22.9955 91.9999 22.9955C91.6925 22.9955 91.3893 23.0663 91.1137 23.2025C90.8382 23.3387 90.5977 23.5366 90.411 23.7808C90.2243 24.025 90.0965 24.3089 90.0373 24.6105C89.9781 24.9122 89.9893 25.2234 90.0699 25.52L85.5099 30.07C85.0848 29.9571 84.6343 29.9876 84.2282 30.1567C83.8221 30.3257 83.4831 30.6239 83.2636 31.0051C83.0441 31.3863 82.9564 31.8292 83.0141 32.2653C83.0718 32.7014 83.2716 33.1062 83.5826 33.4173C83.8936 33.7283 84.2985 33.9281 84.7346 33.9858C85.1707 34.0435 85.6136 33.9558 85.9948 33.7363C86.376 33.5168 86.6742 33.1778 86.8432 32.7717C87.0123 32.3656 87.0427 31.9151 86.9299 31.49L91.4799 26.93C91.8207 27.02 92.1791 27.02 92.5199 26.93L95.0699 29.48C94.9893 29.7766 94.9781 30.0878 95.0373 30.3894C95.0965 30.6911 95.2243 30.975 95.411 31.2192C95.5977 31.4634 95.8382 31.6613 96.1137 31.7974C96.3893 31.9336 96.6925 32.0045 96.9999 32.0045C97.3073 32.0045 97.6105 31.9336 97.8861 31.7974C98.1616 31.6613 98.4021 31.4634 98.5888 31.2192C98.7755 30.975 98.9033 30.6911 98.9625 30.3894C99.0217 30.0878 99.0105 29.7766 98.9299 29.48L102.49 25.93C102.765 26.0049 103.054 26.0198 103.336 25.9739C103.618 25.928 103.886 25.8222 104.124 25.6638C104.362 25.5053 104.562 25.2978 104.713 25.0552C104.864 24.8126 104.961 24.5405 104.998 24.2573C105.034 23.9741 105.01 23.6863 104.926 23.4133C104.842 23.1403 104.701 22.8884 104.512 22.6745C104.323 22.4606 104.09 22.2898 103.829 22.1734C103.568 22.0571 103.285 21.9979 103 22Z" fill="#EE1B2E"/>
<path d="M360 108V107.35C359.995 107.191 360.03 107.034 360.102 106.893C360.173 106.751 360.279 106.63 360.41 106.54C362.1 105.531 364.032 104.999 366 105C366.027 104.998 366.054 105.002 366.08 105.01C366.176 104.324 366.375 103.657 366.67 103.03C366.45 103.01 366.23 103 366 103C363.673 102.998 361.388 103.627 359.39 104.82C358.959 105.085 358.604 105.458 358.361 105.901C358.117 106.345 357.993 106.844 358 107.35V110H367.26C366.834 109.388 366.507 108.713 366.29 108H360Z" fill="#006CC0"/>
<path d="M366 102C366.791 102 367.564 101.765 368.222 101.326C368.88 100.886 369.393 100.262 369.696 99.5307C369.998 98.7998 370.077 97.9956 369.923 97.2196C369.769 96.4437 369.388 95.731 368.828 95.1716C368.269 94.6122 367.556 94.2312 366.78 94.0769C366.004 93.9225 365.2 94.0017 364.469 94.3045C363.738 94.6072 363.114 95.1199 362.674 95.7777C362.235 96.4355 362 97.2089 362 98C362 99.0609 362.421 100.078 363.172 100.828C363.922 101.579 364.939 102 366 102ZM366 96C366.396 96 366.782 96.1173 367.111 96.3371C367.44 96.5568 367.696 96.8692 367.848 97.2346C367.999 97.6001 368.039 98.0022 367.962 98.3902C367.884 98.7781 367.694 99.1345 367.414 99.4142C367.135 99.6939 366.778 99.8844 366.39 99.9616C366.002 100.039 365.6 99.9991 365.235 99.8478C364.869 99.6964 364.557 99.44 364.337 99.1111C364.117 98.7822 364 98.3956 364 98C364.002 97.4701 364.213 96.9623 364.588 96.5875C364.962 96.2128 365.47 96.0016 366 96V96Z" fill="#006CC0"/>
<path d="M376.75 106C376.746 105.789 376.725 105.578 376.69 105.37L377.83 104.36L376.83 102.63L375.38 103.12C375.059 102.849 374.694 102.636 374.3 102.49L374 101H372L371.7 102.49C371.307 102.636 370.941 102.849 370.62 103.12L369.17 102.63L368.17 104.36L369.31 105.37C369.275 105.578 369.255 105.789 369.25 106C369.255 106.211 369.275 106.422 369.31 106.63L368.17 107.64L369.17 109.37L370.62 108.88C370.941 109.151 371.307 109.364 371.7 109.51L372 111H374L374.3 109.51C374.694 109.364 375.059 109.151 375.38 108.88L376.83 109.37L377.83 107.64L376.69 106.63C376.725 106.422 376.746 106.211 376.75 106ZM373 108C372.605 108 372.218 107.883 371.889 107.663C371.56 107.443 371.304 107.131 371.152 106.765C371.001 106.4 370.961 105.998 371.039 105.61C371.116 105.222 371.306 104.865 371.586 104.586C371.866 104.306 372.222 104.116 372.61 104.038C372.998 103.961 373.4 104.001 373.766 104.152C374.131 104.304 374.443 104.56 374.663 104.889C374.883 105.218 375 105.604 375 106C374.999 106.53 374.787 107.038 374.413 107.412C374.038 107.787 373.53 107.998 373 108V108Z" fill="#006CC0"/>
<path d="M360 108V107.35C359.995 107.191 360.03 107.034 360.102 106.893C360.173 106.751 360.279 106.63 360.41 106.54C362.1 105.531 364.032 104.999 366 105C366.027 104.998 366.054 105.002 366.08 105.01C366.176 104.324 366.375 103.657 366.67 103.03C366.45 103.01 366.23 103 366 103C363.673 102.998 361.388 103.627 359.39 104.82C358.959 105.085 358.604 105.458 358.361 105.901C358.117 106.345 357.993 106.844 358 107.35V110H367.26C366.834 109.388 366.507 108.713 366.29 108H360Z" fill="#EE1B2E"/>
<path d="M366 102C366.791 102 367.564 101.765 368.222 101.326C368.88 100.886 369.393 100.262 369.696 99.5307C369.998 98.7998 370.077 97.9956 369.923 97.2196C369.769 96.4437 369.388 95.731 368.828 95.1716C368.269 94.6122 367.556 94.2312 366.78 94.0769C366.004 93.9225 365.2 94.0017 364.469 94.3045C363.738 94.6072 363.114 95.1199 362.674 95.7777C362.235 96.4355 362 97.2089 362 98C362 99.0609 362.421 100.078 363.172 100.828C363.922 101.579 364.939 102 366 102ZM366 96C366.396 96 366.782 96.1173 367.111 96.3371C367.44 96.5568 367.696 96.8692 367.848 97.2346C367.999 97.6001 368.039 98.0022 367.962 98.3902C367.884 98.7781 367.694 99.1345 367.414 99.4142C367.135 99.6939 366.778 99.8844 366.39 99.9616C366.002 100.039 365.6 99.9991 365.235 99.8478C364.869 99.6964 364.557 99.44 364.337 99.1111C364.117 98.7822 364 98.3956 364 98C364.002 97.4701 364.213 96.9623 364.588 96.5875C364.962 96.2128 365.47 96.0016 366 96V96Z" fill="#EE1B2E"/>
<path d="M443 95V109H429V95H443ZM443 93H429C428.47 93.0016 427.962 93.2128 427.588 93.5875C427.213 93.9623 427.002 94.4701 427 95V109C427.002 109.53 427.213 110.038 427.588 110.412C427.962 110.787 428.47 110.998 429 111H443C443.53 110.998 444.038 110.787 444.412 110.412C444.787 110.038 444.998 109.53 445 109V95C444.998 94.4701 444.787 93.9623 444.412 93.5875C444.038 93.2128 443.53 93.0016 443 93V93Z" fill="#006CC0"/>
<path d="M438 107H431V105H438V107ZM441 103H431V101H441V103ZM441 99H431V97H441V99Z" fill="#006CC0"/>
<path d="M443 95V109H429V95H443ZM443 93H429C428.47 93.0016 427.962 93.2128 427.588 93.5875C427.213 93.9623 427.002 94.4701 427 95V109C427.002 109.53 427.213 110.038 427.588 110.412C427.962 110.787 428.47 110.998 429 111H443C443.53 110.998 444.038 110.787 444.412 110.412C444.787 110.038 444.998 109.53 445 109V95C444.998 94.4701 444.787 93.9623 444.412 93.5875C444.038 93.2128 443.53 93.0016 443 93V93Z" fill="#EE1B2E"/>
<path d="M300.432 93.687H289.686C289.51 93.6866 289.335 93.7211 289.173 93.7886C289.01 93.856 288.862 93.955 288.738 94.0799C288.614 94.2048 288.515 94.3531 288.449 94.5161C288.382 94.6792 288.349 94.8539 288.35 95.03L288.343 103.087C288.342 103.264 288.377 103.438 288.444 103.602C288.511 103.765 288.61 103.913 288.735 104.038C288.86 104.163 289.008 104.262 289.171 104.329C289.335 104.396 289.51 104.431 289.686 104.43H300.432C300.609 104.431 300.784 104.396 300.947 104.329C301.11 104.262 301.259 104.163 301.383 104.038C301.508 103.913 301.607 103.765 301.675 103.602C301.742 103.439 301.777 103.264 301.776 103.087V95.03C301.777 94.8534 301.742 94.6785 301.675 94.5152C301.607 94.352 301.508 94.2037 301.383 94.0788C301.259 93.954 301.11 93.8551 300.947 93.7879C300.784 93.7206 300.609 93.6864 300.432 93.687ZM300.432 103.087H289.686V99.06H300.432V103.087ZM300.432 96.371H289.686V95.03H300.432V96.371Z" fill="#EE1B2E"/>
<path d="M302.589 100.06H297.589V105.06H302.589V100.06Z" fill="white"/>
<path d="M308.491 99.628H297.745C297.569 99.6276 297.394 99.6621 297.232 99.7296C297.069 99.797 296.921 99.896 296.797 100.021C296.673 100.146 296.575 100.294 296.508 100.457C296.441 100.62 296.408 100.795 296.409 100.971L296.402 109.028C296.402 109.205 296.436 109.379 296.503 109.543C296.571 109.706 296.669 109.854 296.794 109.979C296.919 110.104 297.067 110.203 297.231 110.27C297.394 110.337 297.569 110.372 297.745 110.371H308.491C308.668 110.372 308.843 110.337 309.006 110.27C309.169 110.203 309.318 110.104 309.443 109.979C309.567 109.854 309.666 109.706 309.734 109.543C309.801 109.38 309.836 109.205 309.835 109.028V100.971C309.836 100.794 309.801 100.619 309.734 100.456C309.666 100.293 309.567 100.145 309.443 100.02C309.318 99.895 309.169 99.7961 309.006 99.7289C308.843 99.6616 308.668 99.6273 308.491 99.628ZM308.491 109.028H297.745V105.001H308.491V109.028ZM308.491 102.312H297.745V100.971H308.491V102.312Z" fill="#006CC0"/>
<path d="M225.99 101L222 105L225.99 109V106H233V104H225.99V101ZM240 99L236.01 95V98H229V100H236.01V103L240 99Z" fill="#006CC0"/>
<path d="M240 99L236.01 95V98H229V100H236.01V103L240 99Z" fill="#EE1B2E"/>
<path d="M153.53 109.65L154.87 110.21V101.18L152.44 107.04C152.244 107.531 152.248 108.08 152.452 108.568C152.655 109.056 153.043 109.444 153.53 109.65V109.65ZM173.03 105.95L168.07 93.98C167.868 93.4924 167.481 93.1048 166.993 92.9023C166.506 92.6999 165.958 92.699 165.47 92.9L158.1 95.95C157.743 96.0989 157.437 96.3482 157.218 96.6677C157 96.9871 156.879 97.3631 156.87 97.75C156.861 98.0244 156.912 98.2976 157.02 98.55L161.98 110.52C162.131 110.882 162.385 111.191 162.71 111.41C163.036 111.629 163.418 111.747 163.81 111.75C164.074 111.75 164.335 111.699 164.58 111.6L171.94 108.55C172.429 108.35 172.819 107.963 173.023 107.476C173.228 106.988 173.23 106.439 173.03 105.95V105.95ZM163.83 109.75L158.87 97.79L166.22 94.75H166.23L171.18 106.7L163.83 109.75V109.75Z" fill="#006CC0"/>
<path d="M162 100C162.552 100 163 99.5523 163 99C163 98.4477 162.552 98 162 98C161.448 98 161 98.4477 161 99C161 99.5523 161.448 100 162 100Z" fill="#006CC0"/>
<path d="M156.88 109.75C156.881 110.28 157.093 110.788 157.467 111.162C157.842 111.537 158.35 111.748 158.88 111.75H160.33L156.88 103.41V109.75Z" fill="#006CC0"/>
<path d="M154.87 101.18L152.44 107.04L154.87 101.18ZM173.03 105.95L168.07 93.98C167.868 93.4924 167.481 93.1048 166.993 92.9023C166.506 92.6999 165.958 92.699 165.47 92.9L158.1 95.95C157.743 96.0989 157.436 96.3482 157.218 96.6677C157 96.9871 156.879 97.3631 156.87 97.75C156.86 98.0244 156.912 98.2976 157.02 98.55L161.98 110.52C162.131 110.882 162.385 111.191 162.71 111.41C163.035 111.629 163.418 111.747 163.81 111.75C164.074 111.75 164.335 111.699 164.58 111.6L171.94 108.55C172.429 108.35 172.819 107.963 173.023 107.476C173.228 106.988 173.23 106.439 173.03 105.95V105.95ZM163.83 109.75L158.87 97.79L166.22 94.75H166.23L171.18 106.7L163.83 109.75V109.75Z" fill="#EE1B2E"/>
<path d="M162 100C162.552 100 163 99.5523 163 99C163 98.4477 162.552 98 162 98C161.448 98 161 98.4477 161 99C161 99.5523 161.448 100 162 100Z" fill="#EE1B2E"/>
<path d="M91.5 96.5V99.5H88.5V96.5H91.5ZM93 95H87V101H93V95ZM91.5 104.5V107.5H88.5V104.5H91.5ZM93 103H87V109H93V103ZM98 98V101H95V98H98ZM101 95H95V101H101V95ZM92 106H93.5V107.5H95L92 106ZM93.5 107.5H98V106H96.5L93.5 107.5ZM98 103H99.5V104.5H98V103ZM95 106H96.5V107.5H95V106ZM96.5 107.5H98V109H96.5V107.5ZM98 106H99.5V107.5H98V106ZM99.5 104.5H101V106H99.5V104.5ZM99.5 107.5H101V109H99.5V107.5ZM104 97H102V94H99V92H104V97ZM104 112V107H102V110H99V112H104ZM84 112H89V110H86V107H84V112ZM84 92V97H86V94H89V92H84Z" fill="#006CC0"/>
<path d="M91.5 96.5V99.5H88.5V96.5H91.5ZM93 95H87V101H93V95ZM91.5 104.5V107.5H88.5V104.5H91.5ZM93 103H87V109H93V103ZM98 98V101H95V98H98ZM101 95H95V101H101V95ZM92 106H93.5V107.5H95L92 106ZM93.5 107.5H98V106H96.5L93.5 107.5ZM98 103H99.5V104.5H98V103ZM95 106H96.5V107.5H95V106ZM96.5 107.5H98V109H96.5V107.5ZM98 106H99.5V107.5H98V106ZM99.5 104.5H101V106H99.5V104.5ZM99.5 107.5H101V109H99.5V107.5ZM102 97L104 92L102 97ZM104 112L102 107L104 112ZM84 112L86 110L84 112Z" fill="#EE1B2E"/>
<path d="M435.99 16C434.013 16.002 432.08 16.5902 430.437 17.6902C428.794 18.7902 427.514 20.3527 426.758 22.1801C426.003 24.0075 425.806 26.0179 426.193 27.957C426.58 29.8962 427.534 31.6771 428.932 33.0746C430.331 34.4721 432.113 35.4235 434.053 35.8086C435.992 36.1936 438.002 35.995 439.829 35.2378C441.656 34.4807 443.217 33.1989 444.315 31.5547C445.414 29.9104 446 27.9774 446 26C446 24.6859 445.741 23.3848 445.238 22.1709C444.735 20.957 443.997 19.8541 443.068 18.9254C442.138 17.9967 441.034 17.2603 439.82 16.7583C438.605 16.2564 437.304 15.9987 435.99 16V16ZM442.92 22H439.97C439.657 20.7615 439.194 19.5659 438.59 18.44C440.414 19.068 441.951 20.3317 442.92 22ZM436 18.04C436.84 19.2519 437.485 20.5882 437.91 22H434.09C434.515 20.5882 435.16 19.2519 436 18.04V18.04ZM428.26 28C427.913 26.6892 427.913 25.3108 428.26 24H431.64C431.553 24.6632 431.506 25.3311 431.5 26C431.506 26.6689 431.553 27.3368 431.64 28H428.26ZM429.08 30H432.03C432.343 31.2386 432.806 32.4341 433.41 33.56C431.584 32.9354 430.046 31.6708 429.08 30V30ZM432.03 22H429.08C430.046 20.3292 431.584 19.0646 433.41 18.44C432.806 19.5659 432.343 20.7615 432.03 22V22ZM436 33.96C435.16 32.7481 434.515 31.4118 434.09 30H437.91C437.485 31.4118 436.84 32.7481 436 33.96ZM438.34 28H433.66C433.561 27.3378 433.508 26.6695 433.5 26C433.507 25.3305 433.561 24.6622 433.66 24H438.34C438.439 24.6622 438.493 25.3305 438.5 26C438.492 26.6695 438.439 27.3378 438.34 28V28ZM438.59 33.56C439.194 32.4341 439.657 31.2386 439.97 30H442.92C441.951 31.6683 440.414 32.932 438.59 33.56V33.56ZM440.36 28C440.447 27.3368 440.494 26.6689 440.5 26C440.494 25.3311 440.447 24.6632 440.36 24H443.74C444.087 25.3108 444.087 26.6892 443.74 28H440.36Z" fill="#EE1B2E"/>
<path d="M429.1 22H442.957L443.788 24H428.268L429.1 22Z" fill="#006CC0"/>
<path d="M429.1 30H442.957L443.788 28H428.268L429.1 30Z" fill="#006CC0"/>
<path d="M440.365 27.994L440.528 26L440.366 24H438.378L438.54 25.887L438.378 27.994H440.365Z" fill="#006CC0"/>
<path d="M431.662 28L431.5 26.006L431.662 24.006H433.65L433.488 25.894L433.65 28H431.662Z" fill="#006CC0"/>
<path d="M376 18H360C359.738 17.9993 359.478 18.0507 359.235 18.1511C358.993 18.2515 358.773 18.3989 358.588 18.5849C358.403 18.7709 358.256 18.9917 358.157 19.2346C358.058 19.4775 358.008 19.7377 358.01 20L358 32C357.999 32.2629 358.05 32.5234 358.15 32.7665C358.251 33.0095 358.398 33.2304 358.584 33.4163C358.77 33.6022 358.99 33.7495 359.234 33.8497C359.477 33.9498 359.737 34.0009 360 34H376C376.263 34.0009 376.523 33.9498 376.766 33.8497C377.01 33.7495 377.23 33.6022 377.416 33.4163C377.602 33.2304 377.749 33.0095 377.85 32.7665C377.95 32.5234 378.001 32.2629 378 32V20C378.001 19.7371 377.95 19.4766 377.85 19.2336C377.749 18.9905 377.602 18.7696 377.416 18.5837C377.23 18.3978 377.01 18.2506 376.766 18.1504C376.523 18.0502 376.263 17.9991 376 18V18ZM376 32H360V26H376V32ZM376 22H360V20H376V22Z" fill="#EE1B2E"/>
<path d="M376 22H360V26H376V22Z" fill="#006CC0"/>
<path d="M291.049 24.5037L297.364 23.7515L291.907 26.0037L291.05 24.5032M299.497 27.4635L295.69 32.5552L294.826 31.0587L299.497 27.4635ZM288.523 23.2397L291.24 27.9618L302.126 23.4688L292.796 30.6577L295.527 35.3718L306.175 21.1416L288.523 23.2397Z" fill="#EE1B2E"/>
<path fill-rule="evenodd" clip-rule="evenodd" d="M223.092 24.243L222.663 26.912C226.898 26.892 240.223 20.681 240.842 16.974C240.842 16.974 240.883 16.731 240.923 16.487C240.963 16.243 241.002 16 240.999 16C235.227 20.927 226.506 24.232 223.093 24.242M222.285 28.848L221.885 31.306C225.968 31.295 239.444 25.074 240.063 21.369L240.234 20.308C234.265 25.551 225.905 28.721 222.285 28.849M221.415 33.332L221 35.908V35.999C225.128 35.882 238.544 29.764 239.161 26.063L239.361 24.795C234.741 28.876 225.141 33.355 221.414 33.332" fill="#006CC0"/>
<path fill-rule="evenodd" clip-rule="evenodd" d="M223.092 24.243L222.663 26.912C226.898 26.892 240.223 20.681 240.842 16.974C240.842 16.974 240.883 16.731 240.923 16.487C240.963 16.243 241.002 16 240.999 16C235.227 20.927 226.506 24.232 223.093 24.242M222.285 28.848L221.885 31.306ZM221.415 33.332L221 35.908V35.999C225.128 35.882 238.544 29.764 239.161 26.063L239.361 24.795C234.741 28.876 225.141 33.355 221.414 33.332" fill="#D8131F"/>
<g clip-path="url(#clip0_29_2471)">
<path d="M173.03 29.95L168.07 17.98C167.868 17.4924 167.481 17.1048 166.993 16.9023C166.506 16.6999 165.958 16.699 165.47 16.9L158.1 19.95C157.743 20.0989 157.437 20.3482 157.218 20.6677C157 20.9871 156.879 21.3631 156.87 21.75C156.861 22.0244 156.912 22.2976 157.02 22.55L161.98 34.52C162.131 34.8818 162.385 35.1913 162.71 35.4099C163.036 35.6286 163.418 35.7469 163.81 35.75C164.074 35.7495 164.335 35.6986 164.58 35.6L171.94 32.55C172.429 32.3496 172.819 31.9632 173.023 31.4756C173.228 30.9881 173.23 30.4393 173.03 29.95V29.95ZM163.83 33.75L158.87 21.79L166.22 18.75H166.23L171.18 30.7L163.83 33.75V33.75Z" fill="#006CC0"/>
<path d="M162 24C162.552 24 163 23.5523 163 23C163 22.4477 162.552 22 162 22C161.448 22 161 22.4477 161 23C161 23.5523 161.448 24 162 24Z" fill="#006CC0"/>
<path d="M154.87 25.18L152.44 31.04L154.87 25.18ZM173.03 29.95L168.07 17.98C167.868 17.4924 167.481 17.1048 166.993 16.9023C166.506 16.6999 165.958 16.699 165.47 16.9L158.1 19.95C157.743 20.0989 157.436 20.3482 157.218 20.6677C157 20.9871 156.879 21.3631 156.87 21.75C156.86 22.0244 156.912 22.2976 157.02 22.55L161.98 34.52C162.131 34.8818 162.385 35.1913 162.71 35.4099C163.035 35.6286 163.418 35.7469 163.81 35.75C164.074 35.7495 164.335 35.6986 164.58 35.6L171.94 32.55C172.429 32.3496 172.819 31.9632 173.023 31.4756C173.228 30.9881 173.23 30.4393 173.03 29.95V29.95ZM163.83 33.75L158.87 21.79L166.22 18.75H166.23L171.18 30.7L163.83 33.75V33.75Z" fill="#EE1B2E"/>
<path d="M162 24C162.552 24 163 23.5523 163 23C163 22.4477 162.552 22 162 22C161.448 22 161 22.4477 161 23C161 23.5523 161.448 24 162 24Z" fill="#EE1B2E"/>
<path d="M155.75 33.55V34.45H160.25V33.55H155.75ZM158 29.5C157.11 29.5 156.24 29.7639 155.5 30.2584C154.76 30.7529 154.183 31.4557 153.843 32.2779C153.502 33.1002 153.413 34.005 153.586 34.8779C153.76 35.7508 154.189 36.5526 154.818 37.182C155.447 37.8113 156.249 38.2399 157.122 38.4135C157.995 38.5872 158.9 38.4981 159.722 38.1575C160.544 37.8169 161.247 37.2401 161.742 36.5001C162.236 35.76 162.5 34.89 162.5 34C162.5 32.8065 162.026 31.6619 161.182 30.818C160.338 29.9741 159.193 29.5 158 29.5V29.5ZM158 37.6C157.288 37.6 156.592 37.3889 156 36.9933C155.408 36.5977 154.947 36.0355 154.674 35.3777C154.402 34.7198 154.33 33.996 154.469 33.2977C154.608 32.5993 154.951 31.9579 155.454 31.4544C155.958 30.9509 156.599 30.6081 157.298 30.4692C157.996 30.3303 158.72 30.4016 159.378 30.674C160.035 30.9465 160.598 31.4079 160.993 31.9999C161.389 32.592 161.6 33.288 161.6 34C161.6 34.4728 161.507 34.9409 161.326 35.3777C161.145 35.8144 160.88 36.2113 160.546 36.5456C160.211 36.8799 159.814 37.145 159.378 37.326C158.941 37.5069 158.473 37.6 158 37.6Z" fill="#006CC0"/>
</g>
<g clip-path="url(#clip1_29_2471)">
<path d="M27.8969 94.1379H20.7239C20.1296 94.1382 19.5598 94.3744 19.1396 94.7946C18.7194 95.2148 18.4832 95.7847 18.4829 96.3789V111.622C18.4832 112.216 18.7194 112.786 19.1396 113.206C19.5598 113.626 20.1296 113.863 20.7239 113.863H27.8969C28.4912 113.863 29.061 113.626 29.4812 113.206C29.9015 112.786 30.1376 112.216 30.1379 111.622V96.3789C30.1376 95.7847 29.9015 95.2148 29.4812 94.7946C29.061 94.3744 28.4912 94.1382 27.8969 94.1379V94.1379ZM24.3109 112.967C24.0449 112.967 23.7849 112.888 23.5637 112.74C23.3425 112.592 23.1701 112.382 23.0683 112.137C22.9665 111.891 22.9399 111.62 22.9918 111.36C23.0437 111.099 23.1718 110.859 23.3599 110.671C23.548 110.483 23.7876 110.355 24.0485 110.303C24.3094 110.251 24.5799 110.278 24.8256 110.379C25.0714 110.481 25.2814 110.654 25.4292 110.875C25.577 111.096 25.6559 111.356 25.6559 111.622C25.6562 111.799 25.6216 111.974 25.5541 112.137C25.4866 112.3 25.3875 112.449 25.2626 112.574C25.1376 112.699 24.9892 112.798 24.8259 112.865C24.6626 112.933 24.4876 112.967 24.3109 112.967V112.967ZM28.3459 109.381H20.2759V96.8279H28.3449L28.3459 109.381Z" fill="#EE1B2E"/>
<path d="M35.7922 90L34.8372 90.955C35.7238 91.8444 36.2217 93.0491 36.2217 94.305C36.2217 95.5609 35.7238 96.7656 34.8372 97.655L35.7922 98.61C36.3584 98.0451 36.8076 97.3741 37.1141 96.6354C37.4206 95.8967 37.5783 95.1048 37.5783 94.305C37.5783 93.5052 37.4206 92.7133 37.1141 91.9746C36.8076 91.2359 36.3584 90.5649 35.7922 90V90Z" fill="#006CC0"/>
<path d="M33.8881 96.703C34.5221 96.0678 34.8783 95.207 34.8783 94.3095C34.8783 93.412 34.5221 92.5512 33.8881 91.916L32.9331 92.871C33.3136 93.2519 33.5273 93.7682 33.5273 94.3065C33.5273 94.8449 33.3136 95.3612 32.9331 95.742L33.8881 96.703Z" fill="#006CC0"/>
</g>
<path d="M20.5 24H18.5V31H20.5V24ZM26.5 24H24.5V31H26.5V24ZM35 33H16V35H35V33ZM32.5 24H30.5V31H32.5V24ZM25.5 17.26L30.71 20H20.29L25.5 17.26ZM25.5 15L16 20V22H35V20L25.5 15Z" fill="#006CC0"/>
<path d="M18.5 24L20.5 31L18.5 24ZM35 33H16V35H35V33ZM25.5 17.26L30.71 20H20.29L25.5 17.26ZM25.5 15L16 20V22H35V20L25.5 15Z" fill="#EE1B2E"/>
<defs>
<clipPath id="clip0_29_2471">
<rect width="24" height="24.5" fill="white" transform="translate(151 14)"/>
</clipPath>
<clipPath id="clip1_29_2471">
<rect width="23.585" height="24.759" fill="white" transform="translate(14 90)"/>
</clipPath>
</defs>
</svg>
