<svg width="445" height="270" viewBox="0 0 445 270" fill="none" xmlns="http://www.w3.org/2000/svg">
<rect width="445" height="90" fill="#5B5B5B"/>
<rect y="90" width="445" height="90" fill="#D5D3D3"/>
<rect y="180" width="445" height="90" fill="white"/>
<path d="M216 20H154C151.791 20 150 21.7909 150 24V66C150 68.2091 151.791 70 154 70H216C218.209 70 220 68.2091 220 66V24C220 21.7909 218.209 20 216 20Z" fill="#1F1F1F"/>
<path fill-rule="evenodd" clip-rule="evenodd" d="M178.507 31.507L178.148 33.275C181.687 33.261 192.822 29.146 193.34 26.69C193.34 26.69 193.374 26.529 193.407 26.368C193.44 26.206 193.473 26.045 193.471 26.045C188.647 29.311 181.359 31.5 178.507 31.507ZM177.832 34.559L177.5 36.188C180.912 36.181 192.174 32.059 192.691 29.604L192.834 28.904C187.846 32.378 180.86 34.478 177.834 34.563M177.1 37.53L176.753 39.237V39.297C180.203 39.219 191.414 35.165 191.93 32.714L192.1 31.874C188.234 34.574 180.211 37.547 177.1 37.53Z" fill="white"/>
<path d="M171.564 59.621C173.004 59.621 174.236 59.221 175.244 58.405C176.236 57.605 176.812 56.453 176.988 54.981H174.284C174.156 55.717 173.836 56.277 173.356 56.677C172.86 57.093 172.268 57.285 171.564 57.285C170.636 57.285 169.932 56.981 169.436 56.341C168.94 55.717 168.7 54.821 168.7 53.669C168.7 52.517 168.94 51.637 169.436 50.997C169.932 50.373 170.636 50.053 171.564 50.053C172.236 50.053 172.796 50.229 173.26 50.581C173.724 50.933 174.044 51.413 174.22 52.053H176.956C176.748 50.677 176.14 49.605 175.148 48.837C174.156 48.101 172.972 47.717 171.564 47.717C169.82 47.717 168.444 48.261 167.42 49.317C166.396 50.389 165.884 51.845 165.884 53.669C165.884 55.493 166.396 56.933 167.452 58.005C168.492 59.093 169.868 59.621 171.564 59.621ZM183.393 55.717C183.393 56.261 183.233 56.693 182.945 56.981C182.641 57.285 182.273 57.429 181.825 57.429C180.929 57.429 180.497 56.965 180.497 56.021V51.109H178.001V56.517C178.001 57.493 178.257 58.245 178.769 58.773C179.281 59.301 179.985 59.557 180.865 59.557C181.953 59.557 182.817 59.109 183.457 58.197V59.365H185.889V51.109H183.393V55.717ZM192.257 50.917C191.201 50.917 190.385 51.317 189.825 52.117V47.973H187.329V59.365H189.761V58.261C190.321 59.125 191.153 59.557 192.257 59.557C193.361 59.557 194.241 59.173 194.897 58.389C195.537 57.621 195.857 56.565 195.857 55.237C195.857 53.925 195.537 52.869 194.897 52.085C194.241 51.317 193.361 50.917 192.257 50.917ZM191.569 57.557C190.385 57.557 189.793 56.789 189.793 55.237C189.793 53.701 190.385 52.917 191.569 52.917C192.737 52.917 193.329 53.669 193.329 55.173C193.329 55.941 193.169 56.533 192.865 56.949C192.545 57.365 192.113 57.557 191.569 57.557ZM204.86 59.365C204.635 59.045 204.524 58.549 204.524 57.845V53.461C204.524 51.765 203.292 50.917 200.844 50.917C198.348 50.917 197.036 51.877 196.892 53.781H199.372C199.404 53.365 199.532 53.093 199.74 52.933C199.948 52.773 200.316 52.693 200.828 52.693C201.66 52.693 202.092 52.981 202.092 53.525C202.092 54.005 201.724 54.277 201.02 54.341L199.724 54.453C197.564 54.645 196.492 55.493 196.492 57.029C196.492 57.829 196.764 58.437 197.308 58.885C197.852 59.333 198.588 59.557 199.5 59.557C200.7 59.557 201.58 59.189 202.14 58.437C202.14 58.821 202.22 59.125 202.348 59.365H204.86ZM200.252 57.877C199.868 57.877 199.564 57.797 199.356 57.621C199.132 57.461 199.036 57.221 199.036 56.933C199.036 56.357 199.436 56.037 200.236 55.941L201.26 55.829C201.66 55.781 201.932 55.669 202.092 55.509V56.117C202.092 56.709 201.916 57.157 201.596 57.445C201.26 57.733 200.812 57.877 200.252 57.877Z" fill="white"/>
<path d="M307.659 47.4299C307.659 39.2399 301.019 32.6006 292.829 32.6006C284.639 32.6006 278 39.2399 278 47.4299C278 55.6198 284.639 62.2591 292.829 62.2591C301.019 62.2591 307.659 55.6198 307.659 47.4299Z" fill="#1F1F1F"/>
<path fill-rule="evenodd" clip-rule="evenodd" d="M286.837 46.2545L286.51 48.0403C289.72 48.0262 299.819 43.8725 300.288 41.3952C300.288 41.3952 300.319 41.2391 300.349 41.0705C300.378 40.9144 300.408 40.7443 300.406 40.7443C296.036 44.0395 289.422 46.2498 286.835 46.2561M286.223 49.3359L285.92 50.9796C289.014 50.9796 299.229 46.8118 299.698 44.3345L299.827 43.6258C295.855 46.661 291.171 48.6274 286.223 49.3374M285.566 52.3329L285.254 54.05V54.1125C288.376 54.0344 298.55 49.9431 299.019 47.4674L299.175 46.6198C295.669 49.3484 288.391 52.3454 285.568 52.3283" fill="white"/>
<path d="M321.306 45.224C322.566 45.224 323.644 44.874 324.526 44.16C325.394 43.46 325.898 42.452 326.052 41.164H323.686C323.574 41.808 323.294 42.298 322.874 42.648C322.44 43.012 321.922 43.18 321.306 43.18C320.494 43.18 319.878 42.914 319.444 42.354C319.01 41.808 318.8 41.024 318.8 40.016C318.8 39.008 319.01 38.238 319.444 37.678C319.878 37.132 320.494 36.852 321.306 36.852C321.894 36.852 322.384 37.006 322.79 37.314C323.196 37.622 323.476 38.042 323.63 38.602H326.024C325.842 37.398 325.31 36.46 324.442 35.788C323.574 35.144 322.538 34.808 321.306 34.808C319.78 34.808 318.576 35.284 317.68 36.208C316.784 37.146 316.336 38.42 316.336 40.016C316.336 41.612 316.784 42.872 317.708 43.81C318.618 44.762 319.822 45.224 321.306 45.224ZM331.193 37.664C330.157 37.664 329.471 38.154 329.135 39.12V37.776H327.007V45H329.191V41.64C329.191 40.338 329.821 39.68 331.109 39.68H331.669V37.692C331.389 37.678 331.221 37.664 331.193 37.664ZM339.438 41.598C339.438 40.394 339.102 39.414 338.43 38.686C337.73 37.972 336.834 37.608 335.714 37.608C334.58 37.608 333.684 37.958 333.012 38.644C332.326 39.33 331.99 40.24 331.99 41.388C331.99 42.536 332.326 43.446 333.026 44.132C333.712 44.832 334.622 45.168 335.742 45.168C336.624 45.168 337.38 44.958 338.024 44.524C338.654 44.09 339.074 43.502 339.27 42.746H337.198C336.932 43.292 336.442 43.558 335.742 43.558C335.294 43.558 334.916 43.432 334.636 43.166C334.342 42.914 334.16 42.536 334.09 42.032H339.438V41.598ZM335.686 39.218C336.12 39.218 336.484 39.344 336.764 39.596C337.044 39.848 337.212 40.198 337.296 40.646H334.104C334.258 39.694 334.79 39.218 335.686 39.218ZM345.43 38.644C344.926 37.958 344.226 37.608 343.316 37.608C342.336 37.608 341.58 37.958 341.02 38.63C340.446 39.316 340.166 40.24 340.166 41.388C340.166 42.55 340.446 43.474 341.02 44.146C341.58 44.832 342.336 45.168 343.316 45.168C344.268 45.168 344.996 44.804 345.486 44.062V45H347.614V35.032H345.43V38.644ZM343.918 43.418C342.882 43.418 342.378 42.76 342.378 41.444C342.378 40.772 342.504 40.268 342.784 39.904C343.05 39.54 343.428 39.358 343.918 39.358C344.954 39.358 345.472 40.044 345.472 41.388C345.472 42.746 344.954 43.418 343.918 43.418ZM351.01 36.95V35.102H348.924V36.95H351.01ZM351.052 45V37.776H348.868V45H351.052ZM356.499 37.776H355.113V35.634H352.929V37.776H351.851V39.372H352.929V42.984C352.929 43.726 353.125 44.258 353.531 44.58C353.923 44.902 354.581 45.056 355.491 45.056C355.897 45.056 356.233 45.042 356.499 45V43.376H355.939C355.631 43.376 355.407 43.334 355.295 43.25C355.169 43.166 355.113 42.998 355.113 42.746V39.372H356.499V37.776ZM365.006 37.608C364.082 37.608 363.368 37.958 362.878 38.658V35.032H360.694V45H362.822V44.034C363.312 44.79 364.04 45.168 365.006 45.168C365.972 45.168 366.742 44.832 367.316 44.146C367.876 43.474 368.156 42.55 368.156 41.388C368.156 40.24 367.876 39.316 367.316 38.63C366.742 37.958 365.972 37.608 365.006 37.608ZM364.404 43.418C363.368 43.418 362.85 42.746 362.85 41.388C362.85 40.044 363.368 39.358 364.404 39.358C365.426 39.358 365.944 40.016 365.944 41.332C365.944 42.004 365.804 42.522 365.538 42.886C365.258 43.25 364.88 43.418 364.404 43.418ZM376.033 45C375.837 44.72 375.739 44.286 375.739 43.67V39.834C375.739 38.35 374.661 37.608 372.519 37.608C370.335 37.608 369.187 38.448 369.061 40.114H371.231C371.259 39.75 371.371 39.512 371.553 39.372C371.735 39.232 372.057 39.162 372.505 39.162C373.233 39.162 373.611 39.414 373.611 39.89C373.611 40.31 373.289 40.548 372.673 40.604L371.539 40.702C369.649 40.87 368.711 41.612 368.711 42.956C368.711 43.656 368.949 44.188 369.425 44.58C369.901 44.972 370.545 45.168 371.343 45.168C372.393 45.168 373.163 44.846 373.653 44.188C373.653 44.524 373.723 44.79 373.835 45H376.033ZM372.001 43.698C371.665 43.698 371.399 43.628 371.217 43.474C371.021 43.334 370.937 43.124 370.937 42.872C370.937 42.368 371.287 42.088 371.987 42.004L372.883 41.906C373.233 41.864 373.471 41.766 373.611 41.626V42.158C373.611 42.676 373.457 43.068 373.177 43.32C372.883 43.572 372.491 43.698 372.001 43.698ZM381.292 37.608C380.34 37.608 379.584 38.014 379.024 38.798V37.776H376.896V45H379.08V40.968C379.08 40.492 379.206 40.128 379.472 39.862C379.724 39.61 380.06 39.47 380.452 39.47C381.222 39.47 381.614 39.89 381.614 40.702V45H383.798V40.268C383.798 39.428 383.56 38.77 383.112 38.308C382.664 37.846 382.048 37.608 381.292 37.608ZM392.534 45L389.664 40.576L392.38 37.776H389.874L387.2 40.632V35.032H385.058V45H387.2V43.026L388.18 42.018L390.042 45H392.534ZM320.13 61.168C321.278 61.168 322.188 60.832 322.888 60.132C323.56 59.46 323.91 58.536 323.91 57.388C323.91 56.24 323.56 55.316 322.888 54.63C322.202 53.958 321.278 53.608 320.13 53.608C318.968 53.608 318.044 53.958 317.372 54.63C316.672 55.33 316.336 56.24 316.336 57.388C316.336 58.536 316.672 59.446 317.372 60.132C318.058 60.832 318.982 61.168 320.13 61.168ZM320.13 59.418C319.612 59.418 319.22 59.25 318.954 58.9C318.674 58.564 318.548 58.06 318.548 57.388C318.548 56.73 318.674 56.226 318.954 55.876C319.22 55.54 319.612 55.358 320.13 55.358C320.634 55.358 321.012 55.54 321.292 55.876C321.558 56.226 321.698 56.73 321.698 57.388C321.698 58.06 321.558 58.564 321.292 58.9C321.012 59.25 320.634 59.418 320.13 59.418ZM328.843 52.656V51.032C328.479 51.004 328.129 50.976 327.807 50.976C326.939 50.976 326.281 51.2 325.847 51.62C325.413 52.054 325.203 52.628 325.203 53.356V53.776H324.125V55.372H325.203V61H327.387V55.372H328.815V53.776H327.387V53.426C327.387 52.922 327.667 52.656 328.255 52.656H328.843ZM342.64 61L338.888 51.032H336.074L332.406 61H334.828L335.402 59.264H339.546L340.134 61H342.64ZM336.634 55.582C336.69 55.428 336.956 54.588 337.46 53.062C337.838 54.238 338.118 55.078 338.3 55.582L338.874 57.29H336.06L336.634 55.582ZM347.122 52.656V51.032C346.758 51.004 346.408 50.976 346.086 50.976C345.218 50.976 344.56 51.2 344.126 51.62C343.692 52.054 343.482 52.628 343.482 53.356V53.776H342.404V55.372H343.482V61H345.666V55.372H347.094V53.776H345.666V53.426C345.666 52.922 345.946 52.656 346.534 52.656H347.122ZM352.193 53.664C351.157 53.664 350.471 54.154 350.135 55.12V53.776H348.007V61H350.191V57.64C350.191 56.338 350.821 55.68 352.109 55.68H352.669V53.692C352.389 53.678 352.221 53.664 352.193 53.664ZM355.7 52.95V51.102H353.614V52.95H355.7ZM355.742 61V53.776H353.558V61H355.742ZM360.433 61.168C361.441 61.168 362.267 60.902 362.925 60.356C363.569 59.81 363.933 59.082 364.003 58.158H361.833C361.735 58.97 361.273 59.376 360.433 59.376C359.425 59.376 358.935 58.718 358.935 57.388C358.935 56.058 359.425 55.386 360.433 55.386C361.217 55.386 361.665 55.764 361.791 56.492H363.961C363.849 55.61 363.485 54.91 362.855 54.392C362.225 53.874 361.413 53.608 360.433 53.608C359.299 53.608 358.403 53.958 357.731 54.63C357.059 55.316 356.723 56.24 356.723 57.388C356.723 58.536 357.059 59.446 357.731 60.132C358.403 60.832 359.299 61.168 360.433 61.168ZM371.877 61C371.681 60.72 371.583 60.286 371.583 59.67V55.834C371.583 54.35 370.505 53.608 368.363 53.608C366.179 53.608 365.031 54.448 364.905 56.114H367.075C367.103 55.75 367.215 55.512 367.397 55.372C367.579 55.232 367.901 55.162 368.349 55.162C369.077 55.162 369.455 55.414 369.455 55.89C369.455 56.31 369.133 56.548 368.517 56.604L367.383 56.702C365.493 56.87 364.555 57.612 364.555 58.956C364.555 59.656 364.793 60.188 365.269 60.58C365.745 60.972 366.389 61.168 367.187 61.168C368.237 61.168 369.007 60.846 369.497 60.188C369.497 60.524 369.567 60.79 369.679 61H371.877ZM367.845 59.698C367.509 59.698 367.243 59.628 367.061 59.474C366.865 59.334 366.781 59.124 366.781 58.872C366.781 58.368 367.131 58.088 367.831 58.004L368.727 57.906C369.077 57.864 369.315 57.766 369.455 57.626V58.158C369.455 58.676 369.301 59.068 369.021 59.32C368.727 59.572 368.335 59.698 367.845 59.698Z" fill="white"/>
<path d="M305.55 230.225C305.55 222.617 299.383 216.45 291.775 216.45C284.167 216.45 278 222.617 278 230.225C278 237.833 284.167 244 291.775 244C299.383 244 305.55 237.833 305.55 230.225Z" fill="#EE3124"/>
<path fill-rule="evenodd" clip-rule="evenodd" d="M286.208 229.133L285.905 230.792C288.886 230.779 298.268 226.92 298.703 224.619C298.703 224.619 298.732 224.474 298.76 224.318C298.787 224.173 298.815 224.015 298.813 224.015C294.753 227.076 288.61 229.129 286.207 229.135M285.638 231.995L285.357 233.522C288.231 233.522 297.72 229.651 298.155 227.35L298.275 226.691C294.586 229.511 290.235 231.337 285.638 231.997M285.028 234.779L284.738 236.374V236.432C287.638 236.36 297.089 232.559 297.524 230.26L297.669 229.472C294.412 232.007 287.653 234.791 285.029 234.775" fill="white"/>
<path d="M319.306 228.224C320.566 228.224 321.644 227.874 322.526 227.16C323.394 226.46 323.898 225.452 324.052 224.164H321.686C321.574 224.808 321.294 225.298 320.874 225.648C320.44 226.012 319.922 226.18 319.306 226.18C318.494 226.18 317.878 225.914 317.444 225.354C317.01 224.808 316.8 224.024 316.8 223.016C316.8 222.008 317.01 221.238 317.444 220.678C317.878 220.132 318.494 219.852 319.306 219.852C319.894 219.852 320.384 220.006 320.79 220.314C321.196 220.622 321.476 221.042 321.63 221.602H324.024C323.842 220.398 323.31 219.46 322.442 218.788C321.574 218.144 320.538 217.808 319.306 217.808C317.78 217.808 316.576 218.284 315.68 219.208C314.784 220.146 314.336 221.42 314.336 223.016C314.336 224.612 314.784 225.872 315.708 226.81C316.618 227.762 317.822 228.224 319.306 228.224ZM329.193 220.664C328.157 220.664 327.471 221.154 327.135 222.12V220.776H325.007V228H327.191V224.64C327.191 223.338 327.821 222.68 329.109 222.68H329.669V220.692C329.389 220.678 329.221 220.664 329.193 220.664ZM337.438 224.598C337.438 223.394 337.102 222.414 336.43 221.686C335.73 220.972 334.834 220.608 333.714 220.608C332.58 220.608 331.684 220.958 331.012 221.644C330.326 222.33 329.99 223.24 329.99 224.388C329.99 225.536 330.326 226.446 331.026 227.132C331.712 227.832 332.622 228.168 333.742 228.168C334.624 228.168 335.38 227.958 336.024 227.524C336.654 227.09 337.074 226.502 337.27 225.746H335.198C334.932 226.292 334.442 226.558 333.742 226.558C333.294 226.558 332.916 226.432 332.636 226.166C332.342 225.914 332.16 225.536 332.09 225.032H337.438V224.598ZM333.686 222.218C334.12 222.218 334.484 222.344 334.764 222.596C335.044 222.848 335.212 223.198 335.296 223.646H332.104C332.258 222.694 332.79 222.218 333.686 222.218ZM343.43 221.644C342.926 220.958 342.226 220.608 341.316 220.608C340.336 220.608 339.58 220.958 339.02 221.63C338.446 222.316 338.166 223.24 338.166 224.388C338.166 225.55 338.446 226.474 339.02 227.146C339.58 227.832 340.336 228.168 341.316 228.168C342.268 228.168 342.996 227.804 343.486 227.062V228H345.614V218.032H343.43V221.644ZM341.918 226.418C340.882 226.418 340.378 225.76 340.378 224.444C340.378 223.772 340.504 223.268 340.784 222.904C341.05 222.54 341.428 222.358 341.918 222.358C342.954 222.358 343.472 223.044 343.472 224.388C343.472 225.746 342.954 226.418 341.918 226.418ZM349.01 219.95V218.102H346.924V219.95H349.01ZM349.052 228V220.776H346.868V228H349.052ZM354.499 220.776H353.113V218.634H350.929V220.776H349.851V222.372H350.929V225.984C350.929 226.726 351.125 227.258 351.531 227.58C351.923 227.902 352.581 228.056 353.491 228.056C353.897 228.056 354.233 228.042 354.499 228V226.376H353.939C353.631 226.376 353.407 226.334 353.295 226.25C353.169 226.166 353.113 225.998 353.113 225.746V222.372H354.499V220.776ZM363.006 220.608C362.082 220.608 361.368 220.958 360.878 221.658V218.032H358.694V228H360.822V227.034C361.312 227.79 362.04 228.168 363.006 228.168C363.972 228.168 364.742 227.832 365.316 227.146C365.876 226.474 366.156 225.55 366.156 224.388C366.156 223.24 365.876 222.316 365.316 221.63C364.742 220.958 363.972 220.608 363.006 220.608ZM362.404 226.418C361.368 226.418 360.85 225.746 360.85 224.388C360.85 223.044 361.368 222.358 362.404 222.358C363.426 222.358 363.944 223.016 363.944 224.332C363.944 225.004 363.804 225.522 363.538 225.886C363.258 226.25 362.88 226.418 362.404 226.418ZM374.033 228C373.837 227.72 373.739 227.286 373.739 226.67V222.834C373.739 221.35 372.661 220.608 370.519 220.608C368.335 220.608 367.187 221.448 367.061 223.114H369.231C369.259 222.75 369.371 222.512 369.553 222.372C369.735 222.232 370.057 222.162 370.505 222.162C371.233 222.162 371.611 222.414 371.611 222.89C371.611 223.31 371.289 223.548 370.673 223.604L369.539 223.702C367.649 223.87 366.711 224.612 366.711 225.956C366.711 226.656 366.949 227.188 367.425 227.58C367.901 227.972 368.545 228.168 369.343 228.168C370.393 228.168 371.163 227.846 371.653 227.188C371.653 227.524 371.723 227.79 371.835 228H374.033ZM370.001 226.698C369.665 226.698 369.399 226.628 369.217 226.474C369.021 226.334 368.937 226.124 368.937 225.872C368.937 225.368 369.287 225.088 369.987 225.004L370.883 224.906C371.233 224.864 371.471 224.766 371.611 224.626V225.158C371.611 225.676 371.457 226.068 371.177 226.32C370.883 226.572 370.491 226.698 370.001 226.698ZM379.292 220.608C378.34 220.608 377.584 221.014 377.024 221.798V220.776H374.896V228H377.08V223.968C377.08 223.492 377.206 223.128 377.472 222.862C377.724 222.61 378.06 222.47 378.452 222.47C379.222 222.47 379.614 222.89 379.614 223.702V228H381.798V223.268C381.798 222.428 381.56 221.77 381.112 221.308C380.664 220.846 380.048 220.608 379.292 220.608ZM390.534 228L387.664 223.576L390.38 220.776H387.874L385.2 223.632V218.032H383.058V228H385.2V226.026L386.18 225.018L388.042 228H390.534ZM318.13 244.168C319.278 244.168 320.188 243.832 320.888 243.132C321.56 242.46 321.91 241.536 321.91 240.388C321.91 239.24 321.56 238.316 320.888 237.63C320.202 236.958 319.278 236.608 318.13 236.608C316.968 236.608 316.044 236.958 315.372 237.63C314.672 238.33 314.336 239.24 314.336 240.388C314.336 241.536 314.672 242.446 315.372 243.132C316.058 243.832 316.982 244.168 318.13 244.168ZM318.13 242.418C317.612 242.418 317.22 242.25 316.954 241.9C316.674 241.564 316.548 241.06 316.548 240.388C316.548 239.73 316.674 239.226 316.954 238.876C317.22 238.54 317.612 238.358 318.13 238.358C318.634 238.358 319.012 238.54 319.292 238.876C319.558 239.226 319.698 239.73 319.698 240.388C319.698 241.06 319.558 241.564 319.292 241.9C319.012 242.25 318.634 242.418 318.13 242.418ZM326.843 235.656V234.032C326.479 234.004 326.129 233.976 325.807 233.976C324.939 233.976 324.281 234.2 323.847 234.62C323.413 235.054 323.203 235.628 323.203 236.356V236.776H322.125V238.372H323.203V244H325.387V238.372H326.815V236.776H325.387V236.426C325.387 235.922 325.667 235.656 326.255 235.656H326.843ZM340.64 244L336.888 234.032H334.074L330.406 244H332.828L333.402 242.264H337.546L338.134 244H340.64ZM334.634 238.582C334.69 238.428 334.956 237.588 335.46 236.062C335.838 237.238 336.118 238.078 336.3 238.582L336.874 240.29H334.06L334.634 238.582ZM345.122 235.656V234.032C344.758 234.004 344.408 233.976 344.086 233.976C343.218 233.976 342.56 234.2 342.126 234.62C341.692 235.054 341.482 235.628 341.482 236.356V236.776H340.404V238.372H341.482V244H343.666V238.372H345.094V236.776H343.666V236.426C343.666 235.922 343.946 235.656 344.534 235.656H345.122ZM350.193 236.664C349.157 236.664 348.471 237.154 348.135 238.12V236.776H346.007V244H348.191V240.64C348.191 239.338 348.821 238.68 350.109 238.68H350.669V236.692C350.389 236.678 350.221 236.664 350.193 236.664ZM353.7 235.95V234.102H351.614V235.95H353.7ZM353.742 244V236.776H351.558V244H353.742ZM358.433 244.168C359.441 244.168 360.267 243.902 360.925 243.356C361.569 242.81 361.933 242.082 362.003 241.158H359.833C359.735 241.97 359.273 242.376 358.433 242.376C357.425 242.376 356.935 241.718 356.935 240.388C356.935 239.058 357.425 238.386 358.433 238.386C359.217 238.386 359.665 238.764 359.791 239.492H361.961C361.849 238.61 361.485 237.91 360.855 237.392C360.225 236.874 359.413 236.608 358.433 236.608C357.299 236.608 356.403 236.958 355.731 237.63C355.059 238.316 354.723 239.24 354.723 240.388C354.723 241.536 355.059 242.446 355.731 243.132C356.403 243.832 357.299 244.168 358.433 244.168ZM369.877 244C369.681 243.72 369.583 243.286 369.583 242.67V238.834C369.583 237.35 368.505 236.608 366.363 236.608C364.179 236.608 363.031 237.448 362.905 239.114H365.075C365.103 238.75 365.215 238.512 365.397 238.372C365.579 238.232 365.901 238.162 366.349 238.162C367.077 238.162 367.455 238.414 367.455 238.89C367.455 239.31 367.133 239.548 366.517 239.604L365.383 239.702C363.493 239.87 362.555 240.612 362.555 241.956C362.555 242.656 362.793 243.188 363.269 243.58C363.745 243.972 364.389 244.168 365.187 244.168C366.237 244.168 367.007 243.846 367.497 243.188C367.497 243.524 367.567 243.79 367.679 244H369.877ZM365.845 242.698C365.509 242.698 365.243 242.628 365.061 242.474C364.865 242.334 364.781 242.124 364.781 241.872C364.781 241.368 365.131 241.088 365.831 241.004L366.727 240.906C367.077 240.864 367.315 240.766 367.455 240.626V241.158C367.455 241.676 367.301 242.068 367.021 242.32C366.727 242.572 366.335 242.698 365.845 242.698Z" fill="#006CC0"/>
<path d="M216 205H154C151.791 205 150 206.791 150 209V251C150 253.209 151.791 255 154 255H216C218.209 255 220 253.209 220 251V209C220 206.791 218.209 205 216 205Z" fill="#F5F7F9"/>
<path fill-rule="evenodd" clip-rule="evenodd" d="M178.507 216.507L178.148 218.275C181.687 218.261 192.822 214.146 193.34 211.69C193.34 211.69 193.374 211.529 193.407 211.368C193.44 211.206 193.473 211.045 193.471 211.045C188.647 214.311 181.359 216.5 178.507 216.507ZM177.832 219.559L177.5 221.188C180.912 221.181 192.174 217.059 192.691 214.604L192.834 213.904C187.846 217.378 180.86 219.478 177.834 219.563M177.1 222.53L176.753 224.237V224.297C180.203 224.219 191.414 220.165 191.93 217.714L192.1 216.874C188.234 219.574 180.211 222.547 177.1 222.53Z" fill="#EE3124"/>
<path d="M171.564 246.438C173.004 246.438 174.236 246.038 175.244 245.222C176.236 244.422 176.812 243.27 176.988 241.798H174.284C174.156 242.534 173.836 243.094 173.356 243.494C172.86 243.91 172.268 244.102 171.564 244.102C170.636 244.102 169.932 243.798 169.436 243.158C168.94 242.534 168.7 241.638 168.7 240.486C168.7 239.334 168.94 238.454 169.436 237.814C169.932 237.19 170.636 236.87 171.564 236.87C172.236 236.87 172.796 237.046 173.26 237.398C173.724 237.75 174.044 238.23 174.22 238.87H176.956C176.748 237.494 176.14 236.422 175.148 235.654C174.156 234.918 172.972 234.534 171.564 234.534C169.82 234.534 168.444 235.078 167.42 236.134C166.396 237.206 165.884 238.662 165.884 240.486C165.884 242.31 166.396 243.75 167.452 244.822C168.492 245.91 169.868 246.438 171.564 246.438ZM183.393 242.534C183.393 243.078 183.233 243.51 182.945 243.798C182.641 244.102 182.273 244.246 181.825 244.246C180.929 244.246 180.497 243.782 180.497 242.838V237.926H178.001V243.334C178.001 244.31 178.257 245.062 178.769 245.59C179.281 246.118 179.985 246.374 180.865 246.374C181.953 246.374 182.817 245.926 183.457 245.014V246.182H185.889V237.926H183.393V242.534ZM192.257 237.734C191.201 237.734 190.385 238.134 189.825 238.934V234.79H187.329V246.182H189.761V245.078C190.321 245.942 191.153 246.374 192.257 246.374C193.361 246.374 194.241 245.99 194.897 245.206C195.537 244.438 195.857 243.382 195.857 242.054C195.857 240.742 195.537 239.686 194.897 238.902C194.241 238.134 193.361 237.734 192.257 237.734ZM191.569 244.374C190.385 244.374 189.793 243.606 189.793 242.054C189.793 240.518 190.385 239.734 191.569 239.734C192.737 239.734 193.329 240.486 193.329 241.99C193.329 242.758 193.169 243.35 192.865 243.766C192.545 244.182 192.113 244.374 191.569 244.374ZM204.86 246.182C204.635 245.862 204.524 245.366 204.524 244.662V240.278C204.524 238.582 203.292 237.734 200.844 237.734C198.348 237.734 197.036 238.694 196.892 240.598H199.372C199.404 240.182 199.532 239.91 199.74 239.75C199.948 239.59 200.316 239.51 200.828 239.51C201.66 239.51 202.092 239.798 202.092 240.342C202.092 240.822 201.724 241.094 201.02 241.158L199.724 241.27C197.564 241.462 196.492 242.31 196.492 243.846C196.492 244.646 196.764 245.254 197.308 245.702C197.852 246.15 198.588 246.374 199.5 246.374C200.7 246.374 201.58 246.006 202.14 245.254C202.14 245.638 202.22 245.942 202.348 246.182H204.86ZM200.252 244.694C199.868 244.694 199.564 244.614 199.356 244.438C199.132 244.278 199.036 244.038 199.036 243.75C199.036 243.174 199.436 242.854 200.236 242.758L201.26 242.646C201.66 242.598 201.932 242.486 202.092 242.326V242.934C202.092 243.526 201.916 243.974 201.596 244.262C201.26 244.55 200.812 244.694 200.252 244.694Z" fill="#006CC0"/>
<path d="M216 111H154C151.791 111 150 112.791 150 115V157C150 159.209 151.791 161 154 161H216C218.209 161 220 159.209 220 157V115C220 112.791 218.209 111 216 111Z" fill="#EE3124"/>
<path fill-rule="evenodd" clip-rule="evenodd" d="M178.507 122.507L178.148 124.275C181.687 124.261 192.822 120.146 193.34 117.69C193.34 117.69 193.374 117.529 193.407 117.368C193.44 117.206 193.473 117.045 193.471 117.045C188.647 120.311 181.359 122.5 178.507 122.507ZM177.832 125.559L177.5 127.188C180.912 127.181 192.174 123.059 192.691 120.604L192.834 119.904C187.846 123.378 180.86 125.478 177.834 125.563M177.1 128.53L176.753 130.237V130.297C180.203 130.219 191.414 126.165 191.93 123.714L192.1 122.874C188.234 125.574 180.211 128.547 177.1 128.53Z" fill="white"/>
<path d="M171.564 150.621C173.004 150.621 174.236 150.221 175.244 149.405C176.236 148.605 176.812 147.453 176.988 145.981H174.284C174.156 146.717 173.836 147.277 173.356 147.677C172.86 148.093 172.268 148.285 171.564 148.285C170.636 148.285 169.932 147.981 169.436 147.341C168.94 146.717 168.7 145.821 168.7 144.669C168.7 143.517 168.94 142.637 169.436 141.997C169.932 141.373 170.636 141.053 171.564 141.053C172.236 141.053 172.796 141.229 173.26 141.581C173.724 141.933 174.044 142.413 174.22 143.053H176.956C176.748 141.677 176.14 140.605 175.148 139.837C174.156 139.101 172.972 138.717 171.564 138.717C169.82 138.717 168.444 139.261 167.42 140.317C166.396 141.389 165.884 142.845 165.884 144.669C165.884 146.493 166.396 147.933 167.452 149.005C168.492 150.093 169.868 150.621 171.564 150.621ZM183.393 146.717C183.393 147.261 183.233 147.693 182.945 147.981C182.641 148.285 182.273 148.429 181.825 148.429C180.929 148.429 180.497 147.965 180.497 147.021V142.109H178.001V147.517C178.001 148.493 178.257 149.245 178.769 149.773C179.281 150.301 179.985 150.557 180.865 150.557C181.953 150.557 182.817 150.109 183.457 149.197V150.365H185.889V142.109H183.393V146.717ZM192.257 141.917C191.201 141.917 190.385 142.317 189.825 143.117V138.973H187.329V150.365H189.761V149.261C190.321 150.125 191.153 150.557 192.257 150.557C193.361 150.557 194.241 150.173 194.897 149.389C195.537 148.621 195.857 147.565 195.857 146.237C195.857 144.925 195.537 143.869 194.897 143.085C194.241 142.317 193.361 141.917 192.257 141.917ZM191.569 148.557C190.385 148.557 189.793 147.789 189.793 146.237C189.793 144.701 190.385 143.917 191.569 143.917C192.737 143.917 193.329 144.669 193.329 146.173C193.329 146.941 193.169 147.533 192.865 147.949C192.545 148.365 192.113 148.557 191.569 148.557ZM204.86 150.365C204.635 150.045 204.524 149.549 204.524 148.845V144.461C204.524 142.765 203.292 141.917 200.844 141.917C198.348 141.917 197.036 142.877 196.892 144.781H199.372C199.404 144.365 199.532 144.093 199.74 143.933C199.948 143.773 200.316 143.693 200.828 143.693C201.66 143.693 202.092 143.981 202.092 144.525C202.092 145.005 201.724 145.277 201.02 145.341L199.724 145.453C197.564 145.645 196.492 146.493 196.492 148.029C196.492 148.829 196.764 149.437 197.308 149.885C197.852 150.333 198.588 150.557 199.5 150.557C200.7 150.557 201.58 150.189 202.14 149.437C202.14 149.821 202.22 150.125 202.348 150.365H204.86ZM200.252 148.877C199.868 148.877 199.564 148.797 199.356 148.621C199.132 148.461 199.036 148.221 199.036 147.933C199.036 147.357 199.436 147.037 200.236 146.941L201.26 146.829C201.66 146.781 201.932 146.669 202.092 146.509V147.117C202.092 147.709 201.916 148.157 201.596 148.445C201.26 148.733 200.812 148.877 200.252 148.877Z" fill="white"/>
<path d="M303.909 138.502C303.909 131.348 298.109 125.548 290.955 125.548C283.8 125.548 278 131.348 278 138.502C278 145.657 283.8 151.457 290.955 151.457C298.109 151.457 303.909 145.657 303.909 138.502Z" fill="white"/>
<path fill-rule="evenodd" clip-rule="evenodd" d="M285.719 137.475L285.434 139.036C288.238 139.023 297.061 135.395 297.47 133.231C297.47 133.231 297.497 133.094 297.523 132.947C297.549 132.811 297.575 132.662 297.573 132.662C293.755 135.541 287.978 137.471 285.718 137.477M285.183 140.167L284.919 141.603C287.622 141.603 296.545 137.962 296.954 135.798L297.068 135.179C293.598 137.831 289.506 139.548 285.183 140.169M284.609 142.786L284.337 144.285V144.34C287.064 144.272 295.952 140.698 296.361 138.535L296.498 137.795C293.435 140.178 287.078 142.796 284.611 142.781" fill="#EE3124"/>
<path d="M317.306 137.224C318.566 137.224 319.644 136.874 320.526 136.16C321.394 135.46 321.898 134.452 322.052 133.164H319.686C319.574 133.808 319.294 134.298 318.874 134.648C318.44 135.012 317.922 135.18 317.306 135.18C316.494 135.18 315.878 134.914 315.444 134.354C315.01 133.808 314.8 133.024 314.8 132.016C314.8 131.008 315.01 130.238 315.444 129.678C315.878 129.132 316.494 128.852 317.306 128.852C317.894 128.852 318.384 129.006 318.79 129.314C319.196 129.622 319.476 130.042 319.63 130.602H322.024C321.842 129.398 321.31 128.46 320.442 127.788C319.574 127.144 318.538 126.808 317.306 126.808C315.78 126.808 314.576 127.284 313.68 128.208C312.784 129.146 312.336 130.42 312.336 132.016C312.336 133.612 312.784 134.872 313.708 135.81C314.618 136.762 315.822 137.224 317.306 137.224ZM327.193 129.664C326.157 129.664 325.471 130.154 325.135 131.12V129.776H323.007V137H325.191V133.64C325.191 132.338 325.821 131.68 327.109 131.68H327.669V129.692C327.389 129.678 327.221 129.664 327.193 129.664ZM335.438 133.598C335.438 132.394 335.102 131.414 334.43 130.686C333.73 129.972 332.834 129.608 331.714 129.608C330.58 129.608 329.684 129.958 329.012 130.644C328.326 131.33 327.99 132.24 327.99 133.388C327.99 134.536 328.326 135.446 329.026 136.132C329.712 136.832 330.622 137.168 331.742 137.168C332.624 137.168 333.38 136.958 334.024 136.524C334.654 136.09 335.074 135.502 335.27 134.746H333.198C332.932 135.292 332.442 135.558 331.742 135.558C331.294 135.558 330.916 135.432 330.636 135.166C330.342 134.914 330.16 134.536 330.09 134.032H335.438V133.598ZM331.686 131.218C332.12 131.218 332.484 131.344 332.764 131.596C333.044 131.848 333.212 132.198 333.296 132.646H330.104C330.258 131.694 330.79 131.218 331.686 131.218ZM341.43 130.644C340.926 129.958 340.226 129.608 339.316 129.608C338.336 129.608 337.58 129.958 337.02 130.63C336.446 131.316 336.166 132.24 336.166 133.388C336.166 134.55 336.446 135.474 337.02 136.146C337.58 136.832 338.336 137.168 339.316 137.168C340.268 137.168 340.996 136.804 341.486 136.062V137H343.614V127.032H341.43V130.644ZM339.918 135.418C338.882 135.418 338.378 134.76 338.378 133.444C338.378 132.772 338.504 132.268 338.784 131.904C339.05 131.54 339.428 131.358 339.918 131.358C340.954 131.358 341.472 132.044 341.472 133.388C341.472 134.746 340.954 135.418 339.918 135.418ZM347.01 128.95V127.102H344.924V128.95H347.01ZM347.052 137V129.776H344.868V137H347.052ZM352.499 129.776H351.113V127.634H348.929V129.776H347.851V131.372H348.929V134.984C348.929 135.726 349.125 136.258 349.531 136.58C349.923 136.902 350.581 137.056 351.491 137.056C351.897 137.056 352.233 137.042 352.499 137V135.376H351.939C351.631 135.376 351.407 135.334 351.295 135.25C351.169 135.166 351.113 134.998 351.113 134.746V131.372H352.499V129.776ZM361.006 129.608C360.082 129.608 359.368 129.958 358.878 130.658V127.032H356.694V137H358.822V136.034C359.312 136.79 360.04 137.168 361.006 137.168C361.972 137.168 362.742 136.832 363.316 136.146C363.876 135.474 364.156 134.55 364.156 133.388C364.156 132.24 363.876 131.316 363.316 130.63C362.742 129.958 361.972 129.608 361.006 129.608ZM360.404 135.418C359.368 135.418 358.85 134.746 358.85 133.388C358.85 132.044 359.368 131.358 360.404 131.358C361.426 131.358 361.944 132.016 361.944 133.332C361.944 134.004 361.804 134.522 361.538 134.886C361.258 135.25 360.88 135.418 360.404 135.418ZM372.033 137C371.837 136.72 371.739 136.286 371.739 135.67V131.834C371.739 130.35 370.661 129.608 368.519 129.608C366.335 129.608 365.187 130.448 365.061 132.114H367.231C367.259 131.75 367.371 131.512 367.553 131.372C367.735 131.232 368.057 131.162 368.505 131.162C369.233 131.162 369.611 131.414 369.611 131.89C369.611 132.31 369.289 132.548 368.673 132.604L367.539 132.702C365.649 132.87 364.711 133.612 364.711 134.956C364.711 135.656 364.949 136.188 365.425 136.58C365.901 136.972 366.545 137.168 367.343 137.168C368.393 137.168 369.163 136.846 369.653 136.188C369.653 136.524 369.723 136.79 369.835 137H372.033ZM368.001 135.698C367.665 135.698 367.399 135.628 367.217 135.474C367.021 135.334 366.937 135.124 366.937 134.872C366.937 134.368 367.287 134.088 367.987 134.004L368.883 133.906C369.233 133.864 369.471 133.766 369.611 133.626V134.158C369.611 134.676 369.457 135.068 369.177 135.32C368.883 135.572 368.491 135.698 368.001 135.698ZM377.292 129.608C376.34 129.608 375.584 130.014 375.024 130.798V129.776H372.896V137H375.08V132.968C375.08 132.492 375.206 132.128 375.472 131.862C375.724 131.61 376.06 131.47 376.452 131.47C377.222 131.47 377.614 131.89 377.614 132.702V137H379.798V132.268C379.798 131.428 379.56 130.77 379.112 130.308C378.664 129.846 378.048 129.608 377.292 129.608ZM388.534 137L385.664 132.576L388.38 129.776H385.874L383.2 132.632V127.032H381.058V137H383.2V135.026L384.18 134.018L386.042 137H388.534ZM316.13 153.168C317.278 153.168 318.188 152.832 318.888 152.132C319.56 151.46 319.91 150.536 319.91 149.388C319.91 148.24 319.56 147.316 318.888 146.63C318.202 145.958 317.278 145.608 316.13 145.608C314.968 145.608 314.044 145.958 313.372 146.63C312.672 147.33 312.336 148.24 312.336 149.388C312.336 150.536 312.672 151.446 313.372 152.132C314.058 152.832 314.982 153.168 316.13 153.168ZM316.13 151.418C315.612 151.418 315.22 151.25 314.954 150.9C314.674 150.564 314.548 150.06 314.548 149.388C314.548 148.73 314.674 148.226 314.954 147.876C315.22 147.54 315.612 147.358 316.13 147.358C316.634 147.358 317.012 147.54 317.292 147.876C317.558 148.226 317.698 148.73 317.698 149.388C317.698 150.06 317.558 150.564 317.292 150.9C317.012 151.25 316.634 151.418 316.13 151.418ZM324.843 144.656V143.032C324.479 143.004 324.129 142.976 323.807 142.976C322.939 142.976 322.281 143.2 321.847 143.62C321.413 144.054 321.203 144.628 321.203 145.356V145.776H320.125V147.372H321.203V153H323.387V147.372H324.815V145.776H323.387V145.426C323.387 144.922 323.667 144.656 324.255 144.656H324.843ZM338.64 153L334.888 143.032H332.074L328.406 153H330.828L331.402 151.264H335.546L336.134 153H338.64ZM332.634 147.582C332.69 147.428 332.956 146.588 333.46 145.062C333.838 146.238 334.118 147.078 334.3 147.582L334.874 149.29H332.06L332.634 147.582ZM343.122 144.656V143.032C342.758 143.004 342.408 142.976 342.086 142.976C341.218 142.976 340.56 143.2 340.126 143.62C339.692 144.054 339.482 144.628 339.482 145.356V145.776H338.404V147.372H339.482V153H341.666V147.372H343.094V145.776H341.666V145.426C341.666 144.922 341.946 144.656 342.534 144.656H343.122ZM348.193 145.664C347.157 145.664 346.471 146.154 346.135 147.12V145.776H344.007V153H346.191V149.64C346.191 148.338 346.821 147.68 348.109 147.68H348.669V145.692C348.389 145.678 348.221 145.664 348.193 145.664ZM351.7 144.95V143.102H349.614V144.95H351.7ZM351.742 153V145.776H349.558V153H351.742ZM356.433 153.168C357.441 153.168 358.267 152.902 358.925 152.356C359.569 151.81 359.933 151.082 360.003 150.158H357.833C357.735 150.97 357.273 151.376 356.433 151.376C355.425 151.376 354.935 150.718 354.935 149.388C354.935 148.058 355.425 147.386 356.433 147.386C357.217 147.386 357.665 147.764 357.791 148.492H359.961C359.849 147.61 359.485 146.91 358.855 146.392C358.225 145.874 357.413 145.608 356.433 145.608C355.299 145.608 354.403 145.958 353.731 146.63C353.059 147.316 352.723 148.24 352.723 149.388C352.723 150.536 353.059 151.446 353.731 152.132C354.403 152.832 355.299 153.168 356.433 153.168ZM367.877 153C367.681 152.72 367.583 152.286 367.583 151.67V147.834C367.583 146.35 366.505 145.608 364.363 145.608C362.179 145.608 361.031 146.448 360.905 148.114H363.075C363.103 147.75 363.215 147.512 363.397 147.372C363.579 147.232 363.901 147.162 364.349 147.162C365.077 147.162 365.455 147.414 365.455 147.89C365.455 148.31 365.133 148.548 364.517 148.604L363.383 148.702C361.493 148.87 360.555 149.612 360.555 150.956C360.555 151.656 360.793 152.188 361.269 152.58C361.745 152.972 362.389 153.168 363.187 153.168C364.237 153.168 365.007 152.846 365.497 152.188C365.497 152.524 365.567 152.79 365.679 153H367.877ZM363.845 151.698C363.509 151.698 363.243 151.628 363.061 151.474C362.865 151.334 362.781 151.124 362.781 150.872C362.781 150.368 363.131 150.088 363.831 150.004L364.727 149.906C365.077 149.864 365.315 149.766 365.455 149.626V150.158C365.455 150.676 365.301 151.068 365.021 151.32C364.727 151.572 364.335 151.698 363.845 151.698Z" fill="#006CC0"/>
<path fill-rule="evenodd" clip-rule="evenodd" d="M51.0293 42.3048L50.405 45.6443C56.5473 45.6181 75.8766 37.8501 76.7728 33.2173C76.7728 33.2173 76.8326 32.9254 76.8893 32.6101C76.9461 32.3182 77.0029 32 76.9999 32C68.6348 38.1624 55.9767 42.296 51.0264 42.3077M49.8553 48.0673L49.2757 51.1412C55.1969 51.1412 74.7473 43.3469 75.6436 38.7142L75.8915 37.3888C68.2895 43.0649 59.3256 46.7423 49.8553 48.0702M48.5975 53.6721L48 56.8832V57C53.975 56.854 73.4477 49.2028 74.344 44.573L74.6427 42.9879C67.9328 48.0906 54.0049 53.6955 48.6005 53.6634" fill="white"/>
<path fill-rule="evenodd" clip-rule="evenodd" d="M51.0293 132.305L50.405 135.644C56.5473 135.618 75.8766 127.85 76.7728 123.217C76.7728 123.217 76.8326 122.925 76.8893 122.61C76.9461 122.318 77.0029 122 76.9999 122C68.6348 128.162 55.9767 132.296 51.0264 132.308M49.8553 138.067L49.2757 141.141C55.1969 141.141 74.7473 133.347 75.6436 128.714L75.8915 127.389C68.2895 133.065 59.3256 136.742 49.8553 138.07M48.5975 143.672L48 146.883V147C53.975 146.854 73.4477 139.203 74.344 134.573L74.6427 132.988C67.9328 138.091 54.0049 143.695 48.6005 143.663" fill="#EE3124"/>
<path fill-rule="evenodd" clip-rule="evenodd" d="M51.0293 227.305L50.405 230.644C56.5473 230.618 75.8766 222.85 76.7728 218.217C76.7728 218.217 76.8326 217.925 76.8893 217.61C76.9461 217.318 77.0029 217 76.9999 217C68.6348 223.162 55.9767 227.296 51.0264 227.308M49.8553 233.067L49.2757 236.141C55.1969 236.141 74.7473 228.347 75.6436 223.714L75.8915 222.389C68.2895 228.065 59.3256 231.742 49.8553 233.07M48.5975 238.672L48 241.883V242C53.975 241.854 73.4477 234.203 74.344 229.573L74.6427 227.988C67.9328 233.091 54.0049 238.695 48.6005 238.663" fill="#EE3124"/>
</svg>
