<svg width="120" height="34" viewBox="0 0 120 34" fill="none" xmlns="http://www.w3.org/2000/svg">
<path d="M46.796 27.508C46.2533 27.508 45.7767 27.464 45.366 27.376C44.9553 27.288 44.596 27.0753 44.288 26.738C43.9947 26.4007 43.848 25.88 43.848 25.176C43.848 24.1933 44.1413 22.8733 44.728 21.216C45.3293 19.5587 46.114 17.894 47.082 16.222C46.3487 16.266 45.7693 16.376 45.344 16.552C44.9187 16.728 44.64 16.9993 44.508 17.366C44.5667 17.366 44.6253 17.4393 44.684 17.586C44.7573 17.7327 44.794 17.8867 44.794 18.048C44.794 18.312 44.6767 18.5247 44.442 18.686C44.2073 18.8327 43.914 18.906 43.562 18.906C43.1513 18.906 42.8213 18.796 42.572 18.576C42.3227 18.356 42.198 18.0407 42.198 17.63C42.198 17.1313 42.3887 16.6767 42.77 16.266C43.166 15.8553 43.7087 15.5327 44.398 15.298C45.0873 15.0487 45.85 14.924 46.686 14.924C46.994 14.924 47.3753 14.946 47.83 14.99C49.0327 13.0833 50.3013 11.5287 51.636 10.326C52.9853 9.10867 54.2687 8.5 55.486 8.5C56.19 8.5 56.7693 8.60267 57.224 8.808L53.77 25H50.602L52.296 17.014C51.7533 16.7647 51.2547 16.5813 50.8 16.464C50.3453 16.3467 49.8613 16.266 49.348 16.222C48.512 18.026 47.8227 19.874 47.28 21.766C46.752 23.6433 46.488 25.1467 46.488 26.276C46.488 26.8333 46.5907 27.244 46.796 27.508ZM53.77 10.062C53.1393 10.3993 52.4793 11.03 51.79 11.954C51.1153 12.8633 50.4553 13.9707 49.81 15.276C50.866 15.4813 51.7607 15.738 52.494 16.046L53.77 10.062ZM59.3353 25.132C58.4993 25.132 57.8026 24.846 57.2453 24.274C56.688 23.702 56.4093 22.8073 56.4093 21.59C56.4093 20.5047 56.622 19.368 57.0473 18.18C57.4873 16.9773 58.1326 15.9653 58.9833 15.144C59.8486 14.308 60.8753 13.89 62.0633 13.89C62.6646 13.89 63.112 13.9927 63.4053 14.198C63.6986 14.4033 63.8453 14.6747 63.8453 15.012V15.1L64.9233 10.04L68.1793 9.6L65.6493 21.48C65.5906 21.7 65.5613 21.9347 65.5613 22.184C65.5613 22.4773 65.6273 22.69 65.7593 22.822C65.906 22.9393 66.1406 22.998 66.4633 22.998C66.874 22.998 67.226 22.822 67.5193 22.47C67.8273 22.118 68.0693 21.6487 68.2453 21.062H69.1693C68.2746 23.6873 66.8006 25 64.7473 25C64.146 25 63.6546 24.8387 63.2733 24.516C62.9066 24.1933 62.6793 23.724 62.5913 23.108C62.21 23.6947 61.748 24.1787 61.2053 24.56C60.6773 24.9413 60.054 25.132 59.3353 25.132ZM60.7653 22.998C61.1173 22.998 61.4693 22.8367 61.8213 22.514C62.188 22.1913 62.4373 21.744 62.5693 21.172V21.062L63.6473 16.024C63.5153 15.5107 63.2146 15.254 62.7453 15.254C62.1586 15.254 61.6306 15.5987 61.1613 16.288C60.692 16.9627 60.3253 17.784 60.0613 18.752C59.7973 19.7053 59.6653 20.5487 59.6653 21.282C59.6653 22.0153 59.768 22.4847 59.9733 22.69C60.1933 22.8953 60.4573 22.998 60.7653 22.998ZM71.3999 25.132C70.3146 25.132 69.4712 24.8533 68.8699 24.296C68.2686 23.724 67.9679 22.8367 67.9679 21.634C67.9679 20.622 68.1659 19.5073 68.5619 18.29C68.9579 17.0727 69.6032 16.024 70.4979 15.144C71.3926 14.2493 72.5292 13.802 73.9079 13.802C75.5212 13.802 76.3279 14.506 76.3279 15.914C76.3279 16.7353 76.0932 17.4907 75.6239 18.18C75.1546 18.8693 74.5312 19.4267 73.7539 19.852C72.9766 20.2627 72.1479 20.4973 71.2679 20.556C71.2386 20.996 71.2239 21.2893 71.2239 21.436C71.2239 22.1547 71.3486 22.646 71.5979 22.91C71.8472 23.1593 72.2506 23.284 72.8079 23.284C73.5999 23.284 74.2746 23.1007 74.8319 22.734C75.4039 22.3673 76.0272 21.81 76.7019 21.062H77.4499C75.8219 23.7753 73.8052 25.132 71.3999 25.132ZM71.4439 19.5C71.9866 19.4707 72.4999 19.28 72.9839 18.928C73.4826 18.576 73.8786 18.1287 74.1719 17.586C74.4799 17.0433 74.6339 16.4713 74.6339 15.87C74.6339 15.2687 74.4506 14.968 74.0839 14.968C73.5559 14.968 73.0352 15.43 72.5219 16.354C72.0232 17.278 71.6639 18.3267 71.4439 19.5ZM79.6233 25.132C78.6259 25.132 77.8633 24.89 77.3353 24.406C76.8073 23.9073 76.5433 23.2107 76.5433 22.316C76.5433 21.876 76.5946 21.458 76.6973 21.062L79.0513 10.04L82.3073 9.6L81.2513 14.55C81.6619 14.3007 81.9993 14.1393 82.2633 14.066C82.5273 13.978 82.7913 13.934 83.0553 13.934C84.7859 13.934 85.6513 15.188 85.6513 17.696C85.6513 18.708 85.4533 19.7933 85.0573 20.952C84.6759 22.096 84.0306 23.0787 83.1213 23.9C82.2266 24.7213 81.0606 25.132 79.6233 25.132ZM80.8553 22.998C81.3099 22.998 81.7353 22.7193 82.1313 22.162C82.5273 21.59 82.8426 20.886 83.0773 20.05C83.3119 19.1993 83.4293 18.3853 83.4293 17.608C83.4293 17.0213 83.3266 16.5227 83.1213 16.112C82.9159 15.7013 82.6299 15.496 82.2633 15.496C82.0433 15.496 81.7939 15.5327 81.5153 15.606C81.2513 15.6647 81.0679 15.76 80.9653 15.892L79.7553 21.48C79.7113 21.656 79.6893 21.8247 79.6893 21.986C79.6893 22.6607 80.0779 22.998 80.8553 22.998ZM89.1127 25.132C88.2767 25.132 87.58 24.846 87.0227 24.274C86.4653 23.702 86.1867 22.8073 86.1867 21.59C86.1867 20.5047 86.3993 19.368 86.8247 18.18C87.2647 16.9773 87.91 15.9653 88.7607 15.144C89.626 14.308 90.6527 13.89 91.8407 13.89C92.442 13.89 92.8893 13.9927 93.1827 14.198C93.476 14.4033 93.6227 14.6747 93.6227 15.012V15.166L93.8647 14H97.0327L95.4487 21.48C95.39 21.7 95.3607 21.9347 95.3607 22.184C95.3607 22.8147 95.6613 23.13 96.2627 23.13C96.6733 23.13 97.0253 22.9393 97.3187 22.558C97.6267 22.1767 97.8687 21.678 98.0447 21.062H98.9687C98.426 22.646 97.7513 23.724 96.9447 24.296C96.1527 24.8533 95.3533 25.132 94.5467 25.132C93.9307 25.132 93.432 24.9633 93.0507 24.626C92.684 24.274 92.464 23.768 92.3907 23.108C91.9653 23.7093 91.4887 24.2007 90.9607 24.582C90.4473 24.9487 89.8313 25.132 89.1127 25.132ZM90.5427 22.998C90.9093 22.998 91.2687 22.8293 91.6207 22.492C91.9873 22.14 92.2367 21.6633 92.3687 21.062L93.4247 16.09C93.4247 15.8993 93.3513 15.716 93.2047 15.54C93.058 15.3493 92.8307 15.254 92.5227 15.254C91.936 15.254 91.408 15.5987 90.9387 16.288C90.4693 16.9627 90.1027 17.784 89.8387 18.752C89.5747 19.7053 89.4427 20.5487 89.4427 21.282C89.4427 22.0153 89.5453 22.4847 89.7507 22.69C89.9707 22.8953 90.2347 22.998 90.5427 22.998ZM101.485 30.5C100.781 30.5 100.194 30.3167 99.7247 29.95C99.2554 29.5833 99.0207 29.0553 99.0207 28.366C99.0207 27.53 99.3581 26.8553 100.033 26.342C100.707 25.8433 101.565 25.4253 102.607 25.088L102.871 23.9C102.445 24.3693 102.013 24.692 101.573 24.868C101.133 25.044 100.685 25.132 100.231 25.132C99.5267 25.132 98.9547 24.912 98.5147 24.472C98.0894 24.032 97.8767 23.372 97.8767 22.492C97.8767 22.1253 97.9354 21.6487 98.0527 21.062L99.5487 14H102.717L101.133 21.48C101.089 21.656 101.067 21.8393 101.067 22.03C101.067 22.6753 101.287 22.998 101.727 22.998C102.108 22.998 102.445 22.8367 102.739 22.514C103.032 22.1767 103.267 21.7367 103.443 21.194L104.983 14H108.151L105.973 24.208C106.677 23.9733 107.241 23.6213 107.667 23.152C108.092 22.6827 108.451 21.986 108.745 21.062H109.669C109.273 22.3673 108.737 23.328 108.063 23.944C107.388 24.5453 106.625 24.956 105.775 25.176L105.445 26.76C105.151 28.1827 104.645 29.158 103.927 29.686C103.208 30.2287 102.394 30.5 101.485 30.5ZM100.979 28.784C101.228 28.784 101.47 28.6153 101.705 28.278C101.939 27.9407 102.123 27.4567 102.255 26.826L102.387 26.188C100.949 26.716 100.231 27.3393 100.231 28.058C100.231 28.2487 100.297 28.4173 100.429 28.564C100.561 28.7107 100.744 28.784 100.979 28.784ZM111.964 25.088C110.879 25.088 110.021 24.8093 109.39 24.252C108.759 23.6947 108.444 22.8147 108.444 21.612C108.444 20.6 108.642 19.4927 109.038 18.29C109.434 17.0727 110.079 16.024 110.974 15.144C111.869 14.2493 113.013 13.802 114.406 13.802C116.137 13.802 117.068 14.792 117.2 16.772C117.523 16.6987 117.809 16.5227 118.058 16.244C118.307 15.9507 118.542 15.6207 118.762 15.254H119.466C119.07 16.046 118.718 16.6693 118.41 17.124C118.102 17.564 117.699 17.9233 117.2 18.202C117.112 19.5807 116.826 20.7907 116.342 21.832C115.873 22.8733 115.257 23.68 114.494 24.252C113.731 24.8093 112.888 25.088 111.964 25.088ZM112.844 23.108C113.387 23.108 113.893 22.668 114.362 21.788C114.831 20.908 115.154 19.8227 115.33 18.532C114.978 18.4 114.802 18.07 114.802 17.542C114.802 16.97 115.007 16.5887 115.418 16.398C115.389 15.9287 115.308 15.606 115.176 15.43C115.059 15.2393 114.861 15.144 114.582 15.144C114.098 15.144 113.636 15.496 113.196 16.2C112.756 16.8893 112.397 17.7327 112.118 18.73C111.854 19.7127 111.722 20.578 111.722 21.326C111.722 22.03 111.803 22.5067 111.964 22.756C112.125 22.9907 112.419 23.108 112.844 23.108Z" fill="white"/>
<rect width="36" height="34" rx="6" fill="#EE3124"/>
<path d="M14.796 27.508C14.2533 27.508 13.7767 27.464 13.366 27.376C12.9553 27.288 12.596 27.0753 12.288 26.738C11.9947 26.4007 11.848 25.88 11.848 25.176C11.848 24.1933 12.1413 22.8733 12.728 21.216C13.3293 19.5587 14.114 17.894 15.082 16.222C14.3487 16.266 13.7693 16.376 13.344 16.552C12.9187 16.728 12.64 16.9993 12.508 17.366C12.5667 17.366 12.6253 17.4393 12.684 17.586C12.7573 17.7327 12.794 17.8867 12.794 18.048C12.794 18.312 12.6767 18.5247 12.442 18.686C12.2073 18.8327 11.914 18.906 11.562 18.906C11.1513 18.906 10.8213 18.796 10.572 18.576C10.3227 18.356 10.198 18.0407 10.198 17.63C10.198 17.1313 10.3887 16.6767 10.77 16.266C11.166 15.8553 11.7087 15.5327 12.398 15.298C13.0873 15.0487 13.85 14.924 14.686 14.924C14.994 14.924 15.3753 14.946 15.83 14.99C17.0327 13.0833 18.3013 11.5287 19.636 10.326C20.9853 9.10867 22.2687 8.5 23.486 8.5C24.19 8.5 24.7693 8.60267 25.224 8.808L21.77 25H18.602L20.296 17.014C19.7533 16.7647 19.2547 16.5813 18.8 16.464C18.3453 16.3467 17.8613 16.266 17.348 16.222C16.512 18.026 15.8227 19.874 15.28 21.766C14.752 23.6433 14.488 25.1467 14.488 26.276C14.488 26.8333 14.5907 27.244 14.796 27.508ZM21.77 10.062C21.1393 10.3993 20.4793 11.03 19.79 11.954C19.1153 12.8633 18.4553 13.9707 17.81 15.276C18.866 15.4813 19.7607 15.738 20.494 16.046L21.77 10.062Z" fill="white"/>
</svg>
