<svg width="269" height="249" viewBox="0 0 269 249" fill="none" xmlns="http://www.w3.org/2000/svg">
<path opacity="0.6" d="M10.458 12.71H2.79V7.184H1.71V20H2.79V13.664H10.458V20H11.556V7.184H10.458V12.71ZM22.6315 15.032C22.6315 13.682 22.2535 12.584 21.5155 11.738C20.7595 10.91 19.7335 10.496 18.4735 10.496C17.1595 10.496 16.1335 10.946 15.3775 11.81C14.6215 12.692 14.2435 13.862 14.2435 15.32C14.2435 16.814 14.6215 18.002 15.3955 18.866C16.1515 19.766 17.2135 20.216 18.5455 20.216C19.5355 20.216 20.3815 19.964 21.0835 19.442C21.7675 18.92 22.2535 18.218 22.5055 17.336L21.5155 17.192C21.0655 18.614 20.0755 19.316 18.5635 19.316C17.5555 19.316 16.7635 18.992 16.1875 18.308C15.6115 17.642 15.3235 16.706 15.3235 15.5H22.6315V15.032ZM18.4915 11.396C19.4095 11.396 20.1475 11.702 20.6875 12.278C21.2275 12.854 21.5335 13.664 21.6235 14.708H15.3415C15.4135 13.664 15.7195 12.854 16.2775 12.278C16.8355 11.702 17.5735 11.396 18.4915 11.396ZM26.2178 20V7.184H25.1378V20H26.2178ZM33.1734 17.3L32.6154 19.064L32.0394 17.3L29.5374 10.712H28.3674L32.0574 20H33.1374L36.7194 10.712H35.6214L33.1734 17.3ZM46.2389 15.032C46.2389 13.682 45.8609 12.584 45.1229 11.738C44.3669 10.91 43.3409 10.496 42.0809 10.496C40.7669 10.496 39.7409 10.946 38.9849 11.81C38.2289 12.692 37.8509 13.862 37.8509 15.32C37.8509 16.814 38.2289 18.002 39.0029 18.866C39.7589 19.766 40.8209 20.216 42.1529 20.216C43.1429 20.216 43.9889 19.964 44.6909 19.442C45.3749 18.92 45.8609 18.218 46.1129 17.336L45.1229 17.192C44.6729 18.614 43.6829 19.316 42.1709 19.316C41.1629 19.316 40.3709 18.992 39.7949 18.308C39.2189 17.642 38.9309 16.706 38.9309 15.5H46.2389V15.032ZM42.0989 11.396C43.0169 11.396 43.7549 11.702 44.2949 12.278C44.8349 12.854 45.1409 13.664 45.2309 14.708H38.9489C39.0209 13.664 39.3269 12.854 39.8849 12.278C40.4429 11.702 41.1809 11.396 42.0989 11.396ZM52.5492 11.558V10.712L50.2092 10.748V7.958H49.1292V10.748L47.5272 10.712V11.558L49.1292 11.522V18.002C49.1292 19.334 49.7772 20 51.0912 20H52.5312V19.082H51.3792C50.9472 19.082 50.6592 18.992 50.4792 18.812C50.2992 18.632 50.2092 18.308 50.2092 17.876V11.522L52.5492 11.558ZM55.7499 8.642V7.184H54.5979V8.642H55.7499ZM55.7139 20V10.712H54.6339V20H55.7139ZM62.4355 20.234C63.5155 20.234 64.3975 19.946 65.0635 19.334C65.7295 18.74 66.1435 17.912 66.2875 16.832H65.2795C64.9915 18.488 64.0555 19.316 62.4895 19.316C61.4815 19.316 60.6895 18.974 60.1495 18.272C59.5915 17.588 59.3215 16.616 59.3215 15.356C59.3215 14.096 59.5915 13.124 60.1315 12.44C60.6715 11.756 61.4455 11.396 62.4895 11.396C63.2635 11.396 63.8935 11.612 64.3795 12.008C64.8475 12.404 65.1535 12.962 65.2795 13.664H66.3055C66.1615 12.692 65.7475 11.918 65.0815 11.342C64.4155 10.766 63.5515 10.478 62.4895 10.478C61.1575 10.478 60.1315 10.928 59.3755 11.792C58.6195 12.656 58.2415 13.862 58.2415 15.392C58.2415 16.904 58.6015 18.092 59.3575 18.956C60.1135 19.82 61.1395 20.234 62.4355 20.234ZM76.922 19.172C76.49 19.172 76.202 19.082 76.04 18.884C75.878 18.704 75.806 18.362 75.806 17.894V13.214C75.806 12.35 75.5 11.666 74.888 11.18C74.276 10.712 73.412 10.46 72.278 10.46C69.956 10.46 68.714 11.432 68.57 13.34H69.65C69.722 12.656 69.956 12.152 70.352 11.828C70.748 11.522 71.378 11.36 72.206 11.36C73.862 11.36 74.708 11.954 74.708 13.124V13.358C74.708 13.7 74.618 13.952 74.456 14.132C74.276 14.312 73.97 14.42 73.538 14.492L71.198 14.798C69.182 15.086 68.174 16.004 68.174 17.57C68.174 18.398 68.444 19.046 69.002 19.514C69.542 20 70.316 20.234 71.306 20.234C72.134 20.234 72.854 20.072 73.484 19.712C74.096 19.352 74.564 18.866 74.852 18.254C74.87 18.866 75.014 19.316 75.302 19.586C75.572 19.874 76.004 20 76.616 20H77.21V19.172H76.922ZM71.486 19.37C70.766 19.37 70.226 19.208 69.83 18.884C69.434 18.56 69.236 18.11 69.236 17.534C69.236 16.472 69.938 15.842 71.378 15.626L73.952 15.248C74.276 15.212 74.528 15.122 74.708 14.996V16.706C74.618 17.534 74.276 18.182 73.682 18.65C73.088 19.136 72.35 19.37 71.486 19.37ZM93.13 18.488L85.462 7.184H84.292V20H85.318V8.732L92.95 20H94.174V7.184H93.13V18.488ZM101.217 20.234C102.513 20.234 103.557 19.784 104.367 18.866C105.159 17.984 105.573 16.796 105.573 15.32C105.573 13.862 105.177 12.692 104.385 11.792C103.575 10.928 102.531 10.478 101.235 10.478C99.9207 10.478 98.8587 10.928 98.0667 11.792C97.2567 12.674 96.8607 13.862 96.8607 15.356C96.8607 16.832 97.2567 18.02 98.0667 18.884C98.8587 19.784 99.9027 20.234 101.217 20.234ZM101.217 19.316C100.209 19.316 99.4167 18.974 98.8227 18.254C98.2287 17.534 97.9407 16.58 97.9407 15.356C97.9407 14.15 98.2287 13.196 98.8227 12.476C99.3987 11.756 100.209 11.396 101.217 11.396C102.225 11.396 103.017 11.756 103.611 12.458C104.187 13.16 104.493 14.114 104.493 15.32C104.493 16.544 104.187 17.516 103.611 18.236C103.017 18.956 102.225 19.316 101.217 19.316ZM116.254 17.066L115.804 18.83L115.39 17.066L113.59 10.712H112.438L110.656 17.066L110.224 18.866L109.756 17.066L107.848 10.712H106.678L109.648 20H110.746L112.6 13.448L113.014 11.648L113.41 13.448L115.21 20H116.29L119.314 10.712H118.198L116.254 17.066ZM125.754 7.184V8.138H130.218V20H131.316V8.138H135.798V7.184H125.754ZM143.376 15.032C143.376 13.682 142.998 12.584 142.26 11.738C141.504 10.91 140.478 10.496 139.218 10.496C137.904 10.496 136.878 10.946 136.122 11.81C135.366 12.692 134.988 13.862 134.988 15.32C134.988 16.814 135.366 18.002 136.14 18.866C136.896 19.766 137.958 20.216 139.29 20.216C140.28 20.216 141.126 19.964 141.828 19.442C142.512 18.92 142.998 18.218 143.25 17.336L142.26 17.192C141.81 18.614 140.82 19.316 139.308 19.316C138.3 19.316 137.508 18.992 136.932 18.308C136.356 17.642 136.068 16.706 136.068 15.5H143.376V15.032ZM139.236 11.396C140.154 11.396 140.892 11.702 141.432 12.278C141.972 12.854 142.278 13.664 142.368 14.708H136.086C136.158 13.664 136.464 12.854 137.022 12.278C137.58 11.702 138.318 11.396 139.236 11.396ZM149.282 15.086L152.684 10.712H151.37L148.706 14.33L146.024 10.712H144.71L148.148 15.086L144.278 20H145.592L148.706 15.824L151.802 20H153.134L149.282 15.086ZM159.319 11.558V10.712L156.979 10.748V7.958H155.899V10.748L154.297 10.712V11.558L155.899 11.522V18.002C155.899 19.334 156.547 20 157.861 20H159.301V19.082H158.149C157.717 19.082 157.429 18.992 157.249 18.812C157.069 18.632 156.979 18.308 156.979 17.876V11.522L159.319 11.558ZM167.726 7.184H166.646V20H174.89V19.046H167.726V7.184ZM178.428 8.642V7.184H177.276V8.642H178.428ZM178.392 20V10.712H177.312V20H178.392ZM188.209 12.674C187.939 12.026 187.507 11.504 186.931 11.108C186.337 10.712 185.653 10.514 184.897 10.514C183.691 10.514 182.737 10.946 182.017 11.81C181.279 12.674 180.919 13.808 180.919 15.248C180.919 16.724 181.279 17.912 181.999 18.812C182.719 19.748 183.691 20.198 184.933 20.198C185.653 20.198 186.301 20.018 186.877 19.622C187.453 19.244 187.885 18.74 188.173 18.092V19.982C188.173 20.99 187.921 21.746 187.417 22.214C186.913 22.7 186.139 22.934 185.095 22.934C183.511 22.934 182.593 22.394 182.323 21.278H181.279C181.387 22.052 181.765 22.664 182.431 23.114C183.079 23.582 183.961 23.798 185.059 23.798C186.391 23.798 187.417 23.474 188.137 22.826C188.857 22.178 189.217 21.188 189.217 19.892V10.712H188.209V12.674ZM185.023 19.262C184.087 19.262 183.349 18.902 182.809 18.182C182.269 17.462 181.999 16.472 181.999 15.248C181.999 14.06 182.269 13.124 182.809 12.44C183.349 11.792 184.087 11.45 185.023 11.45C185.959 11.45 186.715 11.792 187.291 12.458C187.849 13.142 188.137 14.078 188.137 15.284C188.137 16.508 187.849 17.462 187.273 18.182C186.697 18.902 185.959 19.262 185.023 19.262ZM196.608 10.478C195.078 10.478 193.998 11.108 193.386 12.368V7.184H192.306V20H193.386V14.906C193.386 13.772 193.656 12.908 194.196 12.314C194.736 11.738 195.474 11.432 196.392 11.432C197.94 11.432 198.732 12.278 198.732 13.934V20H199.812V13.736C199.812 12.728 199.524 11.918 198.966 11.342C198.39 10.766 197.616 10.478 196.608 10.478ZM206.955 11.558V10.712L204.615 10.748V7.958H203.535V10.748L201.933 10.712V11.558L203.535 11.522V18.002C203.535 19.334 204.183 20 205.497 20H206.937V19.082H205.785C205.353 19.082 205.065 18.992 204.885 18.812C204.705 18.632 204.615 18.308 204.615 17.876V11.522L206.955 11.558Z" fill="white"/>
<path opacity="0.8" d="M9.99 105.458H3.204V100.184H1.53V113H3.204V106.916H9.99V113H11.664V100.184H9.99V105.458ZM22.7232 108.14C22.7232 106.7 22.3272 105.566 21.5712 104.738C20.8152 103.91 19.7712 103.496 18.4752 103.496C17.1072 103.496 16.0272 103.946 15.2712 104.81C14.4792 105.71 14.1012 106.88 14.1012 108.32C14.1012 109.778 14.4972 110.948 15.2892 111.848C16.0452 112.766 17.1252 113.216 18.5112 113.216C19.5192 113.216 20.4012 112.964 21.1212 112.424C21.8412 111.902 22.3632 111.164 22.6512 110.192L21.1392 110.012C20.7072 111.254 19.8432 111.866 18.5652 111.866C17.7012 111.866 17.0172 111.614 16.5312 111.074C16.0272 110.534 15.7752 109.76 15.7572 108.752H22.7232V108.14ZM20.3292 105.548C20.7792 106.034 21.0672 106.7 21.1752 107.564H15.7752C15.8652 106.682 16.1532 105.998 16.6392 105.53C17.1252 105.08 17.7372 104.846 18.4932 104.846C19.2492 104.846 19.8612 105.08 20.3292 105.548ZM26.721 113V100.184H25.065V113H26.721ZM33.7762 109.076L33.0202 111.578L32.2462 109.076L30.3922 103.712H28.6102L32.1742 113H33.8122L37.2142 103.712H35.5402L33.7762 109.076ZM46.8404 108.14C46.8404 106.7 46.4444 105.566 45.6884 104.738C44.9324 103.91 43.8884 103.496 42.5924 103.496C41.2244 103.496 40.1444 103.946 39.3884 104.81C38.5964 105.71 38.2184 106.88 38.2184 108.32C38.2184 109.778 38.6144 110.948 39.4064 111.848C40.1624 112.766 41.2424 113.216 42.6284 113.216C43.6364 113.216 44.5184 112.964 45.2384 112.424C45.9584 111.902 46.4804 111.164 46.7684 110.192L45.2564 110.012C44.8244 111.254 43.9604 111.866 42.6824 111.866C41.8184 111.866 41.1344 111.614 40.6484 111.074C40.1444 110.534 39.8924 109.76 39.8744 108.752H46.8404V108.14ZM44.4464 105.548C44.8964 106.034 45.1844 106.7 45.2924 107.564H39.8924C39.9824 106.682 40.2704 105.998 40.7564 105.53C41.2424 105.08 41.8544 104.846 42.6104 104.846C43.3664 104.846 43.9784 105.08 44.4464 105.548ZM53.2766 104.99V103.712L51.1526 103.784V100.868H49.4966V103.766L48.1106 103.712V104.99L49.4966 104.918V110.93C49.4966 111.65 49.6586 112.19 49.9826 112.514C50.3066 112.838 50.8466 113 51.5666 113H53.2586V111.614H52.0526C51.6926 111.614 51.4586 111.56 51.3326 111.434C51.2066 111.308 51.1526 111.074 51.1526 110.714V104.918L53.2766 104.99ZM56.9202 101.966V100.184H55.2642V101.966H56.9202ZM56.9202 113V103.712H55.2642V113H56.9202ZM63.5614 113.234C64.6954 113.234 65.6134 112.946 66.2974 112.334C66.9814 111.74 67.3954 110.876 67.5754 109.76H66.0274C65.7394 111.164 64.9474 111.848 63.6514 111.848C62.7694 111.848 62.0854 111.542 61.6174 110.93C61.1494 110.318 60.9154 109.472 60.9154 108.356C60.9154 106.034 61.8334 104.864 63.6694 104.864C64.9654 104.864 65.7574 105.494 66.0094 106.754H67.5754C67.4134 105.71 66.9994 104.918 66.3154 104.342C65.6314 103.766 64.7314 103.478 63.6514 103.478C62.2834 103.478 61.2034 103.928 60.4294 104.792C59.6374 105.674 59.2594 106.88 59.2594 108.428C59.2594 109.958 59.6374 111.146 60.4114 111.974C61.1674 112.82 62.2294 113.234 63.5614 113.234ZM78.0089 111.776C77.7029 111.776 77.4869 111.722 77.3789 111.596C77.2529 111.488 77.1989 111.272 77.1989 110.966V106.394C77.1989 104.414 75.9749 103.424 73.5629 103.424C71.1329 103.424 69.8369 104.432 69.6929 106.448H71.3309C71.3669 105.854 71.5649 105.422 71.8889 105.17C72.2129 104.918 72.7349 104.792 73.4369 104.792C74.8229 104.792 75.5249 105.278 75.5249 106.232V106.628C75.5249 107.06 75.2909 107.294 74.8589 107.33L72.4829 107.636C70.3589 107.924 69.3149 108.878 69.3149 110.534C69.3149 111.398 69.5849 112.064 70.1429 112.532C70.6829 113 71.4569 113.234 72.4289 113.234C73.1669 113.234 73.8329 113.09 74.4269 112.802C75.0029 112.514 75.4709 112.136 75.7949 111.632C75.8669 112.55 76.3889 113 77.3969 113H78.2789V111.776H78.0089ZM72.7349 111.956C72.1769 111.956 71.7449 111.83 71.4209 111.56C71.0969 111.308 70.9529 110.93 70.9529 110.462C70.9529 109.58 71.5469 109.04 72.7529 108.86L75.5249 108.446V109.742C75.5249 110.336 75.2369 110.858 74.6969 111.29C74.1389 111.74 73.4909 111.956 72.7349 111.956ZM93.6301 110.642L86.8801 100.184H85.0261V113H86.6101V102.596L93.3061 113H95.2141V100.184H93.6301V110.642ZM102.114 113.234C103.41 113.234 104.472 112.784 105.336 111.848C106.164 110.948 106.596 109.76 106.596 108.284C106.596 106.844 106.182 105.674 105.372 104.774C104.544 103.91 103.464 103.478 102.168 103.478C100.818 103.478 99.738 103.928 98.91 104.81C98.064 105.692 97.65 106.88 97.65 108.356C97.65 109.814 98.064 110.984 98.892 111.884C99.684 112.784 100.764 113.234 102.114 113.234ZM102.114 111.848C101.25 111.848 100.566 111.542 100.062 110.894C99.558 110.264 99.306 109.418 99.306 108.356C99.306 107.276 99.54 106.43 100.044 105.8C100.548 105.188 101.232 104.864 102.114 104.864C102.996 104.864 103.68 105.17 104.184 105.782C104.688 106.394 104.94 107.24 104.94 108.284C104.94 109.364 104.688 110.228 104.184 110.876C103.68 111.524 102.978 111.848 102.114 111.848ZM117.345 109.076L116.805 111.29L116.355 109.076L115.023 103.712H113.223L111.891 109.076L111.405 111.29L110.847 109.076L109.389 103.712H107.589L110.523 113H112.215L113.619 107.456L114.123 105.116L114.591 107.456L115.905 113H117.561L120.585 103.712H118.875L117.345 109.076ZM126.525 100.184V101.642H130.809V113H132.483V101.642H136.767V100.184H126.525ZM144.206 108.14C144.206 106.7 143.81 105.566 143.054 104.738C142.298 103.91 141.254 103.496 139.958 103.496C138.59 103.496 137.51 103.946 136.754 104.81C135.962 105.71 135.584 106.88 135.584 108.32C135.584 109.778 135.98 110.948 136.772 111.848C137.528 112.766 138.608 113.216 139.994 113.216C141.002 113.216 141.884 112.964 142.604 112.424C143.324 111.902 143.846 111.164 144.134 110.192L142.622 110.012C142.19 111.254 141.326 111.866 140.048 111.866C139.184 111.866 138.5 111.614 138.014 111.074C137.51 110.534 137.258 109.76 137.24 108.752H144.206V108.14ZM141.812 105.548C142.262 106.034 142.55 106.7 142.658 107.564H137.258C137.348 106.682 137.636 105.998 138.122 105.53C138.608 105.08 139.22 104.846 139.976 104.846C140.732 104.846 141.344 105.08 141.812 105.548ZM150.309 108.068L153.639 103.712H151.623L149.481 106.898L147.303 103.712H145.287L148.653 108.068L144.837 113H146.853L149.481 109.202L152.073 113H154.089L150.309 108.068ZM160.433 104.99V103.712L158.309 103.784V100.868H156.653V103.766L155.267 103.712V104.99L156.653 104.918V110.93C156.653 111.65 156.815 112.19 157.139 112.514C157.463 112.838 158.003 113 158.723 113H160.415V111.614H159.209C158.849 111.614 158.615 111.56 158.489 111.434C158.363 111.308 158.309 111.074 158.309 110.714V104.918L160.433 104.99ZM176.902 108.914C176.776 107.726 176.128 107.024 174.94 106.772C175.624 106.592 176.182 106.214 176.596 105.638C177.01 105.08 177.226 104.396 177.226 103.568C177.226 102.524 176.866 101.714 176.164 101.102C175.462 100.49 174.508 100.184 173.302 100.184H167.362V113H169.036V107.474H172.996C173.734 107.474 174.274 107.636 174.634 107.96C174.994 108.284 175.21 108.824 175.3 109.58L175.678 113H177.37L176.902 108.914ZM169.036 106.016V101.642H173.014C173.806 101.642 174.436 101.822 174.868 102.182C175.3 102.542 175.516 103.064 175.516 103.73C175.516 104.45 175.264 105.026 174.778 105.422C174.274 105.818 173.59 106.016 172.726 106.016H169.036ZM188.151 108.14C188.151 106.7 187.755 105.566 186.999 104.738C186.243 103.91 185.199 103.496 183.903 103.496C182.535 103.496 181.455 103.946 180.699 104.81C179.907 105.71 179.529 106.88 179.529 108.32C179.529 109.778 179.925 110.948 180.717 111.848C181.473 112.766 182.553 113.216 183.939 113.216C184.947 113.216 185.829 112.964 186.549 112.424C187.269 111.902 187.791 111.164 188.079 110.192L186.567 110.012C186.135 111.254 185.271 111.866 183.993 111.866C183.129 111.866 182.445 111.614 181.959 111.074C181.455 110.534 181.203 109.76 181.185 108.752H188.151V108.14ZM185.757 105.548C186.207 106.034 186.495 106.7 186.603 107.564H181.203C181.293 106.682 181.581 105.998 182.067 105.53C182.553 105.08 183.165 104.846 183.921 104.846C184.677 104.846 185.289 105.08 185.757 105.548ZM196.973 105.152C196.685 104.648 196.271 104.234 195.749 103.946C195.209 103.658 194.615 103.514 193.967 103.514C192.779 103.514 191.807 103.946 191.069 104.81C190.313 105.692 189.953 106.826 189.953 108.212C189.953 109.688 190.313 110.894 191.051 111.794C191.771 112.73 192.761 113.198 194.003 113.198C194.615 113.198 195.173 113.072 195.695 112.784C196.199 112.514 196.613 112.136 196.919 111.65V112.856C196.919 113.828 196.703 114.53 196.289 114.944C195.857 115.376 195.173 115.574 194.219 115.574C193.517 115.574 192.977 115.466 192.599 115.25C192.221 115.034 191.969 114.674 191.861 114.17H190.241C190.349 115.07 190.745 115.754 191.429 116.204C192.113 116.672 193.013 116.888 194.165 116.888C197.063 116.888 198.521 115.502 198.521 112.694V103.712H196.973V105.152ZM192.293 110.804C191.825 110.174 191.609 109.31 191.609 108.212C191.609 107.168 191.825 106.376 192.275 105.8C192.725 105.224 193.373 104.936 194.201 104.936C195.011 104.936 195.659 105.224 196.145 105.8C196.613 106.376 196.865 107.204 196.865 108.248C196.865 109.328 196.613 110.192 196.109 110.822C195.605 111.47 194.957 111.776 194.165 111.776C193.373 111.776 192.743 111.452 192.293 110.804ZM207.565 108.878C207.565 109.85 207.313 110.588 206.827 111.074C206.323 111.56 205.693 111.794 204.919 111.794C203.677 111.794 203.065 111.146 203.065 109.832V103.712H201.409V110.156C201.409 111.128 201.679 111.884 202.237 112.424C202.795 112.964 203.569 113.234 204.559 113.234C205.963 113.234 206.989 112.73 207.673 111.686V113H209.221V103.712H207.565V108.878ZM213.752 113V100.184H212.096V113H213.752ZM224.821 111.776C224.515 111.776 224.299 111.722 224.191 111.596C224.065 111.488 224.011 111.272 224.011 110.966V106.394C224.011 104.414 222.787 103.424 220.375 103.424C217.945 103.424 216.649 104.432 216.505 106.448H218.143C218.179 105.854 218.377 105.422 218.701 105.17C219.025 104.918 219.547 104.792 220.249 104.792C221.635 104.792 222.337 105.278 222.337 106.232V106.628C222.337 107.06 222.103 107.294 221.671 107.33L219.295 107.636C217.171 107.924 216.127 108.878 216.127 110.534C216.127 111.398 216.397 112.064 216.955 112.532C217.495 113 218.269 113.234 219.241 113.234C219.979 113.234 220.645 113.09 221.239 112.802C221.815 112.514 222.283 112.136 222.607 111.632C222.679 112.55 223.201 113 224.209 113H225.091V111.776H224.821ZM219.547 111.956C218.989 111.956 218.557 111.83 218.233 111.56C217.909 111.308 217.765 110.93 217.765 110.462C217.765 109.58 218.359 109.04 219.565 108.86L222.337 108.446V109.742C222.337 110.336 222.049 110.858 221.509 111.29C220.951 111.74 220.303 111.956 219.547 111.956ZM231.469 103.46C230.101 103.46 229.093 104.18 228.445 105.584V103.712H226.897V113H228.553V107.924C228.589 107.042 228.877 106.34 229.417 105.836C229.939 105.332 230.533 105.08 231.217 105.08C231.523 105.08 231.721 105.098 231.811 105.098V103.478C231.757 103.478 231.649 103.46 231.469 103.46Z" fill="white"/>
<path d="M9.432 198.332H3.474V193.184H1.044V206H3.474V200.528H9.432V206H11.862V193.184H9.432V198.332ZM22.5512 201.518C22.5512 200.024 22.1372 198.818 21.3092 197.882C20.4812 196.964 19.3652 196.496 17.9612 196.496C16.5932 196.496 15.4772 196.946 14.6312 197.828C13.7852 198.728 13.3712 199.898 13.3712 201.356C13.3712 202.832 13.7852 204.002 14.6492 204.884C15.4952 205.784 16.6112 206.216 17.9972 206.216C19.0952 206.216 20.0312 205.946 20.8052 205.388C21.5612 204.83 22.0652 204.074 22.3172 203.12H20.1392C19.7432 204.02 19.0412 204.452 18.0152 204.452C17.3132 204.452 16.7552 204.254 16.3412 203.858C15.9272 203.462 15.6752 202.85 15.6032 202.058H22.5512V201.518ZM17.9432 198.26C18.5912 198.26 19.1132 198.458 19.5272 198.854C19.9232 199.25 20.1752 199.79 20.2832 200.474H15.6212C15.8372 198.998 16.6112 198.26 17.9432 198.26ZM26.2837 206V193.184H24.0157V206H26.2837ZM33.3527 199.196C32.8127 200.888 32.3267 202.472 31.8947 203.948C31.3367 202.112 30.8507 200.528 30.4367 199.214L29.5367 196.712H27.1067L30.5447 206H33.1547L36.6107 196.712H34.2527L33.3527 199.196ZM45.8774 201.518C45.8774 200.024 45.4634 198.818 44.6354 197.882C43.8074 196.964 42.6914 196.496 41.2874 196.496C39.9194 196.496 38.8034 196.946 37.9574 197.828C37.1114 198.728 36.6974 199.898 36.6974 201.356C36.6974 202.832 37.1114 204.002 37.9754 204.884C38.8214 205.784 39.9374 206.216 41.3234 206.216C42.4214 206.216 43.3574 205.946 44.1314 205.388C44.8874 204.83 45.3914 204.074 45.6434 203.12H43.4654C43.0694 204.02 42.3674 204.452 41.3414 204.452C40.6394 204.452 40.0814 204.254 39.6674 203.858C39.2534 203.462 39.0014 202.85 38.9294 202.058H45.8774V201.518ZM41.2694 198.26C41.9174 198.26 42.4394 198.458 42.8534 198.854C43.2494 199.25 43.5014 199.79 43.6094 200.474H38.9474C39.1634 198.998 39.9374 198.26 41.2694 198.26ZM51.7092 196.712H49.8732V194.012H47.6232V196.712H46.1832V198.44H47.6232V203.696C47.6232 204.524 47.8392 205.136 48.3072 205.514C48.7752 205.892 49.5132 206.072 50.5212 206.072C50.8092 206.072 51.2052 206.054 51.7092 206V204.272H50.9352C50.5392 204.272 50.2692 204.218 50.1072 204.092C49.9452 203.984 49.8732 203.768 49.8732 203.462V198.44H51.7092V196.712ZM55.2871 195.506V193.382H53.0551V195.506H55.2871ZM55.3051 206V196.712H53.0371V206H55.3051ZM61.3088 206.216C62.4968 206.216 63.5048 205.892 64.2968 205.226C65.0888 204.56 65.5388 203.66 65.6648 202.544H63.3968C63.3068 203.12 63.0728 203.57 62.6948 203.876C62.3168 204.182 61.8488 204.326 61.3088 204.326C60.6068 204.326 60.0488 204.074 59.6528 203.57C59.2388 203.066 59.0408 202.328 59.0408 201.356C59.0408 200.402 59.2388 199.664 59.6348 199.16C60.0308 198.656 60.5888 198.386 61.3088 198.386C61.8488 198.386 62.2988 198.53 62.6588 198.818C63.0188 199.106 63.2528 199.52 63.3608 200.06H65.6288C65.4848 198.98 65.0348 198.116 64.2788 197.468C63.5048 196.82 62.5148 196.496 61.3088 196.496C59.9048 196.496 58.8068 196.946 57.9788 197.81C57.1328 198.692 56.7188 199.88 56.7188 201.356C56.7188 202.832 57.1328 204.02 57.9788 204.884C58.8248 205.784 59.9408 206.216 61.3088 206.216ZM75.3286 206C75.0766 205.64 74.9506 205.064 74.9506 204.236V199.286C74.9506 197.432 73.6546 196.496 71.0806 196.496C68.4166 196.496 67.0306 197.558 66.9046 199.664H69.1366C69.1726 199.124 69.3526 198.746 69.6406 198.53C69.9286 198.314 70.3966 198.188 71.0626 198.188C71.6746 198.188 72.1066 198.296 72.3586 198.476C72.6106 198.656 72.7546 198.944 72.7546 199.34C72.7546 199.664 72.6466 199.916 72.4486 200.078C72.2326 200.24 71.9086 200.348 71.4406 200.402L70.0366 200.528C67.6606 200.78 66.4726 201.734 66.4726 203.426C66.4726 204.308 66.7606 204.992 67.3726 205.478C67.9846 205.982 68.7946 206.216 69.8206 206.216C71.1886 206.216 72.1786 205.766 72.8086 204.866C72.8626 205.442 72.9526 205.82 73.0606 206H75.3286ZM70.3606 204.596C69.8566 204.596 69.4606 204.488 69.1906 204.272C68.9206 204.056 68.7946 203.732 68.7946 203.336C68.7946 202.94 68.9206 202.652 69.1726 202.436C69.4246 202.22 69.8566 202.076 70.4686 202.004L71.6926 201.86C72.1786 201.806 72.5386 201.68 72.7546 201.482V202.328C72.7546 203.066 72.5206 203.624 72.0886 204.02C71.6386 204.416 71.0626 204.596 70.3606 204.596ZM89.1685 196.532C89.1685 198.89 89.1865 200.96 89.2405 202.742C88.7905 201.914 88.0345 200.618 86.9725 198.89L83.3905 193.184H80.6905V206H83.0305V202.652C83.0305 199.862 82.9945 197.792 82.9585 196.442C83.4985 197.486 84.2725 198.782 85.2445 200.294L88.8085 206H91.5085V193.184H89.1685V196.532ZM101.189 204.884C102.053 204.002 102.485 202.832 102.485 201.356C102.485 199.88 102.053 198.692 101.189 197.81C100.325 196.946 99.1733 196.496 97.7693 196.496C96.3473 196.496 95.2133 196.946 94.3493 197.828C93.4673 198.71 93.0353 199.88 93.0353 201.356C93.0353 202.832 93.4673 204.02 94.3493 204.884C95.2133 205.784 96.3473 206.216 97.7693 206.216C99.1733 206.216 100.325 205.784 101.189 204.884ZM97.7693 204.344C97.0133 204.344 96.4193 204.092 95.9873 203.57C95.5553 203.066 95.3573 202.328 95.3573 201.356C95.3573 200.402 95.5553 199.664 95.9873 199.142C96.4193 198.638 97.0133 198.368 97.7693 198.368C98.5253 198.368 99.1013 198.638 99.5333 199.16C99.9653 199.682 100.181 200.42 100.181 201.356C100.181 202.31 99.9653 203.048 99.5333 203.57C99.1013 204.092 98.5253 204.344 97.7693 204.344ZM113.856 200.186C113.55 201.158 113.244 202.22 112.938 203.408C112.596 202.076 112.308 200.996 112.056 200.168L111.03 196.712H108.87L107.844 200.168C107.592 200.996 107.286 202.076 106.962 203.408C106.602 202.094 106.296 201.014 106.044 200.186L105 196.712H102.57L105.63 206H108.006L109.158 202.184C109.626 200.474 109.896 199.556 109.932 199.412C110.004 199.7 110.274 200.636 110.724 202.184L111.894 206H114.27L117.33 196.712H114.9L113.856 200.186ZM122.315 193.184V206H127.211C129.263 206 130.847 205.424 131.963 204.272C133.079 203.138 133.637 201.572 133.637 199.592C133.637 197.612 133.079 196.046 131.963 194.894C130.847 193.76 129.263 193.184 127.211 193.184H122.315ZM124.745 203.912V195.272H127.175C128.435 195.272 129.407 195.65 130.091 196.388C130.775 197.126 131.117 198.188 131.117 199.592C131.117 200.996 130.775 202.076 130.091 202.814C129.407 203.552 128.435 203.912 127.175 203.912H124.745ZM137.324 195.506V193.382H135.092V195.506H137.324ZM137.342 206V196.712H135.074V206H137.342ZM142.824 206.252C144.12 206.252 145.146 206 145.866 205.496C146.586 204.992 146.946 204.272 146.946 203.336C146.946 202.544 146.676 201.932 146.172 201.482C145.668 201.05 144.84 200.726 143.724 200.51L142.554 200.33C141.996 200.24 141.6 200.114 141.366 199.934C141.114 199.754 141.006 199.52 141.006 199.196C141.006 198.476 141.546 198.116 142.626 198.116C143.256 198.116 143.742 198.242 144.066 198.476C144.39 198.71 144.552 199.106 144.588 199.646H146.73C146.64 197.558 145.272 196.496 142.626 196.496C141.402 196.496 140.448 196.748 139.782 197.252C139.098 197.756 138.774 198.44 138.774 199.304C138.774 200.852 139.782 201.788 141.816 202.112L142.878 202.292C143.562 202.418 144.03 202.562 144.3 202.742C144.552 202.922 144.696 203.192 144.696 203.516C144.696 204.272 144.084 204.632 142.86 204.632C142.176 204.632 141.672 204.524 141.348 204.272C141.024 204.038 140.844 203.624 140.79 203.048H138.576C138.684 205.19 140.106 206.252 142.824 206.252ZM153.3 196.496C151.986 196.496 150.996 197.018 150.33 198.044V196.712H148.152V209.528H150.42V204.794C151.068 205.748 152.04 206.216 153.3 206.216C154.56 206.216 155.586 205.784 156.342 204.884C157.08 204.002 157.458 202.832 157.458 201.356C157.458 199.88 157.08 198.71 156.342 197.81C155.586 196.946 154.56 196.496 153.3 196.496ZM151.014 203.57C150.582 203.066 150.366 202.328 150.366 201.356C150.366 200.402 150.564 199.664 150.996 199.142C151.41 198.638 152.004 198.368 152.76 198.368C153.516 198.368 154.11 198.62 154.524 199.124C154.938 199.628 155.154 200.348 155.154 201.284C155.154 202.256 154.938 203.012 154.524 203.534C154.092 204.074 153.498 204.344 152.76 204.344C152.004 204.344 151.41 204.092 151.014 203.57ZM161.143 206V193.184H158.875V206H161.143ZM171.323 206C171.071 205.64 170.945 205.064 170.945 204.236V199.286C170.945 197.432 169.649 196.496 167.075 196.496C164.411 196.496 163.025 197.558 162.899 199.664H165.131C165.167 199.124 165.347 198.746 165.635 198.53C165.923 198.314 166.391 198.188 167.057 198.188C167.669 198.188 168.101 198.296 168.353 198.476C168.605 198.656 168.749 198.944 168.749 199.34C168.749 199.664 168.641 199.916 168.443 200.078C168.227 200.24 167.903 200.348 167.435 200.402L166.031 200.528C163.655 200.78 162.467 201.734 162.467 203.426C162.467 204.308 162.755 204.992 163.367 205.478C163.979 205.982 164.789 206.216 165.815 206.216C167.183 206.216 168.173 205.766 168.803 204.866C168.857 205.442 168.947 205.82 169.055 206H171.323ZM166.355 204.596C165.851 204.596 165.455 204.488 165.185 204.272C164.915 204.056 164.789 203.732 164.789 203.336C164.789 202.94 164.915 202.652 165.167 202.436C165.419 202.22 165.851 202.076 166.463 202.004L167.687 201.86C168.173 201.806 168.533 201.68 168.749 201.482V202.328C168.749 203.066 168.515 203.624 168.083 204.02C167.633 204.416 167.057 204.596 166.355 204.596ZM177.527 199.052C176.879 201.14 176.393 202.868 176.033 204.218C175.565 202.418 175.079 200.69 174.557 199.034L173.801 196.712H171.353L174.053 204.344C174.341 205.154 174.485 205.784 174.485 206.216C174.485 206.666 174.341 207.026 174.089 207.296C173.819 207.584 173.441 207.71 172.955 207.71H172.091V209.492C172.379 209.528 172.703 209.546 173.081 209.546C174.197 209.546 175.043 209.348 175.637 208.934C176.213 208.538 176.681 207.818 177.077 206.756L180.659 196.712H178.283L177.527 199.052ZM193.858 199.25C194.992 198.674 195.568 197.756 195.568 196.496C195.568 195.524 195.208 194.714 194.506 194.102C193.786 193.49 192.76 193.184 191.428 193.184H185.632V206H191.626C193.066 206 194.182 205.694 194.938 205.046C195.694 204.398 196.09 203.498 196.09 202.328C196.09 201.644 195.892 201.014 195.496 200.456C195.1 199.916 194.56 199.502 193.858 199.25ZM191.248 195.182C191.842 195.182 192.31 195.326 192.652 195.614C192.976 195.902 193.156 196.298 193.156 196.802C193.156 197.342 192.976 197.774 192.652 198.08C192.328 198.386 191.86 198.53 191.248 198.53H188.062V195.182H191.248ZM188.062 203.984V200.438H191.5C192.904 200.438 193.606 201.032 193.606 202.22C193.606 202.796 193.426 203.228 193.066 203.534C192.706 203.84 192.184 203.984 191.5 203.984H188.062ZM205.322 204.884C206.186 204.002 206.618 202.832 206.618 201.356C206.618 199.88 206.186 198.692 205.322 197.81C204.458 196.946 203.306 196.496 201.902 196.496C200.48 196.496 199.346 196.946 198.482 197.828C197.6 198.71 197.168 199.88 197.168 201.356C197.168 202.832 197.6 204.02 198.482 204.884C199.346 205.784 200.48 206.216 201.902 206.216C203.306 206.216 204.458 205.784 205.322 204.884ZM201.902 204.344C201.146 204.344 200.552 204.092 200.12 203.57C199.688 203.066 199.49 202.328 199.49 201.356C199.49 200.402 199.688 199.664 200.12 199.142C200.552 198.638 201.146 198.368 201.902 198.368C202.658 198.368 203.234 198.638 203.666 199.16C204.098 199.682 204.314 200.42 204.314 201.356C204.314 202.31 204.098 203.048 203.666 203.57C203.234 204.092 202.658 204.344 201.902 204.344ZM210.309 206V193.184H208.041V206H210.309ZM218.761 197.918C218.095 196.982 217.141 196.496 215.899 196.496C214.603 196.496 213.577 196.946 212.857 197.81C212.101 198.692 211.723 199.88 211.723 201.356C211.723 202.832 212.101 204.002 212.857 204.884C213.595 205.784 214.603 206.216 215.899 206.216C217.159 206.216 218.149 205.712 218.833 204.704V206H221.029V193.184H218.761V197.918ZM214.675 203.606C214.243 203.12 214.045 202.4 214.045 201.428C214.045 200.474 214.243 199.718 214.675 199.178C215.107 198.638 215.683 198.368 216.421 198.368C217.177 198.368 217.753 198.638 218.185 199.142C218.599 199.664 218.815 200.402 218.815 201.356C218.815 202.328 218.599 203.066 218.185 203.57C217.753 204.092 217.159 204.344 216.421 204.344C215.665 204.344 215.089 204.11 214.675 203.606Z" fill="white"/>
<path opacity="0.6" d="M11.106 48.71H3.456L4.644 43.184H3.546L0.81 56H1.908L3.258 49.664H10.908L9.558 56H10.656L13.392 43.184H12.294L11.106 48.71ZM22.8433 51.5C22.9873 50.96 23.0593 50.456 23.0593 49.97C23.0593 48.89 22.7353 48.044 22.1053 47.432C21.4753 46.82 20.6113 46.496 19.4953 46.496C18.2353 46.496 17.1733 46.91 16.2733 47.738C15.3733 48.584 14.7793 49.7 14.4733 51.086C14.3653 51.626 14.3293 52.076 14.3293 52.418C14.3293 53.57 14.6533 54.506 15.3193 55.19C15.9673 55.892 16.8673 56.234 18.0193 56.234C19.0273 56.234 19.9093 55.964 20.6833 55.406C21.4393 54.848 22.0153 54.11 22.3933 53.192L21.4393 53.084C20.6833 54.596 19.5493 55.334 18.0373 55.334C17.2273 55.334 16.5793 55.082 16.1113 54.578C15.6253 54.074 15.3913 53.372 15.3913 52.508C15.3913 52.202 15.4273 51.86 15.4993 51.5H22.8433ZM19.4773 47.396C20.2873 47.396 20.9173 47.63 21.3673 48.098C21.8173 48.566 22.0513 49.196 22.0513 50.006C22.0513 50.222 22.0333 50.456 21.9973 50.708H15.6613C15.9493 49.664 16.4173 48.854 17.1013 48.278C17.7673 47.702 18.5593 47.396 19.4773 47.396ZM25.5271 56L28.2451 43.184H27.1651L24.4471 56H25.5271ZM32.928 53.3L32.01 55.064L31.812 53.3L30.678 46.712H29.562L31.308 56H32.388L37.914 46.712H36.798L32.928 53.3ZM46.8726 51.5C47.0166 50.96 47.0886 50.456 47.0886 49.97C47.0886 48.89 46.7646 48.044 46.1346 47.432C45.5046 46.82 44.6406 46.496 43.5246 46.496C42.2646 46.496 41.2026 46.91 40.3026 47.738C39.4026 48.584 38.8086 49.7 38.5026 51.086C38.3946 51.626 38.3586 52.076 38.3586 52.418C38.3586 53.57 38.6826 54.506 39.3486 55.19C39.9966 55.892 40.8966 56.234 42.0486 56.234C43.0566 56.234 43.9386 55.964 44.7126 55.406C45.4686 54.848 46.0446 54.11 46.4226 53.192L45.4686 53.084C44.7126 54.596 43.5786 55.334 42.0666 55.334C41.2566 55.334 40.6086 55.082 40.1406 54.578C39.6546 54.074 39.4206 53.372 39.4206 52.508C39.4206 52.202 39.4566 51.86 39.5286 51.5H46.8726ZM43.5066 47.396C44.3166 47.396 44.9466 47.63 45.3966 48.098C45.8466 48.566 46.0806 49.196 46.0806 50.006C46.0806 50.222 46.0626 50.456 46.0266 50.708H39.6906C39.9786 49.664 40.4466 48.854 41.1306 48.278C41.7966 47.702 42.5886 47.396 43.5066 47.396ZM51.7403 47.522L54.0623 47.558L54.2423 46.712L51.9023 46.748L52.0103 46.208L52.4963 43.958H51.4163L50.9303 46.226L50.8223 46.748L49.2203 46.712L49.0403 47.558L50.6603 47.522L50.5523 48.044L49.3103 53.894C49.2383 54.236 49.2203 54.47 49.2203 54.614C49.2203 55.55 49.7783 56 50.9303 56H52.2443L52.4423 55.082H51.3083C50.6423 55.082 50.3183 54.848 50.3183 54.362C50.3183 54.182 50.3363 54.002 50.3903 53.858L51.6143 48.044L51.7403 47.522ZM58.1199 44.57L58.4259 43.184H57.3459L57.0399 44.57H58.1199ZM55.6899 56L57.6699 46.712H56.5899L54.6099 56H55.6899ZM62.504 56.234C63.602 56.234 64.538 55.946 65.312 55.334C66.068 54.74 66.626 53.912 66.968 52.832H65.942C65.312 54.488 64.214 55.316 62.63 55.316C61.856 55.316 61.244 55.064 60.794 54.56C60.344 54.056 60.128 53.354 60.128 52.454C60.128 52.058 60.164 51.68 60.254 51.32C60.47 50.096 60.92 49.124 61.604 48.44C62.288 47.756 63.116 47.396 64.124 47.396C64.916 47.396 65.51 47.612 65.924 48.026C66.32 48.44 66.536 48.98 66.536 49.664H67.562C67.562 48.692 67.274 47.918 66.698 47.342C66.122 46.766 65.276 46.478 64.196 46.478C62.9 46.478 61.82 46.91 60.938 47.738C60.038 48.566 59.462 49.736 59.174 51.212C59.084 51.608 59.048 52.022 59.048 52.49C59.048 53.66 59.372 54.578 60.02 55.226C60.668 55.91 61.496 56.234 62.504 56.234ZM77.0964 55.172C76.6644 55.172 76.3944 55.082 76.2684 54.884C76.1244 54.704 76.1064 54.362 76.2144 53.894L77.1684 49.412C77.2224 49.052 77.2584 48.782 77.2584 48.566C77.2584 47.918 76.9884 47.396 76.4484 47.018C75.9084 46.658 75.1164 46.46 74.1084 46.46C71.8404 46.46 70.4544 47.45 69.9504 49.412L71.0124 49.448C71.2104 48.728 71.5344 48.188 72.0024 47.864C72.4704 47.54 73.1184 47.36 73.9464 47.36C74.7924 47.36 75.4044 47.54 75.7644 47.864C76.1244 48.206 76.2504 48.71 76.1064 49.376C76.0344 49.718 75.8904 49.97 75.6924 50.15C75.4764 50.33 75.1524 50.438 74.7024 50.492L72.2724 50.816C71.1204 50.96 70.2384 51.302 69.6264 51.806C68.9964 52.328 68.6904 53.012 68.6904 53.84C68.6904 54.578 68.9244 55.154 69.4284 55.586C69.9324 56.018 70.6164 56.234 71.4804 56.234C73.1904 56.234 74.4324 55.586 75.2244 54.29C75.0804 55.442 75.5664 56 76.7004 56H77.2044L77.3664 55.172H77.0964ZM75.3864 52.778C75.0984 53.606 74.6664 54.254 74.0544 54.704C73.4424 55.154 72.7404 55.37 71.9124 55.37C71.2284 55.37 70.6884 55.226 70.3284 54.938C69.9684 54.65 69.7884 54.254 69.7884 53.75C69.7884 52.58 70.6164 51.878 72.3084 51.626L74.7384 51.284C75.1884 51.248 75.5304 51.122 75.7644 50.924L75.3864 52.778ZM93.5384 54.506L88.1924 43.184H87.1124L84.3764 56H85.4204L87.8144 44.696L93.1424 56H94.2584L96.9944 43.184H95.9684L93.5384 54.506ZM101.621 56.234C102.953 56.234 104.069 55.82 104.987 54.992C105.887 54.164 106.499 53.012 106.787 51.518C106.859 51.14 106.913 50.708 106.913 50.24C106.913 49.088 106.571 48.188 105.923 47.504C105.257 46.82 104.357 46.478 103.241 46.478C101.927 46.478 100.811 46.91 99.8928 47.738C98.9388 48.584 98.3268 49.718 98.0568 51.158C97.9668 51.554 97.9308 51.968 97.9308 52.436C97.9308 53.606 98.2548 54.524 98.9208 55.208C99.5868 55.892 100.487 56.234 101.621 56.234ZM101.693 55.316C100.865 55.316 100.199 55.064 99.7308 54.542C99.2628 54.038 99.0288 53.318 99.0288 52.4C99.0288 52.058 99.0648 51.68 99.1368 51.284C99.3708 50.096 99.8388 49.142 100.559 48.44C101.261 47.756 102.125 47.396 103.133 47.396C103.961 47.396 104.627 47.666 105.113 48.17C105.581 48.674 105.833 49.376 105.833 50.276C105.833 50.564 105.779 50.942 105.707 51.392C105.473 52.598 105.005 53.552 104.285 54.254C103.565 54.974 102.701 55.316 101.693 55.316ZM117.029 53.066L116.219 54.83L116.165 53.066L115.733 46.712H114.581L111.431 53.066L110.639 54.866L110.531 53.066L109.919 46.712H108.857L109.865 56H110.963L114.185 49.448L114.941 47.738L114.995 49.448L115.409 56H116.489L121.493 46.712H120.323L117.029 53.066ZM131.083 43.184H129.985L127.249 56H135.493L135.709 55.046H128.545L131.083 43.184ZM141.423 44.57L141.729 43.184H140.649L140.343 44.57H141.423ZM138.993 56L140.973 46.712H139.893L137.913 56H138.993ZM150.325 48.908C150.145 48.188 149.767 47.612 149.227 47.18C148.669 46.748 147.985 46.514 147.193 46.514C145.771 46.514 144.619 47.126 143.719 48.332C142.801 49.538 142.351 50.942 142.351 52.562C142.351 53.696 142.639 54.578 143.233 55.226C143.827 55.874 144.655 56.198 145.717 56.198C146.401 56.198 147.049 56.018 147.661 55.64C148.273 55.28 148.777 54.776 149.173 54.128L148.741 56.108C148.345 57.998 147.157 58.934 145.195 58.934C144.367 58.934 143.737 58.79 143.323 58.466C142.891 58.16 142.675 57.746 142.657 57.206L141.595 57.224C141.595 57.98 141.901 58.61 142.531 59.078C143.143 59.564 144.025 59.798 145.177 59.798C146.437 59.798 147.463 59.492 148.219 58.844C148.975 58.214 149.497 57.224 149.785 55.892L151.729 46.712H150.793L150.325 48.908ZM145.897 55.262C145.105 55.262 144.511 55.028 144.079 54.56C143.647 54.092 143.449 53.426 143.449 52.562C143.449 51.212 143.791 50.024 144.511 48.98C145.195 47.972 146.131 47.45 147.319 47.45C148.075 47.45 148.669 47.702 149.137 48.188C149.605 48.674 149.839 49.34 149.839 50.204C149.839 51.536 149.461 52.706 148.741 53.714C147.985 54.758 147.049 55.262 145.897 55.262ZM159.011 46.478C157.571 46.478 156.419 47.108 155.555 48.35L156.653 43.184H155.573L152.837 56H153.917L155.015 50.87C155.249 49.754 155.699 48.908 156.383 48.314C157.049 47.738 157.841 47.432 158.741 47.432C160.001 47.432 160.631 48.008 160.631 49.142C160.631 49.412 160.595 49.682 160.541 49.934L159.263 56H160.343L161.657 49.862C161.711 49.466 161.747 49.178 161.747 48.98C161.747 48.206 161.495 47.594 161.027 47.144C160.541 46.712 159.875 46.478 159.011 46.478ZM166.965 47.522L169.287 47.558L169.467 46.712L167.127 46.748L167.235 46.208L167.721 43.958H166.641L166.155 46.226L166.047 46.748L164.445 46.712L164.265 47.558L165.885 47.522L165.777 48.044L164.535 53.894C164.463 54.236 164.445 54.47 164.445 54.614C164.445 55.55 165.003 56 166.155 56H167.469L167.667 55.082H166.533C165.867 55.082 165.543 54.848 165.543 54.362C165.543 54.182 165.561 54.002 165.615 53.858L166.839 48.044L166.965 47.522ZM176.301 56L179.037 43.184H177.939L175.203 56H176.301ZM183.172 47.522L185.494 47.558L185.674 46.712L183.334 46.748L183.442 46.208L183.928 43.958H182.848L182.362 46.226L182.254 46.748L180.652 46.712L180.472 47.558L182.092 47.522L181.984 48.044L180.742 53.894C180.67 54.236 180.652 54.47 180.652 54.614C180.652 55.55 181.21 56 182.362 56H183.676L183.874 55.082H182.74C182.074 55.082 181.75 54.848 181.75 54.362C181.75 54.182 181.768 54.002 181.822 53.858L183.046 48.044L183.172 47.522ZM194.466 55.172C194.034 55.172 193.764 55.082 193.638 54.884C193.494 54.704 193.476 54.362 193.584 53.894L194.538 49.412C194.592 49.052 194.628 48.782 194.628 48.566C194.628 47.918 194.358 47.396 193.818 47.018C193.278 46.658 192.486 46.46 191.478 46.46C189.21 46.46 187.824 47.45 187.32 49.412L188.382 49.448C188.58 48.728 188.904 48.188 189.372 47.864C189.84 47.54 190.488 47.36 191.316 47.36C192.162 47.36 192.774 47.54 193.134 47.864C193.494 48.206 193.62 48.71 193.476 49.376C193.404 49.718 193.26 49.97 193.062 50.15C192.846 50.33 192.522 50.438 192.072 50.492L189.642 50.816C188.49 50.96 187.608 51.302 186.996 51.806C186.366 52.328 186.06 53.012 186.06 53.84C186.06 54.578 186.294 55.154 186.798 55.586C187.302 56.018 187.986 56.234 188.85 56.234C190.56 56.234 191.802 55.586 192.594 54.29C192.45 55.442 192.936 56 194.07 56H194.574L194.736 55.172H194.466ZM192.756 52.778C192.468 53.606 192.036 54.254 191.424 54.704C190.812 55.154 190.11 55.37 189.282 55.37C188.598 55.37 188.058 55.226 187.698 54.938C187.338 54.65 187.158 54.254 187.158 53.75C187.158 52.58 187.986 51.878 189.678 51.626L192.108 51.284C192.558 51.248 192.9 51.122 193.134 50.924L192.756 52.778ZM197.511 56L200.229 43.184H199.149L196.431 56H197.511ZM204.089 44.57L204.395 43.184H203.315L203.009 44.57H204.089ZM201.659 56L203.639 46.712H202.559L200.579 56H201.659ZM208.473 56.234C209.571 56.234 210.507 55.946 211.281 55.334C212.037 54.74 212.595 53.912 212.937 52.832H211.911C211.281 54.488 210.183 55.316 208.599 55.316C207.825 55.316 207.213 55.064 206.763 54.56C206.313 54.056 206.097 53.354 206.097 52.454C206.097 52.058 206.133 51.68 206.223 51.32C206.439 50.096 206.889 49.124 207.573 48.44C208.257 47.756 209.085 47.396 210.093 47.396C210.885 47.396 211.479 47.612 211.893 48.026C212.289 48.44 212.505 48.98 212.505 49.664H213.531C213.531 48.692 213.243 47.918 212.667 47.342C212.091 46.766 211.245 46.478 210.165 46.478C208.869 46.478 207.789 46.91 206.907 47.738C206.007 48.566 205.431 49.736 205.143 51.212C205.053 51.608 205.017 52.022 205.017 52.49C205.017 53.66 205.341 54.578 205.989 55.226C206.637 55.91 207.465 56.234 208.473 56.234Z" fill="white"/>
<path opacity="0.8" d="M10.692 141.458H3.906L5.04 136.184H3.366L0.63 149H2.304L3.6 142.916H10.386L9.09 149H10.764L13.5 136.184H11.826L10.692 141.458ZM22.881 144.752C23.025 144.158 23.097 143.6 23.097 143.078C23.097 141.962 22.773 141.08 22.125 140.45C21.477 139.82 20.577 139.496 19.389 139.496C18.093 139.496 17.013 139.928 16.131 140.756C15.213 141.602 14.619 142.718 14.331 144.104C14.223 144.626 14.187 145.058 14.187 145.418C14.187 146.57 14.511 147.506 15.195 148.19C15.861 148.892 16.797 149.234 18.021 149.234C18.993 149.234 19.875 148.982 20.667 148.442C21.441 147.902 22.053 147.164 22.485 146.192L21.009 146.012C20.325 147.272 19.353 147.884 18.075 147.884C17.373 147.884 16.815 147.686 16.419 147.272C16.005 146.858 15.807 146.3 15.807 145.58C15.807 145.256 15.825 144.986 15.879 144.752H22.881ZM19.371 140.846C20.055 140.846 20.595 141.044 20.991 141.44C21.369 141.836 21.567 142.394 21.567 143.132C21.567 143.366 21.549 143.51 21.549 143.564H16.149C16.419 142.682 16.833 142.016 17.391 141.548C17.949 141.08 18.615 140.846 19.371 140.846ZM25.9951 149L28.7131 136.184H27.0571L24.3391 149H25.9951ZM33.7116 145.076L32.4696 147.56L32.1996 145.076L31.4976 139.712H29.7696L31.3716 149H33.0096L38.3736 139.712H36.6636L33.7116 145.076ZM47.4376 144.752C47.5816 144.158 47.6536 143.6 47.6536 143.078C47.6536 141.962 47.3296 141.08 46.6816 140.45C46.0336 139.82 45.1336 139.496 43.9456 139.496C42.6496 139.496 41.5696 139.928 40.6876 140.756C39.7696 141.602 39.1756 142.718 38.8876 144.104C38.7796 144.626 38.7436 145.058 38.7436 145.418C38.7436 146.57 39.0676 147.506 39.7516 148.19C40.4176 148.892 41.3536 149.234 42.5776 149.234C43.5496 149.234 44.4316 148.982 45.2236 148.442C45.9976 147.902 46.6096 147.164 47.0416 146.192L45.5656 146.012C44.8816 147.272 43.9096 147.884 42.6316 147.884C41.9296 147.884 41.3716 147.686 40.9756 147.272C40.5616 146.858 40.3636 146.3 40.3636 145.58C40.3636 145.256 40.3816 144.986 40.4356 144.752H47.4376ZM43.9276 140.846C44.6116 140.846 45.1516 141.044 45.5476 141.44C45.9256 141.836 46.1236 142.394 46.1236 143.132C46.1236 143.366 46.1056 143.51 46.1056 143.564H40.7056C40.9756 142.682 41.3896 142.016 41.9476 141.548C42.5056 141.08 43.1716 140.846 43.9276 140.846ZM52.5762 140.918L54.6822 140.99L54.9522 139.712L52.8102 139.784L52.9902 138.938L53.4402 136.868H51.7842L51.3342 138.956L51.1722 139.766L49.7862 139.712L49.5162 140.99L50.9202 140.918L50.7582 141.71L49.6782 146.768C49.6062 147.11 49.5882 147.344 49.5882 147.488C49.5882 148.496 50.2002 149 51.4422 149H52.9542L53.2602 147.614H52.0542C51.5322 147.614 51.2802 147.452 51.2802 147.092C51.2802 146.984 51.2982 146.858 51.3342 146.714L52.3962 141.692L52.5762 140.918ZM59.2533 137.966L59.6313 136.184H57.9753L57.5973 137.966H59.2533ZM56.8953 149L58.8753 139.712H57.2193L55.2393 149H56.8953ZM63.5939 149.234C64.7459 149.234 65.7179 148.946 66.5279 148.334C67.3199 147.74 67.8959 146.876 68.2379 145.76H66.6719C66.0959 147.164 65.1419 147.848 63.8099 147.848C63.1619 147.848 62.6399 147.65 62.2799 147.236C61.9019 146.84 61.7219 146.246 61.7219 145.49C61.7219 145.166 61.7579 144.824 61.8299 144.428C62.0279 143.312 62.4239 142.448 63.0359 141.818C63.6299 141.188 64.3499 140.864 65.2139 140.864C65.8979 140.864 66.4019 141.026 66.7619 141.35C67.1039 141.674 67.2839 142.142 67.2839 142.754H68.8319C68.8319 141.728 68.5259 140.918 67.9319 140.342C67.3199 139.766 66.4559 139.478 65.3219 139.478C64.0259 139.478 62.9279 139.91 62.0099 140.738C61.0739 141.602 60.4619 142.772 60.1739 144.248C60.0839 144.662 60.0479 145.094 60.0479 145.526C60.0479 146.714 60.3719 147.614 61.0559 148.262C61.7219 148.91 62.5679 149.234 63.5939 149.234ZM78.4717 142.736C78.5437 142.358 78.5977 142.016 78.5977 141.692C78.5977 140.972 78.3097 140.432 77.7517 140.036C77.1937 139.64 76.4017 139.442 75.3757 139.442C73.0357 139.442 71.5957 140.432 71.0557 142.412L72.6757 142.466C72.8557 141.872 73.1437 141.44 73.5217 141.188C73.8997 140.936 74.4397 140.792 75.1417 140.792C75.8617 140.792 76.3657 140.954 76.6357 141.242C76.9057 141.548 76.9777 142.016 76.8337 142.664C76.7437 143.06 76.4737 143.294 76.0237 143.348L73.5757 143.654C72.3877 143.816 71.4517 144.158 70.8037 144.68C70.1557 145.22 69.8317 145.922 69.8317 146.786C69.8317 147.56 70.0837 148.154 70.5877 148.586C71.0917 149.018 71.7577 149.234 72.6037 149.234C74.1697 149.234 75.3397 148.712 76.0957 147.632C76.0777 148.1 76.2037 148.442 76.4557 148.658C76.7077 148.892 77.0857 149 77.5717 149H78.2557L78.5077 147.776H78.2377C77.9137 147.776 77.7157 147.722 77.6257 147.596C77.5177 147.488 77.4997 147.272 77.5717 146.966L78.4717 142.736ZM76.1497 145.868C75.9877 146.48 75.6457 146.966 75.1237 147.362C74.5837 147.758 73.9717 147.956 73.2877 147.956C72.7117 147.956 72.2797 147.848 71.9737 147.614C71.6497 147.398 71.5057 147.074 71.5057 146.642C71.5057 145.67 72.1897 145.094 73.5937 144.878L76.0957 144.518L76.4557 144.446L76.1497 145.868ZM94.1829 146.678L89.5209 136.184H87.8289L85.0929 149H86.6769L88.9089 138.56L93.5349 149H95.2809L98.0169 136.184H96.4329L94.1829 146.678ZM102.519 149.234C103.887 149.234 105.021 148.82 105.957 147.992C106.875 147.164 107.487 145.976 107.793 144.464C107.865 144.086 107.919 143.672 107.919 143.24C107.919 142.088 107.577 141.188 106.893 140.504C106.209 139.82 105.273 139.478 104.121 139.478C102.789 139.478 101.655 139.91 100.701 140.756C99.7286 141.62 99.0986 142.754 98.8286 144.176C98.7386 144.572 98.7026 144.986 98.7026 145.436C98.7026 146.606 99.0266 147.524 99.7106 148.208C100.395 148.892 101.331 149.234 102.519 149.234ZM102.645 147.848C101.925 147.848 101.367 147.632 100.971 147.2C100.575 146.768 100.377 146.156 100.377 145.382C100.377 145.058 100.413 144.716 100.485 144.356C100.683 143.276 101.097 142.43 101.709 141.8C102.321 141.188 103.077 140.864 103.941 140.864C104.679 140.864 105.255 141.08 105.651 141.512C106.047 141.944 106.245 142.538 106.245 143.294C106.245 143.6 106.209 143.924 106.137 144.284C105.921 145.382 105.507 146.246 104.895 146.894C104.265 147.542 103.509 147.848 102.645 147.848ZM118.229 145.076L117.257 147.254L117.239 145.076L117.059 139.712H115.259L112.775 145.076L111.821 147.29L111.731 145.076L111.317 139.712H109.697L110.651 149H112.361L114.899 143.456L115.853 141.26L115.871 143.456L116.033 149H117.689L122.693 139.712H120.911L118.229 145.076ZM129.659 136.184L129.335 137.642H133.619L131.207 149H132.881L135.293 137.642H139.577L139.901 136.184H129.659ZM145.576 144.752C145.72 144.158 145.792 143.6 145.792 143.078C145.792 141.962 145.468 141.08 144.82 140.45C144.172 139.82 143.272 139.496 142.084 139.496C140.788 139.496 139.708 139.928 138.826 140.756C137.908 141.602 137.314 142.718 137.026 144.104C136.918 144.626 136.882 145.058 136.882 145.418C136.882 146.57 137.206 147.506 137.89 148.19C138.556 148.892 139.492 149.234 140.716 149.234C141.688 149.234 142.57 148.982 143.362 148.442C144.136 147.902 144.748 147.164 145.18 146.192L143.704 146.012C143.02 147.272 142.048 147.884 140.77 147.884C140.068 147.884 139.51 147.686 139.114 147.272C138.7 146.858 138.502 146.3 138.502 145.58C138.502 145.256 138.52 144.986 138.574 144.752H145.576ZM142.066 140.846C142.75 140.846 143.29 141.044 143.686 141.44C144.064 141.836 144.262 142.394 144.262 143.132C144.262 143.366 144.244 143.51 144.244 143.564H138.844C139.114 142.682 139.528 142.016 140.086 141.548C140.644 141.08 141.31 140.846 142.066 140.846ZM153.784 139.712L150.94 142.934L149.284 139.712H147.466L149.95 144.014L145.036 149H147.16L150.58 145.22L152.434 149H154.288L151.57 144.158L155.818 139.712H153.784ZM160.312 140.918L162.419 140.99L162.689 139.712L160.547 139.784L160.727 138.938L161.177 136.868H159.521L159.071 138.956L158.909 139.766L157.523 139.712L157.253 140.99L158.657 140.918L158.495 141.71L157.415 146.768C157.343 147.11 157.325 147.344 157.325 147.488C157.325 148.496 157.937 149 159.179 149H160.691L160.997 147.614H159.791C159.269 147.614 159.017 147.452 159.017 147.092C159.017 146.984 159.035 146.858 159.071 146.714L160.133 141.692L160.312 140.918ZM169.753 149L172.489 136.184H170.815L168.079 149H169.753ZM176.871 140.918L178.977 140.99L179.247 139.712L177.105 139.784L177.285 138.938L177.735 136.868H176.079L175.629 138.956L175.467 139.766L174.081 139.712L173.811 140.99L175.215 140.918L175.053 141.71L173.973 146.768C173.901 147.11 173.883 147.344 173.883 147.488C173.883 148.496 174.495 149 175.737 149H177.249L177.555 147.614H176.349C175.827 147.614 175.575 147.452 175.575 147.092C175.575 146.984 175.593 146.858 175.629 146.714L176.691 141.692L176.871 140.918ZM188.282 142.736C188.354 142.358 188.408 142.016 188.408 141.692C188.408 140.972 188.12 140.432 187.562 140.036C187.004 139.64 186.212 139.442 185.186 139.442C182.846 139.442 181.406 140.432 180.866 142.412L182.486 142.466C182.666 141.872 182.954 141.44 183.332 141.188C183.71 140.936 184.25 140.792 184.952 140.792C185.672 140.792 186.176 140.954 186.446 141.242C186.716 141.548 186.788 142.016 186.644 142.664C186.554 143.06 186.284 143.294 185.834 143.348L183.386 143.654C182.198 143.816 181.262 144.158 180.614 144.68C179.966 145.22 179.642 145.922 179.642 146.786C179.642 147.56 179.894 148.154 180.398 148.586C180.902 149.018 181.568 149.234 182.414 149.234C183.98 149.234 185.15 148.712 185.906 147.632C185.888 148.1 186.014 148.442 186.266 148.658C186.518 148.892 186.896 149 187.382 149H188.066L188.318 147.776H188.048C187.724 147.776 187.526 147.722 187.436 147.596C187.328 147.488 187.31 147.272 187.382 146.966L188.282 142.736ZM185.96 145.868C185.798 146.48 185.456 146.966 184.934 147.362C184.394 147.758 183.782 147.956 183.098 147.956C182.522 147.956 182.09 147.848 181.784 147.614C181.46 147.398 181.316 147.074 181.316 146.642C181.316 145.67 182 145.094 183.404 144.878L185.906 144.518L186.266 144.446L185.96 145.868ZM191.546 149L194.264 136.184H192.608L189.89 149H191.546ZM198.367 137.966L198.745 136.184H197.089L196.711 137.966H198.367ZM196.009 149L197.989 139.712H196.333L194.353 149H196.009ZM202.707 149.234C203.859 149.234 204.831 148.946 205.641 148.334C206.433 147.74 207.009 146.876 207.351 145.76H205.785C205.209 147.164 204.255 147.848 202.923 147.848C202.275 147.848 201.753 147.65 201.393 147.236C201.015 146.84 200.835 146.246 200.835 145.49C200.835 145.166 200.871 144.824 200.943 144.428C201.141 143.312 201.537 142.448 202.149 141.818C202.743 141.188 203.463 140.864 204.327 140.864C205.011 140.864 205.515 141.026 205.875 141.35C206.217 141.674 206.397 142.142 206.397 142.754H207.945C207.945 141.728 207.639 140.918 207.045 140.342C206.433 139.766 205.569 139.478 204.435 139.478C203.139 139.478 202.041 139.91 201.123 140.738C200.187 141.602 199.575 142.772 199.287 144.248C199.197 144.662 199.161 145.094 199.161 145.526C199.161 146.714 199.485 147.614 200.169 148.262C200.835 148.91 201.681 149.234 202.707 149.234Z" fill="white"/>
<path d="M10.08 234.332H4.122L5.22 229.184H2.79L0.054 242H2.484L3.654 236.528H9.612L8.442 242H10.872L13.608 229.184H11.178L10.08 234.332ZM18.7352 232.496C17.4032 232.496 16.2512 232.91 15.2972 233.72C14.3252 234.548 13.7132 235.628 13.4252 236.996C13.0652 238.634 13.2632 239.912 13.9832 240.812C14.6672 241.748 15.7472 242.216 17.1872 242.216C19.5452 242.216 21.1292 241.19 21.9392 239.12H19.7432C19.2752 240.02 18.4832 240.452 17.3852 240.452C16.7012 240.452 16.1792 240.254 15.8372 239.858C15.4772 239.462 15.3512 238.85 15.4232 238.058H22.3352L22.4972 237.518C22.8392 236.042 22.6592 234.836 21.9752 233.9C21.2732 232.964 20.1932 232.496 18.7352 232.496ZM18.5372 234.26C19.1852 234.26 19.6892 234.458 20.0312 234.854C20.3552 235.25 20.4992 235.79 20.4452 236.474H15.7472C15.9992 235.754 16.3592 235.214 16.8452 234.836C17.3312 234.458 17.8892 234.26 18.5372 234.26ZM25.2761 242L28.0121 229.184H25.7441L23.0261 242H25.2761ZM33.7312 235.196C32.6152 237.284 31.8052 238.886 31.2652 239.966C31.1572 238.724 31.0132 237.23 30.8332 235.466L30.4552 232.712H28.0792L29.5372 242H32.1652L37.5832 232.712H35.1712L33.7312 235.196ZM42.2371 232.496C40.9051 232.496 39.7531 232.91 38.7991 233.72C37.8271 234.548 37.2151 235.628 36.9271 236.996C36.5671 238.634 36.7651 239.912 37.4851 240.812C38.1691 241.748 39.2491 242.216 40.6891 242.216C43.0471 242.216 44.6311 241.19 45.4411 239.12H43.2451C42.7771 240.02 41.9851 240.452 40.8871 240.452C40.2031 240.452 39.6811 240.254 39.3391 239.858C38.9791 239.462 38.8531 238.85 38.9251 238.058H45.8371L45.9991 237.518C46.3411 236.042 46.1611 234.836 45.4771 233.9C44.7751 232.964 43.6951 232.496 42.2371 232.496ZM42.0391 234.26C42.6871 234.26 43.1911 234.458 43.5331 234.854C43.8571 235.25 44.0011 235.79 43.9471 236.474H39.2491C39.5011 235.754 39.8611 235.214 40.3471 234.836C40.8331 234.458 41.3911 234.26 42.0391 234.26ZM52.4974 234.44L52.8574 232.712H51.0214L51.5974 230.012H49.3294L48.7534 232.712H47.3314L46.9534 234.44H48.3934L47.3854 239.174C47.1694 240.128 47.2774 240.848 47.7094 241.334C48.1234 241.82 48.8254 242.054 49.8334 242.054C50.1214 242.054 50.4634 242.036 50.8774 242L51.2554 240.254H50.4814C49.7614 240.254 49.4914 239.894 49.6534 239.156L50.6614 234.44H52.4974ZM56.6873 231.506L57.1373 229.382H54.9053L54.4733 231.506H56.6873ZM54.4733 242L56.4533 232.712H54.1853L52.2053 242H54.4733ZM60.711 242.216C61.935 242.216 62.979 241.91 63.807 241.262C64.635 240.632 65.229 239.732 65.553 238.544H63.285C62.889 239.732 62.097 240.326 60.909 240.326C60.189 240.326 59.685 240.074 59.361 239.534C59.037 239.012 58.983 238.238 59.199 237.23C59.379 236.294 59.721 235.592 60.189 235.106C60.657 234.638 61.251 234.386 61.953 234.386C62.493 234.386 62.907 234.53 63.213 234.818C63.519 235.106 63.681 235.52 63.699 236.06H66.021C66.075 234.98 65.769 234.116 65.085 233.468C64.401 232.82 63.465 232.496 62.241 232.496C60.837 232.496 59.667 232.91 58.767 233.702C57.831 234.53 57.237 235.574 56.967 236.852C56.607 238.544 56.787 239.858 57.507 240.794C58.191 241.748 59.271 242.216 60.711 242.216ZM72.0308 232.496C70.6988 232.496 69.6728 232.766 68.9348 233.288C68.1968 233.828 67.7108 234.62 67.4588 235.664H69.6908C69.8348 235.106 70.0688 234.728 70.3928 234.512C70.7168 234.296 71.2028 234.188 71.8868 234.188C72.4808 234.188 72.8948 234.296 73.1288 234.494C73.3628 234.71 73.4528 235.016 73.3808 235.43C73.3088 235.754 73.1468 235.97 72.9128 236.114C72.6788 236.258 72.3188 236.366 71.8508 236.402L70.3568 236.546C69.0788 236.672 68.1248 236.942 67.4948 237.374C66.8468 237.806 66.4508 238.4 66.3068 239.174C66.0908 240.128 66.2528 240.866 66.7928 241.406C67.3148 241.946 68.1068 242.216 69.1868 242.216C70.4468 242.216 71.4548 241.802 72.2468 240.974C72.1748 241.478 72.1928 241.82 72.2828 242H74.5508C74.3708 241.64 74.3708 241.064 74.5508 240.236L75.4868 235.88C75.7208 234.728 75.5588 233.882 75.0008 233.324C74.4428 232.784 73.4528 232.496 72.0308 232.496ZM69.8708 240.596C69.3668 240.596 68.9888 240.488 68.7728 240.254C68.5568 240.02 68.4848 239.696 68.5928 239.264C68.7368 238.544 69.3848 238.13 70.5368 237.986L71.6888 237.86C72.2288 237.806 72.6428 237.68 72.9488 237.464L72.7328 238.4C72.5528 239.102 72.2108 239.642 71.6708 240.02C71.1308 240.416 70.5188 240.596 69.8708 240.596ZM90.1547 232.532C89.7407 234.44 89.3267 236.564 88.8947 238.904C88.6067 238.004 88.1207 236.672 87.4007 234.89L85.0247 229.184H82.3967L79.6607 242H82.0007L82.7207 238.652C83.2247 236.222 83.6567 234.098 83.9807 232.298C84.3767 233.486 84.8627 234.818 85.4747 236.294L87.8327 242H90.4787L93.2147 229.184H90.8747L90.1547 232.532ZM97.1715 242.216C98.5035 242.216 99.6555 241.802 100.663 240.974C101.635 240.146 102.283 239.084 102.571 237.77C102.913 236.132 102.733 234.836 102.031 233.9C101.329 232.964 100.213 232.496 98.6655 232.496C97.3155 232.496 96.1455 232.91 95.1735 233.72C94.1835 234.53 93.5535 235.592 93.2655 236.924C92.9055 238.58 93.0855 239.876 93.7875 240.812C94.4895 241.748 95.6235 242.216 97.1715 242.216ZM97.3335 240.344C96.5775 240.344 96.0375 240.074 95.7135 239.534C95.3895 238.994 95.3175 238.22 95.5335 237.212C95.7135 236.348 96.0915 235.664 96.6315 235.142C97.1715 234.638 97.8015 234.368 98.5215 234.368C99.2775 234.368 99.8175 234.656 100.141 235.196C100.465 235.736 100.519 236.51 100.303 237.482C100.123 238.382 99.7635 239.084 99.2235 239.588C98.6835 240.092 98.0535 240.344 97.3335 240.344ZM114.052 236.186C113.26 237.734 112.738 238.832 112.45 239.48C112.414 239.03 112.36 237.932 112.252 236.168L111.964 232.712H109.804L108.04 236.168C107.878 236.492 107.356 237.572 106.456 239.426C106.42 239.102 106.402 238.76 106.402 238.4C106.294 236.996 106.24 236.258 106.24 236.186L105.934 232.712H103.576L104.656 242H107.032L109.012 238.184C109.444 237.32 109.894 236.384 110.362 235.358C110.398 236.33 110.47 237.266 110.578 238.184L110.92 242H113.314L118.336 232.712H115.852L114.052 236.186ZM124.149 229.184L121.431 242H126.507C130.647 242 133.149 240.038 133.995 236.114C134.427 234.062 134.175 232.406 133.257 231.11C132.321 229.832 130.863 229.184 128.847 229.184H124.149ZM131.547 235.79C130.971 238.544 129.369 239.912 126.741 239.912H124.311L126.129 231.272H128.559C129.783 231.272 130.647 231.686 131.187 232.478C131.709 233.288 131.835 234.386 131.547 235.79ZM138.654 231.506L139.104 229.382H136.872L136.44 231.506H138.654ZM136.44 242L138.42 232.712H136.152L134.172 242H136.44ZM142.174 242.252C144.712 242.252 146.17 241.406 146.53 239.696C146.71 238.814 146.584 238.112 146.17 237.608C145.756 237.104 145.018 236.744 143.956 236.546L142.858 236.384C142.318 236.294 141.94 236.15 141.724 235.952C141.508 235.754 141.454 235.484 141.526 235.124C141.652 234.458 142.264 234.116 143.38 234.116C144.01 234.116 144.46 234.242 144.73 234.476C144.982 234.71 145.072 235.106 145 235.646H147.142C147.25 234.638 147.016 233.846 146.44 233.306C145.846 232.766 144.892 232.496 143.578 232.496C142.39 232.496 141.418 232.712 140.698 233.144C139.978 233.576 139.528 234.188 139.366 234.98C138.97 236.708 139.78 237.752 141.796 238.094L142.804 238.256C143.416 238.382 143.848 238.544 144.064 238.742C144.28 238.958 144.334 239.246 144.262 239.624C144.118 240.308 143.47 240.632 142.354 240.632C141.634 240.632 141.148 240.524 140.86 240.272C140.572 240.038 140.446 239.624 140.5 239.048H138.286C138.142 240.164 138.376 240.974 139.024 241.478C139.672 242 140.716 242.252 142.174 242.252ZM154 232.496C152.938 232.496 152.02 232.874 151.246 233.612L151.426 232.712H149.248L146.512 245.528H148.78L149.77 240.866C150.292 241.766 151.174 242.216 152.416 242.216C153.658 242.216 154.72 241.802 155.602 240.956C156.466 240.128 157.042 239.048 157.33 237.698C157.654 236.132 157.51 234.872 156.898 233.918C156.268 232.982 155.296 232.496 154 232.496ZM155.062 237.428C154.864 238.364 154.522 239.084 154.018 239.606C153.514 240.128 152.902 240.38 152.182 240.38C151.372 240.38 150.796 240.128 150.472 239.588C150.148 239.048 150.094 238.292 150.31 237.284C150.742 235.34 151.732 234.368 153.298 234.368C154.054 234.368 154.576 234.638 154.9 235.16C155.224 235.682 155.278 236.438 155.062 237.428ZM160.1 242L162.836 229.184H160.568L157.85 242H160.1ZM167.814 232.496C166.482 232.496 165.456 232.766 164.718 233.288C163.98 233.828 163.494 234.62 163.242 235.664H165.474C165.618 235.106 165.852 234.728 166.176 234.512C166.5 234.296 166.986 234.188 167.67 234.188C168.264 234.188 168.678 234.296 168.912 234.494C169.146 234.71 169.236 235.016 169.164 235.43C169.092 235.754 168.93 235.97 168.696 236.114C168.462 236.258 168.102 236.366 167.634 236.402L166.14 236.546C164.862 236.672 163.908 236.942 163.278 237.374C162.63 237.806 162.234 238.4 162.09 239.174C161.874 240.128 162.036 240.866 162.576 241.406C163.098 241.946 163.89 242.216 164.97 242.216C166.23 242.216 167.238 241.802 168.03 240.974C167.958 241.478 167.976 241.82 168.066 242H170.334C170.154 241.64 170.154 241.064 170.334 240.236L171.27 235.88C171.504 234.728 171.342 233.882 170.784 233.324C170.226 232.784 169.236 232.496 167.814 232.496ZM165.654 240.596C165.15 240.596 164.772 240.488 164.556 240.254C164.34 240.02 164.268 239.696 164.376 239.264C164.52 238.544 165.168 238.13 166.32 237.986L167.472 237.86C168.012 237.806 168.426 237.68 168.732 237.464L168.516 238.4C168.336 239.102 167.994 239.642 167.454 240.02C166.914 240.416 166.302 240.596 165.654 240.596ZM177.872 235.052C176.774 237.176 175.91 238.904 175.298 240.218C175.28 240.182 175.154 238.454 174.902 235.034L174.65 232.712H172.238L173.318 240.254C173.426 241.136 173.444 241.802 173.336 242.27C173.228 242.702 173.012 243.044 172.706 243.314C172.382 243.584 171.986 243.71 171.518 243.71H170.636L170.258 245.492C170.546 245.528 170.87 245.546 171.248 245.546C172.4 245.546 173.318 245.348 173.966 244.952C174.614 244.556 175.226 243.836 175.838 242.756L181.544 232.712H179.15L177.872 235.052ZM186.949 242L189.685 229.184H187.255L184.519 242H186.949ZM195.39 234.44L195.75 232.712H193.914L194.49 230.012H192.222L191.646 232.712H190.224L189.846 234.44H191.286L190.278 239.174C190.062 240.128 190.17 240.848 190.602 241.334C191.016 241.82 191.718 242.054 192.726 242.054C193.014 242.054 193.356 242.036 193.77 242L194.148 240.254H193.374C192.654 240.254 192.384 239.894 192.546 239.156L193.554 234.44H195.39ZM200.966 232.496C199.634 232.496 198.608 232.766 197.87 233.288C197.132 233.828 196.646 234.62 196.394 235.664H198.626C198.77 235.106 199.004 234.728 199.328 234.512C199.652 234.296 200.138 234.188 200.822 234.188C201.416 234.188 201.83 234.296 202.064 234.494C202.298 234.71 202.388 235.016 202.316 235.43C202.244 235.754 202.082 235.97 201.848 236.114C201.614 236.258 201.254 236.366 200.786 236.402L199.292 236.546C198.014 236.672 197.06 236.942 196.43 237.374C195.782 237.806 195.386 238.4 195.242 239.174C195.026 240.128 195.188 240.866 195.728 241.406C196.25 241.946 197.042 242.216 198.122 242.216C199.382 242.216 200.39 241.802 201.182 240.974C201.11 241.478 201.128 241.82 201.218 242H203.486C203.306 241.64 203.306 241.064 203.486 240.236L204.422 235.88C204.656 234.728 204.494 233.882 203.936 233.324C203.378 232.784 202.388 232.496 200.966 232.496ZM198.806 240.596C198.302 240.596 197.924 240.488 197.708 240.254C197.492 240.02 197.42 239.696 197.528 239.264C197.672 238.544 198.32 238.13 199.472 237.986L200.624 237.86C201.164 237.806 201.578 237.68 201.884 237.464L201.668 238.4C201.488 239.102 201.146 239.642 200.606 240.02C200.066 240.416 199.454 240.596 198.806 240.596ZM206.999 242L209.735 229.184H207.467L204.749 242H206.999ZM213.308 231.506L213.758 229.382H211.526L211.094 231.506H213.308ZM211.094 242L213.074 232.712H210.806L208.826 242H211.094ZM217.332 242.216C218.556 242.216 219.6 241.91 220.428 241.262C221.256 240.632 221.85 239.732 222.174 238.544H219.906C219.51 239.732 218.718 240.326 217.53 240.326C216.81 240.326 216.306 240.074 215.982 239.534C215.658 239.012 215.604 238.238 215.82 237.23C216 236.294 216.342 235.592 216.81 235.106C217.278 234.638 217.872 234.386 218.574 234.386C219.114 234.386 219.528 234.53 219.834 234.818C220.14 235.106 220.302 235.52 220.32 236.06H222.642C222.696 234.98 222.39 234.116 221.706 233.468C221.022 232.82 220.086 232.496 218.862 232.496C217.458 232.496 216.288 232.91 215.388 233.702C214.452 234.53 213.858 235.574 213.588 236.852C213.228 238.544 213.408 239.858 214.128 240.794C214.812 241.748 215.892 242.216 217.332 242.216Z" fill="white"/>
</svg>
